%TF.GenerationSoftware,KiCad,Pcbnew,7.0.8*%
%TF.CreationDate,2023-11-11T14:20:26-08:00*%
%TF.ProjectId,LED Project,4c454420-5072-46f6-9a65-63742e6b6963,rev?*%
%TF.SameCoordinates,Original*%
%TF.FileFunction,Copper,L2,Bot*%
%TF.FilePolarity,Positive*%
%FSLAX46Y46*%
G04 Gerber Fmt 4.6, Leading zero omitted, Abs format (unit mm)*
G04 Created by KiCad (PCBNEW 7.0.8) date 2023-11-11 14:20:26*
%MOMM*%
%LPD*%
G01*
G04 APERTURE LIST*
%TA.AperFunction,ComponentPad*%
%ADD10R,1.600000X1.600000*%
%TD*%
%TA.AperFunction,ComponentPad*%
%ADD11O,1.600000X1.600000*%
%TD*%
%TA.AperFunction,ViaPad*%
%ADD12C,0.800000*%
%TD*%
%TA.AperFunction,Conductor*%
%ADD13C,0.250000*%
%TD*%
%TA.AperFunction,Conductor*%
%ADD14C,0.500000*%
%TD*%
G04 APERTURE END LIST*
D10*
%TO.P,U6,1,COM*%
%TO.N,PHASE*%
X201944500Y-132524500D03*
D11*
%TO.P,U6,2,N/C*%
%TO.N,unconnected-(U6-N{slash}C-Pad2)*%
X199404500Y-132524500D03*
%TO.P,U6,3,N/C*%
%TO.N,unconnected-(U6-N{slash}C-Pad3)*%
X196864500Y-132524500D03*
%TO.P,U6,4,N/C*%
%TO.N,unconnected-(U6-N{slash}C-Pad4)*%
X194324500Y-132524500D03*
%TO.P,U6,5,0E*%
%TO.N,SIG_E0*%
X191784500Y-132524500D03*
%TO.P,U6,6,0D*%
%TO.N,SIG_D0*%
X189244500Y-132524500D03*
%TO.P,U6,7,0C*%
%TO.N,SIG_C0*%
X186704500Y-132524500D03*
%TO.P,U6,8,DP1*%
%TO.N,PHASE*%
X184164500Y-132524500D03*
%TO.P,U6,9,1E*%
%TO.N,SIG_E1*%
X181624500Y-132524500D03*
%TO.P,U6,10,1D*%
%TO.N,SIG_D1*%
X179084500Y-132524500D03*
%TO.P,U6,11,1C*%
%TO.N,SIG_C1*%
X176544500Y-132524500D03*
%TO.P,U6,12,DP2*%
%TO.N,SIG_DP*%
X174004500Y-132524500D03*
%TO.P,U6,13,2E*%
%TO.N,SIG_E2*%
X171464500Y-132524500D03*
%TO.P,U6,14,2D*%
%TO.N,SIG_D2*%
X168924500Y-132524500D03*
%TO.P,U6,15,2C*%
%TO.N,SIG_C2*%
X166384500Y-132524500D03*
%TO.P,U6,16,DP3*%
%TO.N,PHASE*%
X163844500Y-132524500D03*
%TO.P,U6,17,3E*%
%TO.N,SIG_E3*%
X161304500Y-132524500D03*
%TO.P,U6,18,3D*%
%TO.N,SIG_D3*%
X158764500Y-132524500D03*
%TO.P,U6,19,3C*%
%TO.N,SIG_C3*%
X156224500Y-132524500D03*
%TO.P,U6,20,3B*%
%TO.N,SIG_B3*%
X153684500Y-132524500D03*
%TO.P,U6,21,3A*%
%TO.N,SIG_A3*%
X153684500Y-107886500D03*
%TO.P,U6,22,3F*%
%TO.N,SIG_F3*%
X156224500Y-107886500D03*
%TO.P,U6,23,3G*%
%TO.N,SIG_G3*%
X158764500Y-107886500D03*
%TO.P,U6,24,2B*%
%TO.N,SIG_B2*%
X161304500Y-107886500D03*
%TO.P,U6,25,2A*%
%TO.N,SIG_A2*%
X163844500Y-107886500D03*
%TO.P,U6,26,2F*%
%TO.N,SIG_F2*%
X166384500Y-107886500D03*
%TO.P,U6,27,2G*%
%TO.N,SIG_G2*%
X168924500Y-107886500D03*
%TO.P,U6,28,COL*%
%TO.N,SIG_COL*%
X171464500Y-107886500D03*
%TO.P,U6,29,1B*%
%TO.N,SIG_B1*%
X174004500Y-107886500D03*
%TO.P,U6,30,1A*%
%TO.N,SIG_A1*%
X176544500Y-107886500D03*
%TO.P,U6,31,1F*%
%TO.N,SIG_F1*%
X179084500Y-107886500D03*
%TO.P,U6,32,1G*%
%TO.N,SIG_G1*%
X181624500Y-107886500D03*
%TO.P,U6,33,N/C*%
%TO.N,unconnected-(U6-N{slash}C-Pad33)*%
X184164500Y-107886500D03*
%TO.P,U6,34,0B*%
%TO.N,SIG_B0*%
X186704500Y-107886500D03*
%TO.P,U6,35,0A*%
%TO.N,SIG_A0*%
X189244500Y-107886500D03*
%TO.P,U6,36,0F*%
%TO.N,SIG_F0*%
X191784500Y-107886500D03*
%TO.P,U6,37,0G*%
%TO.N,SIG_G0*%
X194324500Y-107886500D03*
%TO.P,U6,38,N/C*%
%TO.N,unconnected-(U6-N{slash}C-Pad38)*%
X196864500Y-107886500D03*
%TO.P,U6,39,N/C*%
%TO.N,unconnected-(U6-N{slash}C-Pad39)*%
X199404500Y-107886500D03*
%TO.P,U6,40,COM*%
%TO.N,PHASE*%
X201944500Y-107886500D03*
%TD*%
D12*
%TO.N,GND*%
X177546000Y-102362000D03*
X156210000Y-102362000D03*
X203708000Y-94742000D03*
X198374000Y-102362000D03*
X187960000Y-102362000D03*
X162306000Y-102362000D03*
X172974000Y-87630000D03*
X151638000Y-103632000D03*
X151638000Y-102362000D03*
X172974000Y-90678000D03*
X203708000Y-96012000D03*
X203708000Y-97282000D03*
%TO.N,PHASE*%
X177546000Y-101092000D03*
X162306000Y-101092000D03*
X198374000Y-101092000D03*
X156210000Y-101092000D03*
X170434000Y-90170000D03*
X187960000Y-101092000D03*
%TO.N,SIG_E1*%
X193294000Y-99822000D03*
%TO.N,SIG_D1*%
X193289701Y-101096299D03*
%TO.N,SIG_C1*%
X193289701Y-102357701D03*
%TO.N,SIG_E2*%
X182880000Y-99822000D03*
%TO.N,SIG_D2*%
X182880000Y-101092000D03*
%TO.N,SIG_C2*%
X182875701Y-102357701D03*
%TO.N,SIG_E3*%
X171450000Y-98552000D03*
%TO.N,SIG_D3*%
X171450000Y-99822000D03*
%TO.N,SIG_C3*%
X171450000Y-101092000D03*
%TO.N,SIG_B3*%
X171450000Y-102362000D03*
%TO.N,SIG_F2*%
X182880000Y-97282000D03*
%TO.N,DIG_SEL_0*%
X184150000Y-90170000D03*
X198374000Y-94742000D03*
%TO.N,DATA2*%
X187960000Y-96012000D03*
X177546000Y-96012000D03*
X164084000Y-90170000D03*
X198374000Y-96012000D03*
X162306000Y-96012000D03*
X156210000Y-96012000D03*
%TO.N,DATA1*%
X187960000Y-97282000D03*
X160909000Y-90170000D03*
X177546000Y-97282000D03*
X198374000Y-97282000D03*
X162306000Y-97282000D03*
X156210000Y-97282000D03*
%TO.N,DATA3*%
X162306000Y-98552000D03*
X156210000Y-98552000D03*
X167259000Y-90170000D03*
X177546000Y-98552000D03*
X198374000Y-98552000D03*
X187960000Y-98552000D03*
%TO.N,DATA0*%
X157734000Y-90170000D03*
X162306000Y-99822000D03*
X156210000Y-99822000D03*
X187960000Y-99822000D03*
X198374000Y-99822000D03*
X177546000Y-99822000D03*
%TO.N,DIG_SEL_1*%
X187325000Y-90170000D03*
X187960000Y-94742000D03*
%TO.N,DIG_SEL_2*%
X177546000Y-94742000D03*
X189611000Y-90170000D03*
%TO.N,DIG_SEL_3*%
X193675000Y-90170000D03*
X162306000Y-94742000D03*
%TO.N,MIS_SEL*%
X156210000Y-94742000D03*
X196850000Y-90170000D03*
%TD*%
D13*
%TO.N,PHASE*%
X185498000Y-133858000D02*
X184164500Y-132524500D01*
X201944500Y-132524500D02*
X200611000Y-133858000D01*
X200611000Y-133858000D02*
X185498000Y-133858000D01*
X165178000Y-133858000D02*
X163844500Y-132524500D01*
X182831000Y-133858000D02*
X165178000Y-133858000D01*
X184164500Y-132524500D02*
X182831000Y-133858000D01*
%TO.N,MIS_SEL*%
X195326000Y-90170000D02*
X196850000Y-90170000D01*
X180340000Y-92202000D02*
X185039000Y-87503000D01*
X185039000Y-87503000D02*
X192659000Y-87503000D01*
X178433604Y-92202000D02*
X180340000Y-92202000D01*
X192659000Y-87503000D02*
X195326000Y-90170000D01*
X177983604Y-92652000D02*
X178433604Y-92202000D01*
X158300000Y-92652000D02*
X177983604Y-92652000D01*
X156210000Y-94742000D02*
X158300000Y-92652000D01*
D14*
%TO.N,GND*%
X187071000Y-102362000D02*
X187960000Y-102362000D01*
X184150000Y-97028000D02*
X184150000Y-99441000D01*
X183554000Y-96432000D02*
X184150000Y-97028000D01*
X181952000Y-96432000D02*
X183554000Y-96432000D01*
X181356000Y-97028000D02*
X181952000Y-96432000D01*
X180340000Y-102362000D02*
X181356000Y-101346000D01*
X184150000Y-99441000D02*
X187071000Y-102362000D01*
X177546000Y-102362000D02*
X180340000Y-102362000D01*
X181356000Y-101346000D02*
X181356000Y-97028000D01*
D13*
%TO.N,SIG_F2*%
X166384500Y-101839500D02*
X166384500Y-107886500D01*
X170434000Y-97790000D02*
X166384500Y-101839500D01*
X172212000Y-97790000D02*
X170434000Y-97790000D01*
X182118000Y-102108000D02*
X179832000Y-104394000D01*
X175260000Y-100838000D02*
X172212000Y-97790000D01*
X182118000Y-99187000D02*
X182118000Y-102108000D01*
X179832000Y-104394000D02*
X177038000Y-104394000D01*
X177038000Y-104394000D02*
X175260000Y-102616000D01*
X182880000Y-98425000D02*
X182118000Y-99187000D01*
X175260000Y-102616000D02*
X175260000Y-100838000D01*
X182880000Y-97282000D02*
X182880000Y-98425000D01*
%TO.N,DIG_SEL_3*%
X163830000Y-93218000D02*
X162306000Y-94742000D01*
X178054000Y-93218000D02*
X163830000Y-93218000D01*
X180584695Y-92710000D02*
X178562000Y-92710000D01*
X185156695Y-88138000D02*
X180584695Y-92710000D01*
X191643000Y-88138000D02*
X185156695Y-88138000D01*
X193675000Y-90170000D02*
X191643000Y-88138000D01*
X178562000Y-92710000D02*
X178054000Y-93218000D01*
%TO.N,DIG_SEL_2*%
X179070000Y-93218000D02*
X177546000Y-94742000D01*
X182626000Y-93218000D02*
X179070000Y-93218000D01*
X186436000Y-89408000D02*
X182626000Y-93218000D01*
X188849000Y-89408000D02*
X186436000Y-89408000D01*
X189611000Y-90170000D02*
X188849000Y-89408000D01*
%TO.N,PHASE*%
X157607000Y-88773000D02*
X169037000Y-88773000D01*
X153416000Y-92964000D02*
X157607000Y-88773000D01*
X153416000Y-98298000D02*
X153416000Y-92964000D01*
X169037000Y-88773000D02*
X170434000Y-90170000D01*
X156210000Y-101092000D02*
X153416000Y-98298000D01*
%TO.N,DATA0*%
X157226000Y-90170000D02*
X157734000Y-90170000D01*
X153924000Y-93472000D02*
X157226000Y-90170000D01*
X153924000Y-97536000D02*
X153924000Y-93472000D01*
X156210000Y-99822000D02*
X153924000Y-97536000D01*
%TO.N,DATA3*%
X155702000Y-98552000D02*
X156210000Y-98552000D01*
X154432000Y-93726000D02*
X154432000Y-97282000D01*
X156972000Y-91186000D02*
X154432000Y-93726000D01*
X158623000Y-91186000D02*
X156972000Y-91186000D01*
X154432000Y-97282000D02*
X155702000Y-98552000D01*
X166370000Y-89281000D02*
X160528000Y-89281000D01*
X167259000Y-90170000D02*
X166370000Y-89281000D01*
X160528000Y-89281000D02*
X158623000Y-91186000D01*
%TO.N,DATA1*%
X155448000Y-97282000D02*
X156210000Y-97282000D01*
X154940000Y-93980000D02*
X154940000Y-96774000D01*
X157226000Y-91694000D02*
X154940000Y-93980000D01*
X160909000Y-90170000D02*
X159385000Y-91694000D01*
X159385000Y-91694000D02*
X157226000Y-91694000D01*
X154940000Y-96774000D02*
X155448000Y-97282000D01*
%TO.N,DATA2*%
X162052000Y-92202000D02*
X164084000Y-90170000D01*
X157480000Y-92202000D02*
X162052000Y-92202000D01*
X155448000Y-94234000D02*
X157480000Y-92202000D01*
X155448000Y-95250000D02*
X155448000Y-94234000D01*
X156210000Y-96012000D02*
X155448000Y-95250000D01*
X165862000Y-96012000D02*
X162306000Y-96012000D01*
X167894000Y-93980000D02*
X165862000Y-96012000D01*
X176784000Y-96012000D02*
X174752000Y-93980000D01*
X177546000Y-96012000D02*
X176784000Y-96012000D01*
X174752000Y-93980000D02*
X167894000Y-93980000D01*
%TO.N,DATA1*%
X174498000Y-94742000D02*
X177038000Y-97282000D01*
X168148000Y-94742000D02*
X174498000Y-94742000D01*
X177038000Y-97282000D02*
X177546000Y-97282000D01*
X165608000Y-97282000D02*
X168148000Y-94742000D01*
X162306000Y-97282000D02*
X165608000Y-97282000D01*
%TO.N,DATA3*%
X173736000Y-95504000D02*
X176784000Y-98552000D01*
X165354000Y-98552000D02*
X168402000Y-95504000D01*
X176784000Y-98552000D02*
X177546000Y-98552000D01*
X162306000Y-98552000D02*
X165354000Y-98552000D01*
X168402000Y-95504000D02*
X173736000Y-95504000D01*
%TO.N,DATA0*%
X165100000Y-99822000D02*
X162306000Y-99822000D01*
X168656000Y-96266000D02*
X165100000Y-99822000D01*
X176784000Y-99822000D02*
X173228000Y-96266000D01*
X173228000Y-96266000D02*
X168656000Y-96266000D01*
X177546000Y-99822000D02*
X176784000Y-99822000D01*
%TO.N,PHASE*%
X177038000Y-101092000D02*
X177546000Y-101092000D01*
X169164000Y-97028000D02*
X172974000Y-97028000D01*
X172974000Y-97028000D02*
X177038000Y-101092000D01*
X165100000Y-101092000D02*
X169164000Y-97028000D01*
%TO.N,SIG_D3*%
X173736000Y-102108000D02*
X171450000Y-99822000D01*
X175260000Y-105156000D02*
X173736000Y-103632000D01*
X173736000Y-103632000D02*
X173736000Y-102108000D01*
X175260000Y-116029000D02*
X175260000Y-105156000D01*
X158764500Y-132524500D02*
X175260000Y-116029000D01*
%TO.N,SIG_E3*%
X177800000Y-106426000D02*
X174498000Y-103124000D01*
X174498000Y-103124000D02*
X174498000Y-101600000D01*
X177800000Y-116029000D02*
X177800000Y-106426000D01*
X174498000Y-101600000D02*
X171450000Y-98552000D01*
X161304500Y-132524500D02*
X177800000Y-116029000D01*
%TO.N,DATA2*%
X179832000Y-93726000D02*
X177546000Y-96012000D01*
X185674000Y-93726000D02*
X179832000Y-93726000D01*
X187960000Y-96012000D02*
X185674000Y-93726000D01*
%TO.N,DATA1*%
X184912000Y-94234000D02*
X187960000Y-97282000D01*
X180594000Y-94234000D02*
X184912000Y-94234000D01*
X177546000Y-97282000D02*
X180594000Y-94234000D01*
%TO.N,DATA3*%
X187452000Y-98552000D02*
X187960000Y-98552000D01*
X186944000Y-97282000D02*
X186944000Y-98044000D01*
X184404000Y-94742000D02*
X186944000Y-97282000D01*
X179324000Y-97282000D02*
X179324000Y-96520000D01*
X179324000Y-96520000D02*
X181102000Y-94742000D01*
X178054000Y-98552000D02*
X179324000Y-97282000D01*
X181102000Y-94742000D02*
X184404000Y-94742000D01*
X186944000Y-98044000D02*
X187452000Y-98552000D01*
X177546000Y-98552000D02*
X178054000Y-98552000D01*
%TO.N,DATA0*%
X178054000Y-99822000D02*
X177546000Y-99822000D01*
X184150000Y-95250000D02*
X181356000Y-95250000D01*
X181356000Y-95250000D02*
X179832000Y-96774000D01*
X179832000Y-96774000D02*
X179832000Y-98044000D01*
X186436000Y-97536000D02*
X184150000Y-95250000D01*
X179832000Y-98044000D02*
X178054000Y-99822000D01*
X186436000Y-98806000D02*
X186436000Y-97536000D01*
X187452000Y-99822000D02*
X186436000Y-98806000D01*
X187960000Y-99822000D02*
X187452000Y-99822000D01*
%TO.N,PHASE*%
X187452000Y-101092000D02*
X187960000Y-101092000D01*
X185674000Y-99314000D02*
X187452000Y-101092000D01*
X181610000Y-95758000D02*
X183896000Y-95758000D01*
X183896000Y-95758000D02*
X185674000Y-97536000D01*
X180340000Y-97028000D02*
X181610000Y-95758000D01*
X180340000Y-98806000D02*
X180340000Y-97028000D01*
X178054000Y-101092000D02*
X180340000Y-98806000D01*
X177546000Y-101092000D02*
X178054000Y-101092000D01*
X185674000Y-97536000D02*
X185674000Y-99314000D01*
X201944500Y-107886500D02*
X201944500Y-132524500D01*
X162511000Y-133858000D02*
X163844500Y-132524500D01*
X152654000Y-133858000D02*
X162511000Y-133858000D01*
X152146000Y-133350000D02*
X152654000Y-133858000D01*
X152146000Y-131572000D02*
X152146000Y-133350000D01*
X165100000Y-118618000D02*
X152146000Y-131572000D01*
X165100000Y-101092000D02*
X165100000Y-118618000D01*
D14*
%TO.N,GND*%
X188722000Y-102362000D02*
X192278000Y-98806000D01*
X194310000Y-98806000D02*
X197866000Y-102362000D01*
X192278000Y-98806000D02*
X194310000Y-98806000D01*
X187960000Y-102362000D02*
X188722000Y-102362000D01*
X197866000Y-102362000D02*
X198374000Y-102362000D01*
D13*
%TO.N,PHASE*%
X188468000Y-101092000D02*
X191516000Y-98044000D01*
X162306000Y-101092000D02*
X165100000Y-101092000D01*
X191516000Y-98044000D02*
X194818000Y-98044000D01*
X197866000Y-101092000D02*
X198374000Y-101092000D01*
X187960000Y-101092000D02*
X188468000Y-101092000D01*
X194818000Y-98044000D02*
X197866000Y-101092000D01*
X156210000Y-101092000D02*
X162306000Y-101092000D01*
%TO.N,SIG_E1*%
X193040000Y-121109000D02*
X181624500Y-132524500D01*
X194818000Y-101600000D02*
X194818000Y-103124000D01*
X194818000Y-103124000D02*
X193040000Y-104902000D01*
X193040000Y-99822000D02*
X194818000Y-101600000D01*
X193040000Y-104902000D02*
X193040000Y-121109000D01*
%TO.N,SIG_D1*%
X194056000Y-101862598D02*
X194056000Y-102616000D01*
X190500000Y-121109000D02*
X179084500Y-132524500D01*
X194056000Y-102616000D02*
X190500000Y-106172000D01*
X193289701Y-101096299D02*
X194056000Y-101862598D01*
X190500000Y-106172000D02*
X190500000Y-121109000D01*
%TO.N,SIG_C1*%
X187960000Y-121109000D02*
X176544500Y-132524500D01*
X191774299Y-102357701D02*
X187960000Y-106172000D01*
X193289701Y-102357701D02*
X191774299Y-102357701D01*
X187960000Y-106172000D02*
X187960000Y-121109000D01*
%TO.N,SIG_E2*%
X184404000Y-101346000D02*
X184404000Y-105918000D01*
X185420000Y-106934000D02*
X185420000Y-118569000D01*
X184404000Y-105918000D02*
X185420000Y-106934000D01*
X185420000Y-118569000D02*
X171464500Y-132524500D01*
X182880000Y-99822000D02*
X184404000Y-101346000D01*
%TO.N,SIG_D2*%
X183642000Y-106172000D02*
X182880000Y-106934000D01*
X168924500Y-132573500D02*
X168924500Y-132524500D01*
X182880000Y-106934000D02*
X182880000Y-118618000D01*
X182880000Y-101092000D02*
X183642000Y-101854000D01*
X183642000Y-101854000D02*
X183642000Y-106172000D01*
X182880000Y-118618000D02*
X168924500Y-132573500D01*
%TO.N,SIG_C2*%
X182875701Y-102357701D02*
X182875701Y-102874299D01*
X180340000Y-105410000D02*
X180340000Y-118618000D01*
X182875701Y-102874299D02*
X180340000Y-105410000D01*
X166433500Y-132524500D02*
X166384500Y-132524500D01*
X180340000Y-118618000D02*
X166433500Y-132524500D01*
%TO.N,SIG_C3*%
X172720000Y-102362000D02*
X171450000Y-101092000D01*
X172720000Y-116029000D02*
X172720000Y-102362000D01*
X156224500Y-132524500D02*
X172720000Y-116029000D01*
%TO.N,SIG_B3*%
X171450000Y-102362000D02*
X167640000Y-106172000D01*
X167640000Y-106172000D02*
X167640000Y-118569000D01*
X167640000Y-118569000D02*
X153684500Y-132524500D01*
%TO.N,DIG_SEL_0*%
X185547000Y-88773000D02*
X190627000Y-88773000D01*
X196305000Y-90895000D02*
X198374000Y-92964000D01*
X192749000Y-90895000D02*
X196305000Y-90895000D01*
X184150000Y-90170000D02*
X185547000Y-88773000D01*
X198374000Y-92964000D02*
X198374000Y-94742000D01*
X190627000Y-88773000D02*
X192749000Y-90895000D01*
%TO.N,DATA2*%
X162306000Y-96012000D02*
X156210000Y-96012000D01*
X188722000Y-96012000D02*
X187960000Y-96012000D01*
X197866000Y-96012000D02*
X196850000Y-94996000D01*
X196850000Y-94996000D02*
X189738000Y-94996000D01*
X189738000Y-94996000D02*
X188722000Y-96012000D01*
X198374000Y-96012000D02*
X197866000Y-96012000D01*
%TO.N,DATA1*%
X187960000Y-97282000D02*
X188722000Y-97282000D01*
X188722000Y-97282000D02*
X190246000Y-95758000D01*
X197935000Y-97282000D02*
X198374000Y-97282000D01*
X196411000Y-95758000D02*
X197935000Y-97282000D01*
X156210000Y-97282000D02*
X162306000Y-97282000D01*
X190246000Y-95758000D02*
X196411000Y-95758000D01*
%TO.N,DATA3*%
X188468000Y-98552000D02*
X190500000Y-96520000D01*
X156210000Y-98552000D02*
X162306000Y-98552000D01*
X195834000Y-96520000D02*
X197866000Y-98552000D01*
X190500000Y-96520000D02*
X195834000Y-96520000D01*
X197866000Y-98552000D02*
X198374000Y-98552000D01*
X187960000Y-98552000D02*
X188468000Y-98552000D01*
%TO.N,DATA0*%
X191008000Y-97282000D02*
X188468000Y-99822000D01*
X198374000Y-99822000D02*
X197866000Y-99822000D01*
X195326000Y-97282000D02*
X191008000Y-97282000D01*
X197866000Y-99822000D02*
X195326000Y-97282000D01*
X162306000Y-99822000D02*
X156210000Y-99822000D01*
X188468000Y-99822000D02*
X187960000Y-99822000D01*
%TO.N,DIG_SEL_1*%
X187960000Y-90805000D02*
X187325000Y-90170000D01*
X187960000Y-94742000D02*
X187960000Y-90805000D01*
%TD*%
%TA.AperFunction,Conductor*%
%TO.N,GND*%
G36*
X205174539Y-84094185D02*
G01*
X205220294Y-84146989D01*
X205231500Y-84198500D01*
X205231500Y-104270000D01*
X205211815Y-104337039D01*
X205159011Y-104382794D01*
X205107500Y-104394000D01*
X195072000Y-104394000D01*
X194731952Y-104394000D01*
X194664913Y-104374315D01*
X194619158Y-104321511D01*
X194609214Y-104252353D01*
X194638239Y-104188797D01*
X194644271Y-104182319D01*
X195060923Y-103765666D01*
X195201786Y-103624802D01*
X195214048Y-103614980D01*
X195213865Y-103614759D01*
X195219867Y-103609792D01*
X195219877Y-103609786D01*
X195267241Y-103559348D01*
X195288120Y-103538470D01*
X195292373Y-103532986D01*
X195296150Y-103528563D01*
X195328062Y-103494582D01*
X195337714Y-103477023D01*
X195348389Y-103460772D01*
X195360674Y-103444936D01*
X195379186Y-103402152D01*
X195381742Y-103396935D01*
X195404197Y-103356092D01*
X195409180Y-103336680D01*
X195415477Y-103318291D01*
X195423438Y-103299895D01*
X195430729Y-103253853D01*
X195431908Y-103248162D01*
X195443500Y-103203019D01*
X195443500Y-103182983D01*
X195445027Y-103163582D01*
X195448160Y-103143804D01*
X195443775Y-103097415D01*
X195443500Y-103091577D01*
X195443500Y-101682742D01*
X195445224Y-101667122D01*
X195444939Y-101667095D01*
X195445673Y-101659333D01*
X195444325Y-101616414D01*
X195443500Y-101590170D01*
X195443500Y-101560650D01*
X195442631Y-101553779D01*
X195442173Y-101547952D01*
X195441962Y-101541226D01*
X195440710Y-101501373D01*
X195435119Y-101482130D01*
X195431173Y-101463078D01*
X195428664Y-101443208D01*
X195411504Y-101399867D01*
X195409624Y-101394379D01*
X195396618Y-101349610D01*
X195395889Y-101348378D01*
X195386423Y-101332371D01*
X195377861Y-101314894D01*
X195370487Y-101296270D01*
X195368798Y-101293945D01*
X195343079Y-101258545D01*
X195339888Y-101253686D01*
X195336155Y-101247374D01*
X195323975Y-101226777D01*
X195316172Y-101213583D01*
X195316165Y-101213574D01*
X195302006Y-101199415D01*
X195289368Y-101184619D01*
X195277594Y-101168413D01*
X195250352Y-101145877D01*
X195241688Y-101138709D01*
X195237376Y-101134786D01*
X194215139Y-100112548D01*
X194181654Y-100051225D01*
X194179499Y-100011905D01*
X194179671Y-100010263D01*
X194179674Y-100010256D01*
X194199460Y-99822000D01*
X194179674Y-99633744D01*
X194121179Y-99453716D01*
X194026533Y-99289784D01*
X193899871Y-99149112D01*
X193899870Y-99149111D01*
X193746734Y-99037851D01*
X193746729Y-99037848D01*
X193573807Y-98960857D01*
X193573802Y-98960855D01*
X193428001Y-98929865D01*
X193388646Y-98921500D01*
X193199354Y-98921500D01*
X193166897Y-98928398D01*
X193014197Y-98960855D01*
X193014192Y-98960857D01*
X192841270Y-99037848D01*
X192841265Y-99037851D01*
X192688129Y-99149111D01*
X192561466Y-99289785D01*
X192466821Y-99453715D01*
X192466818Y-99453722D01*
X192408327Y-99633740D01*
X192408326Y-99633744D01*
X192388540Y-99822000D01*
X192408326Y-100010256D01*
X192408327Y-100010259D01*
X192466818Y-100190277D01*
X192466821Y-100190284D01*
X192561467Y-100354216D01*
X192572832Y-100366838D01*
X192579092Y-100373791D01*
X192609321Y-100436783D01*
X192600695Y-100506118D01*
X192579093Y-100539732D01*
X192557167Y-100564084D01*
X192462522Y-100728014D01*
X192462519Y-100728021D01*
X192412885Y-100880780D01*
X192404027Y-100908043D01*
X192384241Y-101096299D01*
X192404027Y-101284555D01*
X192404028Y-101284558D01*
X192462519Y-101464576D01*
X192462522Y-101464583D01*
X192509644Y-101546201D01*
X192526117Y-101614102D01*
X192503264Y-101680128D01*
X192448343Y-101723319D01*
X192402257Y-101732201D01*
X191857036Y-101732201D01*
X191841419Y-101730477D01*
X191841392Y-101730763D01*
X191833630Y-101730028D01*
X191764502Y-101732201D01*
X191734949Y-101732201D01*
X191734228Y-101732291D01*
X191728056Y-101733070D01*
X191722244Y-101733527D01*
X191675671Y-101734991D01*
X191675668Y-101734992D01*
X191656425Y-101740582D01*
X191637382Y-101744526D01*
X191617503Y-101747037D01*
X191617502Y-101747038D01*
X191574177Y-101764191D01*
X191568651Y-101766083D01*
X191523907Y-101779084D01*
X191523903Y-101779086D01*
X191506664Y-101789281D01*
X191489197Y-101797838D01*
X191470568Y-101805213D01*
X191470566Y-101805214D01*
X191432863Y-101832607D01*
X191427981Y-101835813D01*
X191387879Y-101859529D01*
X191373707Y-101873701D01*
X191358922Y-101886329D01*
X191342711Y-101898108D01*
X191313008Y-101934011D01*
X191309075Y-101938332D01*
X189404267Y-103843142D01*
X188889728Y-104357681D01*
X188828405Y-104391166D01*
X188802047Y-104394000D01*
X185153500Y-104394000D01*
X185086461Y-104374315D01*
X185040706Y-104321511D01*
X185029500Y-104270000D01*
X185029500Y-101428737D01*
X185031224Y-101413123D01*
X185030938Y-101413096D01*
X185031672Y-101405333D01*
X185029500Y-101336202D01*
X185029500Y-101306651D01*
X185029500Y-101306650D01*
X185028629Y-101299759D01*
X185028172Y-101293945D01*
X185026709Y-101247374D01*
X185026709Y-101247372D01*
X185021120Y-101228137D01*
X185017174Y-101209084D01*
X185014664Y-101189208D01*
X184997501Y-101145859D01*
X184995614Y-101140346D01*
X184995138Y-101138709D01*
X184982617Y-101095610D01*
X184972421Y-101078369D01*
X184963860Y-101060893D01*
X184956486Y-101042269D01*
X184956486Y-101042267D01*
X184946474Y-101028488D01*
X184929083Y-101004550D01*
X184925900Y-100999705D01*
X184902170Y-100959579D01*
X184902165Y-100959573D01*
X184888005Y-100945413D01*
X184875370Y-100930620D01*
X184863593Y-100914412D01*
X184827693Y-100884713D01*
X184823381Y-100880790D01*
X183818960Y-99876369D01*
X183785475Y-99815046D01*
X183783323Y-99801668D01*
X183765674Y-99633744D01*
X183707179Y-99453716D01*
X183612533Y-99289784D01*
X183485871Y-99149112D01*
X183485870Y-99149111D01*
X183345362Y-99047026D01*
X183302696Y-98991696D01*
X183296717Y-98922083D01*
X183328143Y-98861519D01*
X183329390Y-98860200D01*
X183350116Y-98839474D01*
X183350116Y-98839473D01*
X183350120Y-98839470D01*
X183354373Y-98833986D01*
X183358150Y-98829563D01*
X183390062Y-98795582D01*
X183399714Y-98778023D01*
X183410389Y-98761772D01*
X183422674Y-98745936D01*
X183441186Y-98703152D01*
X183443742Y-98697935D01*
X183466197Y-98657092D01*
X183471180Y-98637680D01*
X183477477Y-98619291D01*
X183485438Y-98600895D01*
X183492729Y-98554853D01*
X183493908Y-98549162D01*
X183505500Y-98504019D01*
X183505500Y-98483983D01*
X183507027Y-98464582D01*
X183510160Y-98444804D01*
X183505775Y-98398415D01*
X183505500Y-98392577D01*
X183505500Y-97980687D01*
X183525185Y-97913648D01*
X183537350Y-97897715D01*
X183564424Y-97867646D01*
X183612533Y-97814216D01*
X183707179Y-97650284D01*
X183765674Y-97470256D01*
X183785460Y-97282000D01*
X183765674Y-97093744D01*
X183707179Y-96913716D01*
X183612533Y-96749784D01*
X183485871Y-96609112D01*
X183484090Y-96607818D01*
X183483309Y-96606805D01*
X183481042Y-96604764D01*
X183481415Y-96604349D01*
X183441424Y-96552490D01*
X183435444Y-96482876D01*
X183468050Y-96421081D01*
X183528888Y-96386723D01*
X183556975Y-96383500D01*
X183585548Y-96383500D01*
X183652587Y-96403185D01*
X183673229Y-96419819D01*
X185012181Y-97758771D01*
X185045666Y-97820094D01*
X185048500Y-97846452D01*
X185048500Y-99231255D01*
X185046775Y-99246872D01*
X185047061Y-99246899D01*
X185046326Y-99254665D01*
X185048500Y-99323814D01*
X185048500Y-99353343D01*
X185048501Y-99353360D01*
X185049368Y-99360231D01*
X185049826Y-99366050D01*
X185051290Y-99412624D01*
X185051291Y-99412627D01*
X185056880Y-99431867D01*
X185060824Y-99450911D01*
X185061179Y-99453715D01*
X185063336Y-99470791D01*
X185080490Y-99514119D01*
X185082382Y-99519647D01*
X185095381Y-99564388D01*
X185105580Y-99581634D01*
X185114138Y-99599103D01*
X185121514Y-99617732D01*
X185148898Y-99655423D01*
X185152106Y-99660307D01*
X185175827Y-99700416D01*
X185175833Y-99700424D01*
X185189990Y-99714580D01*
X185202628Y-99729376D01*
X185214405Y-99745586D01*
X185214406Y-99745587D01*
X185250309Y-99775288D01*
X185254620Y-99779210D01*
X186199125Y-100723715D01*
X186951194Y-101475784D01*
X186961019Y-101488048D01*
X186961240Y-101487866D01*
X186966210Y-101493873D01*
X186966213Y-101493876D01*
X186966214Y-101493877D01*
X187016651Y-101541241D01*
X187037530Y-101562120D01*
X187043001Y-101566364D01*
X187047442Y-101570156D01*
X187081418Y-101602062D01*
X187081422Y-101602064D01*
X187098973Y-101611713D01*
X187115231Y-101622392D01*
X187131064Y-101634674D01*
X187152686Y-101644030D01*
X187173837Y-101653183D01*
X187179081Y-101655752D01*
X187219908Y-101678197D01*
X187239312Y-101683179D01*
X187257706Y-101689476D01*
X187276105Y-101697438D01*
X187276106Y-101697438D01*
X187279621Y-101698959D01*
X187322524Y-101729788D01*
X187354128Y-101764887D01*
X187354135Y-101764893D01*
X187507265Y-101876148D01*
X187507270Y-101876151D01*
X187680192Y-101953142D01*
X187680197Y-101953144D01*
X187865354Y-101992500D01*
X187865355Y-101992500D01*
X188054644Y-101992500D01*
X188054646Y-101992500D01*
X188239803Y-101953144D01*
X188412730Y-101876151D01*
X188565871Y-101764888D01*
X188600832Y-101726058D01*
X188647336Y-101693738D01*
X188668117Y-101685510D01*
X188673647Y-101683617D01*
X188688581Y-101679278D01*
X188718390Y-101670618D01*
X188735629Y-101660422D01*
X188753103Y-101651862D01*
X188771727Y-101644488D01*
X188771727Y-101644487D01*
X188771732Y-101644486D01*
X188809449Y-101617082D01*
X188814305Y-101613892D01*
X188854420Y-101590170D01*
X188868589Y-101575999D01*
X188883379Y-101563368D01*
X188899587Y-101551594D01*
X188929299Y-101515676D01*
X188933212Y-101511376D01*
X191738772Y-98705819D01*
X191800095Y-98672334D01*
X191826453Y-98669500D01*
X194507548Y-98669500D01*
X194574587Y-98689185D01*
X194595229Y-98705819D01*
X197365197Y-101475788D01*
X197375022Y-101488051D01*
X197375243Y-101487869D01*
X197380214Y-101493878D01*
X197401043Y-101513437D01*
X197430635Y-101541226D01*
X197451529Y-101562120D01*
X197457011Y-101566373D01*
X197461443Y-101570157D01*
X197495418Y-101602062D01*
X197512974Y-101611713D01*
X197529233Y-101622393D01*
X197545064Y-101634673D01*
X197564737Y-101643186D01*
X197587833Y-101653182D01*
X197593077Y-101655750D01*
X197633908Y-101678197D01*
X197646523Y-101681435D01*
X197653305Y-101683177D01*
X197671712Y-101689478D01*
X197690104Y-101697438D01*
X197690107Y-101697438D01*
X197693623Y-101698960D01*
X197736524Y-101729788D01*
X197768128Y-101764887D01*
X197768135Y-101764893D01*
X197921265Y-101876148D01*
X197921270Y-101876151D01*
X198094192Y-101953142D01*
X198094197Y-101953144D01*
X198279354Y-101992500D01*
X198279355Y-101992500D01*
X198468644Y-101992500D01*
X198468646Y-101992500D01*
X198653803Y-101953144D01*
X198826730Y-101876151D01*
X198979871Y-101764888D01*
X199106533Y-101624216D01*
X199201179Y-101460284D01*
X199259674Y-101280256D01*
X199279460Y-101092000D01*
X199259674Y-100903744D01*
X199201179Y-100723716D01*
X199106533Y-100559784D01*
X199088693Y-100539971D01*
X199058464Y-100476981D01*
X199067089Y-100407646D01*
X199088694Y-100374028D01*
X199088907Y-100373791D01*
X199106533Y-100354216D01*
X199201179Y-100190284D01*
X199259674Y-100010256D01*
X199279460Y-99822000D01*
X199259674Y-99633744D01*
X199201179Y-99453716D01*
X199106533Y-99289784D01*
X199088693Y-99269971D01*
X199058464Y-99206981D01*
X199067089Y-99137646D01*
X199088694Y-99104028D01*
X199106533Y-99084216D01*
X199201179Y-98920284D01*
X199259674Y-98740256D01*
X199279460Y-98552000D01*
X199259674Y-98363744D01*
X199201179Y-98183716D01*
X199106533Y-98019784D01*
X199088693Y-97999971D01*
X199058464Y-97936981D01*
X199067089Y-97867646D01*
X199088694Y-97834028D01*
X199106533Y-97814216D01*
X199201179Y-97650284D01*
X199259674Y-97470256D01*
X199279460Y-97282000D01*
X199259674Y-97093744D01*
X199201179Y-96913716D01*
X199106533Y-96749784D01*
X199088693Y-96729971D01*
X199058464Y-96666981D01*
X199067089Y-96597646D01*
X199088694Y-96564028D01*
X199106533Y-96544216D01*
X199201179Y-96380284D01*
X199259674Y-96200256D01*
X199279460Y-96012000D01*
X199259674Y-95823744D01*
X199201179Y-95643716D01*
X199106533Y-95479784D01*
X199088693Y-95459971D01*
X199058464Y-95396981D01*
X199067089Y-95327646D01*
X199088694Y-95294028D01*
X199106533Y-95274216D01*
X199201179Y-95110284D01*
X199259674Y-94930256D01*
X199279460Y-94742000D01*
X199259674Y-94553744D01*
X199201179Y-94373716D01*
X199106533Y-94209784D01*
X199031350Y-94126284D01*
X199001120Y-94063292D01*
X198999500Y-94043312D01*
X198999500Y-93046742D01*
X199001224Y-93031122D01*
X199000939Y-93031096D01*
X199001671Y-93023340D01*
X199001673Y-93023333D01*
X198999500Y-92954185D01*
X198999500Y-92924650D01*
X198998631Y-92917772D01*
X198998172Y-92911943D01*
X198996709Y-92865372D01*
X198991122Y-92846144D01*
X198987174Y-92827084D01*
X198984663Y-92807204D01*
X198967512Y-92763887D01*
X198965619Y-92758358D01*
X198952618Y-92713609D01*
X198952616Y-92713606D01*
X198942423Y-92696371D01*
X198933861Y-92678894D01*
X198926487Y-92660270D01*
X198926486Y-92660268D01*
X198899079Y-92622545D01*
X198895888Y-92617686D01*
X198881536Y-92593418D01*
X198872170Y-92577580D01*
X198872168Y-92577578D01*
X198872165Y-92577574D01*
X198858006Y-92563415D01*
X198845368Y-92548619D01*
X198833594Y-92532413D01*
X198829028Y-92528636D01*
X198797688Y-92502709D01*
X198793376Y-92498786D01*
X197374121Y-91079531D01*
X197340636Y-91018208D01*
X197345620Y-90948516D01*
X197387492Y-90892583D01*
X197388828Y-90891597D01*
X197455871Y-90842888D01*
X197582533Y-90702216D01*
X197677179Y-90538284D01*
X197735674Y-90358256D01*
X197755460Y-90170000D01*
X197735674Y-89981744D01*
X197677179Y-89801716D01*
X197582533Y-89637784D01*
X197455871Y-89497112D01*
X197455870Y-89497111D01*
X197302734Y-89385851D01*
X197302729Y-89385848D01*
X197129807Y-89308857D01*
X197129802Y-89308855D01*
X196984001Y-89277865D01*
X196944646Y-89269500D01*
X196755354Y-89269500D01*
X196722897Y-89276398D01*
X196570197Y-89308855D01*
X196570192Y-89308857D01*
X196397270Y-89385848D01*
X196397265Y-89385851D01*
X196244130Y-89497110D01*
X196244126Y-89497114D01*
X196238400Y-89503474D01*
X196178913Y-89540121D01*
X196146252Y-89544500D01*
X195636452Y-89544500D01*
X195569413Y-89524815D01*
X195548771Y-89508181D01*
X194364363Y-88323773D01*
X193416591Y-87376000D01*
X200574341Y-87376000D01*
X200594936Y-87611403D01*
X200594938Y-87611413D01*
X200656094Y-87839655D01*
X200656096Y-87839659D01*
X200656097Y-87839663D01*
X200668105Y-87865413D01*
X200755964Y-88053828D01*
X200755965Y-88053830D01*
X200891505Y-88247402D01*
X201058597Y-88414494D01*
X201252169Y-88550034D01*
X201252171Y-88550035D01*
X201466337Y-88649903D01*
X201694592Y-88711063D01*
X201871034Y-88726500D01*
X201988966Y-88726500D01*
X202165408Y-88711063D01*
X202393663Y-88649903D01*
X202607829Y-88550035D01*
X202801401Y-88414495D01*
X202968495Y-88247401D01*
X203104035Y-88053830D01*
X203203903Y-87839663D01*
X203265063Y-87611408D01*
X203285659Y-87376000D01*
X203265063Y-87140592D01*
X203211802Y-86941818D01*
X203203905Y-86912344D01*
X203203904Y-86912343D01*
X203203903Y-86912337D01*
X203104035Y-86698171D01*
X203104034Y-86698169D01*
X202968494Y-86504597D01*
X202801402Y-86337505D01*
X202607830Y-86201965D01*
X202607828Y-86201964D01*
X202500746Y-86152031D01*
X202393663Y-86102097D01*
X202393659Y-86102096D01*
X202393655Y-86102094D01*
X202165413Y-86040938D01*
X202165403Y-86040936D01*
X201988966Y-86025500D01*
X201871034Y-86025500D01*
X201694596Y-86040936D01*
X201694586Y-86040938D01*
X201466344Y-86102094D01*
X201466335Y-86102098D01*
X201252171Y-86201964D01*
X201252169Y-86201965D01*
X201058597Y-86337505D01*
X200891506Y-86504597D01*
X200891501Y-86504604D01*
X200755967Y-86698165D01*
X200755965Y-86698169D01*
X200656098Y-86912335D01*
X200656094Y-86912344D01*
X200594938Y-87140586D01*
X200594936Y-87140596D01*
X200574341Y-87375999D01*
X200574341Y-87376000D01*
X193416591Y-87376000D01*
X193159803Y-87119212D01*
X193149980Y-87106950D01*
X193149759Y-87107134D01*
X193144786Y-87101123D01*
X193126159Y-87083631D01*
X193094364Y-87053773D01*
X193083919Y-87043328D01*
X193073475Y-87032883D01*
X193067986Y-87028625D01*
X193063561Y-87024847D01*
X193029582Y-86992938D01*
X193029580Y-86992936D01*
X193029577Y-86992935D01*
X193012029Y-86983288D01*
X192995763Y-86972604D01*
X192979933Y-86960325D01*
X192937168Y-86941818D01*
X192931922Y-86939248D01*
X192891093Y-86916803D01*
X192891092Y-86916802D01*
X192871693Y-86911822D01*
X192853281Y-86905518D01*
X192834898Y-86897562D01*
X192834892Y-86897560D01*
X192788874Y-86890272D01*
X192783152Y-86889087D01*
X192738021Y-86877500D01*
X192738019Y-86877500D01*
X192717984Y-86877500D01*
X192698586Y-86875973D01*
X192691162Y-86874797D01*
X192678805Y-86872840D01*
X192678804Y-86872840D01*
X192632416Y-86877225D01*
X192626578Y-86877500D01*
X185121743Y-86877500D01*
X185106122Y-86875775D01*
X185106095Y-86876061D01*
X185098333Y-86875326D01*
X185029172Y-86877500D01*
X184999649Y-86877500D01*
X184992778Y-86878367D01*
X184986959Y-86878825D01*
X184940374Y-86880289D01*
X184940368Y-86880290D01*
X184921126Y-86885880D01*
X184902087Y-86889823D01*
X184882217Y-86892334D01*
X184882203Y-86892337D01*
X184838883Y-86909488D01*
X184833358Y-86911380D01*
X184788613Y-86924380D01*
X184788610Y-86924381D01*
X184771366Y-86934579D01*
X184753905Y-86943133D01*
X184735274Y-86950510D01*
X184735262Y-86950517D01*
X184697570Y-86977902D01*
X184692687Y-86981109D01*
X184652580Y-87004829D01*
X184638414Y-87018995D01*
X184623624Y-87031627D01*
X184607414Y-87043404D01*
X184607411Y-87043407D01*
X184577710Y-87079309D01*
X184573777Y-87083631D01*
X180117228Y-91540181D01*
X180055905Y-91573666D01*
X180029547Y-91576500D01*
X178516342Y-91576500D01*
X178500725Y-91574776D01*
X178500698Y-91575062D01*
X178492936Y-91574327D01*
X178423808Y-91576500D01*
X178394254Y-91576500D01*
X178393533Y-91576590D01*
X178387361Y-91577369D01*
X178381549Y-91577826D01*
X178334977Y-91579290D01*
X178334976Y-91579290D01*
X178315733Y-91584881D01*
X178296683Y-91588825D01*
X178276815Y-91591334D01*
X178233488Y-91608488D01*
X178227962Y-91610379D01*
X178183218Y-91623379D01*
X178183214Y-91623381D01*
X178165970Y-91633579D01*
X178148509Y-91642133D01*
X178129878Y-91649510D01*
X178129866Y-91649517D01*
X178092174Y-91676902D01*
X178087291Y-91680109D01*
X178047184Y-91703829D01*
X178033018Y-91717995D01*
X178018228Y-91730627D01*
X178002018Y-91742404D01*
X178002015Y-91742407D01*
X177972314Y-91778309D01*
X177968381Y-91782631D01*
X177760832Y-91990181D01*
X177699509Y-92023666D01*
X177673151Y-92026500D01*
X163411452Y-92026500D01*
X163344413Y-92006815D01*
X163298658Y-91954011D01*
X163288714Y-91884853D01*
X163317739Y-91821297D01*
X163323771Y-91814819D01*
X163598406Y-91540185D01*
X164031772Y-91106819D01*
X164093095Y-91073334D01*
X164119453Y-91070500D01*
X164178644Y-91070500D01*
X164178646Y-91070500D01*
X164363803Y-91031144D01*
X164536730Y-90954151D01*
X164689871Y-90842888D01*
X164816533Y-90702216D01*
X164911179Y-90538284D01*
X164969674Y-90358256D01*
X164989460Y-90170000D01*
X164976160Y-90043459D01*
X164988730Y-89974732D01*
X165036462Y-89923708D01*
X165099481Y-89906500D01*
X166059548Y-89906500D01*
X166126587Y-89926185D01*
X166147229Y-89942819D01*
X166320038Y-90115629D01*
X166353523Y-90176952D01*
X166355678Y-90190348D01*
X166363968Y-90269227D01*
X166373326Y-90358256D01*
X166373327Y-90358259D01*
X166431818Y-90538277D01*
X166431820Y-90538282D01*
X166431821Y-90538284D01*
X166526467Y-90702216D01*
X166642139Y-90830682D01*
X166653129Y-90842888D01*
X166806265Y-90954148D01*
X166806270Y-90954151D01*
X166979192Y-91031142D01*
X166979197Y-91031144D01*
X167164354Y-91070500D01*
X167164355Y-91070500D01*
X167353644Y-91070500D01*
X167353646Y-91070500D01*
X167538803Y-91031144D01*
X167711730Y-90954151D01*
X167864871Y-90842888D01*
X167991533Y-90702216D01*
X168086179Y-90538284D01*
X168144674Y-90358256D01*
X168164460Y-90170000D01*
X168144674Y-89981744D01*
X168086179Y-89801716D01*
X167991533Y-89637784D01*
X167962438Y-89605471D01*
X167932209Y-89542481D01*
X167940834Y-89473146D01*
X167985576Y-89419480D01*
X168052228Y-89398522D01*
X168054589Y-89398500D01*
X168726548Y-89398500D01*
X168793587Y-89418185D01*
X168814229Y-89434819D01*
X169495038Y-90115629D01*
X169528523Y-90176952D01*
X169530678Y-90190348D01*
X169538968Y-90269227D01*
X169548326Y-90358256D01*
X169548327Y-90358259D01*
X169606818Y-90538277D01*
X169606820Y-90538282D01*
X169606821Y-90538284D01*
X169701467Y-90702216D01*
X169817139Y-90830682D01*
X169828129Y-90842888D01*
X169981265Y-90954148D01*
X169981270Y-90954151D01*
X170154192Y-91031142D01*
X170154197Y-91031144D01*
X170339354Y-91070500D01*
X170339355Y-91070500D01*
X170528644Y-91070500D01*
X170528646Y-91070500D01*
X170713803Y-91031144D01*
X170886730Y-90954151D01*
X171039871Y-90842888D01*
X171166533Y-90702216D01*
X171261179Y-90538284D01*
X171319674Y-90358256D01*
X171339460Y-90170000D01*
X171319674Y-89981744D01*
X171261179Y-89801716D01*
X171166533Y-89637784D01*
X171039871Y-89497112D01*
X171039870Y-89497111D01*
X170886734Y-89385851D01*
X170886729Y-89385848D01*
X170713807Y-89308857D01*
X170713802Y-89308855D01*
X170568001Y-89277865D01*
X170528646Y-89269500D01*
X170528645Y-89269500D01*
X170469453Y-89269500D01*
X170402414Y-89249815D01*
X170381772Y-89233181D01*
X169537803Y-88389212D01*
X169527980Y-88376950D01*
X169527759Y-88377134D01*
X169522786Y-88371123D01*
X169504159Y-88353631D01*
X169472364Y-88323773D01*
X169461919Y-88313328D01*
X169451475Y-88302883D01*
X169445986Y-88298625D01*
X169441561Y-88294847D01*
X169407582Y-88262938D01*
X169407580Y-88262936D01*
X169407577Y-88262935D01*
X169390029Y-88253288D01*
X169373763Y-88242604D01*
X169357933Y-88230325D01*
X169315168Y-88211818D01*
X169309922Y-88209248D01*
X169269093Y-88186803D01*
X169269092Y-88186802D01*
X169249693Y-88181822D01*
X169231281Y-88175518D01*
X169212898Y-88167562D01*
X169212892Y-88167560D01*
X169166874Y-88160272D01*
X169161152Y-88159087D01*
X169116021Y-88147500D01*
X169116019Y-88147500D01*
X169095984Y-88147500D01*
X169076586Y-88145973D01*
X169069162Y-88144797D01*
X169056805Y-88142840D01*
X169056804Y-88142840D01*
X169010416Y-88147225D01*
X169004578Y-88147500D01*
X157689738Y-88147500D01*
X157674121Y-88145776D01*
X157674094Y-88146062D01*
X157666332Y-88145327D01*
X157597204Y-88147500D01*
X157567650Y-88147500D01*
X157566929Y-88147590D01*
X157560757Y-88148369D01*
X157554945Y-88148826D01*
X157508373Y-88150290D01*
X157508372Y-88150290D01*
X157489129Y-88155881D01*
X157470079Y-88159825D01*
X157450211Y-88162334D01*
X157406884Y-88179488D01*
X157401358Y-88181379D01*
X157356614Y-88194379D01*
X157356610Y-88194381D01*
X157339366Y-88204579D01*
X157321905Y-88213133D01*
X157303274Y-88220510D01*
X157303262Y-88220517D01*
X157265570Y-88247902D01*
X157260687Y-88251109D01*
X157220580Y-88274829D01*
X157206414Y-88288995D01*
X157191624Y-88301627D01*
X157175414Y-88313404D01*
X157175411Y-88313407D01*
X157145710Y-88349309D01*
X157141777Y-88353631D01*
X153032208Y-92463199D01*
X153019951Y-92473020D01*
X153020134Y-92473241D01*
X153014123Y-92478213D01*
X152966772Y-92528636D01*
X152945889Y-92549519D01*
X152945877Y-92549532D01*
X152941621Y-92555017D01*
X152937837Y-92559447D01*
X152905937Y-92593418D01*
X152905936Y-92593420D01*
X152896284Y-92610976D01*
X152885610Y-92627226D01*
X152873329Y-92643061D01*
X152873324Y-92643068D01*
X152854815Y-92685838D01*
X152852245Y-92691084D01*
X152829803Y-92731906D01*
X152824822Y-92751307D01*
X152818521Y-92769710D01*
X152810562Y-92788102D01*
X152810561Y-92788105D01*
X152803271Y-92834127D01*
X152802087Y-92839846D01*
X152790501Y-92884972D01*
X152790500Y-92884982D01*
X152790500Y-92905016D01*
X152788973Y-92924415D01*
X152785840Y-92944194D01*
X152785840Y-92944195D01*
X152790225Y-92990583D01*
X152790500Y-92996421D01*
X152790500Y-98215255D01*
X152788775Y-98230872D01*
X152789061Y-98230899D01*
X152788326Y-98238665D01*
X152790500Y-98307814D01*
X152790500Y-98337343D01*
X152790501Y-98337360D01*
X152791368Y-98344231D01*
X152791826Y-98350050D01*
X152793290Y-98396624D01*
X152793291Y-98396627D01*
X152798880Y-98415867D01*
X152802824Y-98434911D01*
X152805336Y-98454792D01*
X152816893Y-98483983D01*
X152822490Y-98498119D01*
X152824382Y-98503647D01*
X152824489Y-98504017D01*
X152837382Y-98548390D01*
X152845965Y-98562904D01*
X152847580Y-98565634D01*
X152856138Y-98583103D01*
X152863514Y-98601732D01*
X152890898Y-98639423D01*
X152894106Y-98644307D01*
X152917827Y-98684416D01*
X152917833Y-98684424D01*
X152931990Y-98698580D01*
X152944628Y-98713376D01*
X152956405Y-98729586D01*
X152956406Y-98729587D01*
X152992309Y-98759288D01*
X152996620Y-98763210D01*
X154243666Y-100010256D01*
X155271038Y-101037628D01*
X155304523Y-101098951D01*
X155306678Y-101112347D01*
X155312571Y-101168411D01*
X155324326Y-101280256D01*
X155324327Y-101280259D01*
X155382818Y-101460277D01*
X155382821Y-101460284D01*
X155477467Y-101624216D01*
X155579185Y-101737185D01*
X155604129Y-101764888D01*
X155757265Y-101876148D01*
X155757270Y-101876151D01*
X155930192Y-101953142D01*
X155930197Y-101953144D01*
X156115354Y-101992500D01*
X156115355Y-101992500D01*
X156304644Y-101992500D01*
X156304646Y-101992500D01*
X156489803Y-101953144D01*
X156662730Y-101876151D01*
X156815871Y-101764888D01*
X156819839Y-101760481D01*
X156821600Y-101758526D01*
X156881087Y-101721879D01*
X156913748Y-101717500D01*
X161602252Y-101717500D01*
X161669291Y-101737185D01*
X161694400Y-101758526D01*
X161700126Y-101764885D01*
X161700130Y-101764889D01*
X161853265Y-101876148D01*
X161853270Y-101876151D01*
X162026192Y-101953142D01*
X162026197Y-101953144D01*
X162211354Y-101992500D01*
X162211355Y-101992500D01*
X162400644Y-101992500D01*
X162400646Y-101992500D01*
X162585803Y-101953144D01*
X162758730Y-101876151D01*
X162911871Y-101764888D01*
X162915839Y-101760481D01*
X162917600Y-101758526D01*
X162977087Y-101721879D01*
X163009748Y-101717500D01*
X164350500Y-101717500D01*
X164417539Y-101737185D01*
X164463294Y-101789989D01*
X164474500Y-101841500D01*
X164474500Y-104270000D01*
X164454815Y-104337039D01*
X164402011Y-104382794D01*
X164350500Y-104394000D01*
X149984500Y-104394000D01*
X149917461Y-104374315D01*
X149871706Y-104321511D01*
X149860500Y-104270000D01*
X149860500Y-87630000D01*
X151806341Y-87630000D01*
X151826936Y-87865403D01*
X151826938Y-87865413D01*
X151888094Y-88093655D01*
X151888096Y-88093659D01*
X151888097Y-88093663D01*
X151917110Y-88155881D01*
X151987964Y-88307828D01*
X151987965Y-88307830D01*
X152123505Y-88501402D01*
X152290597Y-88668494D01*
X152484169Y-88804034D01*
X152484171Y-88804035D01*
X152698337Y-88903903D01*
X152926592Y-88965063D01*
X153103034Y-88980500D01*
X153220966Y-88980500D01*
X153397408Y-88965063D01*
X153625663Y-88903903D01*
X153839829Y-88804035D01*
X154033401Y-88668495D01*
X154200495Y-88501401D01*
X154336035Y-88307830D01*
X154435903Y-88093663D01*
X154497063Y-87865408D01*
X154517659Y-87630000D01*
X154497063Y-87394592D01*
X154435903Y-87166337D01*
X154336035Y-86952171D01*
X154336034Y-86952169D01*
X154200494Y-86758597D01*
X154033402Y-86591505D01*
X153839830Y-86455965D01*
X153839828Y-86455964D01*
X153732746Y-86406031D01*
X153625663Y-86356097D01*
X153625659Y-86356096D01*
X153625655Y-86356094D01*
X153397413Y-86294938D01*
X153397403Y-86294936D01*
X153220966Y-86279500D01*
X153103034Y-86279500D01*
X152926596Y-86294936D01*
X152926586Y-86294938D01*
X152698344Y-86356094D01*
X152698335Y-86356098D01*
X152484171Y-86455964D01*
X152484169Y-86455965D01*
X152290597Y-86591505D01*
X152123506Y-86758597D01*
X152123501Y-86758604D01*
X151987967Y-86952165D01*
X151987965Y-86952169D01*
X151888098Y-87166335D01*
X151888094Y-87166344D01*
X151826938Y-87394586D01*
X151826936Y-87394596D01*
X151806341Y-87629999D01*
X151806341Y-87630000D01*
X149860500Y-87630000D01*
X149860500Y-84198500D01*
X149880185Y-84131461D01*
X149932989Y-84085706D01*
X149984500Y-84074500D01*
X205107500Y-84074500D01*
X205174539Y-84094185D01*
G37*
%TD.AperFunction*%
%TA.AperFunction,Conductor*%
G36*
X182270064Y-96403185D02*
G01*
X182315819Y-96455989D01*
X182325763Y-96525147D01*
X182296738Y-96588703D01*
X182275909Y-96607819D01*
X182274128Y-96609112D01*
X182147466Y-96749785D01*
X182052821Y-96913715D01*
X182052818Y-96913722D01*
X181994327Y-97093740D01*
X181994326Y-97093744D01*
X181974540Y-97282000D01*
X181994326Y-97470256D01*
X181994327Y-97470259D01*
X182052818Y-97650277D01*
X182052821Y-97650284D01*
X182147467Y-97814216D01*
X182152760Y-97820094D01*
X182222650Y-97897715D01*
X182252880Y-97960706D01*
X182254500Y-97980687D01*
X182254500Y-98114546D01*
X182234815Y-98181585D01*
X182218181Y-98202227D01*
X181734208Y-98686199D01*
X181721951Y-98696020D01*
X181722134Y-98696241D01*
X181716123Y-98701213D01*
X181668772Y-98751636D01*
X181647889Y-98772519D01*
X181647877Y-98772532D01*
X181643621Y-98778017D01*
X181639837Y-98782447D01*
X181607937Y-98816418D01*
X181607936Y-98816420D01*
X181598284Y-98833976D01*
X181587610Y-98850226D01*
X181575329Y-98866061D01*
X181575324Y-98866068D01*
X181556815Y-98908838D01*
X181554245Y-98914084D01*
X181531803Y-98954906D01*
X181526822Y-98974307D01*
X181520521Y-98992710D01*
X181512562Y-99011102D01*
X181512561Y-99011105D01*
X181505271Y-99057127D01*
X181504087Y-99062846D01*
X181492501Y-99107972D01*
X181492500Y-99107982D01*
X181492500Y-99128016D01*
X181490973Y-99147415D01*
X181487840Y-99167194D01*
X181487840Y-99167195D01*
X181492225Y-99213583D01*
X181492500Y-99219421D01*
X181492500Y-101797547D01*
X181472815Y-101864586D01*
X181456181Y-101885228D01*
X179609228Y-103732181D01*
X179547905Y-103765666D01*
X179521547Y-103768500D01*
X177348452Y-103768500D01*
X177281413Y-103748815D01*
X177260771Y-103732181D01*
X175921819Y-102393228D01*
X175888334Y-102331905D01*
X175885500Y-102305547D01*
X175885500Y-101123452D01*
X175905185Y-101056413D01*
X175957989Y-101010658D01*
X176027147Y-101000714D01*
X176090703Y-101029739D01*
X176097176Y-101035766D01*
X176317612Y-101256203D01*
X176537197Y-101475788D01*
X176547022Y-101488051D01*
X176547243Y-101487869D01*
X176552214Y-101493878D01*
X176573043Y-101513437D01*
X176602635Y-101541226D01*
X176623529Y-101562120D01*
X176629011Y-101566373D01*
X176633443Y-101570157D01*
X176667418Y-101602062D01*
X176684974Y-101611713D01*
X176701233Y-101622393D01*
X176717064Y-101634673D01*
X176736737Y-101643186D01*
X176759833Y-101653182D01*
X176765077Y-101655750D01*
X176805908Y-101678197D01*
X176818523Y-101681435D01*
X176825305Y-101683177D01*
X176843712Y-101689478D01*
X176862104Y-101697438D01*
X176862107Y-101697438D01*
X176865623Y-101698960D01*
X176908524Y-101729788D01*
X176940128Y-101764887D01*
X176940135Y-101764893D01*
X177093265Y-101876148D01*
X177093270Y-101876151D01*
X177266192Y-101953142D01*
X177266197Y-101953144D01*
X177451354Y-101992500D01*
X177451355Y-101992500D01*
X177640644Y-101992500D01*
X177640646Y-101992500D01*
X177825803Y-101953144D01*
X177998730Y-101876151D01*
X178151871Y-101764888D01*
X178186832Y-101726058D01*
X178233336Y-101693738D01*
X178254117Y-101685510D01*
X178259647Y-101683617D01*
X178274581Y-101679278D01*
X178304390Y-101670618D01*
X178321629Y-101660422D01*
X178339103Y-101651862D01*
X178357727Y-101644488D01*
X178357727Y-101644487D01*
X178357732Y-101644486D01*
X178395449Y-101617082D01*
X178400305Y-101613892D01*
X178440420Y-101590170D01*
X178454589Y-101575999D01*
X178469379Y-101563368D01*
X178485587Y-101551594D01*
X178515299Y-101515676D01*
X178519212Y-101511376D01*
X180723788Y-99306801D01*
X180736042Y-99296986D01*
X180735859Y-99296764D01*
X180741866Y-99291792D01*
X180741877Y-99291786D01*
X180776736Y-99254665D01*
X180789227Y-99241364D01*
X180799671Y-99230918D01*
X180810120Y-99220471D01*
X180814379Y-99214978D01*
X180818152Y-99210561D01*
X180850062Y-99176582D01*
X180859713Y-99159024D01*
X180870396Y-99142761D01*
X180882673Y-99126936D01*
X180901185Y-99084153D01*
X180903738Y-99078941D01*
X180926197Y-99038092D01*
X180931180Y-99018680D01*
X180937481Y-99000280D01*
X180945437Y-98981896D01*
X180952729Y-98935852D01*
X180953906Y-98930171D01*
X180965500Y-98885019D01*
X180965500Y-98864983D01*
X180967027Y-98845582D01*
X180970160Y-98825804D01*
X180965775Y-98779415D01*
X180965500Y-98773577D01*
X180965500Y-97338452D01*
X180985185Y-97271413D01*
X181001819Y-97250771D01*
X181832772Y-96419819D01*
X181894095Y-96386334D01*
X181920453Y-96383500D01*
X182203025Y-96383500D01*
X182270064Y-96403185D01*
G37*
%TD.AperFunction*%
%TD*%
M02*
