%TF.GenerationSoftware,KiCad,Pcbnew,7.0.8*%
%TF.CreationDate,2023-11-11T14:20:26-08:00*%
%TF.ProjectId,LED Project,4c454420-5072-46f6-9a65-63742e6b6963,rev?*%
%TF.SameCoordinates,Original*%
%TF.FileFunction,Copper,L1,Top*%
%TF.FilePolarity,Positive*%
%FSLAX46Y46*%
G04 Gerber Fmt 4.6, Leading zero omitted, Abs format (unit mm)*
G04 Created by KiCad (PCBNEW 7.0.8) date 2023-11-11 14:20:26*
%MOMM*%
%LPD*%
G01*
G04 APERTURE LIST*
G04 Aperture macros list*
%AMRoundRect*
0 Rectangle with rounded corners*
0 $1 Rounding radius*
0 $2 $3 $4 $5 $6 $7 $8 $9 X,Y pos of 4 corners*
0 Add a 4 corners polygon primitive as box body*
4,1,4,$2,$3,$4,$5,$6,$7,$8,$9,$2,$3,0*
0 Add four circle primitives for the rounded corners*
1,1,$1+$1,$2,$3*
1,1,$1+$1,$4,$5*
1,1,$1+$1,$6,$7*
1,1,$1+$1,$8,$9*
0 Add four rect primitives between the rounded corners*
20,1,$1+$1,$2,$3,$4,$5,0*
20,1,$1+$1,$4,$5,$6,$7,0*
20,1,$1+$1,$6,$7,$8,$9,0*
20,1,$1+$1,$8,$9,$2,$3,0*%
G04 Aperture macros list end*
%TA.AperFunction,ComponentPad*%
%ADD10R,1.600000X1.600000*%
%TD*%
%TA.AperFunction,ComponentPad*%
%ADD11O,1.600000X1.600000*%
%TD*%
%TA.AperFunction,SMDPad,CuDef*%
%ADD12RoundRect,0.225000X-0.250000X0.225000X-0.250000X-0.225000X0.250000X-0.225000X0.250000X0.225000X0*%
%TD*%
%TA.AperFunction,SMDPad,CuDef*%
%ADD13RoundRect,0.150000X-0.825000X-0.150000X0.825000X-0.150000X0.825000X0.150000X-0.825000X0.150000X0*%
%TD*%
%TA.AperFunction,SMDPad,CuDef*%
%ADD14R,1.524000X2.540000*%
%TD*%
%TA.AperFunction,ViaPad*%
%ADD15C,0.800000*%
%TD*%
%TA.AperFunction,Conductor*%
%ADD16C,0.250000*%
%TD*%
%TA.AperFunction,Conductor*%
%ADD17C,0.500000*%
%TD*%
G04 APERTURE END LIST*
D10*
%TO.P,U6,1,COM*%
%TO.N,PHASE*%
X201944500Y-132524500D03*
D11*
%TO.P,U6,2,N/C*%
%TO.N,unconnected-(U6-N{slash}C-Pad2)*%
X199404500Y-132524500D03*
%TO.P,U6,3,N/C*%
%TO.N,unconnected-(U6-N{slash}C-Pad3)*%
X196864500Y-132524500D03*
%TO.P,U6,4,N/C*%
%TO.N,unconnected-(U6-N{slash}C-Pad4)*%
X194324500Y-132524500D03*
%TO.P,U6,5,0E*%
%TO.N,SIG_E0*%
X191784500Y-132524500D03*
%TO.P,U6,6,0D*%
%TO.N,SIG_D0*%
X189244500Y-132524500D03*
%TO.P,U6,7,0C*%
%TO.N,SIG_C0*%
X186704500Y-132524500D03*
%TO.P,U6,8,DP1*%
%TO.N,PHASE*%
X184164500Y-132524500D03*
%TO.P,U6,9,1E*%
%TO.N,SIG_E1*%
X181624500Y-132524500D03*
%TO.P,U6,10,1D*%
%TO.N,SIG_D1*%
X179084500Y-132524500D03*
%TO.P,U6,11,1C*%
%TO.N,SIG_C1*%
X176544500Y-132524500D03*
%TO.P,U6,12,DP2*%
%TO.N,SIG_DP*%
X174004500Y-132524500D03*
%TO.P,U6,13,2E*%
%TO.N,SIG_E2*%
X171464500Y-132524500D03*
%TO.P,U6,14,2D*%
%TO.N,SIG_D2*%
X168924500Y-132524500D03*
%TO.P,U6,15,2C*%
%TO.N,SIG_C2*%
X166384500Y-132524500D03*
%TO.P,U6,16,DP3*%
%TO.N,PHASE*%
X163844500Y-132524500D03*
%TO.P,U6,17,3E*%
%TO.N,SIG_E3*%
X161304500Y-132524500D03*
%TO.P,U6,18,3D*%
%TO.N,SIG_D3*%
X158764500Y-132524500D03*
%TO.P,U6,19,3C*%
%TO.N,SIG_C3*%
X156224500Y-132524500D03*
%TO.P,U6,20,3B*%
%TO.N,SIG_B3*%
X153684500Y-132524500D03*
%TO.P,U6,21,3A*%
%TO.N,SIG_A3*%
X153684500Y-107886500D03*
%TO.P,U6,22,3F*%
%TO.N,SIG_F3*%
X156224500Y-107886500D03*
%TO.P,U6,23,3G*%
%TO.N,SIG_G3*%
X158764500Y-107886500D03*
%TO.P,U6,24,2B*%
%TO.N,SIG_B2*%
X161304500Y-107886500D03*
%TO.P,U6,25,2A*%
%TO.N,SIG_A2*%
X163844500Y-107886500D03*
%TO.P,U6,26,2F*%
%TO.N,SIG_F2*%
X166384500Y-107886500D03*
%TO.P,U6,27,2G*%
%TO.N,SIG_G2*%
X168924500Y-107886500D03*
%TO.P,U6,28,COL*%
%TO.N,SIG_COL*%
X171464500Y-107886500D03*
%TO.P,U6,29,1B*%
%TO.N,SIG_B1*%
X174004500Y-107886500D03*
%TO.P,U6,30,1A*%
%TO.N,SIG_A1*%
X176544500Y-107886500D03*
%TO.P,U6,31,1F*%
%TO.N,SIG_F1*%
X179084500Y-107886500D03*
%TO.P,U6,32,1G*%
%TO.N,SIG_G1*%
X181624500Y-107886500D03*
%TO.P,U6,33,N/C*%
%TO.N,unconnected-(U6-N{slash}C-Pad33)*%
X184164500Y-107886500D03*
%TO.P,U6,34,0B*%
%TO.N,SIG_B0*%
X186704500Y-107886500D03*
%TO.P,U6,35,0A*%
%TO.N,SIG_A0*%
X189244500Y-107886500D03*
%TO.P,U6,36,0F*%
%TO.N,SIG_F0*%
X191784500Y-107886500D03*
%TO.P,U6,37,0G*%
%TO.N,SIG_G0*%
X194324500Y-107886500D03*
%TO.P,U6,38,N/C*%
%TO.N,unconnected-(U6-N{slash}C-Pad38)*%
X196864500Y-107886500D03*
%TO.P,U6,39,N/C*%
%TO.N,unconnected-(U6-N{slash}C-Pad39)*%
X199404500Y-107886500D03*
%TO.P,U6,40,COM*%
%TO.N,PHASE*%
X201944500Y-107886500D03*
%TD*%
D12*
%TO.P,C2,1*%
%TO.N,GND*%
X169418000Y-91160000D03*
%TO.P,C2,2*%
%TO.N,+5V*%
X169418000Y-92710000D03*
%TD*%
D13*
%TO.P,U4,1,STROBE*%
%TO.N,DIG_SEL_3*%
X164468000Y-94742000D03*
%TO.P,U4,2,2^2*%
%TO.N,DATA2*%
X164468000Y-96012000D03*
%TO.P,U4,3,2^1*%
%TO.N,DATA1*%
X164468000Y-97282000D03*
%TO.P,U4,4,2^3*%
%TO.N,DATA3*%
X164468000Y-98552000D03*
%TO.P,U4,5,2^0*%
%TO.N,DATA0*%
X164468000Y-99822000D03*
%TO.P,U4,6,FREQ.IN*%
%TO.N,PHASE*%
X164468000Y-101092000D03*
%TO.P,U4,7,VEE*%
%TO.N,GND*%
X164468000Y-102362000D03*
%TO.P,U4,8,VSS*%
X164468000Y-103632000D03*
%TO.P,U4,9,a*%
%TO.N,SIG_A3*%
X169418000Y-103632000D03*
%TO.P,U4,10,b*%
%TO.N,SIG_B3*%
X169418000Y-102362000D03*
%TO.P,U4,11,c*%
%TO.N,SIG_C3*%
X169418000Y-101092000D03*
%TO.P,U4,12,d*%
%TO.N,SIG_D3*%
X169418000Y-99822000D03*
%TO.P,U4,13,e*%
%TO.N,SIG_E3*%
X169418000Y-98552000D03*
%TO.P,U4,14,g*%
%TO.N,SIG_G3*%
X169418000Y-97282000D03*
%TO.P,U4,15,f*%
%TO.N,SIG_F3*%
X169418000Y-96012000D03*
%TO.P,U4,16,VDD*%
%TO.N,+5V*%
X169418000Y-94742000D03*
%TD*%
%TO.P,U2,1,STROBE*%
%TO.N,DIG_SEL_1*%
X186058000Y-94742000D03*
%TO.P,U2,2,2^2*%
%TO.N,DATA2*%
X186058000Y-96012000D03*
%TO.P,U2,3,2^1*%
%TO.N,DATA1*%
X186058000Y-97282000D03*
%TO.P,U2,4,2^3*%
%TO.N,DATA3*%
X186058000Y-98552000D03*
%TO.P,U2,5,2^0*%
%TO.N,DATA0*%
X186058000Y-99822000D03*
%TO.P,U2,6,FREQ.IN*%
%TO.N,PHASE*%
X186058000Y-101092000D03*
%TO.P,U2,7,VEE*%
%TO.N,GND*%
X186058000Y-102362000D03*
%TO.P,U2,8,VSS*%
X186058000Y-103632000D03*
%TO.P,U2,9,a*%
%TO.N,SIG_A1*%
X191008000Y-103632000D03*
%TO.P,U2,10,b*%
%TO.N,SIG_B1*%
X191008000Y-102362000D03*
%TO.P,U2,11,c*%
%TO.N,SIG_C1*%
X191008000Y-101092000D03*
%TO.P,U2,12,d*%
%TO.N,SIG_D1*%
X191008000Y-99822000D03*
%TO.P,U2,13,e*%
%TO.N,SIG_E1*%
X191008000Y-98552000D03*
%TO.P,U2,14,g*%
%TO.N,SIG_G1*%
X191008000Y-97282000D03*
%TO.P,U2,15,f*%
%TO.N,SIG_F1*%
X191008000Y-96012000D03*
%TO.P,U2,16,VDD*%
%TO.N,+5V*%
X191008000Y-94742000D03*
%TD*%
D12*
%TO.P,C6,1*%
%TO.N,GND*%
X191008000Y-91186000D03*
%TO.P,C6,2*%
%TO.N,+5V*%
X191008000Y-92736000D03*
%TD*%
D13*
%TO.P,U5,1,STROBE*%
%TO.N,MIS_SEL*%
X154308000Y-94742000D03*
%TO.P,U5,2,2^2*%
%TO.N,DATA2*%
X154308000Y-96012000D03*
%TO.P,U5,3,2^1*%
%TO.N,DATA1*%
X154308000Y-97282000D03*
%TO.P,U5,4,2^3*%
%TO.N,DATA3*%
X154308000Y-98552000D03*
%TO.P,U5,5,2^0*%
%TO.N,DATA0*%
X154308000Y-99822000D03*
%TO.P,U5,6,FREQ.IN*%
%TO.N,PHASE*%
X154308000Y-101092000D03*
%TO.P,U5,7,VEE*%
%TO.N,GND*%
X154308000Y-102362000D03*
%TO.P,U5,8,VSS*%
X154308000Y-103632000D03*
%TO.P,U5,9,a*%
%TO.N,SIG_COL*%
X159258000Y-103632000D03*
%TO.P,U5,10,b*%
%TO.N,unconnected-(U5-b-Pad10)*%
X159258000Y-102362000D03*
%TO.P,U5,11,c*%
%TO.N,unconnected-(U5-c-Pad11)*%
X159258000Y-101092000D03*
%TO.P,U5,12,d*%
%TO.N,unconnected-(U5-d-Pad12)*%
X159258000Y-99822000D03*
%TO.P,U5,13,e*%
%TO.N,unconnected-(U5-e-Pad13)*%
X159258000Y-98552000D03*
%TO.P,U5,14,g*%
%TO.N,SIG_DP*%
X159258000Y-97282000D03*
%TO.P,U5,15,f*%
%TO.N,unconnected-(U5-f-Pad15)*%
X159258000Y-96012000D03*
%TO.P,U5,16,VDD*%
%TO.N,+5V*%
X159258000Y-94742000D03*
%TD*%
D12*
%TO.P,C1,1*%
%TO.N,GND*%
X159258000Y-91160000D03*
%TO.P,C1,2*%
%TO.N,+5V*%
X159258000Y-92710000D03*
%TD*%
D13*
%TO.P,U1,1,STROBE*%
%TO.N,DIG_SEL_0*%
X196472000Y-94742000D03*
%TO.P,U1,2,2^2*%
%TO.N,DATA2*%
X196472000Y-96012000D03*
%TO.P,U1,3,2^1*%
%TO.N,DATA1*%
X196472000Y-97282000D03*
%TO.P,U1,4,2^3*%
%TO.N,DATA3*%
X196472000Y-98552000D03*
%TO.P,U1,5,2^0*%
%TO.N,DATA0*%
X196472000Y-99822000D03*
%TO.P,U1,6,FREQ.IN*%
%TO.N,PHASE*%
X196472000Y-101092000D03*
%TO.P,U1,7,VEE*%
%TO.N,GND*%
X196472000Y-102362000D03*
%TO.P,U1,8,VSS*%
X196472000Y-103632000D03*
%TO.P,U1,9,a*%
%TO.N,SIG_A0*%
X201422000Y-103632000D03*
%TO.P,U1,10,b*%
%TO.N,SIG_B0*%
X201422000Y-102362000D03*
%TO.P,U1,11,c*%
%TO.N,SIG_C0*%
X201422000Y-101092000D03*
%TO.P,U1,12,d*%
%TO.N,SIG_D0*%
X201422000Y-99822000D03*
%TO.P,U1,13,e*%
%TO.N,SIG_E0*%
X201422000Y-98552000D03*
%TO.P,U1,14,g*%
%TO.N,SIG_G0*%
X201422000Y-97282000D03*
%TO.P,U1,15,f*%
%TO.N,SIG_F0*%
X201422000Y-96012000D03*
%TO.P,U1,16,VDD*%
%TO.N,+5V*%
X201422000Y-94742000D03*
%TD*%
%TO.P,U3,1,STROBE*%
%TO.N,DIG_SEL_2*%
X175390000Y-94742000D03*
%TO.P,U3,2,2^2*%
%TO.N,DATA2*%
X175390000Y-96012000D03*
%TO.P,U3,3,2^1*%
%TO.N,DATA1*%
X175390000Y-97282000D03*
%TO.P,U3,4,2^3*%
%TO.N,DATA3*%
X175390000Y-98552000D03*
%TO.P,U3,5,2^0*%
%TO.N,DATA0*%
X175390000Y-99822000D03*
%TO.P,U3,6,FREQ.IN*%
%TO.N,PHASE*%
X175390000Y-101092000D03*
%TO.P,U3,7,VEE*%
%TO.N,GND*%
X175390000Y-102362000D03*
%TO.P,U3,8,VSS*%
X175390000Y-103632000D03*
%TO.P,U3,9,a*%
%TO.N,SIG_A2*%
X180340000Y-103632000D03*
%TO.P,U3,10,b*%
%TO.N,SIG_B2*%
X180340000Y-102362000D03*
%TO.P,U3,11,c*%
%TO.N,SIG_C2*%
X180340000Y-101092000D03*
%TO.P,U3,12,d*%
%TO.N,SIG_D2*%
X180340000Y-99822000D03*
%TO.P,U3,13,e*%
%TO.N,SIG_E2*%
X180340000Y-98552000D03*
%TO.P,U3,14,g*%
%TO.N,SIG_G2*%
X180340000Y-97282000D03*
%TO.P,U3,15,f*%
%TO.N,SIG_F2*%
X180340000Y-96012000D03*
%TO.P,U3,16,VDD*%
%TO.N,+5V*%
X180340000Y-94742000D03*
%TD*%
D14*
%TO.P,Conn2,1,0*%
%TO.N,DIG_SEL_0*%
X184150000Y-87603000D03*
%TO.P,Conn2,2,1*%
%TO.N,DIG_SEL_1*%
X187325000Y-87603000D03*
%TO.P,Conn2,3,2*%
%TO.N,DIG_SEL_2*%
X190500000Y-87603000D03*
%TO.P,Conn2,4,3*%
%TO.N,DIG_SEL_3*%
X193675000Y-87603000D03*
%TO.P,Conn2,5,4*%
%TO.N,MIS_SEL*%
X196850000Y-87603000D03*
%TD*%
%TO.P,Conn1,1,0*%
%TO.N,DATA0*%
X157734000Y-87630000D03*
%TO.P,Conn1,2,1*%
%TO.N,DATA1*%
X160909000Y-87630000D03*
%TO.P,Conn1,3,2*%
%TO.N,DATA2*%
X164084000Y-87630000D03*
%TO.P,Conn1,4,3*%
%TO.N,DATA3*%
X167259000Y-87630000D03*
%TO.P,Conn1,5,4*%
%TO.N,PHASE*%
X170434000Y-87630000D03*
%TD*%
D12*
%TO.P,C3,1*%
%TO.N,GND*%
X180340000Y-91160000D03*
%TO.P,C3,2*%
%TO.N,+5V*%
X180340000Y-92710000D03*
%TD*%
D14*
%TO.P,Conn3,1,Vin*%
%TO.N,+5V*%
X175768000Y-87630000D03*
%TO.P,Conn3,2,GND*%
%TO.N,GND*%
X178943000Y-87630000D03*
%TD*%
D12*
%TO.P,C4,1*%
%TO.N,GND*%
X201422000Y-91186000D03*
%TO.P,C4,2*%
%TO.N,+5V*%
X201422000Y-92736000D03*
%TD*%
D15*
%TO.N,GND*%
X177546000Y-102362000D03*
X156210000Y-102362000D03*
X203708000Y-94742000D03*
X198374000Y-102362000D03*
X187960000Y-102362000D03*
X162306000Y-102362000D03*
X172974000Y-87630000D03*
X151638000Y-103632000D03*
X151638000Y-102362000D03*
X172974000Y-90678000D03*
X203708000Y-96012000D03*
X203708000Y-97282000D03*
%TO.N,PHASE*%
X177546000Y-101092000D03*
X162306000Y-101092000D03*
X198374000Y-101092000D03*
X156210000Y-101092000D03*
X170434000Y-90170000D03*
X187960000Y-101092000D03*
%TO.N,SIG_E1*%
X193294000Y-99822000D03*
%TO.N,SIG_D1*%
X193289701Y-101096299D03*
%TO.N,SIG_C1*%
X193289701Y-102357701D03*
%TO.N,SIG_E2*%
X182880000Y-99822000D03*
%TO.N,SIG_D2*%
X182880000Y-101092000D03*
%TO.N,SIG_C2*%
X182875701Y-102357701D03*
%TO.N,SIG_E3*%
X171450000Y-98552000D03*
%TO.N,SIG_D3*%
X171450000Y-99822000D03*
%TO.N,SIG_C3*%
X171450000Y-101092000D03*
%TO.N,SIG_B3*%
X171450000Y-102362000D03*
%TO.N,SIG_F2*%
X182880000Y-97282000D03*
%TO.N,DIG_SEL_0*%
X184150000Y-90170000D03*
X198374000Y-94742000D03*
%TO.N,DATA2*%
X187960000Y-96012000D03*
X177546000Y-96012000D03*
X164084000Y-90170000D03*
X198374000Y-96012000D03*
X162306000Y-96012000D03*
X156210000Y-96012000D03*
%TO.N,DATA1*%
X187960000Y-97282000D03*
X160909000Y-90170000D03*
X177546000Y-97282000D03*
X198374000Y-97282000D03*
X162306000Y-97282000D03*
X156210000Y-97282000D03*
%TO.N,DATA3*%
X162306000Y-98552000D03*
X156210000Y-98552000D03*
X167259000Y-90170000D03*
X177546000Y-98552000D03*
X198374000Y-98552000D03*
X187960000Y-98552000D03*
%TO.N,DATA0*%
X157734000Y-90170000D03*
X162306000Y-99822000D03*
X156210000Y-99822000D03*
X187960000Y-99822000D03*
X198374000Y-99822000D03*
X177546000Y-99822000D03*
%TO.N,DIG_SEL_1*%
X187325000Y-90170000D03*
X187960000Y-94742000D03*
%TO.N,DIG_SEL_2*%
X177546000Y-94742000D03*
X189611000Y-90170000D03*
%TO.N,DIG_SEL_3*%
X193675000Y-90170000D03*
X162306000Y-94742000D03*
%TO.N,MIS_SEL*%
X156210000Y-94742000D03*
X196850000Y-90170000D03*
%TD*%
D16*
%TO.N,SIG_F1*%
X180418000Y-109220000D02*
X179084500Y-107886500D01*
X184912000Y-109220000D02*
X180418000Y-109220000D01*
X185420000Y-108712000D02*
X184912000Y-109220000D01*
X185928000Y-106426000D02*
X185420000Y-106934000D01*
X185420000Y-106934000D02*
X185420000Y-108712000D01*
X191770000Y-106426000D02*
X185928000Y-106426000D01*
X194818000Y-97282000D02*
X194818000Y-103378000D01*
X194818000Y-103378000D02*
X191770000Y-106426000D01*
X191008000Y-96012000D02*
X193548000Y-96012000D01*
X193548000Y-96012000D02*
X194818000Y-97282000D01*
%TO.N,SIG_F0*%
X199390000Y-102870000D02*
X196342000Y-105918000D01*
X196342000Y-105918000D02*
X193753000Y-105918000D01*
X200152000Y-96012000D02*
X199390000Y-96774000D01*
X199390000Y-96774000D02*
X199390000Y-102870000D01*
X201422000Y-96012000D02*
X200152000Y-96012000D01*
X193753000Y-105918000D02*
X191784500Y-107886500D01*
%TO.N,SIG_G0*%
X195785000Y-106426000D02*
X194324500Y-107886500D01*
X199898000Y-103378000D02*
X196850000Y-106426000D01*
X200447000Y-97282000D02*
X199898000Y-97831000D01*
X201422000Y-97282000D02*
X200447000Y-97282000D01*
X199898000Y-97831000D02*
X199898000Y-103378000D01*
X196850000Y-106426000D02*
X195785000Y-106426000D01*
%TO.N,SIG_G1*%
X194310000Y-98298000D02*
X193294000Y-97282000D01*
X194310000Y-103124000D02*
X194310000Y-98298000D01*
X183593000Y-105918000D02*
X191516000Y-105918000D01*
X193294000Y-97282000D02*
X191008000Y-97282000D01*
X181624500Y-107886500D02*
X183593000Y-105918000D01*
X191516000Y-105918000D02*
X194310000Y-103124000D01*
%TO.N,SIG_DP*%
X151638000Y-107059604D02*
X151638000Y-110158000D01*
X153033604Y-105664000D02*
X151638000Y-107059604D01*
X157480000Y-104140000D02*
X155956000Y-105664000D01*
X151638000Y-110158000D02*
X174004500Y-132524500D01*
X158242000Y-97282000D02*
X157480000Y-98044000D01*
X159258000Y-97282000D02*
X158242000Y-97282000D01*
X157480000Y-98044000D02*
X157480000Y-104140000D01*
X155956000Y-105664000D02*
X153033604Y-105664000D01*
%TO.N,SIG_G3*%
X168148000Y-97282000D02*
X169418000Y-97282000D01*
X167640000Y-104902000D02*
X167640000Y-97790000D01*
X160274000Y-105156000D02*
X167386000Y-105156000D01*
X167386000Y-105156000D02*
X167640000Y-104902000D01*
X167640000Y-97790000D02*
X168148000Y-97282000D01*
X158764500Y-106665500D02*
X160274000Y-105156000D01*
X158764500Y-107886500D02*
X158764500Y-106665500D01*
%TO.N,SIG_F3*%
X168148000Y-96012000D02*
X169418000Y-96012000D01*
X167132000Y-97028000D02*
X168148000Y-96012000D01*
X166878000Y-104648000D02*
X167132000Y-104394000D01*
X159463000Y-104648000D02*
X166878000Y-104648000D01*
X156224500Y-107886500D02*
X159463000Y-104648000D01*
X167132000Y-104394000D02*
X167132000Y-97028000D01*
%TO.N,SIG_COL*%
X169115000Y-110236000D02*
X171464500Y-107886500D01*
X153924000Y-110236000D02*
X169115000Y-110236000D01*
X152400000Y-108712000D02*
X153924000Y-110236000D01*
X153416000Y-106172000D02*
X152400000Y-107188000D01*
X152400000Y-107188000D02*
X152400000Y-108712000D01*
X156718000Y-106172000D02*
X153416000Y-106172000D01*
X159258000Y-103632000D02*
X156718000Y-106172000D01*
%TO.N,SIG_A3*%
X159131000Y-109474000D02*
X155272000Y-109474000D01*
X160020000Y-106934000D02*
X160020000Y-108585000D01*
X160020000Y-108585000D02*
X159131000Y-109474000D01*
X169418000Y-104648000D02*
X168402000Y-105664000D01*
X168402000Y-105664000D02*
X161290000Y-105664000D01*
X161290000Y-105664000D02*
X160020000Y-106934000D01*
X155272000Y-109474000D02*
X153684500Y-107886500D01*
X169418000Y-103632000D02*
X169418000Y-104648000D01*
D17*
%TO.N,GND*%
X164468000Y-102362000D02*
X164468000Y-103632000D01*
X175390000Y-103632000D02*
X175390000Y-102362000D01*
X175390000Y-102362000D02*
X177546000Y-102362000D01*
X186058000Y-103632000D02*
X186058000Y-102362000D01*
X162306000Y-102362000D02*
X164468000Y-102362000D01*
X186058000Y-102362000D02*
X187960000Y-102362000D01*
X154308000Y-103632000D02*
X154308000Y-102362000D01*
X196472000Y-102362000D02*
X198374000Y-102362000D01*
X196472000Y-103632000D02*
X196472000Y-102362000D01*
X154308000Y-102362000D02*
X156210000Y-102362000D01*
D16*
%TO.N,PHASE*%
X164468000Y-101092000D02*
X162306000Y-101092000D01*
X154308000Y-101092000D02*
X156210000Y-101092000D01*
X196472000Y-101092000D02*
X198374000Y-101092000D01*
X175390000Y-101092000D02*
X177546000Y-101092000D01*
X186058000Y-101092000D02*
X187960000Y-101092000D01*
X170434000Y-90170000D02*
X170434000Y-87630000D01*
%TO.N,SIG_E0*%
X201422000Y-98552000D02*
X203200000Y-98552000D01*
X204470000Y-119839000D02*
X191784500Y-132524500D01*
X204470000Y-99822000D02*
X204470000Y-119839000D01*
X203200000Y-98552000D02*
X204470000Y-99822000D01*
%TO.N,SIG_D0*%
X203962000Y-117807000D02*
X203962000Y-100584000D01*
X189244500Y-132524500D02*
X203962000Y-117807000D01*
X201422000Y-99822000D02*
X203200000Y-99822000D01*
X203962000Y-100584000D02*
X203200000Y-99822000D01*
%TO.N,SIG_C0*%
X202438000Y-101092000D02*
X201422000Y-101092000D01*
X203454000Y-102108000D02*
X202438000Y-101092000D01*
X203454000Y-115775000D02*
X203454000Y-102108000D01*
X186704500Y-132524500D02*
X203454000Y-115775000D01*
%TO.N,SIG_E1*%
X192532000Y-98552000D02*
X193294000Y-99314000D01*
X193294000Y-99314000D02*
X193294000Y-99822000D01*
X191008000Y-98552000D02*
X192532000Y-98552000D01*
%TO.N,SIG_D1*%
X193289701Y-101096299D02*
X192015402Y-99822000D01*
X192015402Y-99822000D02*
X191008000Y-99822000D01*
%TO.N,SIG_C1*%
X193289701Y-102357701D02*
X192024000Y-101092000D01*
X192024000Y-101092000D02*
X191008000Y-101092000D01*
%TO.N,SIG_E2*%
X180340000Y-98552000D02*
X181610000Y-98552000D01*
X181610000Y-98552000D02*
X182880000Y-99822000D01*
%TO.N,SIG_D2*%
X181610000Y-99822000D02*
X182880000Y-101092000D01*
X180340000Y-99822000D02*
X181610000Y-99822000D01*
%TO.N,SIG_C2*%
X180340000Y-101092000D02*
X181610000Y-101092000D01*
X181610000Y-101092000D02*
X182875701Y-102357701D01*
%TO.N,SIG_E3*%
X169418000Y-98552000D02*
X171450000Y-98552000D01*
%TO.N,SIG_D3*%
X169418000Y-99822000D02*
X171450000Y-99822000D01*
%TO.N,SIG_C3*%
X169418000Y-101092000D02*
X171450000Y-101092000D01*
%TO.N,SIG_B3*%
X169418000Y-102362000D02*
X171450000Y-102362000D01*
%TO.N,SIG_B2*%
X168630104Y-106172000D02*
X169276104Y-105526000D01*
X175453208Y-104452000D02*
X178250000Y-104452000D01*
X178562000Y-102870000D02*
X179070000Y-102362000D01*
X179070000Y-102362000D02*
X180340000Y-102362000D01*
X178562000Y-104140000D02*
X178562000Y-102870000D01*
X169276104Y-105526000D02*
X174379208Y-105526000D01*
X163019000Y-106172000D02*
X168630104Y-106172000D01*
X178250000Y-104452000D02*
X178562000Y-104140000D01*
X174379208Y-105526000D02*
X175453208Y-104452000D01*
X161304500Y-107886500D02*
X163019000Y-106172000D01*
%TO.N,SIG_A2*%
X175639604Y-104902000D02*
X174565604Y-105976000D01*
X165109000Y-106622000D02*
X163844500Y-107886500D01*
X180340000Y-103632000D02*
X179070000Y-104902000D01*
X168816500Y-106622000D02*
X165109000Y-106622000D01*
X179070000Y-104902000D02*
X175639604Y-104902000D01*
X174565604Y-105976000D02*
X169462500Y-105976000D01*
X169462500Y-105976000D02*
X168816500Y-106622000D01*
%TO.N,SIG_F2*%
X180340000Y-96012000D02*
X181610000Y-96012000D01*
X181610000Y-96012000D02*
X182880000Y-97282000D01*
%TO.N,SIG_G2*%
X170385000Y-106426000D02*
X174752000Y-106426000D01*
X174752000Y-106426000D02*
X175768000Y-105410000D01*
X168924500Y-107886500D02*
X170385000Y-106426000D01*
X181356000Y-97282000D02*
X180340000Y-97282000D01*
X183171000Y-99097000D02*
X181356000Y-97282000D01*
X181102000Y-105410000D02*
X183896000Y-102616000D01*
X175768000Y-105410000D02*
X181102000Y-105410000D01*
X183896000Y-102616000D02*
X183896000Y-99812695D01*
X183896000Y-99812695D02*
X183180305Y-99097000D01*
X183180305Y-99097000D02*
X183171000Y-99097000D01*
%TO.N,SIG_B1*%
X181610000Y-105918000D02*
X182626000Y-104902000D01*
X189992000Y-102362000D02*
X191008000Y-102362000D01*
X182626000Y-104902000D02*
X187452000Y-104902000D01*
X187452000Y-104902000D02*
X189992000Y-102362000D01*
X175973000Y-105918000D02*
X181610000Y-105918000D01*
X174004500Y-107886500D02*
X175973000Y-105918000D01*
%TO.N,SIG_A1*%
X189230000Y-105410000D02*
X183172302Y-105410000D01*
X178005000Y-106426000D02*
X176544500Y-107886500D01*
X183172302Y-105410000D02*
X182156302Y-106426000D01*
X182156302Y-106426000D02*
X178005000Y-106426000D01*
X191008000Y-103632000D02*
X189230000Y-105410000D01*
%TO.N,SIG_B0*%
X202692000Y-102362000D02*
X201422000Y-102362000D01*
X200660000Y-108966000D02*
X200660000Y-106934000D01*
X188800000Y-109982000D02*
X199644000Y-109982000D01*
X202946000Y-104648000D02*
X202946000Y-102616000D01*
X186704500Y-107886500D02*
X188800000Y-109982000D01*
X199644000Y-109982000D02*
X200660000Y-108966000D01*
X202946000Y-102616000D02*
X202692000Y-102362000D01*
X200660000Y-106934000D02*
X202946000Y-104648000D01*
%TO.N,SIG_A0*%
X190578000Y-109220000D02*
X189244500Y-107886500D01*
X201422000Y-103632000D02*
X198120000Y-106934000D01*
X198120000Y-106934000D02*
X198120000Y-108458000D01*
X198120000Y-108458000D02*
X197358000Y-109220000D01*
X197358000Y-109220000D02*
X190578000Y-109220000D01*
D17*
%TO.N,+5V*%
X159258000Y-92710000D02*
X169418000Y-92710000D01*
X169418000Y-92710000D02*
X169418000Y-94742000D01*
X190982000Y-92710000D02*
X191008000Y-92736000D01*
X180340000Y-92710000D02*
X175768000Y-92710000D01*
X191008000Y-92736000D02*
X191008000Y-94739000D01*
X169418000Y-92710000D02*
X175768000Y-92710000D01*
X191008000Y-92736000D02*
X201422000Y-92736000D01*
X180340000Y-92710000D02*
X190982000Y-92710000D01*
X191008000Y-94739000D02*
X191005000Y-94742000D01*
X180340000Y-92710000D02*
X180340000Y-94742000D01*
X201422000Y-92736000D02*
X201422000Y-94742000D01*
X175768000Y-87630000D02*
X175768000Y-92710000D01*
X159258000Y-92710000D02*
X159258000Y-94742000D01*
D16*
%TO.N,DIG_SEL_0*%
X184150000Y-87603000D02*
X184150000Y-90170000D01*
X196472000Y-94742000D02*
X198374000Y-94742000D01*
%TO.N,DATA2*%
X196472000Y-96012000D02*
X198374000Y-96012000D01*
X164468000Y-96012000D02*
X162306000Y-96012000D01*
X164084000Y-87630000D02*
X164084000Y-90170000D01*
X175390000Y-96012000D02*
X177546000Y-96012000D01*
X154308000Y-96012000D02*
X156210000Y-96012000D01*
X186058000Y-96012000D02*
X187960000Y-96012000D01*
%TO.N,DATA1*%
X175390000Y-97282000D02*
X177546000Y-97282000D01*
X154308000Y-97282000D02*
X156210000Y-97282000D01*
X164468000Y-97282000D02*
X162306000Y-97282000D01*
X196472000Y-97282000D02*
X198374000Y-97282000D01*
X160909000Y-87630000D02*
X160909000Y-90170000D01*
X186058000Y-97282000D02*
X187960000Y-97282000D01*
%TO.N,DATA3*%
X154308000Y-98552000D02*
X156210000Y-98552000D01*
X186058000Y-98552000D02*
X187960000Y-98552000D01*
X164468000Y-98552000D02*
X162306000Y-98552000D01*
X167259000Y-87630000D02*
X167259000Y-90170000D01*
X196472000Y-98552000D02*
X198374000Y-98552000D01*
X175390000Y-98552000D02*
X177546000Y-98552000D01*
%TO.N,DATA0*%
X157734000Y-87630000D02*
X157734000Y-90170000D01*
X154308000Y-99822000D02*
X156210000Y-99822000D01*
X164468000Y-99822000D02*
X162306000Y-99822000D01*
X196472000Y-99822000D02*
X198374000Y-99822000D01*
X186058000Y-99822000D02*
X187960000Y-99822000D01*
X175390000Y-99822000D02*
X177546000Y-99822000D01*
%TO.N,DIG_SEL_1*%
X186058000Y-94742000D02*
X187960000Y-94742000D01*
X187325000Y-87603000D02*
X187325000Y-90170000D01*
%TO.N,DIG_SEL_2*%
X190500000Y-89281000D02*
X190500000Y-87603000D01*
X189611000Y-90170000D02*
X190500000Y-89281000D01*
X175390000Y-94742000D02*
X177546000Y-94742000D01*
%TO.N,DIG_SEL_3*%
X164468000Y-94742000D02*
X162306000Y-94742000D01*
X193675000Y-87603000D02*
X193675000Y-90170000D01*
%TO.N,MIS_SEL*%
X154308000Y-94742000D02*
X156210000Y-94742000D01*
X196850000Y-87603000D02*
X196850000Y-90170000D01*
%TD*%
%TA.AperFunction,Conductor*%
%TO.N,GND*%
G36*
X205174539Y-84094185D02*
G01*
X205220294Y-84146989D01*
X205231500Y-84198500D01*
X205231500Y-99424318D01*
X205211815Y-99491357D01*
X205159011Y-99537112D01*
X205089853Y-99547056D01*
X205026297Y-99518031D01*
X205007181Y-99497202D01*
X204995098Y-99480570D01*
X204991890Y-99475687D01*
X204968172Y-99435582D01*
X204968163Y-99435571D01*
X204954005Y-99421413D01*
X204941370Y-99406620D01*
X204929593Y-99390412D01*
X204893693Y-99360713D01*
X204889381Y-99356790D01*
X203700803Y-98168212D01*
X203690980Y-98155950D01*
X203690759Y-98156134D01*
X203685786Y-98150123D01*
X203676712Y-98141602D01*
X203635364Y-98102773D01*
X203620239Y-98087648D01*
X203614475Y-98081883D01*
X203608986Y-98077625D01*
X203604561Y-98073847D01*
X203570582Y-98041938D01*
X203570580Y-98041936D01*
X203570577Y-98041935D01*
X203553029Y-98032288D01*
X203536763Y-98021604D01*
X203520933Y-98009325D01*
X203478168Y-97990818D01*
X203472922Y-97988248D01*
X203432093Y-97965803D01*
X203432092Y-97965802D01*
X203412693Y-97960822D01*
X203394281Y-97954518D01*
X203375898Y-97946562D01*
X203375892Y-97946560D01*
X203329874Y-97939272D01*
X203324152Y-97938087D01*
X203279021Y-97926500D01*
X203279019Y-97926500D01*
X203258984Y-97926500D01*
X203239586Y-97924973D01*
X203232162Y-97923797D01*
X203219805Y-97921840D01*
X203219804Y-97921840D01*
X203173416Y-97926225D01*
X203167578Y-97926500D01*
X202927692Y-97926500D01*
X202860653Y-97906815D01*
X202814898Y-97854011D01*
X202804954Y-97784853D01*
X202820959Y-97739380D01*
X202827654Y-97728059D01*
X202848744Y-97692398D01*
X202894598Y-97534569D01*
X202897500Y-97497694D01*
X202897500Y-97066306D01*
X202896577Y-97054583D01*
X202894598Y-97029432D01*
X202894597Y-97029426D01*
X202848745Y-96871606D01*
X202848744Y-96871603D01*
X202848744Y-96871602D01*
X202765081Y-96730135D01*
X202765078Y-96730132D01*
X202760298Y-96723969D01*
X202762750Y-96722066D01*
X202736155Y-96673421D01*
X202741104Y-96603726D01*
X202761940Y-96571304D01*
X202760298Y-96570031D01*
X202765075Y-96563870D01*
X202765081Y-96563865D01*
X202848744Y-96422398D01*
X202894598Y-96264569D01*
X202897500Y-96227694D01*
X202897500Y-95796306D01*
X202894598Y-95759431D01*
X202848744Y-95601602D01*
X202765081Y-95460135D01*
X202765078Y-95460132D01*
X202760298Y-95453969D01*
X202762750Y-95452066D01*
X202736155Y-95403421D01*
X202741104Y-95333726D01*
X202761940Y-95301304D01*
X202760298Y-95300031D01*
X202765075Y-95293870D01*
X202765081Y-95293865D01*
X202848744Y-95152398D01*
X202894598Y-94994569D01*
X202897500Y-94957694D01*
X202897500Y-94526306D01*
X202894598Y-94489431D01*
X202848744Y-94331602D01*
X202765081Y-94190135D01*
X202765079Y-94190133D01*
X202765076Y-94190129D01*
X202648870Y-94073923D01*
X202648862Y-94073917D01*
X202507396Y-93990255D01*
X202507393Y-93990254D01*
X202349573Y-93944402D01*
X202349567Y-93944401D01*
X202312696Y-93941500D01*
X202312694Y-93941500D01*
X202296500Y-93941500D01*
X202229461Y-93921815D01*
X202183706Y-93869011D01*
X202172500Y-93817500D01*
X202172500Y-93537874D01*
X202192185Y-93470835D01*
X202208819Y-93450193D01*
X202244968Y-93414044D01*
X202334003Y-93269697D01*
X202387349Y-93108708D01*
X202397500Y-93009345D01*
X202397499Y-92462656D01*
X202387349Y-92363292D01*
X202334003Y-92202303D01*
X202333999Y-92202297D01*
X202333998Y-92202294D01*
X202244970Y-92057959D01*
X202244967Y-92057955D01*
X202235339Y-92048327D01*
X202201854Y-91987004D01*
X202206838Y-91917312D01*
X202235345Y-91872959D01*
X202244573Y-91863731D01*
X202333542Y-91719492D01*
X202333547Y-91719481D01*
X202386855Y-91558606D01*
X202396999Y-91459322D01*
X202397000Y-91459309D01*
X202397000Y-91436000D01*
X200447001Y-91436000D01*
X200447001Y-91459322D01*
X200457144Y-91558607D01*
X200510452Y-91719481D01*
X200510457Y-91719492D01*
X200557897Y-91796403D01*
X200576338Y-91863795D01*
X200555416Y-91930459D01*
X200501774Y-91975228D01*
X200452359Y-91985500D01*
X191977641Y-91985500D01*
X191910602Y-91965815D01*
X191864847Y-91913011D01*
X191854903Y-91843853D01*
X191872103Y-91796403D01*
X191919542Y-91719492D01*
X191919547Y-91719481D01*
X191972855Y-91558606D01*
X191982999Y-91459322D01*
X191983000Y-91459309D01*
X191983000Y-91436000D01*
X190033001Y-91436000D01*
X190033001Y-91459322D01*
X190043144Y-91558607D01*
X190096452Y-91719481D01*
X190096457Y-91719492D01*
X190127860Y-91770403D01*
X190146301Y-91837795D01*
X190125379Y-91904459D01*
X190071737Y-91949228D01*
X190022322Y-91959500D01*
X181309641Y-91959500D01*
X181242602Y-91939815D01*
X181196847Y-91887011D01*
X181186903Y-91817853D01*
X181204103Y-91770403D01*
X181251542Y-91693492D01*
X181251547Y-91693481D01*
X181304855Y-91532606D01*
X181314999Y-91433322D01*
X181315000Y-91433309D01*
X181315000Y-91410000D01*
X179365001Y-91410000D01*
X179365001Y-91433322D01*
X179375144Y-91532607D01*
X179428452Y-91693481D01*
X179428457Y-91693492D01*
X179475897Y-91770403D01*
X179494338Y-91837795D01*
X179473416Y-91904459D01*
X179419774Y-91949228D01*
X179370359Y-91959500D01*
X176642500Y-91959500D01*
X176575461Y-91939815D01*
X176529706Y-91887011D01*
X176518500Y-91835500D01*
X176518500Y-90910000D01*
X179365000Y-90910000D01*
X180090000Y-90910000D01*
X180090000Y-90210000D01*
X180590000Y-90210000D01*
X180590000Y-90910000D01*
X181314999Y-90910000D01*
X181314999Y-90886692D01*
X181314998Y-90886677D01*
X181304855Y-90787392D01*
X181251547Y-90626518D01*
X181251542Y-90626507D01*
X181162575Y-90482271D01*
X181162572Y-90482267D01*
X181042732Y-90362427D01*
X181042728Y-90362424D01*
X180898492Y-90273457D01*
X180898481Y-90273452D01*
X180737606Y-90220144D01*
X180638322Y-90210000D01*
X180590000Y-90210000D01*
X180090000Y-90210000D01*
X180089999Y-90209999D01*
X180041693Y-90210000D01*
X180041675Y-90210001D01*
X179942392Y-90220144D01*
X179781518Y-90273452D01*
X179781507Y-90273457D01*
X179637271Y-90362424D01*
X179637267Y-90362427D01*
X179517427Y-90482267D01*
X179517424Y-90482271D01*
X179428457Y-90626507D01*
X179428452Y-90626518D01*
X179375144Y-90787393D01*
X179365000Y-90886677D01*
X179365000Y-90910000D01*
X176518500Y-90910000D01*
X176518500Y-89518266D01*
X176538185Y-89451227D01*
X176590989Y-89405472D01*
X176629250Y-89394976D01*
X176637483Y-89394091D01*
X176772328Y-89343797D01*
X176772327Y-89343797D01*
X176772331Y-89343796D01*
X176887546Y-89257546D01*
X176973796Y-89142331D01*
X177024091Y-89007483D01*
X177030500Y-88947873D01*
X177030499Y-87880000D01*
X177681000Y-87880000D01*
X177681000Y-88947844D01*
X177687401Y-89007372D01*
X177687403Y-89007379D01*
X177737645Y-89142086D01*
X177737649Y-89142093D01*
X177823809Y-89257187D01*
X177823812Y-89257190D01*
X177938906Y-89343350D01*
X177938913Y-89343354D01*
X178073620Y-89393596D01*
X178073627Y-89393598D01*
X178133155Y-89399999D01*
X178133172Y-89400000D01*
X178693000Y-89400000D01*
X178693000Y-87880000D01*
X179193000Y-87880000D01*
X179193000Y-89400000D01*
X179752828Y-89400000D01*
X179752844Y-89399999D01*
X179812372Y-89393598D01*
X179812379Y-89393596D01*
X179947086Y-89343354D01*
X179947093Y-89343350D01*
X180062187Y-89257190D01*
X180062190Y-89257187D01*
X180148350Y-89142093D01*
X180148354Y-89142086D01*
X180198596Y-89007379D01*
X180198598Y-89007372D01*
X180204999Y-88947844D01*
X180205000Y-88947827D01*
X180205000Y-88920870D01*
X182887500Y-88920870D01*
X182887501Y-88920876D01*
X182893908Y-88980483D01*
X182944202Y-89115328D01*
X182944206Y-89115335D01*
X183030452Y-89230544D01*
X183030455Y-89230547D01*
X183145664Y-89316793D01*
X183145671Y-89316797D01*
X183185318Y-89331584D01*
X183280517Y-89367091D01*
X183340127Y-89373500D01*
X183376920Y-89373499D01*
X183443958Y-89393182D01*
X183489714Y-89445985D01*
X183499659Y-89515143D01*
X183470636Y-89578699D01*
X183469072Y-89580470D01*
X183417466Y-89637785D01*
X183322821Y-89801715D01*
X183322818Y-89801722D01*
X183264327Y-89981740D01*
X183264326Y-89981744D01*
X183244540Y-90170000D01*
X183264326Y-90358256D01*
X183264327Y-90358259D01*
X183322818Y-90538277D01*
X183322821Y-90538284D01*
X183417467Y-90702216D01*
X183494160Y-90787392D01*
X183544129Y-90842888D01*
X183697265Y-90954148D01*
X183697270Y-90954151D01*
X183870192Y-91031142D01*
X183870197Y-91031144D01*
X184055354Y-91070500D01*
X184055355Y-91070500D01*
X184244644Y-91070500D01*
X184244646Y-91070500D01*
X184429803Y-91031144D01*
X184602730Y-90954151D01*
X184755871Y-90842888D01*
X184882533Y-90702216D01*
X184977179Y-90538284D01*
X185035674Y-90358256D01*
X185055460Y-90170000D01*
X185035674Y-89981744D01*
X184977179Y-89801716D01*
X184882533Y-89637784D01*
X184830927Y-89580470D01*
X184800698Y-89517480D01*
X184809323Y-89448144D01*
X184854065Y-89394479D01*
X184920717Y-89373521D01*
X184923078Y-89373499D01*
X184959871Y-89373499D01*
X184959872Y-89373499D01*
X185019483Y-89367091D01*
X185154331Y-89316796D01*
X185269546Y-89230546D01*
X185355796Y-89115331D01*
X185406091Y-88980483D01*
X185412500Y-88920873D01*
X185412500Y-88920870D01*
X186062500Y-88920870D01*
X186062501Y-88920876D01*
X186068908Y-88980483D01*
X186119202Y-89115328D01*
X186119206Y-89115335D01*
X186205452Y-89230544D01*
X186205455Y-89230547D01*
X186320664Y-89316793D01*
X186320671Y-89316797D01*
X186360318Y-89331584D01*
X186455517Y-89367091D01*
X186515127Y-89373500D01*
X186551920Y-89373499D01*
X186618958Y-89393182D01*
X186664714Y-89445985D01*
X186674659Y-89515143D01*
X186645636Y-89578699D01*
X186644072Y-89580470D01*
X186592466Y-89637785D01*
X186497821Y-89801715D01*
X186497818Y-89801722D01*
X186439327Y-89981740D01*
X186439326Y-89981744D01*
X186419540Y-90170000D01*
X186439326Y-90358256D01*
X186439327Y-90358259D01*
X186497818Y-90538277D01*
X186497821Y-90538284D01*
X186592467Y-90702216D01*
X186669160Y-90787392D01*
X186719129Y-90842888D01*
X186872265Y-90954148D01*
X186872270Y-90954151D01*
X187045192Y-91031142D01*
X187045197Y-91031144D01*
X187230354Y-91070500D01*
X187230355Y-91070500D01*
X187419644Y-91070500D01*
X187419646Y-91070500D01*
X187604803Y-91031144D01*
X187777730Y-90954151D01*
X187930871Y-90842888D01*
X188057533Y-90702216D01*
X188152179Y-90538284D01*
X188210674Y-90358256D01*
X188230460Y-90170000D01*
X188705540Y-90170000D01*
X188725326Y-90358256D01*
X188725327Y-90358259D01*
X188783818Y-90538277D01*
X188783821Y-90538284D01*
X188878467Y-90702216D01*
X188955160Y-90787392D01*
X189005129Y-90842888D01*
X189158265Y-90954148D01*
X189158270Y-90954151D01*
X189331192Y-91031142D01*
X189331197Y-91031144D01*
X189516354Y-91070500D01*
X189516355Y-91070500D01*
X189705644Y-91070500D01*
X189705646Y-91070500D01*
X189890803Y-91031144D01*
X190063730Y-90954151D01*
X190063735Y-90954146D01*
X190066398Y-90952611D01*
X190068383Y-90952079D01*
X190069666Y-90951508D01*
X190069756Y-90951711D01*
X190128394Y-90936000D01*
X190758000Y-90936000D01*
X190758000Y-90236000D01*
X191258000Y-90236000D01*
X191258000Y-90936000D01*
X191982999Y-90936000D01*
X191982999Y-90912692D01*
X191982998Y-90912677D01*
X191972855Y-90813392D01*
X191919547Y-90652518D01*
X191919542Y-90652507D01*
X191830575Y-90508271D01*
X191830572Y-90508267D01*
X191710732Y-90388427D01*
X191710728Y-90388424D01*
X191566492Y-90299457D01*
X191566481Y-90299452D01*
X191405606Y-90246144D01*
X191306322Y-90236000D01*
X191258000Y-90236000D01*
X190758000Y-90236000D01*
X190757999Y-90235999D01*
X190728953Y-90236000D01*
X190661913Y-90216316D01*
X190616157Y-90163513D01*
X190606213Y-90094354D01*
X190635237Y-90030798D01*
X190641256Y-90024333D01*
X190883788Y-89781801D01*
X190896042Y-89771986D01*
X190895859Y-89771764D01*
X190901866Y-89766792D01*
X190901877Y-89766786D01*
X190932775Y-89733882D01*
X190949227Y-89716364D01*
X190959671Y-89705918D01*
X190970120Y-89695471D01*
X190974379Y-89689978D01*
X190978152Y-89685561D01*
X191010062Y-89651582D01*
X191019715Y-89634020D01*
X191030389Y-89617770D01*
X191042673Y-89601936D01*
X191061180Y-89559167D01*
X191063749Y-89553924D01*
X191082997Y-89518912D01*
X191086197Y-89513092D01*
X191091177Y-89493691D01*
X191097478Y-89475288D01*
X191105438Y-89456896D01*
X191105438Y-89456895D01*
X191108538Y-89449733D01*
X191111331Y-89450942D01*
X191141298Y-89404019D01*
X191204770Y-89374812D01*
X191222769Y-89373499D01*
X191309871Y-89373499D01*
X191309872Y-89373499D01*
X191369483Y-89367091D01*
X191504331Y-89316796D01*
X191619546Y-89230546D01*
X191705796Y-89115331D01*
X191756091Y-88980483D01*
X191762500Y-88920873D01*
X191762500Y-88920870D01*
X192412500Y-88920870D01*
X192412501Y-88920876D01*
X192418908Y-88980483D01*
X192469202Y-89115328D01*
X192469206Y-89115335D01*
X192555452Y-89230544D01*
X192555455Y-89230547D01*
X192670664Y-89316793D01*
X192670671Y-89316797D01*
X192710318Y-89331584D01*
X192805517Y-89367091D01*
X192865127Y-89373500D01*
X192901920Y-89373499D01*
X192968958Y-89393182D01*
X193014714Y-89445985D01*
X193024659Y-89515143D01*
X192995636Y-89578699D01*
X192994072Y-89580470D01*
X192942466Y-89637785D01*
X192847821Y-89801715D01*
X192847818Y-89801722D01*
X192789327Y-89981740D01*
X192789326Y-89981744D01*
X192769540Y-90170000D01*
X192789326Y-90358256D01*
X192789327Y-90358259D01*
X192847818Y-90538277D01*
X192847821Y-90538284D01*
X192942467Y-90702216D01*
X193019160Y-90787392D01*
X193069129Y-90842888D01*
X193222265Y-90954148D01*
X193222270Y-90954151D01*
X193395192Y-91031142D01*
X193395197Y-91031144D01*
X193580354Y-91070500D01*
X193580355Y-91070500D01*
X193769644Y-91070500D01*
X193769646Y-91070500D01*
X193954803Y-91031144D01*
X194127730Y-90954151D01*
X194280871Y-90842888D01*
X194407533Y-90702216D01*
X194502179Y-90538284D01*
X194560674Y-90358256D01*
X194580460Y-90170000D01*
X194560674Y-89981744D01*
X194502179Y-89801716D01*
X194407533Y-89637784D01*
X194355927Y-89580470D01*
X194325698Y-89517480D01*
X194334323Y-89448144D01*
X194379065Y-89394479D01*
X194445717Y-89373521D01*
X194448078Y-89373499D01*
X194484871Y-89373499D01*
X194484872Y-89373499D01*
X194544483Y-89367091D01*
X194679331Y-89316796D01*
X194794546Y-89230546D01*
X194880796Y-89115331D01*
X194931091Y-88980483D01*
X194937500Y-88920873D01*
X194937500Y-88920870D01*
X195587500Y-88920870D01*
X195587501Y-88920876D01*
X195593908Y-88980483D01*
X195644202Y-89115328D01*
X195644206Y-89115335D01*
X195730452Y-89230544D01*
X195730455Y-89230547D01*
X195845664Y-89316793D01*
X195845671Y-89316797D01*
X195885318Y-89331584D01*
X195980517Y-89367091D01*
X196040127Y-89373500D01*
X196076920Y-89373499D01*
X196143958Y-89393182D01*
X196189714Y-89445985D01*
X196199659Y-89515143D01*
X196170636Y-89578699D01*
X196169072Y-89580470D01*
X196117466Y-89637785D01*
X196022821Y-89801715D01*
X196022818Y-89801722D01*
X195964327Y-89981740D01*
X195964326Y-89981744D01*
X195944540Y-90170000D01*
X195964326Y-90358256D01*
X195964327Y-90358259D01*
X196022818Y-90538277D01*
X196022821Y-90538284D01*
X196117467Y-90702216D01*
X196194160Y-90787392D01*
X196244129Y-90842888D01*
X196397265Y-90954148D01*
X196397270Y-90954151D01*
X196570192Y-91031142D01*
X196570197Y-91031144D01*
X196755354Y-91070500D01*
X196755355Y-91070500D01*
X196944644Y-91070500D01*
X196944646Y-91070500D01*
X197129803Y-91031144D01*
X197302730Y-90954151D01*
X197327713Y-90936000D01*
X200447000Y-90936000D01*
X201172000Y-90936000D01*
X201172000Y-90236000D01*
X201672000Y-90236000D01*
X201672000Y-90936000D01*
X202396999Y-90936000D01*
X202396999Y-90912692D01*
X202396998Y-90912677D01*
X202386855Y-90813392D01*
X202333547Y-90652518D01*
X202333542Y-90652507D01*
X202244575Y-90508271D01*
X202244572Y-90508267D01*
X202124732Y-90388427D01*
X202124728Y-90388424D01*
X201980492Y-90299457D01*
X201980481Y-90299452D01*
X201819606Y-90246144D01*
X201720322Y-90236000D01*
X201672000Y-90236000D01*
X201172000Y-90236000D01*
X201171999Y-90235999D01*
X201123693Y-90236000D01*
X201123675Y-90236001D01*
X201024392Y-90246144D01*
X200863518Y-90299452D01*
X200863507Y-90299457D01*
X200719271Y-90388424D01*
X200719267Y-90388427D01*
X200599427Y-90508267D01*
X200599424Y-90508271D01*
X200510457Y-90652507D01*
X200510452Y-90652518D01*
X200457144Y-90813393D01*
X200447000Y-90912677D01*
X200447000Y-90936000D01*
X197327713Y-90936000D01*
X197455871Y-90842888D01*
X197582533Y-90702216D01*
X197677179Y-90538284D01*
X197735674Y-90358256D01*
X197755460Y-90170000D01*
X197735674Y-89981744D01*
X197677179Y-89801716D01*
X197582533Y-89637784D01*
X197530927Y-89580470D01*
X197500698Y-89517480D01*
X197509323Y-89448144D01*
X197554065Y-89394479D01*
X197620717Y-89373521D01*
X197623078Y-89373499D01*
X197659871Y-89373499D01*
X197659872Y-89373499D01*
X197719483Y-89367091D01*
X197854331Y-89316796D01*
X197969546Y-89230546D01*
X198055796Y-89115331D01*
X198106091Y-88980483D01*
X198112500Y-88920873D01*
X198112499Y-87376000D01*
X200574341Y-87376000D01*
X200594936Y-87611403D01*
X200594938Y-87611413D01*
X200656094Y-87839655D01*
X200656096Y-87839659D01*
X200656097Y-87839663D01*
X200668105Y-87865413D01*
X200755964Y-88053828D01*
X200755965Y-88053830D01*
X200891505Y-88247402D01*
X201058597Y-88414494D01*
X201252169Y-88550034D01*
X201252171Y-88550035D01*
X201466337Y-88649903D01*
X201694592Y-88711063D01*
X201871034Y-88726500D01*
X201988966Y-88726500D01*
X202165408Y-88711063D01*
X202393663Y-88649903D01*
X202607829Y-88550035D01*
X202801401Y-88414495D01*
X202968495Y-88247401D01*
X203104035Y-88053830D01*
X203203903Y-87839663D01*
X203265063Y-87611408D01*
X203285659Y-87376000D01*
X203265063Y-87140592D01*
X203203903Y-86912337D01*
X203104035Y-86698171D01*
X203104034Y-86698169D01*
X202968494Y-86504597D01*
X202801402Y-86337505D01*
X202607830Y-86201965D01*
X202607828Y-86201964D01*
X202500746Y-86152031D01*
X202393663Y-86102097D01*
X202393659Y-86102096D01*
X202393655Y-86102094D01*
X202165413Y-86040938D01*
X202165403Y-86040936D01*
X201988966Y-86025500D01*
X201871034Y-86025500D01*
X201694596Y-86040936D01*
X201694586Y-86040938D01*
X201466344Y-86102094D01*
X201466335Y-86102098D01*
X201252171Y-86201964D01*
X201252169Y-86201965D01*
X201058597Y-86337505D01*
X200891506Y-86504597D01*
X200891501Y-86504604D01*
X200755967Y-86698165D01*
X200755965Y-86698169D01*
X200656098Y-86912335D01*
X200656094Y-86912344D01*
X200594938Y-87140586D01*
X200594936Y-87140596D01*
X200574341Y-87375999D01*
X200574341Y-87376000D01*
X198112499Y-87376000D01*
X198112499Y-86285128D01*
X198106091Y-86225517D01*
X198097306Y-86201964D01*
X198055797Y-86090671D01*
X198055793Y-86090664D01*
X197969547Y-85975455D01*
X197969544Y-85975452D01*
X197854335Y-85889206D01*
X197854328Y-85889202D01*
X197719482Y-85838908D01*
X197719483Y-85838908D01*
X197659883Y-85832501D01*
X197659881Y-85832500D01*
X197659873Y-85832500D01*
X197659864Y-85832500D01*
X196040129Y-85832500D01*
X196040123Y-85832501D01*
X195980516Y-85838908D01*
X195845671Y-85889202D01*
X195845664Y-85889206D01*
X195730455Y-85975452D01*
X195730452Y-85975455D01*
X195644206Y-86090664D01*
X195644202Y-86090671D01*
X195593908Y-86225517D01*
X195590994Y-86252627D01*
X195587501Y-86285123D01*
X195587500Y-86285135D01*
X195587500Y-88920870D01*
X194937500Y-88920870D01*
X194937499Y-86285128D01*
X194931091Y-86225517D01*
X194922306Y-86201964D01*
X194880797Y-86090671D01*
X194880793Y-86090664D01*
X194794547Y-85975455D01*
X194794544Y-85975452D01*
X194679335Y-85889206D01*
X194679328Y-85889202D01*
X194544482Y-85838908D01*
X194544483Y-85838908D01*
X194484883Y-85832501D01*
X194484881Y-85832500D01*
X194484873Y-85832500D01*
X194484864Y-85832500D01*
X192865129Y-85832500D01*
X192865123Y-85832501D01*
X192805516Y-85838908D01*
X192670671Y-85889202D01*
X192670664Y-85889206D01*
X192555455Y-85975452D01*
X192555452Y-85975455D01*
X192469206Y-86090664D01*
X192469202Y-86090671D01*
X192418908Y-86225517D01*
X192415994Y-86252627D01*
X192412501Y-86285123D01*
X192412500Y-86285135D01*
X192412500Y-88920870D01*
X191762500Y-88920870D01*
X191762499Y-86285128D01*
X191756091Y-86225517D01*
X191747306Y-86201964D01*
X191705797Y-86090671D01*
X191705793Y-86090664D01*
X191619547Y-85975455D01*
X191619544Y-85975452D01*
X191504335Y-85889206D01*
X191504328Y-85889202D01*
X191369482Y-85838908D01*
X191369483Y-85838908D01*
X191309883Y-85832501D01*
X191309881Y-85832500D01*
X191309873Y-85832500D01*
X191309864Y-85832500D01*
X189690129Y-85832500D01*
X189690123Y-85832501D01*
X189630516Y-85838908D01*
X189495671Y-85889202D01*
X189495664Y-85889206D01*
X189380455Y-85975452D01*
X189380452Y-85975455D01*
X189294206Y-86090664D01*
X189294202Y-86090671D01*
X189243908Y-86225517D01*
X189240994Y-86252627D01*
X189237501Y-86285123D01*
X189237500Y-86285135D01*
X189237500Y-88920870D01*
X189237501Y-88920876D01*
X189243908Y-88980483D01*
X189294202Y-89115328D01*
X189294204Y-89115331D01*
X189318990Y-89148441D01*
X189343407Y-89213906D01*
X189328555Y-89282179D01*
X189279150Y-89331584D01*
X189270160Y-89336031D01*
X189158267Y-89385850D01*
X189158265Y-89385851D01*
X189005129Y-89497111D01*
X188878466Y-89637785D01*
X188783821Y-89801715D01*
X188783818Y-89801722D01*
X188725327Y-89981740D01*
X188725326Y-89981744D01*
X188705540Y-90170000D01*
X188230460Y-90170000D01*
X188210674Y-89981744D01*
X188152179Y-89801716D01*
X188057533Y-89637784D01*
X188005927Y-89580470D01*
X187975698Y-89517480D01*
X187984323Y-89448144D01*
X188029065Y-89394479D01*
X188095717Y-89373521D01*
X188098078Y-89373499D01*
X188134871Y-89373499D01*
X188134872Y-89373499D01*
X188194483Y-89367091D01*
X188329331Y-89316796D01*
X188444546Y-89230546D01*
X188530796Y-89115331D01*
X188581091Y-88980483D01*
X188587500Y-88920873D01*
X188587499Y-86285128D01*
X188581091Y-86225517D01*
X188572306Y-86201964D01*
X188530797Y-86090671D01*
X188530793Y-86090664D01*
X188444547Y-85975455D01*
X188444544Y-85975452D01*
X188329335Y-85889206D01*
X188329328Y-85889202D01*
X188194482Y-85838908D01*
X188194483Y-85838908D01*
X188134883Y-85832501D01*
X188134881Y-85832500D01*
X188134873Y-85832500D01*
X188134864Y-85832500D01*
X186515129Y-85832500D01*
X186515123Y-85832501D01*
X186455516Y-85838908D01*
X186320671Y-85889202D01*
X186320664Y-85889206D01*
X186205455Y-85975452D01*
X186205452Y-85975455D01*
X186119206Y-86090664D01*
X186119202Y-86090671D01*
X186068908Y-86225517D01*
X186065994Y-86252627D01*
X186062501Y-86285123D01*
X186062500Y-86285135D01*
X186062500Y-88920870D01*
X185412500Y-88920870D01*
X185412499Y-86285128D01*
X185406091Y-86225517D01*
X185397306Y-86201964D01*
X185355797Y-86090671D01*
X185355793Y-86090664D01*
X185269547Y-85975455D01*
X185269544Y-85975452D01*
X185154335Y-85889206D01*
X185154328Y-85889202D01*
X185019482Y-85838908D01*
X185019483Y-85838908D01*
X184959883Y-85832501D01*
X184959881Y-85832500D01*
X184959873Y-85832500D01*
X184959864Y-85832500D01*
X183340129Y-85832500D01*
X183340123Y-85832501D01*
X183280516Y-85838908D01*
X183145671Y-85889202D01*
X183145664Y-85889206D01*
X183030455Y-85975452D01*
X183030452Y-85975455D01*
X182944206Y-86090664D01*
X182944202Y-86090671D01*
X182893908Y-86225517D01*
X182890994Y-86252627D01*
X182887501Y-86285123D01*
X182887500Y-86285135D01*
X182887500Y-88920870D01*
X180205000Y-88920870D01*
X180205000Y-87880000D01*
X179193000Y-87880000D01*
X178693000Y-87880000D01*
X177681000Y-87880000D01*
X177030499Y-87880000D01*
X177030499Y-87380000D01*
X177681000Y-87380000D01*
X178693000Y-87380000D01*
X178693000Y-85860000D01*
X179193000Y-85860000D01*
X179193000Y-87380000D01*
X180205000Y-87380000D01*
X180205000Y-86312172D01*
X180204999Y-86312155D01*
X180198598Y-86252627D01*
X180198596Y-86252620D01*
X180148354Y-86117913D01*
X180148350Y-86117906D01*
X180062190Y-86002812D01*
X180062187Y-86002809D01*
X179947093Y-85916649D01*
X179947086Y-85916645D01*
X179812379Y-85866403D01*
X179812372Y-85866401D01*
X179752844Y-85860000D01*
X179193000Y-85860000D01*
X178693000Y-85860000D01*
X178133155Y-85860000D01*
X178073627Y-85866401D01*
X178073620Y-85866403D01*
X177938913Y-85916645D01*
X177938906Y-85916649D01*
X177823812Y-86002809D01*
X177823809Y-86002812D01*
X177737649Y-86117906D01*
X177737645Y-86117913D01*
X177687403Y-86252620D01*
X177687401Y-86252627D01*
X177681000Y-86312155D01*
X177681000Y-87380000D01*
X177030499Y-87380000D01*
X177030499Y-86312128D01*
X177024091Y-86252517D01*
X177014020Y-86225516D01*
X176973797Y-86117671D01*
X176973793Y-86117664D01*
X176887547Y-86002455D01*
X176887544Y-86002452D01*
X176772335Y-85916206D01*
X176772328Y-85916202D01*
X176637482Y-85865908D01*
X176637483Y-85865908D01*
X176577883Y-85859501D01*
X176577881Y-85859500D01*
X176577873Y-85859500D01*
X176577864Y-85859500D01*
X174958129Y-85859500D01*
X174958123Y-85859501D01*
X174898516Y-85865908D01*
X174763671Y-85916202D01*
X174763664Y-85916206D01*
X174648455Y-86002452D01*
X174648452Y-86002455D01*
X174562206Y-86117664D01*
X174562202Y-86117671D01*
X174511908Y-86252517D01*
X174508402Y-86285135D01*
X174505501Y-86312123D01*
X174505500Y-86312135D01*
X174505500Y-88947870D01*
X174505501Y-88947876D01*
X174511908Y-89007483D01*
X174562202Y-89142328D01*
X174562206Y-89142335D01*
X174648452Y-89257544D01*
X174648455Y-89257547D01*
X174763664Y-89343793D01*
X174763671Y-89343797D01*
X174898517Y-89394091D01*
X174898515Y-89394091D01*
X174906756Y-89394977D01*
X174971307Y-89421715D01*
X175011155Y-89479108D01*
X175017500Y-89518266D01*
X175017500Y-91835500D01*
X174997815Y-91902539D01*
X174945011Y-91948294D01*
X174893500Y-91959500D01*
X170387641Y-91959500D01*
X170320602Y-91939815D01*
X170274847Y-91887011D01*
X170264903Y-91817853D01*
X170282103Y-91770403D01*
X170329542Y-91693492D01*
X170329547Y-91693481D01*
X170382855Y-91532606D01*
X170392999Y-91433322D01*
X170393000Y-91433309D01*
X170393000Y-91410000D01*
X168443001Y-91410000D01*
X168443001Y-91433322D01*
X168453144Y-91532607D01*
X168506452Y-91693481D01*
X168506457Y-91693492D01*
X168553897Y-91770403D01*
X168572338Y-91837795D01*
X168551416Y-91904459D01*
X168497774Y-91949228D01*
X168448359Y-91959500D01*
X160227641Y-91959500D01*
X160160602Y-91939815D01*
X160114847Y-91887011D01*
X160104903Y-91817853D01*
X160122103Y-91770403D01*
X160169542Y-91693492D01*
X160169547Y-91693481D01*
X160222855Y-91532606D01*
X160232999Y-91433322D01*
X160233000Y-91433309D01*
X160233000Y-91410000D01*
X158283001Y-91410000D01*
X158283001Y-91433322D01*
X158293144Y-91532607D01*
X158346452Y-91693481D01*
X158346457Y-91693492D01*
X158435424Y-91837728D01*
X158435427Y-91837732D01*
X158444660Y-91846965D01*
X158478145Y-91908288D01*
X158473161Y-91977980D01*
X158444663Y-92022324D01*
X158435033Y-92031953D01*
X158435029Y-92031959D01*
X158346001Y-92176294D01*
X158345996Y-92176305D01*
X158292651Y-92337290D01*
X158282500Y-92436647D01*
X158282500Y-92983337D01*
X158282501Y-92983355D01*
X158292650Y-93082707D01*
X158292651Y-93082710D01*
X158345996Y-93243694D01*
X158346001Y-93243705D01*
X158435029Y-93388040D01*
X158435032Y-93388044D01*
X158471181Y-93424193D01*
X158504666Y-93485516D01*
X158507500Y-93511874D01*
X158507500Y-93817500D01*
X158487815Y-93884539D01*
X158435011Y-93930294D01*
X158383500Y-93941500D01*
X158367304Y-93941500D01*
X158330432Y-93944401D01*
X158330426Y-93944402D01*
X158172606Y-93990254D01*
X158172603Y-93990255D01*
X158031137Y-94073917D01*
X158031129Y-94073923D01*
X157914923Y-94190129D01*
X157914917Y-94190137D01*
X157831255Y-94331603D01*
X157831254Y-94331606D01*
X157785402Y-94489426D01*
X157785401Y-94489432D01*
X157782500Y-94526304D01*
X157782500Y-94957696D01*
X157785401Y-94994567D01*
X157785402Y-94994573D01*
X157831254Y-95152393D01*
X157831255Y-95152396D01*
X157914917Y-95293862D01*
X157919702Y-95300031D01*
X157917256Y-95301927D01*
X157943857Y-95350642D01*
X157938873Y-95420334D01*
X157918069Y-95452703D01*
X157919702Y-95453969D01*
X157914917Y-95460137D01*
X157831255Y-95601603D01*
X157831254Y-95601606D01*
X157785402Y-95759426D01*
X157785401Y-95759432D01*
X157782500Y-95796304D01*
X157782500Y-96227696D01*
X157785401Y-96264567D01*
X157785402Y-96264573D01*
X157831254Y-96422393D01*
X157831255Y-96422396D01*
X157914917Y-96563862D01*
X157919702Y-96570031D01*
X157917256Y-96571927D01*
X157943857Y-96620642D01*
X157938873Y-96690334D01*
X157918073Y-96722716D01*
X157919697Y-96723976D01*
X157914911Y-96730145D01*
X157914199Y-96731349D01*
X157913209Y-96732337D01*
X157910134Y-96736303D01*
X157909633Y-96735914D01*
X157870600Y-96774946D01*
X157855580Y-96783829D01*
X157841414Y-96797995D01*
X157826624Y-96810627D01*
X157810414Y-96822404D01*
X157810411Y-96822407D01*
X157780710Y-96858309D01*
X157776777Y-96862631D01*
X157322298Y-97317109D01*
X157260975Y-97350594D01*
X157191283Y-97345610D01*
X157135350Y-97303738D01*
X157111297Y-97242391D01*
X157095674Y-97093744D01*
X157037179Y-96913716D01*
X156942533Y-96749784D01*
X156924693Y-96729971D01*
X156894464Y-96666981D01*
X156903089Y-96597646D01*
X156924694Y-96564028D01*
X156924843Y-96563862D01*
X156942533Y-96544216D01*
X157037179Y-96380284D01*
X157095674Y-96200256D01*
X157115460Y-96012000D01*
X157095674Y-95823744D01*
X157037179Y-95643716D01*
X156942533Y-95479784D01*
X156924693Y-95459971D01*
X156894464Y-95396981D01*
X156903089Y-95327646D01*
X156924694Y-95294028D01*
X156925889Y-95292701D01*
X156942533Y-95274216D01*
X157037179Y-95110284D01*
X157095674Y-94930256D01*
X157115460Y-94742000D01*
X157095674Y-94553744D01*
X157037179Y-94373716D01*
X156942533Y-94209784D01*
X156815871Y-94069112D01*
X156815870Y-94069111D01*
X156662734Y-93957851D01*
X156662729Y-93957848D01*
X156489807Y-93880857D01*
X156489802Y-93880855D01*
X156344001Y-93849865D01*
X156304646Y-93841500D01*
X156115354Y-93841500D01*
X156082897Y-93848398D01*
X155930197Y-93880855D01*
X155930192Y-93880857D01*
X155757270Y-93957848D01*
X155757265Y-93957851D01*
X155635297Y-94046466D01*
X155569490Y-94069946D01*
X155501437Y-94054120D01*
X155499292Y-94052881D01*
X155475680Y-94038917D01*
X155393398Y-93990256D01*
X155393394Y-93990255D01*
X155393393Y-93990254D01*
X155235573Y-93944402D01*
X155235567Y-93944401D01*
X155198696Y-93941500D01*
X155198694Y-93941500D01*
X153417306Y-93941500D01*
X153417304Y-93941500D01*
X153380432Y-93944401D01*
X153380426Y-93944402D01*
X153222606Y-93990254D01*
X153222603Y-93990255D01*
X153081137Y-94073917D01*
X153081129Y-94073923D01*
X152964923Y-94190129D01*
X152964917Y-94190137D01*
X152881255Y-94331603D01*
X152881254Y-94331606D01*
X152835402Y-94489426D01*
X152835401Y-94489432D01*
X152832500Y-94526304D01*
X152832500Y-94957696D01*
X152835401Y-94994567D01*
X152835402Y-94994573D01*
X152881254Y-95152393D01*
X152881255Y-95152396D01*
X152964917Y-95293862D01*
X152969702Y-95300031D01*
X152967256Y-95301927D01*
X152993857Y-95350642D01*
X152988873Y-95420334D01*
X152968069Y-95452703D01*
X152969702Y-95453969D01*
X152964917Y-95460137D01*
X152881255Y-95601603D01*
X152881254Y-95601606D01*
X152835402Y-95759426D01*
X152835401Y-95759432D01*
X152832500Y-95796304D01*
X152832500Y-96227696D01*
X152835401Y-96264567D01*
X152835402Y-96264573D01*
X152881254Y-96422393D01*
X152881255Y-96422396D01*
X152964917Y-96563862D01*
X152969702Y-96570031D01*
X152967256Y-96571927D01*
X152993857Y-96620642D01*
X152988873Y-96690334D01*
X152968069Y-96722703D01*
X152969702Y-96723969D01*
X152964917Y-96730137D01*
X152881255Y-96871603D01*
X152881254Y-96871606D01*
X152835402Y-97029426D01*
X152835401Y-97029432D01*
X152832500Y-97066304D01*
X152832500Y-97497696D01*
X152835401Y-97534567D01*
X152835402Y-97534573D01*
X152881254Y-97692393D01*
X152881255Y-97692396D01*
X152964917Y-97833862D01*
X152969702Y-97840031D01*
X152967256Y-97841927D01*
X152993857Y-97890642D01*
X152988873Y-97960334D01*
X152968069Y-97992703D01*
X152969702Y-97993969D01*
X152964917Y-98000137D01*
X152881255Y-98141603D01*
X152881254Y-98141606D01*
X152835402Y-98299426D01*
X152835401Y-98299432D01*
X152832500Y-98336304D01*
X152832500Y-98767696D01*
X152835401Y-98804567D01*
X152835402Y-98804573D01*
X152881254Y-98962393D01*
X152881255Y-98962396D01*
X152964917Y-99103862D01*
X152969702Y-99110031D01*
X152967256Y-99111927D01*
X152993857Y-99160642D01*
X152988873Y-99230334D01*
X152968069Y-99262703D01*
X152969702Y-99263969D01*
X152964917Y-99270137D01*
X152881255Y-99411603D01*
X152881254Y-99411606D01*
X152835402Y-99569426D01*
X152835401Y-99569432D01*
X152832500Y-99606304D01*
X152832500Y-100037696D01*
X152835401Y-100074567D01*
X152835402Y-100074573D01*
X152881254Y-100232393D01*
X152881255Y-100232396D01*
X152964917Y-100373862D01*
X152969702Y-100380031D01*
X152967256Y-100381927D01*
X152993857Y-100430642D01*
X152988873Y-100500334D01*
X152968069Y-100532703D01*
X152969702Y-100533969D01*
X152964917Y-100540137D01*
X152881255Y-100681603D01*
X152881254Y-100681606D01*
X152835402Y-100839426D01*
X152835401Y-100839432D01*
X152832500Y-100876304D01*
X152832500Y-101307696D01*
X152835401Y-101344567D01*
X152835402Y-101344573D01*
X152881254Y-101502393D01*
X152881255Y-101502396D01*
X152964917Y-101643862D01*
X152969702Y-101650031D01*
X152967369Y-101651840D01*
X152994210Y-101700995D01*
X152989226Y-101770687D01*
X152968470Y-101803021D01*
X152970097Y-101804283D01*
X152965313Y-101810449D01*
X152881718Y-101951801D01*
X152835899Y-102109513D01*
X152835704Y-102111998D01*
X152835705Y-102112000D01*
X155780295Y-102112000D01*
X155780295Y-102111998D01*
X155780100Y-102109511D01*
X155780099Y-102109509D01*
X155779608Y-102107817D01*
X155779610Y-102106831D01*
X155778962Y-102103280D01*
X155779620Y-102103159D01*
X155779803Y-102037948D01*
X155817741Y-101979276D01*
X155881378Y-101950428D01*
X155924463Y-101951925D01*
X155930196Y-101953143D01*
X155930197Y-101953144D01*
X156115354Y-101992500D01*
X156115355Y-101992500D01*
X156304644Y-101992500D01*
X156304646Y-101992500D01*
X156489803Y-101953144D01*
X156662730Y-101876151D01*
X156662736Y-101876147D01*
X156668363Y-101872899D01*
X156669904Y-101875569D01*
X156722948Y-101856415D01*
X156791062Y-101871980D01*
X156839948Y-101921900D01*
X156854500Y-101980185D01*
X156854500Y-103829547D01*
X156834815Y-103896586D01*
X156818181Y-103917228D01*
X156377728Y-104357681D01*
X156316405Y-104391166D01*
X156290047Y-104394000D01*
X155739602Y-104394000D01*
X155672563Y-104374315D01*
X155626808Y-104321511D01*
X155616864Y-104252353D01*
X155645889Y-104188797D01*
X155650251Y-104184112D01*
X155650685Y-104183552D01*
X155734281Y-104042198D01*
X155780100Y-103884486D01*
X155780295Y-103882001D01*
X155780295Y-103882000D01*
X152835705Y-103882000D01*
X152835704Y-103882001D01*
X152835899Y-103884486D01*
X152881718Y-104042198D01*
X152965314Y-104183552D01*
X152970100Y-104189722D01*
X152968710Y-104190800D01*
X152997564Y-104243642D01*
X152992580Y-104313334D01*
X152950708Y-104369267D01*
X152885244Y-104393684D01*
X152876398Y-104394000D01*
X149984500Y-104394000D01*
X149917461Y-104374315D01*
X149871706Y-104321511D01*
X149860500Y-104270000D01*
X149860500Y-103381998D01*
X152835704Y-103381998D01*
X152835705Y-103382000D01*
X154058000Y-103382000D01*
X154058000Y-102612000D01*
X154558000Y-102612000D01*
X154558000Y-103382000D01*
X155780295Y-103382000D01*
X155780295Y-103381998D01*
X155780100Y-103379513D01*
X155734281Y-103221801D01*
X155650685Y-103080447D01*
X155645900Y-103074278D01*
X155648252Y-103072453D01*
X155621445Y-103023405D01*
X155626402Y-102953712D01*
X155647465Y-102920936D01*
X155645900Y-102919722D01*
X155650685Y-102913552D01*
X155734281Y-102772198D01*
X155780100Y-102614486D01*
X155780295Y-102612001D01*
X155780295Y-102612000D01*
X154558000Y-102612000D01*
X154058000Y-102612000D01*
X152835705Y-102612000D01*
X152835704Y-102612001D01*
X152835899Y-102614486D01*
X152881718Y-102772198D01*
X152965314Y-102913552D01*
X152970100Y-102919722D01*
X152967753Y-102921542D01*
X152994564Y-102970642D01*
X152989580Y-103040334D01*
X152968541Y-103073069D01*
X152970100Y-103074278D01*
X152965314Y-103080447D01*
X152881718Y-103221801D01*
X152835899Y-103379513D01*
X152835704Y-103381998D01*
X149860500Y-103381998D01*
X149860500Y-87630000D01*
X151806341Y-87630000D01*
X151826936Y-87865403D01*
X151826938Y-87865413D01*
X151888094Y-88093655D01*
X151888096Y-88093659D01*
X151888097Y-88093663D01*
X151938031Y-88200746D01*
X151987964Y-88307828D01*
X151987965Y-88307830D01*
X152123505Y-88501402D01*
X152290597Y-88668494D01*
X152484169Y-88804034D01*
X152484171Y-88804035D01*
X152698337Y-88903903D01*
X152926592Y-88965063D01*
X153103034Y-88980500D01*
X153220966Y-88980500D01*
X153397408Y-88965063D01*
X153461574Y-88947870D01*
X156471500Y-88947870D01*
X156471501Y-88947876D01*
X156477908Y-89007483D01*
X156528202Y-89142328D01*
X156528206Y-89142335D01*
X156614452Y-89257544D01*
X156614455Y-89257547D01*
X156729664Y-89343793D01*
X156729671Y-89343797D01*
X156774618Y-89360561D01*
X156864517Y-89394091D01*
X156924127Y-89400500D01*
X156936605Y-89400499D01*
X157003643Y-89420179D01*
X157049401Y-89472980D01*
X157059349Y-89542138D01*
X157030328Y-89605696D01*
X157028761Y-89607470D01*
X157001466Y-89637784D01*
X156906821Y-89801715D01*
X156906818Y-89801722D01*
X156848327Y-89981740D01*
X156848326Y-89981744D01*
X156828540Y-90170000D01*
X156848326Y-90358256D01*
X156848327Y-90358259D01*
X156906818Y-90538277D01*
X156906821Y-90538284D01*
X157001467Y-90702216D01*
X157078160Y-90787392D01*
X157128129Y-90842888D01*
X157281265Y-90954148D01*
X157281270Y-90954151D01*
X157454192Y-91031142D01*
X157454197Y-91031144D01*
X157639354Y-91070500D01*
X157639355Y-91070500D01*
X157828644Y-91070500D01*
X157828646Y-91070500D01*
X158013803Y-91031144D01*
X158186730Y-90954151D01*
X158211713Y-90936000D01*
X158214904Y-90933682D01*
X158280710Y-90910202D01*
X158287789Y-90910000D01*
X159008000Y-90910000D01*
X159508000Y-90910000D01*
X160238405Y-90910000D01*
X160287815Y-90883019D01*
X160357507Y-90888003D01*
X160387056Y-90903864D01*
X160452632Y-90951508D01*
X160456270Y-90954151D01*
X160629192Y-91031142D01*
X160629197Y-91031144D01*
X160814354Y-91070500D01*
X160814355Y-91070500D01*
X161003644Y-91070500D01*
X161003646Y-91070500D01*
X161188803Y-91031144D01*
X161361730Y-90954151D01*
X161514871Y-90842888D01*
X161641533Y-90702216D01*
X161736179Y-90538284D01*
X161794674Y-90358256D01*
X161814460Y-90170000D01*
X161794674Y-89981744D01*
X161736179Y-89801716D01*
X161641533Y-89637784D01*
X161614238Y-89607470D01*
X161584009Y-89544480D01*
X161592634Y-89475144D01*
X161637376Y-89421479D01*
X161704028Y-89400521D01*
X161706389Y-89400499D01*
X161718871Y-89400499D01*
X161718872Y-89400499D01*
X161778483Y-89394091D01*
X161913331Y-89343796D01*
X162028546Y-89257546D01*
X162114796Y-89142331D01*
X162165091Y-89007483D01*
X162171500Y-88947873D01*
X162171500Y-88947870D01*
X162821500Y-88947870D01*
X162821501Y-88947876D01*
X162827908Y-89007483D01*
X162878202Y-89142328D01*
X162878206Y-89142335D01*
X162964452Y-89257544D01*
X162964455Y-89257547D01*
X163079664Y-89343793D01*
X163079671Y-89343797D01*
X163124618Y-89360561D01*
X163214517Y-89394091D01*
X163274127Y-89400500D01*
X163286605Y-89400499D01*
X163353643Y-89420179D01*
X163399401Y-89472980D01*
X163409349Y-89542138D01*
X163380328Y-89605696D01*
X163378761Y-89607470D01*
X163351466Y-89637784D01*
X163256821Y-89801715D01*
X163256818Y-89801722D01*
X163198327Y-89981740D01*
X163198326Y-89981744D01*
X163178540Y-90170000D01*
X163198326Y-90358256D01*
X163198327Y-90358259D01*
X163256818Y-90538277D01*
X163256821Y-90538284D01*
X163351467Y-90702216D01*
X163428160Y-90787392D01*
X163478129Y-90842888D01*
X163631265Y-90954148D01*
X163631270Y-90954151D01*
X163804192Y-91031142D01*
X163804197Y-91031144D01*
X163989354Y-91070500D01*
X163989355Y-91070500D01*
X164178644Y-91070500D01*
X164178646Y-91070500D01*
X164363803Y-91031144D01*
X164536730Y-90954151D01*
X164689871Y-90842888D01*
X164816533Y-90702216D01*
X164911179Y-90538284D01*
X164969674Y-90358256D01*
X164989460Y-90170000D01*
X164969674Y-89981744D01*
X164911179Y-89801716D01*
X164816533Y-89637784D01*
X164789238Y-89607470D01*
X164759009Y-89544480D01*
X164767634Y-89475144D01*
X164812376Y-89421479D01*
X164879028Y-89400521D01*
X164881389Y-89400499D01*
X164893871Y-89400499D01*
X164893872Y-89400499D01*
X164953483Y-89394091D01*
X165088331Y-89343796D01*
X165203546Y-89257546D01*
X165289796Y-89142331D01*
X165340091Y-89007483D01*
X165346500Y-88947873D01*
X165346500Y-88947870D01*
X165996500Y-88947870D01*
X165996501Y-88947876D01*
X166002908Y-89007483D01*
X166053202Y-89142328D01*
X166053206Y-89142335D01*
X166139452Y-89257544D01*
X166139455Y-89257547D01*
X166254664Y-89343793D01*
X166254671Y-89343797D01*
X166299618Y-89360561D01*
X166389517Y-89394091D01*
X166449127Y-89400500D01*
X166461605Y-89400499D01*
X166528643Y-89420179D01*
X166574401Y-89472980D01*
X166584349Y-89542138D01*
X166555328Y-89605696D01*
X166553761Y-89607470D01*
X166526466Y-89637784D01*
X166431821Y-89801715D01*
X166431818Y-89801722D01*
X166373327Y-89981740D01*
X166373326Y-89981744D01*
X166353540Y-90170000D01*
X166373326Y-90358256D01*
X166373327Y-90358259D01*
X166431818Y-90538277D01*
X166431821Y-90538284D01*
X166526467Y-90702216D01*
X166603160Y-90787392D01*
X166653129Y-90842888D01*
X166806265Y-90954148D01*
X166806270Y-90954151D01*
X166979192Y-91031142D01*
X166979197Y-91031144D01*
X167164354Y-91070500D01*
X167164355Y-91070500D01*
X167353644Y-91070500D01*
X167353646Y-91070500D01*
X167538803Y-91031144D01*
X167711730Y-90954151D01*
X167772499Y-90910000D01*
X168443000Y-90910000D01*
X169168000Y-90910000D01*
X169168000Y-90210000D01*
X169167999Y-90209999D01*
X169119693Y-90210000D01*
X169119675Y-90210001D01*
X169020392Y-90220144D01*
X168859518Y-90273452D01*
X168859507Y-90273457D01*
X168715271Y-90362424D01*
X168715267Y-90362427D01*
X168595427Y-90482267D01*
X168595424Y-90482271D01*
X168506457Y-90626507D01*
X168506452Y-90626518D01*
X168453144Y-90787393D01*
X168443000Y-90886677D01*
X168443000Y-90910000D01*
X167772499Y-90910000D01*
X167864871Y-90842888D01*
X167991533Y-90702216D01*
X168086179Y-90538284D01*
X168144674Y-90358256D01*
X168164460Y-90170000D01*
X168144674Y-89981744D01*
X168086179Y-89801716D01*
X167991533Y-89637784D01*
X167964238Y-89607470D01*
X167934009Y-89544480D01*
X167942634Y-89475144D01*
X167987376Y-89421479D01*
X168054028Y-89400521D01*
X168056389Y-89400499D01*
X168068871Y-89400499D01*
X168068872Y-89400499D01*
X168128483Y-89394091D01*
X168263331Y-89343796D01*
X168378546Y-89257546D01*
X168464796Y-89142331D01*
X168515091Y-89007483D01*
X168521500Y-88947873D01*
X168521500Y-88947870D01*
X169171500Y-88947870D01*
X169171501Y-88947876D01*
X169177908Y-89007483D01*
X169228202Y-89142328D01*
X169228206Y-89142335D01*
X169314452Y-89257544D01*
X169314455Y-89257547D01*
X169429664Y-89343793D01*
X169429671Y-89343797D01*
X169474618Y-89360561D01*
X169564517Y-89394091D01*
X169624127Y-89400500D01*
X169636605Y-89400499D01*
X169703643Y-89420179D01*
X169749401Y-89472980D01*
X169759349Y-89542138D01*
X169730328Y-89605696D01*
X169728761Y-89607470D01*
X169701466Y-89637784D01*
X169606821Y-89801715D01*
X169606818Y-89801722D01*
X169548327Y-89981740D01*
X169548326Y-89981744D01*
X169528540Y-90170000D01*
X169548326Y-90358256D01*
X169548327Y-90358259D01*
X169606818Y-90538277D01*
X169606821Y-90538284D01*
X169651387Y-90615474D01*
X169668000Y-90677474D01*
X169668000Y-90910000D01*
X169880211Y-90910000D01*
X169947250Y-90929685D01*
X169953096Y-90933682D01*
X169981265Y-90954148D01*
X169981270Y-90954151D01*
X170154192Y-91031142D01*
X170154197Y-91031144D01*
X170339354Y-91070500D01*
X170339355Y-91070500D01*
X170528644Y-91070500D01*
X170528646Y-91070500D01*
X170713803Y-91031144D01*
X170886730Y-90954151D01*
X171039871Y-90842888D01*
X171166533Y-90702216D01*
X171261179Y-90538284D01*
X171319674Y-90358256D01*
X171339460Y-90170000D01*
X171319674Y-89981744D01*
X171261179Y-89801716D01*
X171166533Y-89637784D01*
X171139238Y-89607470D01*
X171109009Y-89544480D01*
X171117634Y-89475144D01*
X171162376Y-89421479D01*
X171229028Y-89400521D01*
X171231389Y-89400499D01*
X171243871Y-89400499D01*
X171243872Y-89400499D01*
X171303483Y-89394091D01*
X171438331Y-89343796D01*
X171553546Y-89257546D01*
X171639796Y-89142331D01*
X171690091Y-89007483D01*
X171696500Y-88947873D01*
X171696499Y-86312128D01*
X171690091Y-86252517D01*
X171680020Y-86225516D01*
X171639797Y-86117671D01*
X171639793Y-86117664D01*
X171553547Y-86002455D01*
X171553544Y-86002452D01*
X171438335Y-85916206D01*
X171438328Y-85916202D01*
X171303482Y-85865908D01*
X171303483Y-85865908D01*
X171243883Y-85859501D01*
X171243881Y-85859500D01*
X171243873Y-85859500D01*
X171243864Y-85859500D01*
X169624129Y-85859500D01*
X169624123Y-85859501D01*
X169564516Y-85865908D01*
X169429671Y-85916202D01*
X169429664Y-85916206D01*
X169314455Y-86002452D01*
X169314452Y-86002455D01*
X169228206Y-86117664D01*
X169228202Y-86117671D01*
X169177908Y-86252517D01*
X169174402Y-86285135D01*
X169171501Y-86312123D01*
X169171500Y-86312135D01*
X169171500Y-88947870D01*
X168521500Y-88947870D01*
X168521499Y-86312128D01*
X168515091Y-86252517D01*
X168505020Y-86225516D01*
X168464797Y-86117671D01*
X168464793Y-86117664D01*
X168378547Y-86002455D01*
X168378544Y-86002452D01*
X168263335Y-85916206D01*
X168263328Y-85916202D01*
X168128482Y-85865908D01*
X168128483Y-85865908D01*
X168068883Y-85859501D01*
X168068881Y-85859500D01*
X168068873Y-85859500D01*
X168068864Y-85859500D01*
X166449129Y-85859500D01*
X166449123Y-85859501D01*
X166389516Y-85865908D01*
X166254671Y-85916202D01*
X166254664Y-85916206D01*
X166139455Y-86002452D01*
X166139452Y-86002455D01*
X166053206Y-86117664D01*
X166053202Y-86117671D01*
X166002908Y-86252517D01*
X165999402Y-86285135D01*
X165996501Y-86312123D01*
X165996500Y-86312135D01*
X165996500Y-88947870D01*
X165346500Y-88947870D01*
X165346499Y-86312128D01*
X165340091Y-86252517D01*
X165330020Y-86225516D01*
X165289797Y-86117671D01*
X165289793Y-86117664D01*
X165203547Y-86002455D01*
X165203544Y-86002452D01*
X165088335Y-85916206D01*
X165088328Y-85916202D01*
X164953482Y-85865908D01*
X164953483Y-85865908D01*
X164893883Y-85859501D01*
X164893881Y-85859500D01*
X164893873Y-85859500D01*
X164893864Y-85859500D01*
X163274129Y-85859500D01*
X163274123Y-85859501D01*
X163214516Y-85865908D01*
X163079671Y-85916202D01*
X163079664Y-85916206D01*
X162964455Y-86002452D01*
X162964452Y-86002455D01*
X162878206Y-86117664D01*
X162878202Y-86117671D01*
X162827908Y-86252517D01*
X162824402Y-86285135D01*
X162821501Y-86312123D01*
X162821500Y-86312135D01*
X162821500Y-88947870D01*
X162171500Y-88947870D01*
X162171499Y-86312128D01*
X162165091Y-86252517D01*
X162155020Y-86225516D01*
X162114797Y-86117671D01*
X162114793Y-86117664D01*
X162028547Y-86002455D01*
X162028544Y-86002452D01*
X161913335Y-85916206D01*
X161913328Y-85916202D01*
X161778482Y-85865908D01*
X161778483Y-85865908D01*
X161718883Y-85859501D01*
X161718881Y-85859500D01*
X161718873Y-85859500D01*
X161718864Y-85859500D01*
X160099129Y-85859500D01*
X160099123Y-85859501D01*
X160039516Y-85865908D01*
X159904671Y-85916202D01*
X159904664Y-85916206D01*
X159789455Y-86002452D01*
X159789452Y-86002455D01*
X159703206Y-86117664D01*
X159703202Y-86117671D01*
X159652908Y-86252517D01*
X159649402Y-86285135D01*
X159646501Y-86312123D01*
X159646500Y-86312135D01*
X159646500Y-88947870D01*
X159646501Y-88947876D01*
X159652908Y-89007483D01*
X159703202Y-89142328D01*
X159703206Y-89142335D01*
X159789452Y-89257544D01*
X159789455Y-89257547D01*
X159904664Y-89343793D01*
X159904671Y-89343797D01*
X159949618Y-89360561D01*
X160039517Y-89394091D01*
X160099127Y-89400500D01*
X160111605Y-89400499D01*
X160178643Y-89420179D01*
X160224401Y-89472980D01*
X160234349Y-89542138D01*
X160205328Y-89605696D01*
X160203761Y-89607470D01*
X160176466Y-89637784D01*
X160081821Y-89801715D01*
X160081818Y-89801722D01*
X160023327Y-89981740D01*
X160023326Y-89981744D01*
X160005525Y-90151115D01*
X160002861Y-90176463D01*
X160000725Y-90176238D01*
X159983855Y-90233694D01*
X159931051Y-90279449D01*
X159861893Y-90289393D01*
X159823509Y-90275482D01*
X159823032Y-90276507D01*
X159816481Y-90273452D01*
X159655606Y-90220144D01*
X159556322Y-90210000D01*
X159508000Y-90210000D01*
X159508000Y-90910000D01*
X159008000Y-90910000D01*
X159008000Y-90210000D01*
X159007999Y-90209999D01*
X158959693Y-90210000D01*
X158959675Y-90210001D01*
X158860393Y-90220144D01*
X158798209Y-90240749D01*
X158728381Y-90243149D01*
X158668339Y-90207417D01*
X158637148Y-90144896D01*
X158635889Y-90136026D01*
X158619674Y-89981744D01*
X158561179Y-89801716D01*
X158466533Y-89637784D01*
X158439238Y-89607470D01*
X158409009Y-89544480D01*
X158417634Y-89475144D01*
X158462376Y-89421479D01*
X158529028Y-89400521D01*
X158531389Y-89400499D01*
X158543871Y-89400499D01*
X158543872Y-89400499D01*
X158603483Y-89394091D01*
X158738331Y-89343796D01*
X158853546Y-89257546D01*
X158939796Y-89142331D01*
X158990091Y-89007483D01*
X158996500Y-88947873D01*
X158996499Y-86312128D01*
X158990091Y-86252517D01*
X158980020Y-86225516D01*
X158939797Y-86117671D01*
X158939793Y-86117664D01*
X158853547Y-86002455D01*
X158853544Y-86002452D01*
X158738335Y-85916206D01*
X158738328Y-85916202D01*
X158603482Y-85865908D01*
X158603483Y-85865908D01*
X158543883Y-85859501D01*
X158543881Y-85859500D01*
X158543873Y-85859500D01*
X158543864Y-85859500D01*
X156924129Y-85859500D01*
X156924123Y-85859501D01*
X156864516Y-85865908D01*
X156729671Y-85916202D01*
X156729664Y-85916206D01*
X156614455Y-86002452D01*
X156614452Y-86002455D01*
X156528206Y-86117664D01*
X156528202Y-86117671D01*
X156477908Y-86252517D01*
X156474402Y-86285135D01*
X156471501Y-86312123D01*
X156471500Y-86312135D01*
X156471500Y-88947870D01*
X153461574Y-88947870D01*
X153625663Y-88903903D01*
X153839829Y-88804035D01*
X154033401Y-88668495D01*
X154200495Y-88501401D01*
X154336035Y-88307830D01*
X154435903Y-88093663D01*
X154497063Y-87865408D01*
X154517659Y-87630000D01*
X154497063Y-87394592D01*
X154435903Y-87166337D01*
X154336035Y-86952171D01*
X154336034Y-86952169D01*
X154200494Y-86758597D01*
X154033402Y-86591505D01*
X153839830Y-86455965D01*
X153839828Y-86455964D01*
X153732746Y-86406031D01*
X153625663Y-86356097D01*
X153625659Y-86356096D01*
X153625655Y-86356094D01*
X153397413Y-86294938D01*
X153397403Y-86294936D01*
X153220966Y-86279500D01*
X153103034Y-86279500D01*
X152926596Y-86294936D01*
X152926586Y-86294938D01*
X152698344Y-86356094D01*
X152698335Y-86356098D01*
X152484171Y-86455964D01*
X152484169Y-86455965D01*
X152290597Y-86591505D01*
X152123506Y-86758597D01*
X152123501Y-86758604D01*
X151987967Y-86952165D01*
X151987965Y-86952169D01*
X151888098Y-87166335D01*
X151888094Y-87166344D01*
X151826938Y-87394586D01*
X151826936Y-87394596D01*
X151806341Y-87629999D01*
X151806341Y-87630000D01*
X149860500Y-87630000D01*
X149860500Y-84198500D01*
X149880185Y-84131461D01*
X149932989Y-84085706D01*
X149984500Y-84074500D01*
X205107500Y-84074500D01*
X205174539Y-84094185D01*
G37*
%TD.AperFunction*%
%TA.AperFunction,Conductor*%
G36*
X175747959Y-93460604D02*
G01*
X175811935Y-93464331D01*
X175822977Y-93462384D01*
X175844509Y-93460500D01*
X179465500Y-93460500D01*
X179532539Y-93480185D01*
X179578294Y-93532989D01*
X179589500Y-93584500D01*
X179589500Y-93817500D01*
X179569815Y-93884539D01*
X179517011Y-93930294D01*
X179465500Y-93941500D01*
X179449304Y-93941500D01*
X179412432Y-93944401D01*
X179412426Y-93944402D01*
X179254606Y-93990254D01*
X179254603Y-93990255D01*
X179113137Y-94073917D01*
X179113129Y-94073923D01*
X178996923Y-94190129D01*
X178996917Y-94190137D01*
X178913255Y-94331603D01*
X178913254Y-94331606D01*
X178867402Y-94489426D01*
X178867401Y-94489432D01*
X178864500Y-94526304D01*
X178864500Y-94957696D01*
X178867401Y-94994567D01*
X178867402Y-94994573D01*
X178913254Y-95152393D01*
X178913255Y-95152396D01*
X178996917Y-95293862D01*
X179001702Y-95300031D01*
X178999256Y-95301927D01*
X179025857Y-95350642D01*
X179020873Y-95420334D01*
X179000069Y-95452703D01*
X179001702Y-95453969D01*
X178996917Y-95460137D01*
X178913255Y-95601603D01*
X178913254Y-95601606D01*
X178867402Y-95759426D01*
X178867401Y-95759432D01*
X178864500Y-95796304D01*
X178864500Y-96227696D01*
X178867401Y-96264567D01*
X178867402Y-96264573D01*
X178913254Y-96422393D01*
X178913255Y-96422396D01*
X178996917Y-96563862D01*
X179001702Y-96570031D01*
X178999256Y-96571927D01*
X179025857Y-96620642D01*
X179020873Y-96690334D01*
X179000069Y-96722703D01*
X179001702Y-96723969D01*
X178996917Y-96730137D01*
X178913255Y-96871603D01*
X178913254Y-96871606D01*
X178867402Y-97029426D01*
X178867401Y-97029432D01*
X178864500Y-97066304D01*
X178864500Y-97497696D01*
X178867401Y-97534567D01*
X178867402Y-97534573D01*
X178913254Y-97692393D01*
X178913255Y-97692396D01*
X178996917Y-97833862D01*
X179001702Y-97840031D01*
X178999256Y-97841927D01*
X179025857Y-97890642D01*
X179020873Y-97960334D01*
X179000069Y-97992703D01*
X179001702Y-97993969D01*
X178996917Y-98000137D01*
X178913255Y-98141603D01*
X178913254Y-98141606D01*
X178867402Y-98299426D01*
X178867401Y-98299432D01*
X178864500Y-98336304D01*
X178864500Y-98767696D01*
X178867401Y-98804567D01*
X178867402Y-98804573D01*
X178913254Y-98962393D01*
X178913255Y-98962396D01*
X178996917Y-99103862D01*
X179001702Y-99110031D01*
X178999256Y-99111927D01*
X179025857Y-99160642D01*
X179020873Y-99230334D01*
X179000069Y-99262703D01*
X179001702Y-99263969D01*
X178996917Y-99270137D01*
X178913255Y-99411603D01*
X178913254Y-99411606D01*
X178867402Y-99569426D01*
X178867401Y-99569432D01*
X178864500Y-99606304D01*
X178864500Y-100037696D01*
X178867401Y-100074567D01*
X178867402Y-100074573D01*
X178913254Y-100232393D01*
X178913255Y-100232396D01*
X178996917Y-100373862D01*
X179001702Y-100380031D01*
X178999256Y-100381927D01*
X179025857Y-100430642D01*
X179020873Y-100500334D01*
X179000069Y-100532703D01*
X179001702Y-100533969D01*
X178996917Y-100540137D01*
X178913255Y-100681603D01*
X178913254Y-100681606D01*
X178867402Y-100839426D01*
X178867401Y-100839432D01*
X178864500Y-100876304D01*
X178864500Y-101307696D01*
X178867401Y-101344567D01*
X178867402Y-101344573D01*
X178913254Y-101502393D01*
X178913254Y-101502394D01*
X178958631Y-101579124D01*
X178975812Y-101646848D01*
X178953652Y-101713111D01*
X178899186Y-101756873D01*
X178897544Y-101757537D01*
X178869879Y-101768490D01*
X178864353Y-101770382D01*
X178819608Y-101783383D01*
X178819604Y-101783385D01*
X178802365Y-101793580D01*
X178784898Y-101802137D01*
X178766269Y-101809512D01*
X178766267Y-101809513D01*
X178728564Y-101836906D01*
X178723682Y-101840112D01*
X178683580Y-101863828D01*
X178669408Y-101878000D01*
X178654623Y-101890628D01*
X178638412Y-101902407D01*
X178608709Y-101938310D01*
X178604777Y-101942631D01*
X178178208Y-102369199D01*
X178165951Y-102379020D01*
X178166134Y-102379241D01*
X178160123Y-102384213D01*
X178112772Y-102434636D01*
X178091889Y-102455519D01*
X178091877Y-102455532D01*
X178087621Y-102461017D01*
X178083837Y-102465447D01*
X178051937Y-102499418D01*
X178051936Y-102499420D01*
X178042284Y-102516976D01*
X178031610Y-102533226D01*
X178019329Y-102549061D01*
X178019324Y-102549068D01*
X178000815Y-102591838D01*
X177998245Y-102597084D01*
X177975803Y-102637906D01*
X177970822Y-102657307D01*
X177964521Y-102675710D01*
X177956562Y-102694102D01*
X177956561Y-102694105D01*
X177949271Y-102740127D01*
X177948087Y-102745846D01*
X177936501Y-102790972D01*
X177936500Y-102790982D01*
X177936500Y-102811016D01*
X177934973Y-102830415D01*
X177931840Y-102850194D01*
X177931840Y-102850195D01*
X177936225Y-102896583D01*
X177936500Y-102902421D01*
X177936500Y-103702500D01*
X177916815Y-103769539D01*
X177864011Y-103815294D01*
X177812500Y-103826500D01*
X175535945Y-103826500D01*
X175520328Y-103824776D01*
X175520301Y-103825062D01*
X175512539Y-103824327D01*
X175443411Y-103826500D01*
X175413858Y-103826500D01*
X175413137Y-103826590D01*
X175406965Y-103827369D01*
X175401153Y-103827826D01*
X175354580Y-103829290D01*
X175354577Y-103829291D01*
X175335334Y-103834881D01*
X175316291Y-103838825D01*
X175296412Y-103841336D01*
X175296411Y-103841337D01*
X175253086Y-103858490D01*
X175247560Y-103860382D01*
X175195330Y-103875559D01*
X175194932Y-103874190D01*
X175157227Y-103882000D01*
X173917705Y-103882000D01*
X173917704Y-103882001D01*
X173917899Y-103884486D01*
X173963718Y-104042198D01*
X174047314Y-104183552D01*
X174052100Y-104189722D01*
X174050710Y-104190800D01*
X174079564Y-104243642D01*
X174074580Y-104313334D01*
X174032708Y-104369267D01*
X173967244Y-104393684D01*
X173958398Y-104394000D01*
X170850309Y-104394000D01*
X170783270Y-104374315D01*
X170737515Y-104321511D01*
X170727571Y-104252353D01*
X170756596Y-104188797D01*
X170760543Y-104184558D01*
X170761075Y-104183870D01*
X170761081Y-104183865D01*
X170844744Y-104042398D01*
X170887107Y-103896586D01*
X170890597Y-103884573D01*
X170890598Y-103884567D01*
X170890605Y-103884486D01*
X170892349Y-103862315D01*
X170893500Y-103847696D01*
X170893500Y-103416304D01*
X170890800Y-103381998D01*
X173917704Y-103381998D01*
X173917705Y-103382000D01*
X175140000Y-103382000D01*
X175140000Y-102612000D01*
X175640000Y-102612000D01*
X175640000Y-103382000D01*
X176862295Y-103382000D01*
X176862295Y-103381998D01*
X176862100Y-103379513D01*
X176816281Y-103221801D01*
X176732685Y-103080447D01*
X176727900Y-103074278D01*
X176730252Y-103072453D01*
X176703445Y-103023405D01*
X176708402Y-102953712D01*
X176729465Y-102920936D01*
X176727900Y-102919722D01*
X176732685Y-102913552D01*
X176816281Y-102772198D01*
X176862100Y-102614486D01*
X176862295Y-102612001D01*
X176862295Y-102612000D01*
X175640000Y-102612000D01*
X175140000Y-102612000D01*
X173917705Y-102612000D01*
X173917704Y-102612001D01*
X173917899Y-102614486D01*
X173963718Y-102772198D01*
X174047314Y-102913552D01*
X174052100Y-102919722D01*
X174049753Y-102921542D01*
X174076564Y-102970642D01*
X174071580Y-103040334D01*
X174050541Y-103073069D01*
X174052100Y-103074278D01*
X174047314Y-103080447D01*
X173963718Y-103221801D01*
X173917899Y-103379513D01*
X173917704Y-103381998D01*
X170890800Y-103381998D01*
X170890598Y-103379432D01*
X170890597Y-103379426D01*
X170871435Y-103313471D01*
X170871634Y-103243602D01*
X170909576Y-103184932D01*
X170973214Y-103156088D01*
X171040944Y-103165596D01*
X171170197Y-103223144D01*
X171355354Y-103262500D01*
X171355355Y-103262500D01*
X171544644Y-103262500D01*
X171544646Y-103262500D01*
X171729803Y-103223144D01*
X171902730Y-103146151D01*
X172055871Y-103034888D01*
X172182533Y-102894216D01*
X172277179Y-102730284D01*
X172335674Y-102550256D01*
X172355460Y-102362000D01*
X172335674Y-102173744D01*
X172277179Y-101993716D01*
X172182533Y-101829784D01*
X172164693Y-101809971D01*
X172134464Y-101746981D01*
X172143089Y-101677646D01*
X172164694Y-101644028D01*
X172164845Y-101643860D01*
X172182533Y-101624216D01*
X172277179Y-101460284D01*
X172326758Y-101307696D01*
X173914500Y-101307696D01*
X173917401Y-101344567D01*
X173917402Y-101344573D01*
X173963254Y-101502393D01*
X173963255Y-101502396D01*
X174046917Y-101643862D01*
X174051702Y-101650031D01*
X174049369Y-101651840D01*
X174076210Y-101700995D01*
X174071226Y-101770687D01*
X174050470Y-101803021D01*
X174052097Y-101804283D01*
X174047313Y-101810449D01*
X173963718Y-101951801D01*
X173917899Y-102109513D01*
X173917704Y-102111998D01*
X173917705Y-102112000D01*
X176862295Y-102112000D01*
X176862295Y-102111998D01*
X176862100Y-102109511D01*
X176862099Y-102109505D01*
X176815357Y-101948617D01*
X176815556Y-101878747D01*
X176853498Y-101820077D01*
X176917137Y-101791234D01*
X176986267Y-101801375D01*
X177007318Y-101813704D01*
X177093265Y-101876148D01*
X177093270Y-101876151D01*
X177266192Y-101953142D01*
X177266197Y-101953144D01*
X177451354Y-101992500D01*
X177451355Y-101992500D01*
X177640644Y-101992500D01*
X177640646Y-101992500D01*
X177825803Y-101953144D01*
X177998730Y-101876151D01*
X178151871Y-101764888D01*
X178278533Y-101624216D01*
X178373179Y-101460284D01*
X178431674Y-101280256D01*
X178451460Y-101092000D01*
X178431674Y-100903744D01*
X178373179Y-100723716D01*
X178278533Y-100559784D01*
X178260693Y-100539971D01*
X178230464Y-100476981D01*
X178239089Y-100407646D01*
X178260694Y-100374028D01*
X178260843Y-100373862D01*
X178278533Y-100354216D01*
X178373179Y-100190284D01*
X178431674Y-100010256D01*
X178451460Y-99822000D01*
X178431674Y-99633744D01*
X178373179Y-99453716D01*
X178278533Y-99289784D01*
X178260693Y-99269971D01*
X178230464Y-99206981D01*
X178239089Y-99137646D01*
X178260694Y-99104028D01*
X178260843Y-99103862D01*
X178278533Y-99084216D01*
X178373179Y-98920284D01*
X178431674Y-98740256D01*
X178451460Y-98552000D01*
X178431674Y-98363744D01*
X178373179Y-98183716D01*
X178278533Y-98019784D01*
X178260693Y-97999971D01*
X178230464Y-97936981D01*
X178239089Y-97867646D01*
X178260694Y-97834028D01*
X178260843Y-97833862D01*
X178278533Y-97814216D01*
X178373179Y-97650284D01*
X178431674Y-97470256D01*
X178451460Y-97282000D01*
X178431674Y-97093744D01*
X178373179Y-96913716D01*
X178278533Y-96749784D01*
X178260693Y-96729971D01*
X178230464Y-96666981D01*
X178239089Y-96597646D01*
X178260694Y-96564028D01*
X178260843Y-96563862D01*
X178278533Y-96544216D01*
X178373179Y-96380284D01*
X178431674Y-96200256D01*
X178451460Y-96012000D01*
X178431674Y-95823744D01*
X178373179Y-95643716D01*
X178278533Y-95479784D01*
X178260693Y-95459971D01*
X178230464Y-95396981D01*
X178239089Y-95327646D01*
X178260694Y-95294028D01*
X178261889Y-95292701D01*
X178278533Y-95274216D01*
X178373179Y-95110284D01*
X178431674Y-94930256D01*
X178451460Y-94742000D01*
X178431674Y-94553744D01*
X178373179Y-94373716D01*
X178278533Y-94209784D01*
X178151871Y-94069112D01*
X178151870Y-94069111D01*
X177998734Y-93957851D01*
X177998729Y-93957848D01*
X177825807Y-93880857D01*
X177825802Y-93880855D01*
X177680001Y-93849865D01*
X177640646Y-93841500D01*
X177451354Y-93841500D01*
X177418897Y-93848398D01*
X177266197Y-93880855D01*
X177266192Y-93880857D01*
X177093270Y-93957848D01*
X177093265Y-93957851D01*
X176940130Y-94069110D01*
X176940126Y-94069114D01*
X176934400Y-94075474D01*
X176874913Y-94112121D01*
X176842252Y-94116500D01*
X176710809Y-94116500D01*
X176643770Y-94096815D01*
X176623128Y-94080181D01*
X176616870Y-94073923D01*
X176616862Y-94073917D01*
X176475396Y-93990255D01*
X176475393Y-93990254D01*
X176317573Y-93944402D01*
X176317567Y-93944401D01*
X176280696Y-93941500D01*
X176280694Y-93941500D01*
X174499306Y-93941500D01*
X174499304Y-93941500D01*
X174462432Y-93944401D01*
X174462426Y-93944402D01*
X174304606Y-93990254D01*
X174304603Y-93990255D01*
X174163137Y-94073917D01*
X174163129Y-94073923D01*
X174046923Y-94190129D01*
X174046917Y-94190137D01*
X173963255Y-94331603D01*
X173963254Y-94331606D01*
X173917402Y-94489426D01*
X173917401Y-94489432D01*
X173914500Y-94526304D01*
X173914500Y-94957696D01*
X173917401Y-94994567D01*
X173917402Y-94994573D01*
X173963254Y-95152393D01*
X173963255Y-95152396D01*
X174046917Y-95293862D01*
X174051702Y-95300031D01*
X174049256Y-95301927D01*
X174075857Y-95350642D01*
X174070873Y-95420334D01*
X174050069Y-95452703D01*
X174051702Y-95453969D01*
X174046917Y-95460137D01*
X173963255Y-95601603D01*
X173963254Y-95601606D01*
X173917402Y-95759426D01*
X173917401Y-95759432D01*
X173914500Y-95796304D01*
X173914500Y-96227696D01*
X173917401Y-96264567D01*
X173917402Y-96264573D01*
X173963254Y-96422393D01*
X173963255Y-96422396D01*
X174046917Y-96563862D01*
X174051702Y-96570031D01*
X174049256Y-96571927D01*
X174075857Y-96620642D01*
X174070873Y-96690334D01*
X174050069Y-96722703D01*
X174051702Y-96723969D01*
X174046917Y-96730137D01*
X173963255Y-96871603D01*
X173963254Y-96871606D01*
X173917402Y-97029426D01*
X173917401Y-97029432D01*
X173914500Y-97066304D01*
X173914500Y-97497696D01*
X173917401Y-97534567D01*
X173917402Y-97534573D01*
X173963254Y-97692393D01*
X173963255Y-97692396D01*
X174046917Y-97833862D01*
X174051702Y-97840031D01*
X174049256Y-97841927D01*
X174075857Y-97890642D01*
X174070873Y-97960334D01*
X174050069Y-97992703D01*
X174051702Y-97993969D01*
X174046917Y-98000137D01*
X173963255Y-98141603D01*
X173963254Y-98141606D01*
X173917402Y-98299426D01*
X173917401Y-98299432D01*
X173914500Y-98336304D01*
X173914500Y-98767696D01*
X173917401Y-98804567D01*
X173917402Y-98804573D01*
X173963254Y-98962393D01*
X173963255Y-98962396D01*
X174046917Y-99103862D01*
X174051702Y-99110031D01*
X174049256Y-99111927D01*
X174075857Y-99160642D01*
X174070873Y-99230334D01*
X174050069Y-99262703D01*
X174051702Y-99263969D01*
X174046917Y-99270137D01*
X173963255Y-99411603D01*
X173963254Y-99411606D01*
X173917402Y-99569426D01*
X173917401Y-99569432D01*
X173914500Y-99606304D01*
X173914500Y-100037696D01*
X173917401Y-100074567D01*
X173917402Y-100074573D01*
X173963254Y-100232393D01*
X173963255Y-100232396D01*
X174046917Y-100373862D01*
X174051702Y-100380031D01*
X174049256Y-100381927D01*
X174075857Y-100430642D01*
X174070873Y-100500334D01*
X174050069Y-100532703D01*
X174051702Y-100533969D01*
X174046917Y-100540137D01*
X173963255Y-100681603D01*
X173963254Y-100681606D01*
X173917402Y-100839426D01*
X173917401Y-100839432D01*
X173914500Y-100876304D01*
X173914500Y-101307696D01*
X172326758Y-101307696D01*
X172335674Y-101280256D01*
X172355460Y-101092000D01*
X172335674Y-100903744D01*
X172277179Y-100723716D01*
X172182533Y-100559784D01*
X172164693Y-100539971D01*
X172134464Y-100476981D01*
X172143089Y-100407646D01*
X172164694Y-100374028D01*
X172164843Y-100373862D01*
X172182533Y-100354216D01*
X172277179Y-100190284D01*
X172335674Y-100010256D01*
X172355460Y-99822000D01*
X172335674Y-99633744D01*
X172277179Y-99453716D01*
X172182533Y-99289784D01*
X172164693Y-99269971D01*
X172134464Y-99206981D01*
X172143089Y-99137646D01*
X172164694Y-99104028D01*
X172164843Y-99103862D01*
X172182533Y-99084216D01*
X172277179Y-98920284D01*
X172335674Y-98740256D01*
X172355460Y-98552000D01*
X172335674Y-98363744D01*
X172277179Y-98183716D01*
X172182533Y-98019784D01*
X172055871Y-97879112D01*
X172048458Y-97873726D01*
X171902734Y-97767851D01*
X171902729Y-97767848D01*
X171729807Y-97690857D01*
X171729802Y-97690855D01*
X171584001Y-97659865D01*
X171544646Y-97651500D01*
X171355354Y-97651500D01*
X171322897Y-97658398D01*
X171170197Y-97690855D01*
X171170192Y-97690857D01*
X171040947Y-97748402D01*
X170971697Y-97757687D01*
X170908420Y-97728059D01*
X170871207Y-97668924D01*
X170871435Y-97600527D01*
X170883728Y-97558214D01*
X170890598Y-97534569D01*
X170893500Y-97497694D01*
X170893500Y-97066306D01*
X170892577Y-97054583D01*
X170890598Y-97029432D01*
X170890597Y-97029426D01*
X170844745Y-96871606D01*
X170844744Y-96871603D01*
X170844744Y-96871602D01*
X170761081Y-96730135D01*
X170761078Y-96730132D01*
X170756298Y-96723969D01*
X170758750Y-96722066D01*
X170732155Y-96673421D01*
X170737104Y-96603726D01*
X170757940Y-96571304D01*
X170756298Y-96570031D01*
X170761075Y-96563870D01*
X170761081Y-96563865D01*
X170844744Y-96422398D01*
X170890598Y-96264569D01*
X170893500Y-96227694D01*
X170893500Y-95796306D01*
X170890598Y-95759431D01*
X170844744Y-95601602D01*
X170761081Y-95460135D01*
X170761078Y-95460132D01*
X170756298Y-95453969D01*
X170758750Y-95452066D01*
X170732155Y-95403421D01*
X170737104Y-95333726D01*
X170757940Y-95301304D01*
X170756298Y-95300031D01*
X170761075Y-95293870D01*
X170761081Y-95293865D01*
X170844744Y-95152398D01*
X170890598Y-94994569D01*
X170893500Y-94957694D01*
X170893500Y-94526306D01*
X170890598Y-94489431D01*
X170844744Y-94331602D01*
X170761081Y-94190135D01*
X170761079Y-94190133D01*
X170761076Y-94190129D01*
X170644870Y-94073923D01*
X170644862Y-94073917D01*
X170503396Y-93990255D01*
X170503393Y-93990254D01*
X170345573Y-93944402D01*
X170345567Y-93944401D01*
X170308696Y-93941500D01*
X170308694Y-93941500D01*
X170292500Y-93941500D01*
X170225461Y-93921815D01*
X170179706Y-93869011D01*
X170168500Y-93817500D01*
X170168500Y-93584500D01*
X170188185Y-93517461D01*
X170240989Y-93471706D01*
X170292500Y-93460500D01*
X175680279Y-93460500D01*
X175744359Y-93460500D01*
X175747959Y-93460604D01*
G37*
%TD.AperFunction*%
%TA.AperFunction,Conductor*%
G36*
X190200539Y-93480185D02*
G01*
X190246294Y-93532989D01*
X190257500Y-93584500D01*
X190257500Y-93817500D01*
X190237815Y-93884539D01*
X190185011Y-93930294D01*
X190133500Y-93941500D01*
X190117304Y-93941500D01*
X190080432Y-93944401D01*
X190080426Y-93944402D01*
X189922606Y-93990254D01*
X189922603Y-93990255D01*
X189781137Y-94073917D01*
X189781129Y-94073923D01*
X189664923Y-94190129D01*
X189664917Y-94190137D01*
X189581255Y-94331603D01*
X189581254Y-94331606D01*
X189535402Y-94489426D01*
X189535401Y-94489432D01*
X189532500Y-94526304D01*
X189532500Y-94957696D01*
X189535401Y-94994567D01*
X189535402Y-94994573D01*
X189581254Y-95152393D01*
X189581255Y-95152396D01*
X189664917Y-95293862D01*
X189669702Y-95300031D01*
X189667256Y-95301927D01*
X189693857Y-95350642D01*
X189688873Y-95420334D01*
X189668069Y-95452703D01*
X189669702Y-95453969D01*
X189664917Y-95460137D01*
X189581255Y-95601603D01*
X189581254Y-95601606D01*
X189535402Y-95759426D01*
X189535401Y-95759432D01*
X189532500Y-95796304D01*
X189532500Y-96227696D01*
X189535401Y-96264567D01*
X189535402Y-96264573D01*
X189581254Y-96422393D01*
X189581255Y-96422396D01*
X189664917Y-96563862D01*
X189669702Y-96570031D01*
X189667256Y-96571927D01*
X189693857Y-96620642D01*
X189688873Y-96690334D01*
X189668069Y-96722703D01*
X189669702Y-96723969D01*
X189664917Y-96730137D01*
X189581255Y-96871603D01*
X189581254Y-96871606D01*
X189535402Y-97029426D01*
X189535401Y-97029432D01*
X189532500Y-97066304D01*
X189532500Y-97497696D01*
X189535401Y-97534567D01*
X189535402Y-97534573D01*
X189581254Y-97692393D01*
X189581255Y-97692396D01*
X189664917Y-97833862D01*
X189669702Y-97840031D01*
X189667256Y-97841927D01*
X189693857Y-97890642D01*
X189688873Y-97960334D01*
X189668069Y-97992703D01*
X189669702Y-97993969D01*
X189664917Y-98000137D01*
X189581255Y-98141603D01*
X189581254Y-98141606D01*
X189535402Y-98299426D01*
X189535401Y-98299432D01*
X189532500Y-98336304D01*
X189532500Y-98767696D01*
X189535401Y-98804567D01*
X189535402Y-98804573D01*
X189581254Y-98962393D01*
X189581255Y-98962396D01*
X189664917Y-99103862D01*
X189669702Y-99110031D01*
X189667256Y-99111927D01*
X189693857Y-99160642D01*
X189688873Y-99230334D01*
X189668069Y-99262703D01*
X189669702Y-99263969D01*
X189664917Y-99270137D01*
X189581255Y-99411603D01*
X189581254Y-99411606D01*
X189535402Y-99569426D01*
X189535401Y-99569432D01*
X189532500Y-99606304D01*
X189532500Y-100037696D01*
X189535401Y-100074567D01*
X189535402Y-100074573D01*
X189581254Y-100232393D01*
X189581255Y-100232396D01*
X189664917Y-100373862D01*
X189669702Y-100380031D01*
X189667256Y-100381927D01*
X189693857Y-100430642D01*
X189688873Y-100500334D01*
X189668069Y-100532703D01*
X189669702Y-100533969D01*
X189664917Y-100540137D01*
X189581255Y-100681603D01*
X189581254Y-100681606D01*
X189535402Y-100839426D01*
X189535401Y-100839432D01*
X189532500Y-100876304D01*
X189532500Y-101307696D01*
X189535401Y-101344567D01*
X189535402Y-101344573D01*
X189581254Y-101502393D01*
X189581255Y-101502396D01*
X189664917Y-101643862D01*
X189669702Y-101650031D01*
X189667256Y-101651927D01*
X189693857Y-101700642D01*
X189688873Y-101770334D01*
X189668073Y-101802716D01*
X189669697Y-101803976D01*
X189664915Y-101810139D01*
X189664203Y-101811344D01*
X189663213Y-101812333D01*
X189660134Y-101816303D01*
X189659632Y-101815914D01*
X189620599Y-101854946D01*
X189605581Y-101863827D01*
X189591408Y-101878000D01*
X189576623Y-101890628D01*
X189560412Y-101902407D01*
X189530709Y-101938310D01*
X189526777Y-101942631D01*
X187623727Y-103845681D01*
X187562404Y-103879166D01*
X187536046Y-103882000D01*
X184585705Y-103882000D01*
X184585704Y-103882001D01*
X184585899Y-103884486D01*
X184631718Y-104042198D01*
X184659621Y-104089379D01*
X184676804Y-104157103D01*
X184654644Y-104223365D01*
X184600178Y-104267129D01*
X184552889Y-104276500D01*
X183419452Y-104276500D01*
X183352413Y-104256815D01*
X183306658Y-104204011D01*
X183296714Y-104134853D01*
X183325739Y-104071297D01*
X183331771Y-104064819D01*
X183568764Y-103827826D01*
X184279786Y-103116802D01*
X184292048Y-103106980D01*
X184291865Y-103106759D01*
X184297867Y-103101792D01*
X184297877Y-103101786D01*
X184345241Y-103051348D01*
X184366120Y-103030470D01*
X184370373Y-103024986D01*
X184374150Y-103020563D01*
X184406062Y-102986582D01*
X184415714Y-102969023D01*
X184426389Y-102952772D01*
X184438674Y-102936936D01*
X184457190Y-102894143D01*
X184459742Y-102888934D01*
X184468495Y-102873015D01*
X184471125Y-102868232D01*
X184520674Y-102818971D01*
X184588990Y-102804318D01*
X184654383Y-102828926D01*
X184686515Y-102864855D01*
X184715314Y-102913552D01*
X184720100Y-102919722D01*
X184717753Y-102921542D01*
X184744564Y-102970642D01*
X184739580Y-103040334D01*
X184718541Y-103073069D01*
X184720100Y-103074278D01*
X184715314Y-103080447D01*
X184631718Y-103221801D01*
X184585899Y-103379513D01*
X184585704Y-103381998D01*
X184585705Y-103382000D01*
X185808000Y-103382000D01*
X185808000Y-102612000D01*
X186308000Y-102612000D01*
X186308000Y-103382000D01*
X187530295Y-103382000D01*
X187530295Y-103381998D01*
X187530100Y-103379513D01*
X187484281Y-103221801D01*
X187400685Y-103080447D01*
X187395900Y-103074278D01*
X187398252Y-103072453D01*
X187371445Y-103023405D01*
X187376402Y-102953712D01*
X187397465Y-102920936D01*
X187395900Y-102919722D01*
X187400685Y-102913552D01*
X187484281Y-102772198D01*
X187530100Y-102614486D01*
X187530295Y-102612001D01*
X187530295Y-102612000D01*
X186308000Y-102612000D01*
X185808000Y-102612000D01*
X185808000Y-102236000D01*
X185827685Y-102168961D01*
X185880489Y-102123206D01*
X185932000Y-102112000D01*
X187530295Y-102112000D01*
X187530295Y-102111998D01*
X187530100Y-102109511D01*
X187530099Y-102109509D01*
X187529608Y-102107817D01*
X187529610Y-102106831D01*
X187528962Y-102103280D01*
X187529620Y-102103159D01*
X187529803Y-102037948D01*
X187567741Y-101979276D01*
X187631378Y-101950428D01*
X187674463Y-101951925D01*
X187680196Y-101953143D01*
X187680197Y-101953144D01*
X187865354Y-101992500D01*
X187865355Y-101992500D01*
X188054644Y-101992500D01*
X188054646Y-101992500D01*
X188239803Y-101953144D01*
X188412730Y-101876151D01*
X188565871Y-101764888D01*
X188692533Y-101624216D01*
X188787179Y-101460284D01*
X188845674Y-101280256D01*
X188865460Y-101092000D01*
X188845674Y-100903744D01*
X188787179Y-100723716D01*
X188692533Y-100559784D01*
X188674693Y-100539971D01*
X188644464Y-100476981D01*
X188653089Y-100407646D01*
X188674694Y-100374028D01*
X188674843Y-100373862D01*
X188692533Y-100354216D01*
X188787179Y-100190284D01*
X188845674Y-100010256D01*
X188865460Y-99822000D01*
X188845674Y-99633744D01*
X188787179Y-99453716D01*
X188692533Y-99289784D01*
X188674693Y-99269971D01*
X188644464Y-99206981D01*
X188653089Y-99137646D01*
X188674694Y-99104028D01*
X188674843Y-99103862D01*
X188692533Y-99084216D01*
X188787179Y-98920284D01*
X188845674Y-98740256D01*
X188865460Y-98552000D01*
X188845674Y-98363744D01*
X188787179Y-98183716D01*
X188692533Y-98019784D01*
X188674693Y-97999971D01*
X188644464Y-97936981D01*
X188653089Y-97867646D01*
X188674694Y-97834028D01*
X188674843Y-97833862D01*
X188692533Y-97814216D01*
X188787179Y-97650284D01*
X188845674Y-97470256D01*
X188865460Y-97282000D01*
X188845674Y-97093744D01*
X188787179Y-96913716D01*
X188692533Y-96749784D01*
X188674693Y-96729971D01*
X188644464Y-96666981D01*
X188653089Y-96597646D01*
X188674694Y-96564028D01*
X188674843Y-96563862D01*
X188692533Y-96544216D01*
X188787179Y-96380284D01*
X188845674Y-96200256D01*
X188865460Y-96012000D01*
X188845674Y-95823744D01*
X188787179Y-95643716D01*
X188692533Y-95479784D01*
X188674693Y-95459971D01*
X188644464Y-95396981D01*
X188653089Y-95327646D01*
X188674694Y-95294028D01*
X188675889Y-95292701D01*
X188692533Y-95274216D01*
X188787179Y-95110284D01*
X188845674Y-94930256D01*
X188865460Y-94742000D01*
X188845674Y-94553744D01*
X188787179Y-94373716D01*
X188692533Y-94209784D01*
X188565871Y-94069112D01*
X188565870Y-94069111D01*
X188412734Y-93957851D01*
X188412729Y-93957848D01*
X188239807Y-93880857D01*
X188239802Y-93880855D01*
X188094001Y-93849865D01*
X188054646Y-93841500D01*
X187865354Y-93841500D01*
X187832897Y-93848398D01*
X187680197Y-93880855D01*
X187680192Y-93880857D01*
X187507270Y-93957848D01*
X187507265Y-93957851D01*
X187385297Y-94046466D01*
X187319490Y-94069946D01*
X187251437Y-94054120D01*
X187249292Y-94052881D01*
X187225680Y-94038917D01*
X187143398Y-93990256D01*
X187143394Y-93990255D01*
X187143393Y-93990254D01*
X186985573Y-93944402D01*
X186985567Y-93944401D01*
X186948696Y-93941500D01*
X186948694Y-93941500D01*
X185167306Y-93941500D01*
X185167304Y-93941500D01*
X185130432Y-93944401D01*
X185130426Y-93944402D01*
X184972606Y-93990254D01*
X184972603Y-93990255D01*
X184831137Y-94073917D01*
X184831129Y-94073923D01*
X184714923Y-94190129D01*
X184714917Y-94190137D01*
X184631255Y-94331603D01*
X184631254Y-94331606D01*
X184585402Y-94489426D01*
X184585401Y-94489432D01*
X184582500Y-94526304D01*
X184582500Y-94957696D01*
X184585401Y-94994567D01*
X184585402Y-94994573D01*
X184631254Y-95152393D01*
X184631255Y-95152396D01*
X184714917Y-95293862D01*
X184719702Y-95300031D01*
X184717256Y-95301927D01*
X184743857Y-95350642D01*
X184738873Y-95420334D01*
X184718069Y-95452703D01*
X184719702Y-95453969D01*
X184714917Y-95460137D01*
X184631255Y-95601603D01*
X184631254Y-95601606D01*
X184585402Y-95759426D01*
X184585401Y-95759432D01*
X184582500Y-95796304D01*
X184582500Y-96227696D01*
X184585401Y-96264567D01*
X184585402Y-96264573D01*
X184631254Y-96422393D01*
X184631255Y-96422396D01*
X184714917Y-96563862D01*
X184719702Y-96570031D01*
X184717256Y-96571927D01*
X184743857Y-96620642D01*
X184738873Y-96690334D01*
X184718069Y-96722703D01*
X184719702Y-96723969D01*
X184714917Y-96730137D01*
X184631255Y-96871603D01*
X184631254Y-96871606D01*
X184585402Y-97029426D01*
X184585401Y-97029432D01*
X184582500Y-97066304D01*
X184582500Y-97497696D01*
X184585401Y-97534567D01*
X184585402Y-97534573D01*
X184631254Y-97692393D01*
X184631255Y-97692396D01*
X184714917Y-97833862D01*
X184719702Y-97840031D01*
X184717256Y-97841927D01*
X184743857Y-97890642D01*
X184738873Y-97960334D01*
X184718069Y-97992703D01*
X184719702Y-97993969D01*
X184714917Y-98000137D01*
X184631255Y-98141603D01*
X184631254Y-98141606D01*
X184585402Y-98299426D01*
X184585401Y-98299432D01*
X184582500Y-98336304D01*
X184582500Y-98767696D01*
X184585401Y-98804567D01*
X184585402Y-98804573D01*
X184631254Y-98962393D01*
X184631255Y-98962396D01*
X184714917Y-99103862D01*
X184719702Y-99110031D01*
X184717256Y-99111927D01*
X184743857Y-99160642D01*
X184738873Y-99230334D01*
X184718069Y-99262703D01*
X184719702Y-99263969D01*
X184714917Y-99270137D01*
X184631255Y-99411603D01*
X184631253Y-99411607D01*
X184630238Y-99415103D01*
X184628695Y-99417517D01*
X184628156Y-99418765D01*
X184627954Y-99418677D01*
X184592630Y-99473987D01*
X184529156Y-99503192D01*
X184459970Y-99493443D01*
X184407037Y-99447838D01*
X184404431Y-99443625D01*
X184394172Y-99426278D01*
X184394165Y-99426269D01*
X184380006Y-99412110D01*
X184367368Y-99397314D01*
X184362354Y-99390413D01*
X184355594Y-99381108D01*
X184326186Y-99356780D01*
X184319688Y-99351404D01*
X184315376Y-99347481D01*
X183681108Y-98713212D01*
X183671285Y-98700950D01*
X183671064Y-98701134D01*
X183666091Y-98695123D01*
X183615669Y-98647773D01*
X183594776Y-98626880D01*
X183589282Y-98622618D01*
X183584855Y-98618836D01*
X183550887Y-98586938D01*
X183550884Y-98586936D01*
X183544574Y-98582351D01*
X183544981Y-98581789D01*
X183526504Y-98567914D01*
X183247199Y-98288609D01*
X183213714Y-98227286D01*
X183218698Y-98157594D01*
X183260570Y-98101661D01*
X183284437Y-98087652D01*
X183332730Y-98066151D01*
X183485871Y-97954888D01*
X183612533Y-97814216D01*
X183707179Y-97650284D01*
X183765674Y-97470256D01*
X183785460Y-97282000D01*
X183765674Y-97093744D01*
X183707179Y-96913716D01*
X183612533Y-96749784D01*
X183485871Y-96609112D01*
X183478458Y-96603726D01*
X183332734Y-96497851D01*
X183332729Y-96497848D01*
X183159807Y-96420857D01*
X183159802Y-96420855D01*
X183008562Y-96388709D01*
X182974646Y-96381500D01*
X182974645Y-96381500D01*
X182915453Y-96381500D01*
X182848414Y-96361815D01*
X182827772Y-96345181D01*
X182110803Y-95628212D01*
X182100980Y-95615950D01*
X182100759Y-95616134D01*
X182095786Y-95610123D01*
X182077159Y-95592631D01*
X182045364Y-95562773D01*
X182034919Y-95552328D01*
X182024475Y-95541883D01*
X182018986Y-95537625D01*
X182014561Y-95533847D01*
X181980582Y-95501938D01*
X181980580Y-95501936D01*
X181980577Y-95501935D01*
X181963029Y-95492288D01*
X181946763Y-95481604D01*
X181930933Y-95469325D01*
X181888168Y-95450818D01*
X181882922Y-95448248D01*
X181842093Y-95425803D01*
X181842092Y-95425802D01*
X181822693Y-95420822D01*
X181804279Y-95414517D01*
X181780041Y-95404027D01*
X181726334Y-95359335D01*
X181705317Y-95292701D01*
X181722560Y-95227109D01*
X181766744Y-95152398D01*
X181812598Y-94994569D01*
X181815500Y-94957694D01*
X181815500Y-94526306D01*
X181812598Y-94489431D01*
X181766744Y-94331602D01*
X181683081Y-94190135D01*
X181683079Y-94190133D01*
X181683076Y-94190129D01*
X181566870Y-94073923D01*
X181566862Y-94073917D01*
X181425396Y-93990255D01*
X181425393Y-93990254D01*
X181267573Y-93944402D01*
X181267567Y-93944401D01*
X181230696Y-93941500D01*
X181230694Y-93941500D01*
X181214500Y-93941500D01*
X181147461Y-93921815D01*
X181101706Y-93869011D01*
X181090500Y-93817500D01*
X181090500Y-93584500D01*
X181110185Y-93517461D01*
X181162989Y-93471706D01*
X181214500Y-93460500D01*
X190133500Y-93460500D01*
X190200539Y-93480185D01*
G37*
%TD.AperFunction*%
%TA.AperFunction,Conductor*%
G36*
X168610539Y-93480185D02*
G01*
X168656294Y-93532989D01*
X168667500Y-93584500D01*
X168667500Y-93817500D01*
X168647815Y-93884539D01*
X168595011Y-93930294D01*
X168543500Y-93941500D01*
X168527304Y-93941500D01*
X168490432Y-93944401D01*
X168490426Y-93944402D01*
X168332606Y-93990254D01*
X168332603Y-93990255D01*
X168191137Y-94073917D01*
X168191129Y-94073923D01*
X168074923Y-94190129D01*
X168074917Y-94190137D01*
X167991255Y-94331603D01*
X167991254Y-94331606D01*
X167945402Y-94489426D01*
X167945401Y-94489432D01*
X167942500Y-94526304D01*
X167942500Y-94957696D01*
X167945401Y-94994567D01*
X167945402Y-94994573D01*
X167991254Y-95152393D01*
X167991254Y-95152394D01*
X168036631Y-95229124D01*
X168053812Y-95296848D01*
X168031652Y-95363111D01*
X167977186Y-95406873D01*
X167975543Y-95407537D01*
X167947884Y-95418487D01*
X167942358Y-95420379D01*
X167897614Y-95433379D01*
X167897610Y-95433381D01*
X167880366Y-95443579D01*
X167862905Y-95452133D01*
X167844274Y-95459510D01*
X167844262Y-95459517D01*
X167806570Y-95486902D01*
X167801687Y-95490109D01*
X167761580Y-95513829D01*
X167747414Y-95527995D01*
X167732624Y-95540627D01*
X167716414Y-95552404D01*
X167716411Y-95552407D01*
X167686710Y-95588309D01*
X167682777Y-95592631D01*
X166748208Y-96527199D01*
X166735951Y-96537020D01*
X166736134Y-96537241D01*
X166730123Y-96542213D01*
X166682772Y-96592636D01*
X166661889Y-96613519D01*
X166661877Y-96613532D01*
X166657621Y-96619017D01*
X166653837Y-96623447D01*
X166621937Y-96657418D01*
X166621936Y-96657420D01*
X166612284Y-96674976D01*
X166601610Y-96691226D01*
X166589329Y-96707061D01*
X166589324Y-96707068D01*
X166570815Y-96749838D01*
X166568245Y-96755084D01*
X166545803Y-96795906D01*
X166540822Y-96815307D01*
X166534521Y-96833710D01*
X166526562Y-96852102D01*
X166526561Y-96852105D01*
X166519271Y-96898127D01*
X166518087Y-96903846D01*
X166506501Y-96948972D01*
X166506500Y-96948982D01*
X166506500Y-96969016D01*
X166504973Y-96988413D01*
X166501840Y-97008196D01*
X166505831Y-97050415D01*
X166506225Y-97054583D01*
X166506500Y-97060421D01*
X166506500Y-103898500D01*
X166486815Y-103965539D01*
X166434011Y-104011294D01*
X166382500Y-104022500D01*
X166063381Y-104022500D01*
X165996342Y-104002815D01*
X165950587Y-103950011D01*
X165939763Y-103888774D01*
X165940295Y-103882000D01*
X162995704Y-103882000D01*
X162996237Y-103888774D01*
X162981871Y-103957151D01*
X162932819Y-104006907D01*
X162872619Y-104022500D01*
X160853885Y-104022500D01*
X160786846Y-104002815D01*
X160741091Y-103950011D01*
X160730267Y-103888771D01*
X160730605Y-103884486D01*
X160733500Y-103847694D01*
X160733500Y-103416306D01*
X160730800Y-103381998D01*
X162995704Y-103381998D01*
X162995705Y-103382000D01*
X164218000Y-103382000D01*
X164218000Y-102612000D01*
X164718000Y-102612000D01*
X164718000Y-103382000D01*
X165940295Y-103382000D01*
X165940295Y-103381998D01*
X165940100Y-103379513D01*
X165894281Y-103221801D01*
X165810685Y-103080447D01*
X165805900Y-103074278D01*
X165808252Y-103072453D01*
X165781445Y-103023405D01*
X165786402Y-102953712D01*
X165807465Y-102920936D01*
X165805900Y-102919722D01*
X165810685Y-102913552D01*
X165894281Y-102772198D01*
X165940100Y-102614486D01*
X165940295Y-102612001D01*
X165940295Y-102612000D01*
X164718000Y-102612000D01*
X164218000Y-102612000D01*
X162995705Y-102612000D01*
X162995704Y-102612001D01*
X162995899Y-102614486D01*
X163041718Y-102772198D01*
X163125314Y-102913552D01*
X163130100Y-102919722D01*
X163127753Y-102921542D01*
X163154564Y-102970642D01*
X163149580Y-103040334D01*
X163128541Y-103073069D01*
X163130100Y-103074278D01*
X163125314Y-103080447D01*
X163041718Y-103221801D01*
X162995899Y-103379513D01*
X162995704Y-103381998D01*
X160730800Y-103381998D01*
X160730598Y-103379431D01*
X160684744Y-103221602D01*
X160601081Y-103080135D01*
X160601078Y-103080132D01*
X160596298Y-103073969D01*
X160598750Y-103072066D01*
X160572155Y-103023421D01*
X160577104Y-102953726D01*
X160597940Y-102921304D01*
X160596298Y-102920031D01*
X160601075Y-102913870D01*
X160601081Y-102913865D01*
X160684744Y-102772398D01*
X160730598Y-102614569D01*
X160732608Y-102589024D01*
X160733500Y-102577696D01*
X160733500Y-102146304D01*
X160730598Y-102109432D01*
X160730597Y-102109426D01*
X160684745Y-101951606D01*
X160684744Y-101951603D01*
X160684744Y-101951602D01*
X160601081Y-101810135D01*
X160601078Y-101810132D01*
X160596298Y-101803969D01*
X160598750Y-101802066D01*
X160572155Y-101753421D01*
X160577104Y-101683726D01*
X160597940Y-101651304D01*
X160596298Y-101650031D01*
X160601075Y-101643870D01*
X160601081Y-101643865D01*
X160684744Y-101502398D01*
X160730598Y-101344569D01*
X160733500Y-101307694D01*
X160733500Y-101092000D01*
X161400540Y-101092000D01*
X161420326Y-101280256D01*
X161420327Y-101280259D01*
X161478818Y-101460277D01*
X161478821Y-101460284D01*
X161573467Y-101624216D01*
X161684565Y-101747602D01*
X161700129Y-101764888D01*
X161853265Y-101876148D01*
X161853270Y-101876151D01*
X162026192Y-101953142D01*
X162026197Y-101953144D01*
X162211354Y-101992500D01*
X162211355Y-101992500D01*
X162400644Y-101992500D01*
X162400646Y-101992500D01*
X162585803Y-101953144D01*
X162758730Y-101876151D01*
X162852540Y-101807994D01*
X162918344Y-101784514D01*
X162986398Y-101800339D01*
X163035093Y-101850444D01*
X163048969Y-101918922D01*
X163042665Y-101943952D01*
X163043895Y-101944310D01*
X162995899Y-102109513D01*
X162995704Y-102111998D01*
X162995705Y-102112000D01*
X165940295Y-102112000D01*
X165940295Y-102111998D01*
X165940100Y-102109513D01*
X165894281Y-101951801D01*
X165810685Y-101810447D01*
X165805900Y-101804278D01*
X165808366Y-101802364D01*
X165781802Y-101753776D01*
X165786749Y-101684082D01*
X165807856Y-101651232D01*
X165806301Y-101650026D01*
X165811077Y-101643868D01*
X165811081Y-101643865D01*
X165894744Y-101502398D01*
X165940598Y-101344569D01*
X165943500Y-101307694D01*
X165943500Y-100876306D01*
X165940598Y-100839431D01*
X165894744Y-100681602D01*
X165811081Y-100540135D01*
X165811078Y-100540132D01*
X165806298Y-100533969D01*
X165808750Y-100532066D01*
X165782155Y-100483421D01*
X165787104Y-100413726D01*
X165807940Y-100381304D01*
X165806298Y-100380031D01*
X165811075Y-100373870D01*
X165811081Y-100373865D01*
X165894744Y-100232398D01*
X165940598Y-100074569D01*
X165943500Y-100037694D01*
X165943500Y-99606306D01*
X165940598Y-99569431D01*
X165934097Y-99547056D01*
X165895589Y-99414511D01*
X165894744Y-99411602D01*
X165811081Y-99270135D01*
X165811078Y-99270132D01*
X165806298Y-99263969D01*
X165808750Y-99262066D01*
X165782155Y-99213421D01*
X165787104Y-99143726D01*
X165807940Y-99111304D01*
X165806298Y-99110031D01*
X165811075Y-99103870D01*
X165811081Y-99103865D01*
X165894744Y-98962398D01*
X165940598Y-98804569D01*
X165943500Y-98767694D01*
X165943500Y-98336306D01*
X165940598Y-98299431D01*
X165894744Y-98141602D01*
X165811081Y-98000135D01*
X165811078Y-98000132D01*
X165806298Y-97993969D01*
X165808750Y-97992066D01*
X165782155Y-97943421D01*
X165787104Y-97873726D01*
X165807940Y-97841304D01*
X165806298Y-97840031D01*
X165811075Y-97833870D01*
X165811081Y-97833865D01*
X165894744Y-97692398D01*
X165940598Y-97534569D01*
X165943500Y-97497694D01*
X165943500Y-97066306D01*
X165942577Y-97054583D01*
X165940598Y-97029432D01*
X165940597Y-97029426D01*
X165894745Y-96871606D01*
X165894744Y-96871603D01*
X165894744Y-96871602D01*
X165811081Y-96730135D01*
X165811078Y-96730132D01*
X165806298Y-96723969D01*
X165808750Y-96722066D01*
X165782155Y-96673421D01*
X165787104Y-96603726D01*
X165807940Y-96571304D01*
X165806298Y-96570031D01*
X165811075Y-96563870D01*
X165811081Y-96563865D01*
X165894744Y-96422398D01*
X165940598Y-96264569D01*
X165943500Y-96227694D01*
X165943500Y-95796306D01*
X165940598Y-95759431D01*
X165894744Y-95601602D01*
X165811081Y-95460135D01*
X165811078Y-95460132D01*
X165806298Y-95453969D01*
X165808750Y-95452066D01*
X165782155Y-95403421D01*
X165787104Y-95333726D01*
X165807940Y-95301304D01*
X165806298Y-95300031D01*
X165811075Y-95293870D01*
X165811081Y-95293865D01*
X165894744Y-95152398D01*
X165940598Y-94994569D01*
X165943500Y-94957694D01*
X165943500Y-94526306D01*
X165940598Y-94489431D01*
X165894744Y-94331602D01*
X165811081Y-94190135D01*
X165811079Y-94190133D01*
X165811076Y-94190129D01*
X165694870Y-94073923D01*
X165694862Y-94073917D01*
X165553396Y-93990255D01*
X165553393Y-93990254D01*
X165395573Y-93944402D01*
X165395567Y-93944401D01*
X165358696Y-93941500D01*
X165358694Y-93941500D01*
X163577306Y-93941500D01*
X163577304Y-93941500D01*
X163540432Y-93944401D01*
X163540426Y-93944402D01*
X163382606Y-93990254D01*
X163382603Y-93990255D01*
X163241137Y-94073917D01*
X163241129Y-94073923D01*
X163234872Y-94080181D01*
X163173549Y-94113666D01*
X163147191Y-94116500D01*
X163009748Y-94116500D01*
X162942709Y-94096815D01*
X162917600Y-94075474D01*
X162911873Y-94069114D01*
X162911869Y-94069110D01*
X162758734Y-93957851D01*
X162758729Y-93957848D01*
X162585807Y-93880857D01*
X162585802Y-93880855D01*
X162440001Y-93849865D01*
X162400646Y-93841500D01*
X162211354Y-93841500D01*
X162178897Y-93848398D01*
X162026197Y-93880855D01*
X162026192Y-93880857D01*
X161853270Y-93957848D01*
X161853265Y-93957851D01*
X161700129Y-94069111D01*
X161573466Y-94209785D01*
X161478821Y-94373715D01*
X161478818Y-94373722D01*
X161429241Y-94526306D01*
X161420326Y-94553744D01*
X161400540Y-94742000D01*
X161420326Y-94930256D01*
X161420327Y-94930259D01*
X161478818Y-95110277D01*
X161478821Y-95110284D01*
X161573467Y-95274216D01*
X161583806Y-95285699D01*
X161591307Y-95294030D01*
X161621535Y-95357022D01*
X161612909Y-95426357D01*
X161591307Y-95459970D01*
X161573466Y-95479785D01*
X161478821Y-95643715D01*
X161478818Y-95643722D01*
X161429241Y-95796306D01*
X161420326Y-95823744D01*
X161400540Y-96012000D01*
X161420326Y-96200256D01*
X161420327Y-96200259D01*
X161478818Y-96380277D01*
X161478821Y-96380284D01*
X161573467Y-96544216D01*
X161583806Y-96555699D01*
X161591307Y-96564030D01*
X161621535Y-96627022D01*
X161612909Y-96696357D01*
X161591307Y-96729970D01*
X161573466Y-96749785D01*
X161478821Y-96913715D01*
X161478818Y-96913722D01*
X161429241Y-97066306D01*
X161420326Y-97093744D01*
X161400540Y-97282000D01*
X161420326Y-97470256D01*
X161420327Y-97470259D01*
X161478818Y-97650277D01*
X161478821Y-97650284D01*
X161573467Y-97814216D01*
X161583806Y-97825699D01*
X161591307Y-97834030D01*
X161621535Y-97897022D01*
X161612909Y-97966357D01*
X161591307Y-97999970D01*
X161573466Y-98019785D01*
X161478821Y-98183715D01*
X161478818Y-98183722D01*
X161429241Y-98336306D01*
X161420326Y-98363744D01*
X161400540Y-98552000D01*
X161420326Y-98740256D01*
X161420327Y-98740259D01*
X161478818Y-98920277D01*
X161478821Y-98920284D01*
X161573467Y-99084216D01*
X161583806Y-99095699D01*
X161591307Y-99104030D01*
X161621535Y-99167022D01*
X161612909Y-99236357D01*
X161591307Y-99269970D01*
X161573466Y-99289785D01*
X161478821Y-99453715D01*
X161478818Y-99453722D01*
X161429241Y-99606306D01*
X161420326Y-99633744D01*
X161400540Y-99822000D01*
X161420326Y-100010256D01*
X161420327Y-100010259D01*
X161478818Y-100190277D01*
X161478821Y-100190284D01*
X161573467Y-100354216D01*
X161583806Y-100365699D01*
X161591307Y-100374030D01*
X161621535Y-100437022D01*
X161612909Y-100506357D01*
X161591307Y-100539970D01*
X161573466Y-100559785D01*
X161478821Y-100723715D01*
X161478818Y-100723722D01*
X161429241Y-100876306D01*
X161420326Y-100903744D01*
X161400540Y-101092000D01*
X160733500Y-101092000D01*
X160733500Y-100876306D01*
X160730598Y-100839431D01*
X160684744Y-100681602D01*
X160601081Y-100540135D01*
X160601078Y-100540132D01*
X160596298Y-100533969D01*
X160598750Y-100532066D01*
X160572155Y-100483421D01*
X160577104Y-100413726D01*
X160597940Y-100381304D01*
X160596298Y-100380031D01*
X160601075Y-100373870D01*
X160601081Y-100373865D01*
X160684744Y-100232398D01*
X160730598Y-100074569D01*
X160733500Y-100037694D01*
X160733500Y-99606306D01*
X160730598Y-99569431D01*
X160724097Y-99547056D01*
X160685589Y-99414511D01*
X160684744Y-99411602D01*
X160601081Y-99270135D01*
X160601078Y-99270132D01*
X160596298Y-99263969D01*
X160598750Y-99262066D01*
X160572155Y-99213421D01*
X160577104Y-99143726D01*
X160597940Y-99111304D01*
X160596298Y-99110031D01*
X160601075Y-99103870D01*
X160601081Y-99103865D01*
X160684744Y-98962398D01*
X160730598Y-98804569D01*
X160733500Y-98767694D01*
X160733500Y-98336306D01*
X160730598Y-98299431D01*
X160684744Y-98141602D01*
X160601081Y-98000135D01*
X160601078Y-98000132D01*
X160596298Y-97993969D01*
X160598750Y-97992066D01*
X160572155Y-97943421D01*
X160577104Y-97873726D01*
X160597940Y-97841304D01*
X160596298Y-97840031D01*
X160601075Y-97833870D01*
X160601081Y-97833865D01*
X160684744Y-97692398D01*
X160730598Y-97534569D01*
X160733500Y-97497694D01*
X160733500Y-97066306D01*
X160732577Y-97054583D01*
X160730598Y-97029432D01*
X160730597Y-97029426D01*
X160684745Y-96871606D01*
X160684744Y-96871603D01*
X160684744Y-96871602D01*
X160601081Y-96730135D01*
X160601078Y-96730132D01*
X160596298Y-96723969D01*
X160598750Y-96722066D01*
X160572155Y-96673421D01*
X160577104Y-96603726D01*
X160597940Y-96571304D01*
X160596298Y-96570031D01*
X160601075Y-96563870D01*
X160601081Y-96563865D01*
X160684744Y-96422398D01*
X160730598Y-96264569D01*
X160733500Y-96227694D01*
X160733500Y-95796306D01*
X160730598Y-95759431D01*
X160684744Y-95601602D01*
X160601081Y-95460135D01*
X160601078Y-95460132D01*
X160596298Y-95453969D01*
X160598750Y-95452066D01*
X160572155Y-95403421D01*
X160577104Y-95333726D01*
X160597940Y-95301304D01*
X160596298Y-95300031D01*
X160601075Y-95293870D01*
X160601081Y-95293865D01*
X160684744Y-95152398D01*
X160730598Y-94994569D01*
X160733500Y-94957694D01*
X160733500Y-94526306D01*
X160730598Y-94489431D01*
X160684744Y-94331602D01*
X160601081Y-94190135D01*
X160601079Y-94190133D01*
X160601076Y-94190129D01*
X160484870Y-94073923D01*
X160484862Y-94073917D01*
X160343396Y-93990255D01*
X160343393Y-93990254D01*
X160185573Y-93944402D01*
X160185567Y-93944401D01*
X160148696Y-93941500D01*
X160148694Y-93941500D01*
X160132500Y-93941500D01*
X160065461Y-93921815D01*
X160019706Y-93869011D01*
X160008500Y-93817500D01*
X160008500Y-93584500D01*
X160028185Y-93517461D01*
X160080989Y-93471706D01*
X160132500Y-93460500D01*
X168543500Y-93460500D01*
X168610539Y-93480185D01*
G37*
%TD.AperFunction*%
%TA.AperFunction,Conductor*%
G36*
X198088463Y-101951925D02*
G01*
X198094196Y-101953143D01*
X198094197Y-101953144D01*
X198279354Y-101992500D01*
X198279355Y-101992500D01*
X198468644Y-101992500D01*
X198468646Y-101992500D01*
X198614720Y-101961451D01*
X198684386Y-101966767D01*
X198740120Y-102008904D01*
X198764225Y-102074484D01*
X198764500Y-102082741D01*
X198764500Y-102559547D01*
X198744815Y-102626586D01*
X198728181Y-102647228D01*
X198104022Y-103271386D01*
X198042699Y-103304871D01*
X197973007Y-103299887D01*
X197917074Y-103258015D01*
X197902371Y-103228536D01*
X197901382Y-103228965D01*
X197898282Y-103221803D01*
X197814685Y-103080447D01*
X197809900Y-103074278D01*
X197812252Y-103072453D01*
X197785445Y-103023405D01*
X197790402Y-102953712D01*
X197811465Y-102920936D01*
X197809900Y-102919722D01*
X197814685Y-102913552D01*
X197898281Y-102772198D01*
X197944100Y-102614486D01*
X197944295Y-102612001D01*
X197944295Y-102612000D01*
X196722000Y-102612000D01*
X196722000Y-103758000D01*
X196702315Y-103825039D01*
X196649511Y-103870794D01*
X196598000Y-103882000D01*
X196346000Y-103882000D01*
X196278961Y-103862315D01*
X196233206Y-103809511D01*
X196222000Y-103758000D01*
X196222000Y-102236000D01*
X196241685Y-102168961D01*
X196294489Y-102123206D01*
X196346000Y-102112000D01*
X197944295Y-102112000D01*
X197944295Y-102111998D01*
X197944100Y-102109511D01*
X197944099Y-102109509D01*
X197943608Y-102107817D01*
X197943610Y-102106831D01*
X197942962Y-102103280D01*
X197943620Y-102103159D01*
X197943803Y-102037948D01*
X197981741Y-101979276D01*
X198045378Y-101950428D01*
X198088463Y-101951925D01*
G37*
%TD.AperFunction*%
%TD*%
M02*
