%TF.GenerationSoftware,KiCad,Pcbnew,7.0.8*%
%TF.CreationDate,2023-11-11T14:20:26-08:00*%
%TF.ProjectId,LED Project,4c454420-5072-46f6-9a65-63742e6b6963,rev?*%
%TF.SameCoordinates,Original*%
%TF.FileFunction,Legend,Bot*%
%TF.FilePolarity,Positive*%
%FSLAX46Y46*%
G04 Gerber Fmt 4.6, Leading zero omitted, Abs format (unit mm)*
G04 Created by KiCad (PCBNEW 7.0.8) date 2023-11-11 14:20:26*
%MOMM*%
%LPD*%
G01*
G04 APERTURE LIST*
%ADD10C,0.100000*%
%ADD11R,1.600000X1.600000*%
%ADD12O,1.600000X1.600000*%
%ADD13C,2.200000*%
G04 APERTURE END LIST*
D10*
X208067080Y-120586404D02*
X207257557Y-120586404D01*
X207257557Y-120586404D02*
X207162319Y-120538785D01*
X207162319Y-120538785D02*
X207114700Y-120491166D01*
X207114700Y-120491166D02*
X207067080Y-120395928D01*
X207067080Y-120395928D02*
X207067080Y-120205452D01*
X207067080Y-120205452D02*
X207114700Y-120110214D01*
X207114700Y-120110214D02*
X207162319Y-120062595D01*
X207162319Y-120062595D02*
X207257557Y-120014976D01*
X207257557Y-120014976D02*
X208067080Y-120014976D01*
X208067080Y-119110214D02*
X208067080Y-119300690D01*
X208067080Y-119300690D02*
X208019461Y-119395928D01*
X208019461Y-119395928D02*
X207971842Y-119443547D01*
X207971842Y-119443547D02*
X207828985Y-119538785D01*
X207828985Y-119538785D02*
X207638509Y-119586404D01*
X207638509Y-119586404D02*
X207257557Y-119586404D01*
X207257557Y-119586404D02*
X207162319Y-119538785D01*
X207162319Y-119538785D02*
X207114700Y-119491166D01*
X207114700Y-119491166D02*
X207067080Y-119395928D01*
X207067080Y-119395928D02*
X207067080Y-119205452D01*
X207067080Y-119205452D02*
X207114700Y-119110214D01*
X207114700Y-119110214D02*
X207162319Y-119062595D01*
X207162319Y-119062595D02*
X207257557Y-119014976D01*
X207257557Y-119014976D02*
X207495652Y-119014976D01*
X207495652Y-119014976D02*
X207590890Y-119062595D01*
X207590890Y-119062595D02*
X207638509Y-119110214D01*
X207638509Y-119110214D02*
X207686128Y-119205452D01*
X207686128Y-119205452D02*
X207686128Y-119395928D01*
X207686128Y-119395928D02*
X207638509Y-119491166D01*
X207638509Y-119491166D02*
X207590890Y-119538785D01*
X207590890Y-119538785D02*
X207495652Y-119586404D01*
%LPC*%
D11*
%TO.C,U6*%
X201944500Y-132524500D03*
D12*
X199404500Y-132524500D03*
X196864500Y-132524500D03*
X194324500Y-132524500D03*
X191784500Y-132524500D03*
X189244500Y-132524500D03*
X186704500Y-132524500D03*
X184164500Y-132524500D03*
X181624500Y-132524500D03*
X179084500Y-132524500D03*
X176544500Y-132524500D03*
X174004500Y-132524500D03*
X171464500Y-132524500D03*
X168924500Y-132524500D03*
X166384500Y-132524500D03*
X163844500Y-132524500D03*
X161304500Y-132524500D03*
X158764500Y-132524500D03*
X156224500Y-132524500D03*
X153684500Y-132524500D03*
X153684500Y-107886500D03*
X156224500Y-107886500D03*
X158764500Y-107886500D03*
X161304500Y-107886500D03*
X163844500Y-107886500D03*
X166384500Y-107886500D03*
X168924500Y-107886500D03*
X171464500Y-107886500D03*
X174004500Y-107886500D03*
X176544500Y-107886500D03*
X179084500Y-107886500D03*
X181624500Y-107886500D03*
X184164500Y-107886500D03*
X186704500Y-107886500D03*
X189244500Y-107886500D03*
X191784500Y-107886500D03*
X194324500Y-107886500D03*
X196864500Y-107886500D03*
X199404500Y-107886500D03*
X201944500Y-107886500D03*
%TD*%
D13*
%TO.C,H3*%
X153670000Y-135890000D03*
%TD*%
%TO.C,H1*%
X153162000Y-87630000D03*
%TD*%
%TO.C,H2*%
X201930000Y-87376000D03*
%TD*%
%TO.C,H4*%
X201930000Y-136144000D03*
%TD*%
%LPD*%
M02*
