%TF.GenerationSoftware,KiCad,Pcbnew,7.0.8*%
%TF.CreationDate,2023-11-11T14:20:26-08:00*%
%TF.ProjectId,LED Project,4c454420-5072-46f6-9a65-63742e6b6963,rev?*%
%TF.SameCoordinates,Original*%
%TF.FileFunction,Legend,Top*%
%TF.FilePolarity,Positive*%
%FSLAX46Y46*%
G04 Gerber Fmt 4.6, Leading zero omitted, Abs format (unit mm)*
G04 Created by KiCad (PCBNEW 7.0.8) date 2023-11-11 14:20:26*
%MOMM*%
%LPD*%
G01*
G04 APERTURE LIST*
G04 Aperture macros list*
%AMRoundRect*
0 Rectangle with rounded corners*
0 $1 Rounding radius*
0 $2 $3 $4 $5 $6 $7 $8 $9 X,Y pos of 4 corners*
0 Add a 4 corners polygon primitive as box body*
4,1,4,$2,$3,$4,$5,$6,$7,$8,$9,$2,$3,0*
0 Add four circle primitives for the rounded corners*
1,1,$1+$1,$2,$3*
1,1,$1+$1,$4,$5*
1,1,$1+$1,$6,$7*
1,1,$1+$1,$8,$9*
0 Add four rect primitives between the rounded corners*
20,1,$1+$1,$2,$3,$4,$5,0*
20,1,$1+$1,$4,$5,$6,$7,0*
20,1,$1+$1,$6,$7,$8,$9,0*
20,1,$1+$1,$8,$9,$2,$3,0*%
G04 Aperture macros list end*
%ADD10C,0.150000*%
%ADD11C,0.120000*%
%ADD12C,0.100000*%
%ADD13R,1.600000X1.600000*%
%ADD14O,1.600000X1.600000*%
%ADD15RoundRect,0.225000X-0.250000X0.225000X-0.250000X-0.225000X0.250000X-0.225000X0.250000X0.225000X0*%
%ADD16C,2.200000*%
%ADD17RoundRect,0.150000X-0.825000X-0.150000X0.825000X-0.150000X0.825000X0.150000X-0.825000X0.150000X0*%
%ADD18R,1.524000X2.540000*%
G04 APERTURE END LIST*
D10*
X196123160Y-85420200D02*
X196266017Y-85467819D01*
X196266017Y-85467819D02*
X196504112Y-85467819D01*
X196504112Y-85467819D02*
X196599350Y-85420200D01*
X196599350Y-85420200D02*
X196646969Y-85372580D01*
X196646969Y-85372580D02*
X196694588Y-85277342D01*
X196694588Y-85277342D02*
X196694588Y-85182104D01*
X196694588Y-85182104D02*
X196646969Y-85086866D01*
X196646969Y-85086866D02*
X196599350Y-85039247D01*
X196599350Y-85039247D02*
X196504112Y-84991628D01*
X196504112Y-84991628D02*
X196313636Y-84944009D01*
X196313636Y-84944009D02*
X196218398Y-84896390D01*
X196218398Y-84896390D02*
X196170779Y-84848771D01*
X196170779Y-84848771D02*
X196123160Y-84753533D01*
X196123160Y-84753533D02*
X196123160Y-84658295D01*
X196123160Y-84658295D02*
X196170779Y-84563057D01*
X196170779Y-84563057D02*
X196218398Y-84515438D01*
X196218398Y-84515438D02*
X196313636Y-84467819D01*
X196313636Y-84467819D02*
X196551731Y-84467819D01*
X196551731Y-84467819D02*
X196694588Y-84515438D01*
X197027922Y-84467819D02*
X197694588Y-85467819D01*
X197694588Y-84467819D02*
X197027922Y-85467819D01*
X193075160Y-85420200D02*
X193218017Y-85467819D01*
X193218017Y-85467819D02*
X193456112Y-85467819D01*
X193456112Y-85467819D02*
X193551350Y-85420200D01*
X193551350Y-85420200D02*
X193598969Y-85372580D01*
X193598969Y-85372580D02*
X193646588Y-85277342D01*
X193646588Y-85277342D02*
X193646588Y-85182104D01*
X193646588Y-85182104D02*
X193598969Y-85086866D01*
X193598969Y-85086866D02*
X193551350Y-85039247D01*
X193551350Y-85039247D02*
X193456112Y-84991628D01*
X193456112Y-84991628D02*
X193265636Y-84944009D01*
X193265636Y-84944009D02*
X193170398Y-84896390D01*
X193170398Y-84896390D02*
X193122779Y-84848771D01*
X193122779Y-84848771D02*
X193075160Y-84753533D01*
X193075160Y-84753533D02*
X193075160Y-84658295D01*
X193075160Y-84658295D02*
X193122779Y-84563057D01*
X193122779Y-84563057D02*
X193170398Y-84515438D01*
X193170398Y-84515438D02*
X193265636Y-84467819D01*
X193265636Y-84467819D02*
X193503731Y-84467819D01*
X193503731Y-84467819D02*
X193646588Y-84515438D01*
X193979922Y-84467819D02*
X194598969Y-84467819D01*
X194598969Y-84467819D02*
X194265636Y-84848771D01*
X194265636Y-84848771D02*
X194408493Y-84848771D01*
X194408493Y-84848771D02*
X194503731Y-84896390D01*
X194503731Y-84896390D02*
X194551350Y-84944009D01*
X194551350Y-84944009D02*
X194598969Y-85039247D01*
X194598969Y-85039247D02*
X194598969Y-85277342D01*
X194598969Y-85277342D02*
X194551350Y-85372580D01*
X194551350Y-85372580D02*
X194503731Y-85420200D01*
X194503731Y-85420200D02*
X194408493Y-85467819D01*
X194408493Y-85467819D02*
X194122779Y-85467819D01*
X194122779Y-85467819D02*
X194027541Y-85420200D01*
X194027541Y-85420200D02*
X193979922Y-85372580D01*
X189773160Y-85420200D02*
X189916017Y-85467819D01*
X189916017Y-85467819D02*
X190154112Y-85467819D01*
X190154112Y-85467819D02*
X190249350Y-85420200D01*
X190249350Y-85420200D02*
X190296969Y-85372580D01*
X190296969Y-85372580D02*
X190344588Y-85277342D01*
X190344588Y-85277342D02*
X190344588Y-85182104D01*
X190344588Y-85182104D02*
X190296969Y-85086866D01*
X190296969Y-85086866D02*
X190249350Y-85039247D01*
X190249350Y-85039247D02*
X190154112Y-84991628D01*
X190154112Y-84991628D02*
X189963636Y-84944009D01*
X189963636Y-84944009D02*
X189868398Y-84896390D01*
X189868398Y-84896390D02*
X189820779Y-84848771D01*
X189820779Y-84848771D02*
X189773160Y-84753533D01*
X189773160Y-84753533D02*
X189773160Y-84658295D01*
X189773160Y-84658295D02*
X189820779Y-84563057D01*
X189820779Y-84563057D02*
X189868398Y-84515438D01*
X189868398Y-84515438D02*
X189963636Y-84467819D01*
X189963636Y-84467819D02*
X190201731Y-84467819D01*
X190201731Y-84467819D02*
X190344588Y-84515438D01*
X190725541Y-84563057D02*
X190773160Y-84515438D01*
X190773160Y-84515438D02*
X190868398Y-84467819D01*
X190868398Y-84467819D02*
X191106493Y-84467819D01*
X191106493Y-84467819D02*
X191201731Y-84515438D01*
X191201731Y-84515438D02*
X191249350Y-84563057D01*
X191249350Y-84563057D02*
X191296969Y-84658295D01*
X191296969Y-84658295D02*
X191296969Y-84753533D01*
X191296969Y-84753533D02*
X191249350Y-84896390D01*
X191249350Y-84896390D02*
X190677922Y-85467819D01*
X190677922Y-85467819D02*
X191296969Y-85467819D01*
X186725160Y-85420200D02*
X186868017Y-85467819D01*
X186868017Y-85467819D02*
X187106112Y-85467819D01*
X187106112Y-85467819D02*
X187201350Y-85420200D01*
X187201350Y-85420200D02*
X187248969Y-85372580D01*
X187248969Y-85372580D02*
X187296588Y-85277342D01*
X187296588Y-85277342D02*
X187296588Y-85182104D01*
X187296588Y-85182104D02*
X187248969Y-85086866D01*
X187248969Y-85086866D02*
X187201350Y-85039247D01*
X187201350Y-85039247D02*
X187106112Y-84991628D01*
X187106112Y-84991628D02*
X186915636Y-84944009D01*
X186915636Y-84944009D02*
X186820398Y-84896390D01*
X186820398Y-84896390D02*
X186772779Y-84848771D01*
X186772779Y-84848771D02*
X186725160Y-84753533D01*
X186725160Y-84753533D02*
X186725160Y-84658295D01*
X186725160Y-84658295D02*
X186772779Y-84563057D01*
X186772779Y-84563057D02*
X186820398Y-84515438D01*
X186820398Y-84515438D02*
X186915636Y-84467819D01*
X186915636Y-84467819D02*
X187153731Y-84467819D01*
X187153731Y-84467819D02*
X187296588Y-84515438D01*
X188248969Y-85467819D02*
X187677541Y-85467819D01*
X187963255Y-85467819D02*
X187963255Y-84467819D01*
X187963255Y-84467819D02*
X187868017Y-84610676D01*
X187868017Y-84610676D02*
X187772779Y-84705914D01*
X187772779Y-84705914D02*
X187677541Y-84753533D01*
X183423160Y-85420200D02*
X183566017Y-85467819D01*
X183566017Y-85467819D02*
X183804112Y-85467819D01*
X183804112Y-85467819D02*
X183899350Y-85420200D01*
X183899350Y-85420200D02*
X183946969Y-85372580D01*
X183946969Y-85372580D02*
X183994588Y-85277342D01*
X183994588Y-85277342D02*
X183994588Y-85182104D01*
X183994588Y-85182104D02*
X183946969Y-85086866D01*
X183946969Y-85086866D02*
X183899350Y-85039247D01*
X183899350Y-85039247D02*
X183804112Y-84991628D01*
X183804112Y-84991628D02*
X183613636Y-84944009D01*
X183613636Y-84944009D02*
X183518398Y-84896390D01*
X183518398Y-84896390D02*
X183470779Y-84848771D01*
X183470779Y-84848771D02*
X183423160Y-84753533D01*
X183423160Y-84753533D02*
X183423160Y-84658295D01*
X183423160Y-84658295D02*
X183470779Y-84563057D01*
X183470779Y-84563057D02*
X183518398Y-84515438D01*
X183518398Y-84515438D02*
X183613636Y-84467819D01*
X183613636Y-84467819D02*
X183851731Y-84467819D01*
X183851731Y-84467819D02*
X183994588Y-84515438D01*
X184613636Y-84467819D02*
X184708874Y-84467819D01*
X184708874Y-84467819D02*
X184804112Y-84515438D01*
X184804112Y-84515438D02*
X184851731Y-84563057D01*
X184851731Y-84563057D02*
X184899350Y-84658295D01*
X184899350Y-84658295D02*
X184946969Y-84848771D01*
X184946969Y-84848771D02*
X184946969Y-85086866D01*
X184946969Y-85086866D02*
X184899350Y-85277342D01*
X184899350Y-85277342D02*
X184851731Y-85372580D01*
X184851731Y-85372580D02*
X184804112Y-85420200D01*
X184804112Y-85420200D02*
X184708874Y-85467819D01*
X184708874Y-85467819D02*
X184613636Y-85467819D01*
X184613636Y-85467819D02*
X184518398Y-85420200D01*
X184518398Y-85420200D02*
X184470779Y-85372580D01*
X184470779Y-85372580D02*
X184423160Y-85277342D01*
X184423160Y-85277342D02*
X184375541Y-85086866D01*
X184375541Y-85086866D02*
X184375541Y-84848771D01*
X184375541Y-84848771D02*
X184423160Y-84658295D01*
X184423160Y-84658295D02*
X184470779Y-84563057D01*
X184470779Y-84563057D02*
X184518398Y-84515438D01*
X184518398Y-84515438D02*
X184613636Y-84467819D01*
X178152588Y-84515438D02*
X178057350Y-84467819D01*
X178057350Y-84467819D02*
X177914493Y-84467819D01*
X177914493Y-84467819D02*
X177771636Y-84515438D01*
X177771636Y-84515438D02*
X177676398Y-84610676D01*
X177676398Y-84610676D02*
X177628779Y-84705914D01*
X177628779Y-84705914D02*
X177581160Y-84896390D01*
X177581160Y-84896390D02*
X177581160Y-85039247D01*
X177581160Y-85039247D02*
X177628779Y-85229723D01*
X177628779Y-85229723D02*
X177676398Y-85324961D01*
X177676398Y-85324961D02*
X177771636Y-85420200D01*
X177771636Y-85420200D02*
X177914493Y-85467819D01*
X177914493Y-85467819D02*
X178009731Y-85467819D01*
X178009731Y-85467819D02*
X178152588Y-85420200D01*
X178152588Y-85420200D02*
X178200207Y-85372580D01*
X178200207Y-85372580D02*
X178200207Y-85039247D01*
X178200207Y-85039247D02*
X178009731Y-85039247D01*
X178628779Y-85467819D02*
X178628779Y-84467819D01*
X178628779Y-84467819D02*
X179200207Y-85467819D01*
X179200207Y-85467819D02*
X179200207Y-84467819D01*
X179676398Y-85467819D02*
X179676398Y-84467819D01*
X179676398Y-84467819D02*
X179914493Y-84467819D01*
X179914493Y-84467819D02*
X180057350Y-84515438D01*
X180057350Y-84515438D02*
X180152588Y-84610676D01*
X180152588Y-84610676D02*
X180200207Y-84705914D01*
X180200207Y-84705914D02*
X180247826Y-84896390D01*
X180247826Y-84896390D02*
X180247826Y-85039247D01*
X180247826Y-85039247D02*
X180200207Y-85229723D01*
X180200207Y-85229723D02*
X180152588Y-85324961D01*
X180152588Y-85324961D02*
X180057350Y-85420200D01*
X180057350Y-85420200D02*
X179914493Y-85467819D01*
X179914493Y-85467819D02*
X179676398Y-85467819D01*
X174326779Y-85086866D02*
X175088684Y-85086866D01*
X174707731Y-85467819D02*
X174707731Y-84705914D01*
X176041064Y-84467819D02*
X175564874Y-84467819D01*
X175564874Y-84467819D02*
X175517255Y-84944009D01*
X175517255Y-84944009D02*
X175564874Y-84896390D01*
X175564874Y-84896390D02*
X175660112Y-84848771D01*
X175660112Y-84848771D02*
X175898207Y-84848771D01*
X175898207Y-84848771D02*
X175993445Y-84896390D01*
X175993445Y-84896390D02*
X176041064Y-84944009D01*
X176041064Y-84944009D02*
X176088683Y-85039247D01*
X176088683Y-85039247D02*
X176088683Y-85277342D01*
X176088683Y-85277342D02*
X176041064Y-85372580D01*
X176041064Y-85372580D02*
X175993445Y-85420200D01*
X175993445Y-85420200D02*
X175898207Y-85467819D01*
X175898207Y-85467819D02*
X175660112Y-85467819D01*
X175660112Y-85467819D02*
X175564874Y-85420200D01*
X175564874Y-85420200D02*
X175517255Y-85372580D01*
X176422017Y-84801152D02*
X176660112Y-85467819D01*
X176660112Y-85467819D02*
X176898207Y-84801152D01*
X169754779Y-85467819D02*
X169754779Y-84467819D01*
X169754779Y-84467819D02*
X170135731Y-84467819D01*
X170135731Y-84467819D02*
X170230969Y-84515438D01*
X170230969Y-84515438D02*
X170278588Y-84563057D01*
X170278588Y-84563057D02*
X170326207Y-84658295D01*
X170326207Y-84658295D02*
X170326207Y-84801152D01*
X170326207Y-84801152D02*
X170278588Y-84896390D01*
X170278588Y-84896390D02*
X170230969Y-84944009D01*
X170230969Y-84944009D02*
X170135731Y-84991628D01*
X170135731Y-84991628D02*
X169754779Y-84991628D01*
X170754779Y-85467819D02*
X170754779Y-84467819D01*
X170754779Y-84944009D02*
X171326207Y-84944009D01*
X171326207Y-85467819D02*
X171326207Y-84467819D01*
X166706779Y-85467819D02*
X166706779Y-84467819D01*
X166706779Y-84467819D02*
X166944874Y-84467819D01*
X166944874Y-84467819D02*
X167087731Y-84515438D01*
X167087731Y-84515438D02*
X167182969Y-84610676D01*
X167182969Y-84610676D02*
X167230588Y-84705914D01*
X167230588Y-84705914D02*
X167278207Y-84896390D01*
X167278207Y-84896390D02*
X167278207Y-85039247D01*
X167278207Y-85039247D02*
X167230588Y-85229723D01*
X167230588Y-85229723D02*
X167182969Y-85324961D01*
X167182969Y-85324961D02*
X167087731Y-85420200D01*
X167087731Y-85420200D02*
X166944874Y-85467819D01*
X166944874Y-85467819D02*
X166706779Y-85467819D01*
X167611541Y-84467819D02*
X168230588Y-84467819D01*
X168230588Y-84467819D02*
X167897255Y-84848771D01*
X167897255Y-84848771D02*
X168040112Y-84848771D01*
X168040112Y-84848771D02*
X168135350Y-84896390D01*
X168135350Y-84896390D02*
X168182969Y-84944009D01*
X168182969Y-84944009D02*
X168230588Y-85039247D01*
X168230588Y-85039247D02*
X168230588Y-85277342D01*
X168230588Y-85277342D02*
X168182969Y-85372580D01*
X168182969Y-85372580D02*
X168135350Y-85420200D01*
X168135350Y-85420200D02*
X168040112Y-85467819D01*
X168040112Y-85467819D02*
X167754398Y-85467819D01*
X167754398Y-85467819D02*
X167659160Y-85420200D01*
X167659160Y-85420200D02*
X167611541Y-85372580D01*
X163404779Y-85381819D02*
X163404779Y-84381819D01*
X163404779Y-84381819D02*
X163642874Y-84381819D01*
X163642874Y-84381819D02*
X163785731Y-84429438D01*
X163785731Y-84429438D02*
X163880969Y-84524676D01*
X163880969Y-84524676D02*
X163928588Y-84619914D01*
X163928588Y-84619914D02*
X163976207Y-84810390D01*
X163976207Y-84810390D02*
X163976207Y-84953247D01*
X163976207Y-84953247D02*
X163928588Y-85143723D01*
X163928588Y-85143723D02*
X163880969Y-85238961D01*
X163880969Y-85238961D02*
X163785731Y-85334200D01*
X163785731Y-85334200D02*
X163642874Y-85381819D01*
X163642874Y-85381819D02*
X163404779Y-85381819D01*
X164357160Y-84477057D02*
X164404779Y-84429438D01*
X164404779Y-84429438D02*
X164500017Y-84381819D01*
X164500017Y-84381819D02*
X164738112Y-84381819D01*
X164738112Y-84381819D02*
X164833350Y-84429438D01*
X164833350Y-84429438D02*
X164880969Y-84477057D01*
X164880969Y-84477057D02*
X164928588Y-84572295D01*
X164928588Y-84572295D02*
X164928588Y-84667533D01*
X164928588Y-84667533D02*
X164880969Y-84810390D01*
X164880969Y-84810390D02*
X164309541Y-85381819D01*
X164309541Y-85381819D02*
X164928588Y-85381819D01*
X160356779Y-85467819D02*
X160356779Y-84467819D01*
X160356779Y-84467819D02*
X160594874Y-84467819D01*
X160594874Y-84467819D02*
X160737731Y-84515438D01*
X160737731Y-84515438D02*
X160832969Y-84610676D01*
X160832969Y-84610676D02*
X160880588Y-84705914D01*
X160880588Y-84705914D02*
X160928207Y-84896390D01*
X160928207Y-84896390D02*
X160928207Y-85039247D01*
X160928207Y-85039247D02*
X160880588Y-85229723D01*
X160880588Y-85229723D02*
X160832969Y-85324961D01*
X160832969Y-85324961D02*
X160737731Y-85420200D01*
X160737731Y-85420200D02*
X160594874Y-85467819D01*
X160594874Y-85467819D02*
X160356779Y-85467819D01*
X161880588Y-85467819D02*
X161309160Y-85467819D01*
X161594874Y-85467819D02*
X161594874Y-84467819D01*
X161594874Y-84467819D02*
X161499636Y-84610676D01*
X161499636Y-84610676D02*
X161404398Y-84705914D01*
X161404398Y-84705914D02*
X161309160Y-84753533D01*
X157054779Y-85467819D02*
X157054779Y-84467819D01*
X157054779Y-84467819D02*
X157292874Y-84467819D01*
X157292874Y-84467819D02*
X157435731Y-84515438D01*
X157435731Y-84515438D02*
X157530969Y-84610676D01*
X157530969Y-84610676D02*
X157578588Y-84705914D01*
X157578588Y-84705914D02*
X157626207Y-84896390D01*
X157626207Y-84896390D02*
X157626207Y-85039247D01*
X157626207Y-85039247D02*
X157578588Y-85229723D01*
X157578588Y-85229723D02*
X157530969Y-85324961D01*
X157530969Y-85324961D02*
X157435731Y-85420200D01*
X157435731Y-85420200D02*
X157292874Y-85467819D01*
X157292874Y-85467819D02*
X157054779Y-85467819D01*
X158245255Y-84467819D02*
X158340493Y-84467819D01*
X158340493Y-84467819D02*
X158435731Y-84515438D01*
X158435731Y-84515438D02*
X158483350Y-84563057D01*
X158483350Y-84563057D02*
X158530969Y-84658295D01*
X158530969Y-84658295D02*
X158578588Y-84848771D01*
X158578588Y-84848771D02*
X158578588Y-85086866D01*
X158578588Y-85086866D02*
X158530969Y-85277342D01*
X158530969Y-85277342D02*
X158483350Y-85372580D01*
X158483350Y-85372580D02*
X158435731Y-85420200D01*
X158435731Y-85420200D02*
X158340493Y-85467819D01*
X158340493Y-85467819D02*
X158245255Y-85467819D01*
X158245255Y-85467819D02*
X158150017Y-85420200D01*
X158150017Y-85420200D02*
X158102398Y-85372580D01*
X158102398Y-85372580D02*
X158054779Y-85277342D01*
X158054779Y-85277342D02*
X158007160Y-85086866D01*
X158007160Y-85086866D02*
X158007160Y-84848771D01*
X158007160Y-84848771D02*
X158054779Y-84658295D01*
X158054779Y-84658295D02*
X158102398Y-84563057D01*
X158102398Y-84563057D02*
X158150017Y-84515438D01*
X158150017Y-84515438D02*
X158245255Y-84467819D01*
X166181095Y-92741819D02*
X166181095Y-93551342D01*
X166181095Y-93551342D02*
X166228714Y-93646580D01*
X166228714Y-93646580D02*
X166276333Y-93694200D01*
X166276333Y-93694200D02*
X166371571Y-93741819D01*
X166371571Y-93741819D02*
X166562047Y-93741819D01*
X166562047Y-93741819D02*
X166657285Y-93694200D01*
X166657285Y-93694200D02*
X166704904Y-93646580D01*
X166704904Y-93646580D02*
X166752523Y-93551342D01*
X166752523Y-93551342D02*
X166752523Y-92741819D01*
X167657285Y-93075152D02*
X167657285Y-93741819D01*
X167419190Y-92694200D02*
X167181095Y-93408485D01*
X167181095Y-93408485D02*
X167800142Y-93408485D01*
X187771095Y-92741819D02*
X187771095Y-93551342D01*
X187771095Y-93551342D02*
X187818714Y-93646580D01*
X187818714Y-93646580D02*
X187866333Y-93694200D01*
X187866333Y-93694200D02*
X187961571Y-93741819D01*
X187961571Y-93741819D02*
X188152047Y-93741819D01*
X188152047Y-93741819D02*
X188247285Y-93694200D01*
X188247285Y-93694200D02*
X188294904Y-93646580D01*
X188294904Y-93646580D02*
X188342523Y-93551342D01*
X188342523Y-93551342D02*
X188342523Y-92741819D01*
X188771095Y-92837057D02*
X188818714Y-92789438D01*
X188818714Y-92789438D02*
X188913952Y-92741819D01*
X188913952Y-92741819D02*
X189152047Y-92741819D01*
X189152047Y-92741819D02*
X189247285Y-92789438D01*
X189247285Y-92789438D02*
X189294904Y-92837057D01*
X189294904Y-92837057D02*
X189342523Y-92932295D01*
X189342523Y-92932295D02*
X189342523Y-93027533D01*
X189342523Y-93027533D02*
X189294904Y-93170390D01*
X189294904Y-93170390D02*
X188723476Y-93741819D01*
X188723476Y-93741819D02*
X189342523Y-93741819D01*
X192891580Y-92114666D02*
X192939200Y-92162285D01*
X192939200Y-92162285D02*
X192986819Y-92305142D01*
X192986819Y-92305142D02*
X192986819Y-92400380D01*
X192986819Y-92400380D02*
X192939200Y-92543237D01*
X192939200Y-92543237D02*
X192843961Y-92638475D01*
X192843961Y-92638475D02*
X192748723Y-92686094D01*
X192748723Y-92686094D02*
X192558247Y-92733713D01*
X192558247Y-92733713D02*
X192415390Y-92733713D01*
X192415390Y-92733713D02*
X192224914Y-92686094D01*
X192224914Y-92686094D02*
X192129676Y-92638475D01*
X192129676Y-92638475D02*
X192034438Y-92543237D01*
X192034438Y-92543237D02*
X191986819Y-92400380D01*
X191986819Y-92400380D02*
X191986819Y-92305142D01*
X191986819Y-92305142D02*
X192034438Y-92162285D01*
X192034438Y-92162285D02*
X192082057Y-92114666D01*
X191986819Y-91257523D02*
X191986819Y-91447999D01*
X191986819Y-91447999D02*
X192034438Y-91543237D01*
X192034438Y-91543237D02*
X192082057Y-91590856D01*
X192082057Y-91590856D02*
X192224914Y-91686094D01*
X192224914Y-91686094D02*
X192415390Y-91733713D01*
X192415390Y-91733713D02*
X192796342Y-91733713D01*
X192796342Y-91733713D02*
X192891580Y-91686094D01*
X192891580Y-91686094D02*
X192939200Y-91638475D01*
X192939200Y-91638475D02*
X192986819Y-91543237D01*
X192986819Y-91543237D02*
X192986819Y-91352761D01*
X192986819Y-91352761D02*
X192939200Y-91257523D01*
X192939200Y-91257523D02*
X192891580Y-91209904D01*
X192891580Y-91209904D02*
X192796342Y-91162285D01*
X192796342Y-91162285D02*
X192558247Y-91162285D01*
X192558247Y-91162285D02*
X192463009Y-91209904D01*
X192463009Y-91209904D02*
X192415390Y-91257523D01*
X192415390Y-91257523D02*
X192367771Y-91352761D01*
X192367771Y-91352761D02*
X192367771Y-91543237D01*
X192367771Y-91543237D02*
X192415390Y-91638475D01*
X192415390Y-91638475D02*
X192463009Y-91686094D01*
X192463009Y-91686094D02*
X192558247Y-91733713D01*
X156021095Y-92741819D02*
X156021095Y-93551342D01*
X156021095Y-93551342D02*
X156068714Y-93646580D01*
X156068714Y-93646580D02*
X156116333Y-93694200D01*
X156116333Y-93694200D02*
X156211571Y-93741819D01*
X156211571Y-93741819D02*
X156402047Y-93741819D01*
X156402047Y-93741819D02*
X156497285Y-93694200D01*
X156497285Y-93694200D02*
X156544904Y-93646580D01*
X156544904Y-93646580D02*
X156592523Y-93551342D01*
X156592523Y-93551342D02*
X156592523Y-92741819D01*
X157544904Y-92741819D02*
X157068714Y-92741819D01*
X157068714Y-92741819D02*
X157021095Y-93218009D01*
X157021095Y-93218009D02*
X157068714Y-93170390D01*
X157068714Y-93170390D02*
X157163952Y-93122771D01*
X157163952Y-93122771D02*
X157402047Y-93122771D01*
X157402047Y-93122771D02*
X157497285Y-93170390D01*
X157497285Y-93170390D02*
X157544904Y-93218009D01*
X157544904Y-93218009D02*
X157592523Y-93313247D01*
X157592523Y-93313247D02*
X157592523Y-93551342D01*
X157592523Y-93551342D02*
X157544904Y-93646580D01*
X157544904Y-93646580D02*
X157497285Y-93694200D01*
X157497285Y-93694200D02*
X157402047Y-93741819D01*
X157402047Y-93741819D02*
X157163952Y-93741819D01*
X157163952Y-93741819D02*
X157068714Y-93694200D01*
X157068714Y-93694200D02*
X157021095Y-93646580D01*
X161047580Y-92101666D02*
X161095200Y-92149285D01*
X161095200Y-92149285D02*
X161142819Y-92292142D01*
X161142819Y-92292142D02*
X161142819Y-92387380D01*
X161142819Y-92387380D02*
X161095200Y-92530237D01*
X161095200Y-92530237D02*
X160999961Y-92625475D01*
X160999961Y-92625475D02*
X160904723Y-92673094D01*
X160904723Y-92673094D02*
X160714247Y-92720713D01*
X160714247Y-92720713D02*
X160571390Y-92720713D01*
X160571390Y-92720713D02*
X160380914Y-92673094D01*
X160380914Y-92673094D02*
X160285676Y-92625475D01*
X160285676Y-92625475D02*
X160190438Y-92530237D01*
X160190438Y-92530237D02*
X160142819Y-92387380D01*
X160142819Y-92387380D02*
X160142819Y-92292142D01*
X160142819Y-92292142D02*
X160190438Y-92149285D01*
X160190438Y-92149285D02*
X160238057Y-92101666D01*
X161142819Y-91149285D02*
X161142819Y-91720713D01*
X161142819Y-91434999D02*
X160142819Y-91434999D01*
X160142819Y-91434999D02*
X160285676Y-91530237D01*
X160285676Y-91530237D02*
X160380914Y-91625475D01*
X160380914Y-91625475D02*
X160428533Y-91720713D01*
X198185095Y-92741819D02*
X198185095Y-93551342D01*
X198185095Y-93551342D02*
X198232714Y-93646580D01*
X198232714Y-93646580D02*
X198280333Y-93694200D01*
X198280333Y-93694200D02*
X198375571Y-93741819D01*
X198375571Y-93741819D02*
X198566047Y-93741819D01*
X198566047Y-93741819D02*
X198661285Y-93694200D01*
X198661285Y-93694200D02*
X198708904Y-93646580D01*
X198708904Y-93646580D02*
X198756523Y-93551342D01*
X198756523Y-93551342D02*
X198756523Y-92741819D01*
X199756523Y-93741819D02*
X199185095Y-93741819D01*
X199470809Y-93741819D02*
X199470809Y-92741819D01*
X199470809Y-92741819D02*
X199375571Y-92884676D01*
X199375571Y-92884676D02*
X199280333Y-92979914D01*
X199280333Y-92979914D02*
X199185095Y-93027533D01*
X177038095Y-91656819D02*
X177038095Y-92466342D01*
X177038095Y-92466342D02*
X177085714Y-92561580D01*
X177085714Y-92561580D02*
X177133333Y-92609200D01*
X177133333Y-92609200D02*
X177228571Y-92656819D01*
X177228571Y-92656819D02*
X177419047Y-92656819D01*
X177419047Y-92656819D02*
X177514285Y-92609200D01*
X177514285Y-92609200D02*
X177561904Y-92561580D01*
X177561904Y-92561580D02*
X177609523Y-92466342D01*
X177609523Y-92466342D02*
X177609523Y-91656819D01*
X177990476Y-91656819D02*
X178609523Y-91656819D01*
X178609523Y-91656819D02*
X178276190Y-92037771D01*
X178276190Y-92037771D02*
X178419047Y-92037771D01*
X178419047Y-92037771D02*
X178514285Y-92085390D01*
X178514285Y-92085390D02*
X178561904Y-92133009D01*
X178561904Y-92133009D02*
X178609523Y-92228247D01*
X178609523Y-92228247D02*
X178609523Y-92466342D01*
X178609523Y-92466342D02*
X178561904Y-92561580D01*
X178561904Y-92561580D02*
X178514285Y-92609200D01*
X178514285Y-92609200D02*
X178419047Y-92656819D01*
X178419047Y-92656819D02*
X178133333Y-92656819D01*
X178133333Y-92656819D02*
X178038095Y-92609200D01*
X178038095Y-92609200D02*
X177990476Y-92561580D01*
X182129580Y-92101666D02*
X182177200Y-92149285D01*
X182177200Y-92149285D02*
X182224819Y-92292142D01*
X182224819Y-92292142D02*
X182224819Y-92387380D01*
X182224819Y-92387380D02*
X182177200Y-92530237D01*
X182177200Y-92530237D02*
X182081961Y-92625475D01*
X182081961Y-92625475D02*
X181986723Y-92673094D01*
X181986723Y-92673094D02*
X181796247Y-92720713D01*
X181796247Y-92720713D02*
X181653390Y-92720713D01*
X181653390Y-92720713D02*
X181462914Y-92673094D01*
X181462914Y-92673094D02*
X181367676Y-92625475D01*
X181367676Y-92625475D02*
X181272438Y-92530237D01*
X181272438Y-92530237D02*
X181224819Y-92387380D01*
X181224819Y-92387380D02*
X181224819Y-92292142D01*
X181224819Y-92292142D02*
X181272438Y-92149285D01*
X181272438Y-92149285D02*
X181320057Y-92101666D01*
X181224819Y-91768332D02*
X181224819Y-91149285D01*
X181224819Y-91149285D02*
X181605771Y-91482618D01*
X181605771Y-91482618D02*
X181605771Y-91339761D01*
X181605771Y-91339761D02*
X181653390Y-91244523D01*
X181653390Y-91244523D02*
X181701009Y-91196904D01*
X181701009Y-91196904D02*
X181796247Y-91149285D01*
X181796247Y-91149285D02*
X182034342Y-91149285D01*
X182034342Y-91149285D02*
X182129580Y-91196904D01*
X182129580Y-91196904D02*
X182177200Y-91244523D01*
X182177200Y-91244523D02*
X182224819Y-91339761D01*
X182224819Y-91339761D02*
X182224819Y-91625475D01*
X182224819Y-91625475D02*
X182177200Y-91720713D01*
X182177200Y-91720713D02*
X182129580Y-91768332D01*
X203211580Y-92127666D02*
X203259200Y-92175285D01*
X203259200Y-92175285D02*
X203306819Y-92318142D01*
X203306819Y-92318142D02*
X203306819Y-92413380D01*
X203306819Y-92413380D02*
X203259200Y-92556237D01*
X203259200Y-92556237D02*
X203163961Y-92651475D01*
X203163961Y-92651475D02*
X203068723Y-92699094D01*
X203068723Y-92699094D02*
X202878247Y-92746713D01*
X202878247Y-92746713D02*
X202735390Y-92746713D01*
X202735390Y-92746713D02*
X202544914Y-92699094D01*
X202544914Y-92699094D02*
X202449676Y-92651475D01*
X202449676Y-92651475D02*
X202354438Y-92556237D01*
X202354438Y-92556237D02*
X202306819Y-92413380D01*
X202306819Y-92413380D02*
X202306819Y-92318142D01*
X202306819Y-92318142D02*
X202354438Y-92175285D01*
X202354438Y-92175285D02*
X202402057Y-92127666D01*
X202640152Y-91270523D02*
X203306819Y-91270523D01*
X202259200Y-91508618D02*
X202973485Y-91746713D01*
X202973485Y-91746713D02*
X202973485Y-91127666D01*
D11*
%TO.C,C2*%
X169928000Y-91794420D02*
X169928000Y-92075580D01*
X168908000Y-91794420D02*
X168908000Y-92075580D01*
%TO.C,U4*%
X166943000Y-94127000D02*
X163493000Y-94127000D01*
X166943000Y-94127000D02*
X168893000Y-94127000D01*
X166943000Y-104247000D02*
X164993000Y-104247000D01*
X166943000Y-104247000D02*
X168893000Y-104247000D01*
%TO.C,U2*%
X188533000Y-94127000D02*
X185083000Y-94127000D01*
X188533000Y-94127000D02*
X190483000Y-94127000D01*
X188533000Y-104247000D02*
X186583000Y-104247000D01*
X188533000Y-104247000D02*
X190483000Y-104247000D01*
%TO.C,C6*%
X191518000Y-91820420D02*
X191518000Y-92101580D01*
X190498000Y-91820420D02*
X190498000Y-92101580D01*
%TO.C,U5*%
X156783000Y-94127000D02*
X153333000Y-94127000D01*
X156783000Y-94127000D02*
X158733000Y-94127000D01*
X156783000Y-104247000D02*
X154833000Y-104247000D01*
X156783000Y-104247000D02*
X158733000Y-104247000D01*
%TO.C,C1*%
X159768000Y-91794420D02*
X159768000Y-92075580D01*
X158748000Y-91794420D02*
X158748000Y-92075580D01*
%TO.C,U1*%
X198947000Y-94127000D02*
X195497000Y-94127000D01*
X198947000Y-94127000D02*
X200897000Y-94127000D01*
X198947000Y-104247000D02*
X196997000Y-104247000D01*
X198947000Y-104247000D02*
X200897000Y-104247000D01*
%TO.C,U3*%
X177865000Y-94127000D02*
X174415000Y-94127000D01*
X177865000Y-94127000D02*
X179815000Y-94127000D01*
X177865000Y-104247000D02*
X175915000Y-104247000D01*
X177865000Y-104247000D02*
X179815000Y-104247000D01*
D12*
%TO.C,Conn2*%
X182880000Y-85698000D02*
X185420000Y-85698000D01*
X185420000Y-85698000D02*
X185420000Y-89508000D01*
X185420000Y-89508000D02*
X182880000Y-89508000D01*
X182880000Y-89508000D02*
X182880000Y-85698000D01*
X186055000Y-85698000D02*
X188595000Y-85698000D01*
X188595000Y-85698000D02*
X188595000Y-89508000D01*
X188595000Y-89508000D02*
X186055000Y-89508000D01*
X186055000Y-89508000D02*
X186055000Y-85698000D01*
X189230000Y-85698000D02*
X191770000Y-85698000D01*
X191770000Y-85698000D02*
X191770000Y-89508000D01*
X191770000Y-89508000D02*
X189230000Y-89508000D01*
X189230000Y-89508000D02*
X189230000Y-85698000D01*
X192405000Y-85698000D02*
X194945000Y-85698000D01*
X194945000Y-85698000D02*
X194945000Y-89508000D01*
X194945000Y-89508000D02*
X192405000Y-89508000D01*
X192405000Y-89508000D02*
X192405000Y-85698000D01*
X195580000Y-85698000D02*
X198120000Y-85698000D01*
X198120000Y-85698000D02*
X198120000Y-89508000D01*
X198120000Y-89508000D02*
X195580000Y-89508000D01*
X195580000Y-89508000D02*
X195580000Y-85698000D01*
%TO.C,Conn1*%
X156464000Y-85725000D02*
X159004000Y-85725000D01*
X159004000Y-85725000D02*
X159004000Y-89535000D01*
X159004000Y-89535000D02*
X156464000Y-89535000D01*
X156464000Y-89535000D02*
X156464000Y-85725000D01*
X159639000Y-85725000D02*
X162179000Y-85725000D01*
X162179000Y-85725000D02*
X162179000Y-89535000D01*
X162179000Y-89535000D02*
X159639000Y-89535000D01*
X159639000Y-89535000D02*
X159639000Y-85725000D01*
X162814000Y-85725000D02*
X165354000Y-85725000D01*
X165354000Y-85725000D02*
X165354000Y-89535000D01*
X165354000Y-89535000D02*
X162814000Y-89535000D01*
X162814000Y-89535000D02*
X162814000Y-85725000D01*
X165989000Y-85725000D02*
X168529000Y-85725000D01*
X168529000Y-85725000D02*
X168529000Y-89535000D01*
X168529000Y-89535000D02*
X165989000Y-89535000D01*
X165989000Y-89535000D02*
X165989000Y-85725000D01*
X169164000Y-85725000D02*
X171704000Y-85725000D01*
X171704000Y-85725000D02*
X171704000Y-89535000D01*
X171704000Y-89535000D02*
X169164000Y-89535000D01*
X169164000Y-89535000D02*
X169164000Y-85725000D01*
D11*
%TO.C,C3*%
X180850000Y-91794420D02*
X180850000Y-92075580D01*
X179830000Y-91794420D02*
X179830000Y-92075580D01*
D12*
%TO.C,Conn3*%
X174498000Y-85725000D02*
X177038000Y-85725000D01*
X177038000Y-85725000D02*
X177038000Y-89535000D01*
X177038000Y-89535000D02*
X174498000Y-89535000D01*
X174498000Y-89535000D02*
X174498000Y-85725000D01*
X177673000Y-85725000D02*
X180213000Y-85725000D01*
X180213000Y-85725000D02*
X180213000Y-89535000D01*
X180213000Y-89535000D02*
X177673000Y-89535000D01*
X177673000Y-89535000D02*
X177673000Y-85725000D01*
D11*
%TO.C,C4*%
X201932000Y-91820420D02*
X201932000Y-92101580D01*
X200912000Y-91820420D02*
X200912000Y-92101580D01*
%TD*%
%LPC*%
D13*
%TO.C,U6*%
X201944500Y-132524500D03*
D14*
X199404500Y-132524500D03*
X196864500Y-132524500D03*
X194324500Y-132524500D03*
X191784500Y-132524500D03*
X189244500Y-132524500D03*
X186704500Y-132524500D03*
X184164500Y-132524500D03*
X181624500Y-132524500D03*
X179084500Y-132524500D03*
X176544500Y-132524500D03*
X174004500Y-132524500D03*
X171464500Y-132524500D03*
X168924500Y-132524500D03*
X166384500Y-132524500D03*
X163844500Y-132524500D03*
X161304500Y-132524500D03*
X158764500Y-132524500D03*
X156224500Y-132524500D03*
X153684500Y-132524500D03*
X153684500Y-107886500D03*
X156224500Y-107886500D03*
X158764500Y-107886500D03*
X161304500Y-107886500D03*
X163844500Y-107886500D03*
X166384500Y-107886500D03*
X168924500Y-107886500D03*
X171464500Y-107886500D03*
X174004500Y-107886500D03*
X176544500Y-107886500D03*
X179084500Y-107886500D03*
X181624500Y-107886500D03*
X184164500Y-107886500D03*
X186704500Y-107886500D03*
X189244500Y-107886500D03*
X191784500Y-107886500D03*
X194324500Y-107886500D03*
X196864500Y-107886500D03*
X199404500Y-107886500D03*
X201944500Y-107886500D03*
%TD*%
D15*
%TO.C,C2*%
X169418000Y-91160000D03*
X169418000Y-92710000D03*
%TD*%
D16*
%TO.C,H3*%
X153670000Y-135890000D03*
%TD*%
%TO.C,H1*%
X153162000Y-87630000D03*
%TD*%
%TO.C,H2*%
X201930000Y-87376000D03*
%TD*%
D17*
%TO.C,U4*%
X164468000Y-94742000D03*
X164468000Y-96012000D03*
X164468000Y-97282000D03*
X164468000Y-98552000D03*
X164468000Y-99822000D03*
X164468000Y-101092000D03*
X164468000Y-102362000D03*
X164468000Y-103632000D03*
X169418000Y-103632000D03*
X169418000Y-102362000D03*
X169418000Y-101092000D03*
X169418000Y-99822000D03*
X169418000Y-98552000D03*
X169418000Y-97282000D03*
X169418000Y-96012000D03*
X169418000Y-94742000D03*
%TD*%
%TO.C,U2*%
X186058000Y-94742000D03*
X186058000Y-96012000D03*
X186058000Y-97282000D03*
X186058000Y-98552000D03*
X186058000Y-99822000D03*
X186058000Y-101092000D03*
X186058000Y-102362000D03*
X186058000Y-103632000D03*
X191008000Y-103632000D03*
X191008000Y-102362000D03*
X191008000Y-101092000D03*
X191008000Y-99822000D03*
X191008000Y-98552000D03*
X191008000Y-97282000D03*
X191008000Y-96012000D03*
X191008000Y-94742000D03*
%TD*%
D15*
%TO.C,C6*%
X191008000Y-91186000D03*
X191008000Y-92736000D03*
%TD*%
D17*
%TO.C,U5*%
X154308000Y-94742000D03*
X154308000Y-96012000D03*
X154308000Y-97282000D03*
X154308000Y-98552000D03*
X154308000Y-99822000D03*
X154308000Y-101092000D03*
X154308000Y-102362000D03*
X154308000Y-103632000D03*
X159258000Y-103632000D03*
X159258000Y-102362000D03*
X159258000Y-101092000D03*
X159258000Y-99822000D03*
X159258000Y-98552000D03*
X159258000Y-97282000D03*
X159258000Y-96012000D03*
X159258000Y-94742000D03*
%TD*%
D16*
%TO.C,H4*%
X201930000Y-136144000D03*
%TD*%
D15*
%TO.C,C1*%
X159258000Y-91160000D03*
X159258000Y-92710000D03*
%TD*%
D17*
%TO.C,U1*%
X196472000Y-94742000D03*
X196472000Y-96012000D03*
X196472000Y-97282000D03*
X196472000Y-98552000D03*
X196472000Y-99822000D03*
X196472000Y-101092000D03*
X196472000Y-102362000D03*
X196472000Y-103632000D03*
X201422000Y-103632000D03*
X201422000Y-102362000D03*
X201422000Y-101092000D03*
X201422000Y-99822000D03*
X201422000Y-98552000D03*
X201422000Y-97282000D03*
X201422000Y-96012000D03*
X201422000Y-94742000D03*
%TD*%
%TO.C,U3*%
X175390000Y-94742000D03*
X175390000Y-96012000D03*
X175390000Y-97282000D03*
X175390000Y-98552000D03*
X175390000Y-99822000D03*
X175390000Y-101092000D03*
X175390000Y-102362000D03*
X175390000Y-103632000D03*
X180340000Y-103632000D03*
X180340000Y-102362000D03*
X180340000Y-101092000D03*
X180340000Y-99822000D03*
X180340000Y-98552000D03*
X180340000Y-97282000D03*
X180340000Y-96012000D03*
X180340000Y-94742000D03*
%TD*%
D18*
%TO.C,Conn2*%
X184150000Y-87603000D03*
X187325000Y-87603000D03*
X190500000Y-87603000D03*
X193675000Y-87603000D03*
X196850000Y-87603000D03*
%TD*%
%TO.C,Conn1*%
X157734000Y-87630000D03*
X160909000Y-87630000D03*
X164084000Y-87630000D03*
X167259000Y-87630000D03*
X170434000Y-87630000D03*
%TD*%
D15*
%TO.C,C3*%
X180340000Y-91160000D03*
X180340000Y-92710000D03*
%TD*%
D18*
%TO.C,Conn3*%
X175768000Y-87630000D03*
X178943000Y-87630000D03*
%TD*%
D15*
%TO.C,C4*%
X201422000Y-91186000D03*
X201422000Y-92736000D03*
%TD*%
%LPD*%
M02*
