M48
; DRILL file {KiCad 7.0.8} date Sat Nov 11 14:20:38 2023
; FORMAT={-:-/ absolute / metric / decimal}
; #@! TF.CreationDate,2023-11-11T14:20:38-08:00
; #@! TF.GenerationSoftware,Kicad,Pcbnew,7.0.8
; #@! TF.FileFunction,Plated,1,2,PTH
FMAT,2
METRIC
; #@! TA.AperFunction,Plated,PTH,ViaDrill
T1C0.400
; #@! TA.AperFunction,Plated,PTH,ComponentDrill
T2C0.800
%
G90
G05
T1
X151.638Y-102.362
X151.638Y-103.632
X156.21Y-94.742
X156.21Y-96.012
X156.21Y-97.282
X156.21Y-98.552
X156.21Y-99.822
X156.21Y-101.092
X156.21Y-102.362
X157.734Y-90.17
X160.909Y-90.17
X162.306Y-94.742
X162.306Y-96.012
X162.306Y-97.282
X162.306Y-98.552
X162.306Y-99.822
X162.306Y-101.092
X162.306Y-102.362
X164.084Y-90.17
X167.259Y-90.17
X170.434Y-90.17
X171.45Y-98.552
X171.45Y-99.822
X171.45Y-101.092
X171.45Y-102.362
X172.974Y-87.63
X172.974Y-90.678
X177.546Y-94.742
X177.546Y-96.012
X177.546Y-97.282
X177.546Y-98.552
X177.546Y-99.822
X177.546Y-101.092
X177.546Y-102.362
X182.876Y-102.358
X182.88Y-97.282
X182.88Y-99.822
X182.88Y-101.092
X184.15Y-90.17
X187.325Y-90.17
X187.96Y-94.742
X187.96Y-96.012
X187.96Y-97.282
X187.96Y-98.552
X187.96Y-99.822
X187.96Y-101.092
X187.96Y-102.362
X189.611Y-90.17
X193.29Y-101.096
X193.29Y-102.358
X193.294Y-99.822
X193.675Y-90.17
X196.85Y-90.17
X198.374Y-94.742
X198.374Y-96.012
X198.374Y-97.282
X198.374Y-98.552
X198.374Y-99.822
X198.374Y-101.092
X198.374Y-102.362
X203.708Y-94.742
X203.708Y-96.012
X203.708Y-97.282
T2
X153.684Y-107.886
X153.684Y-132.524
X156.225Y-107.886
X156.225Y-132.524
X158.764Y-107.886
X158.764Y-132.524
X161.304Y-107.886
X161.304Y-132.524
X163.844Y-107.886
X163.844Y-132.524
X166.385Y-107.886
X166.385Y-132.524
X168.924Y-107.886
X168.924Y-132.524
X171.464Y-107.886
X171.464Y-132.524
X174.004Y-107.886
X174.004Y-132.524
X176.544Y-107.886
X176.544Y-132.524
X179.084Y-107.886
X179.084Y-132.524
X181.624Y-107.886
X181.624Y-132.524
X184.165Y-107.886
X184.165Y-132.524
X186.704Y-107.886
X186.704Y-132.524
X189.244Y-107.886
X189.244Y-132.524
X191.784Y-107.886
X191.784Y-132.524
X194.325Y-107.886
X194.325Y-132.524
X196.864Y-107.886
X196.864Y-132.524
X199.404Y-107.886
X199.404Y-132.524
X201.945Y-107.886
X201.945Y-132.524
T0
M30
