%TF.GenerationSoftware,KiCad,Pcbnew,7.0.8*%
%TF.CreationDate,2023-12-02T15:31:10-08:00*%
%TF.ProjectId,LED_MAIN_BOARD_POWER,4c45445f-4d41-4494-9e5f-424f4152445f,rev?*%
%TF.SameCoordinates,Original*%
%TF.FileFunction,Soldermask,Top*%
%TF.FilePolarity,Negative*%
%FSLAX46Y46*%
G04 Gerber Fmt 4.6, Leading zero omitted, Abs format (unit mm)*
G04 Created by KiCad (PCBNEW 7.0.8) date 2023-12-02 15:31:10*
%MOMM*%
%LPD*%
G01*
G04 APERTURE LIST*
G04 Aperture macros list*
%AMRoundRect*
0 Rectangle with rounded corners*
0 $1 Rounding radius*
0 $2 $3 $4 $5 $6 $7 $8 $9 X,Y pos of 4 corners*
0 Add a 4 corners polygon primitive as box body*
4,1,4,$2,$3,$4,$5,$6,$7,$8,$9,$2,$3,0*
0 Add four circle primitives for the rounded corners*
1,1,$1+$1,$2,$3*
1,1,$1+$1,$4,$5*
1,1,$1+$1,$6,$7*
1,1,$1+$1,$8,$9*
0 Add four rect primitives between the rounded corners*
20,1,$1+$1,$2,$3,$4,$5,0*
20,1,$1+$1,$4,$5,$6,$7,0*
20,1,$1+$1,$6,$7,$8,$9,0*
20,1,$1+$1,$8,$9,$2,$3,0*%
G04 Aperture macros list end*
%ADD10R,2.540000X1.524000*%
%ADD11R,1.524000X2.540000*%
%ADD12RoundRect,0.237500X0.300000X0.237500X-0.300000X0.237500X-0.300000X-0.237500X0.300000X-0.237500X0*%
%ADD13R,1.600000X1.600000*%
%ADD14O,1.600000X1.600000*%
%ADD15C,1.600000*%
%ADD16R,2.000000X2.000000*%
%ADD17C,2.000000*%
%ADD18C,3.200000*%
%ADD19RoundRect,0.237500X-0.237500X0.300000X-0.237500X-0.300000X0.237500X-0.300000X0.237500X0.300000X0*%
%ADD20R,0.650000X2.000000*%
%ADD21RoundRect,0.150000X0.825000X0.150000X-0.825000X0.150000X-0.825000X-0.150000X0.825000X-0.150000X0*%
G04 APERTURE END LIST*
D10*
%TO.C,Disp1*%
X203200000Y-101981000D03*
X203200000Y-98806000D03*
X203200000Y-95631000D03*
X203200000Y-92456000D03*
X203200000Y-89281000D03*
X203200000Y-86106000D03*
X203200000Y-82931000D03*
X203200000Y-79756000D03*
X203200000Y-76581000D03*
X203200000Y-73406000D03*
%TD*%
D11*
%TO.C,CTL1*%
X158496000Y-116840000D03*
X161671000Y-116840000D03*
%TD*%
D12*
%TO.C,C3*%
X179424500Y-117602000D03*
X177699500Y-117602000D03*
%TD*%
D13*
%TO.C,A1*%
X173990000Y-107950000D03*
D14*
X173990000Y-105410000D03*
X173990000Y-102870000D03*
X173990000Y-100330000D03*
X173990000Y-97790000D03*
X173990000Y-95250000D03*
X173990000Y-92710000D03*
X173990000Y-90170000D03*
X173990000Y-87630000D03*
X173990000Y-85090000D03*
X173990000Y-82550000D03*
X173990000Y-80010000D03*
X173990000Y-77470000D03*
X173990000Y-74930000D03*
X173990000Y-72390000D03*
X158750000Y-72390000D03*
X158750000Y-74930000D03*
X158750000Y-77470000D03*
X158750000Y-80010000D03*
X158750000Y-82550000D03*
X158750000Y-85090000D03*
X158750000Y-87630000D03*
X158750000Y-90170000D03*
X158750000Y-92710000D03*
X158750000Y-95250000D03*
X158750000Y-97790000D03*
X158750000Y-100330000D03*
X158750000Y-102870000D03*
X158750000Y-105410000D03*
X158750000Y-107950000D03*
%TD*%
D15*
%TO.C,L1*%
X186182000Y-126746000D03*
D14*
X186182000Y-116586000D03*
%TD*%
D16*
%TO.C,BZ1*%
X181874000Y-68580000D03*
D17*
X189474000Y-68580000D03*
%TD*%
D18*
%TO.C,H2*%
X200152000Y-125730000D03*
%TD*%
D10*
%TO.C,Disp0*%
X197612000Y-101981000D03*
X197612000Y-98806000D03*
X197612000Y-95631000D03*
X197612000Y-92456000D03*
X197612000Y-89281000D03*
X197612000Y-86106000D03*
X197612000Y-82931000D03*
X197612000Y-79756000D03*
X197612000Y-76581000D03*
X197612000Y-73406000D03*
%TD*%
D11*
%TO.C,TM1*%
X158496000Y-125476000D03*
X161671000Y-125476000D03*
%TD*%
D19*
%TO.C,C1*%
X175260000Y-121311500D03*
X175260000Y-123036500D03*
%TD*%
D10*
%TO.C,Vout2*%
X202692000Y-117475000D03*
X202692000Y-114300000D03*
%TD*%
D19*
%TO.C,C2*%
X181864000Y-123851500D03*
X181864000Y-125576500D03*
%TD*%
D10*
%TO.C,Vout1*%
X196342000Y-117475000D03*
X196342000Y-114300000D03*
%TD*%
D18*
%TO.C,H3*%
X169418000Y-125730000D03*
%TD*%
D20*
%TO.C,Vreg0*%
X179512000Y-120464000D03*
X178562000Y-120464000D03*
X177612000Y-120464000D03*
X177612000Y-123884000D03*
X178562000Y-123884000D03*
X179512000Y-123884000D03*
%TD*%
D12*
%TO.C,C4*%
X179424500Y-115316000D03*
X177699500Y-115316000D03*
%TD*%
D18*
%TO.C,H1*%
X200152000Y-62230000D03*
%TD*%
%TO.C,H4*%
X159512000Y-62230000D03*
%TD*%
D21*
%TO.C,U1*%
X189200000Y-96520000D03*
X189200000Y-95250000D03*
X189200000Y-93980000D03*
X189200000Y-92710000D03*
X189200000Y-91440000D03*
X189200000Y-90170000D03*
X189200000Y-88900000D03*
X189200000Y-87630000D03*
X184250000Y-87630000D03*
X184250000Y-88900000D03*
X184250000Y-90170000D03*
X184250000Y-91440000D03*
X184250000Y-92710000D03*
X184250000Y-93980000D03*
X184250000Y-95250000D03*
X184250000Y-96520000D03*
%TD*%
D11*
%TO.C,TM0*%
X158496000Y-121158000D03*
X161671000Y-121158000D03*
%TD*%
D10*
%TO.C,Vin1*%
X169926000Y-120777000D03*
X169926000Y-117602000D03*
%TD*%
M02*
