%TF.GenerationSoftware,KiCad,Pcbnew,7.0.8*%
%TF.CreationDate,2023-12-02T15:31:10-08:00*%
%TF.ProjectId,LED_MAIN_BOARD_POWER,4c45445f-4d41-4494-9e5f-424f4152445f,rev?*%
%TF.SameCoordinates,Original*%
%TF.FileFunction,Copper,L1,Top*%
%TF.FilePolarity,Positive*%
%FSLAX46Y46*%
G04 Gerber Fmt 4.6, Leading zero omitted, Abs format (unit mm)*
G04 Created by KiCad (PCBNEW 7.0.8) date 2023-12-02 15:31:10*
%MOMM*%
%LPD*%
G01*
G04 APERTURE LIST*
G04 Aperture macros list*
%AMRoundRect*
0 Rectangle with rounded corners*
0 $1 Rounding radius*
0 $2 $3 $4 $5 $6 $7 $8 $9 X,Y pos of 4 corners*
0 Add a 4 corners polygon primitive as box body*
4,1,4,$2,$3,$4,$5,$6,$7,$8,$9,$2,$3,0*
0 Add four circle primitives for the rounded corners*
1,1,$1+$1,$2,$3*
1,1,$1+$1,$4,$5*
1,1,$1+$1,$6,$7*
1,1,$1+$1,$8,$9*
0 Add four rect primitives between the rounded corners*
20,1,$1+$1,$2,$3,$4,$5,0*
20,1,$1+$1,$4,$5,$6,$7,0*
20,1,$1+$1,$6,$7,$8,$9,0*
20,1,$1+$1,$8,$9,$2,$3,0*%
G04 Aperture macros list end*
%TA.AperFunction,SMDPad,CuDef*%
%ADD10R,2.540000X1.524000*%
%TD*%
%TA.AperFunction,SMDPad,CuDef*%
%ADD11R,1.524000X2.540000*%
%TD*%
%TA.AperFunction,SMDPad,CuDef*%
%ADD12RoundRect,0.237500X0.300000X0.237500X-0.300000X0.237500X-0.300000X-0.237500X0.300000X-0.237500X0*%
%TD*%
%TA.AperFunction,ComponentPad*%
%ADD13R,1.600000X1.600000*%
%TD*%
%TA.AperFunction,ComponentPad*%
%ADD14O,1.600000X1.600000*%
%TD*%
%TA.AperFunction,ComponentPad*%
%ADD15C,1.600000*%
%TD*%
%TA.AperFunction,ComponentPad*%
%ADD16R,2.000000X2.000000*%
%TD*%
%TA.AperFunction,ComponentPad*%
%ADD17C,2.000000*%
%TD*%
%TA.AperFunction,SMDPad,CuDef*%
%ADD18RoundRect,0.237500X-0.237500X0.300000X-0.237500X-0.300000X0.237500X-0.300000X0.237500X0.300000X0*%
%TD*%
%TA.AperFunction,SMDPad,CuDef*%
%ADD19R,0.650000X2.000000*%
%TD*%
%TA.AperFunction,SMDPad,CuDef*%
%ADD20RoundRect,0.150000X0.825000X0.150000X-0.825000X0.150000X-0.825000X-0.150000X0.825000X-0.150000X0*%
%TD*%
%TA.AperFunction,ViaPad*%
%ADD21C,0.800000*%
%TD*%
%TA.AperFunction,Conductor*%
%ADD22C,0.250000*%
%TD*%
%TA.AperFunction,Conductor*%
%ADD23C,0.500000*%
%TD*%
%TA.AperFunction,Conductor*%
%ADD24C,0.750000*%
%TD*%
G04 APERTURE END LIST*
D10*
%TO.P,Disp1,1,S0*%
%TO.N,SEL_0_DISP_1*%
X203200000Y-101981000D03*
%TO.P,Disp1,2,S1*%
%TO.N,SEL_1_DISP_1*%
X203200000Y-98806000D03*
%TO.P,Disp1,3,S2*%
%TO.N,SEL_2_DISP_1*%
X203200000Y-95631000D03*
%TO.P,Disp1,4,S3*%
%TO.N,SEL_3_DISP_1*%
X203200000Y-92456000D03*
%TO.P,Disp1,5,SX*%
%TO.N,SEL_X_DISP_1*%
X203200000Y-89281000D03*
%TO.P,Disp1,6,D0*%
%TO.N,DATA_0*%
X203200000Y-86106000D03*
%TO.P,Disp1,7,D1*%
%TO.N,DATA_1*%
X203200000Y-82931000D03*
%TO.P,Disp1,8,D2*%
%TO.N,DATA_2*%
X203200000Y-79756000D03*
%TO.P,Disp1,9,D3*%
%TO.N,DATA_3*%
X203200000Y-76581000D03*
%TO.P,Disp1,10,PH*%
%TO.N,PHASE*%
X203200000Y-73406000D03*
%TD*%
D11*
%TO.P,CTL1,1,1*%
%TO.N,GND*%
X158496000Y-116840000D03*
%TO.P,CTL1,2,2*%
%TO.N,CTRL_0*%
X161671000Y-116840000D03*
%TD*%
D12*
%TO.P,C3,1*%
%TO.N,+5V*%
X179424500Y-117602000D03*
%TO.P,C3,2*%
%TO.N,GND*%
X177699500Y-117602000D03*
%TD*%
D13*
%TO.P,A1,1,D1/TX*%
%TO.N,TIMER_PB_1*%
X173990000Y-107950000D03*
D14*
%TO.P,A1,2,D0/RX*%
%TO.N,TIMER_PB_0*%
X173990000Y-105410000D03*
%TO.P,A1,3,~{RESET}*%
%TO.N,unconnected-(A1-~{RESET}-Pad3)*%
X173990000Y-102870000D03*
%TO.P,A1,4,GND*%
%TO.N,GND*%
X173990000Y-100330000D03*
%TO.P,A1,5,D2*%
%TO.N,CTRL_0*%
X173990000Y-97790000D03*
%TO.P,A1,6,D3*%
%TO.N,BUZZ*%
X173990000Y-95250000D03*
%TO.P,A1,7,D4*%
%TO.N,SEL_D1*%
X173990000Y-92710000D03*
%TO.P,A1,8,D5*%
%TO.N,SEL_D2*%
X173990000Y-90170000D03*
%TO.P,A1,9,D6*%
%TO.N,SEL_D3*%
X173990000Y-87630000D03*
%TO.P,A1,10,D7*%
%TO.N,SEL_D0*%
X173990000Y-85090000D03*
%TO.P,A1,11,D8*%
%TO.N,DATA_0*%
X173990000Y-82550000D03*
%TO.P,A1,12,D9*%
%TO.N,DATA_1*%
X173990000Y-80010000D03*
%TO.P,A1,13,D10*%
%TO.N,DATA_2*%
X173990000Y-77470000D03*
%TO.P,A1,14,D11*%
%TO.N,DATA_3*%
X173990000Y-74930000D03*
%TO.P,A1,15,D12*%
%TO.N,PHASE*%
X173990000Y-72390000D03*
%TO.P,A1,16,D13*%
%TO.N,unconnected-(A1-D13-Pad16)*%
X158750000Y-72390000D03*
%TO.P,A1,17,3V3*%
%TO.N,unconnected-(A1-3V3-Pad17)*%
X158750000Y-74930000D03*
%TO.P,A1,18,AREF*%
%TO.N,+5V*%
X158750000Y-77470000D03*
%TO.P,A1,19,A0*%
%TO.N,unconnected-(A1-A0-Pad19)*%
X158750000Y-80010000D03*
%TO.P,A1,20,A1*%
%TO.N,unconnected-(A1-A1-Pad20)*%
X158750000Y-82550000D03*
%TO.P,A1,21,A2*%
%TO.N,unconnected-(A1-A2-Pad21)*%
X158750000Y-85090000D03*
%TO.P,A1,22,A3*%
%TO.N,unconnected-(A1-A3-Pad22)*%
X158750000Y-87630000D03*
%TO.P,A1,23,A4*%
%TO.N,unconnected-(A1-A4-Pad23)*%
X158750000Y-90170000D03*
%TO.P,A1,24,A5*%
%TO.N,unconnected-(A1-A5-Pad24)*%
X158750000Y-92710000D03*
%TO.P,A1,25,A6*%
%TO.N,unconnected-(A1-A6-Pad25)*%
X158750000Y-95250000D03*
%TO.P,A1,26,A7*%
%TO.N,unconnected-(A1-A7-Pad26)*%
X158750000Y-97790000D03*
%TO.P,A1,27,+5V*%
%TO.N,+5V*%
X158750000Y-100330000D03*
%TO.P,A1,28,~{RESET}*%
%TO.N,unconnected-(A1-~{RESET}-Pad28)*%
X158750000Y-102870000D03*
%TO.P,A1,29,GND*%
%TO.N,GND*%
X158750000Y-105410000D03*
%TO.P,A1,30,VIN*%
%TO.N,unconnected-(A1-VIN-Pad30)*%
X158750000Y-107950000D03*
%TD*%
D15*
%TO.P,L1,1,1*%
%TO.N,Net-(Vreg0-SW)*%
X186182000Y-126746000D03*
D14*
%TO.P,L1,2,2*%
%TO.N,+5V*%
X186182000Y-116586000D03*
%TD*%
D16*
%TO.P,BZ1,1,-*%
%TO.N,BUZZ*%
X181874000Y-68580000D03*
D17*
%TO.P,BZ1,2,+*%
%TO.N,GND*%
X189474000Y-68580000D03*
%TD*%
D10*
%TO.P,Disp0,1,S0*%
%TO.N,SEL_0_DISP_0*%
X197612000Y-101981000D03*
%TO.P,Disp0,2,S1*%
%TO.N,SEL_1_DISP_0*%
X197612000Y-98806000D03*
%TO.P,Disp0,3,S2*%
%TO.N,SEL_2_DISP_0*%
X197612000Y-95631000D03*
%TO.P,Disp0,4,S3*%
%TO.N,SEL_3_DISP_0*%
X197612000Y-92456000D03*
%TO.P,Disp0,5,SX*%
%TO.N,SEL_X_DISP_0*%
X197612000Y-89281000D03*
%TO.P,Disp0,6,D0*%
%TO.N,DATA_0*%
X197612000Y-86106000D03*
%TO.P,Disp0,7,D1*%
%TO.N,DATA_1*%
X197612000Y-82931000D03*
%TO.P,Disp0,8,D2*%
%TO.N,DATA_2*%
X197612000Y-79756000D03*
%TO.P,Disp0,9,D3*%
%TO.N,DATA_3*%
X197612000Y-76581000D03*
%TO.P,Disp0,10,PH*%
%TO.N,PHASE*%
X197612000Y-73406000D03*
%TD*%
D11*
%TO.P,TM1,1,1*%
%TO.N,GND*%
X158496000Y-125476000D03*
%TO.P,TM1,2,2*%
%TO.N,TIMER_PB_1*%
X161671000Y-125476000D03*
%TD*%
D18*
%TO.P,C1,1*%
%TO.N,+BATT*%
X175260000Y-121311500D03*
%TO.P,C1,2*%
%TO.N,GND*%
X175260000Y-123036500D03*
%TD*%
D10*
%TO.P,Vout2,1,GND*%
%TO.N,GND*%
X202692000Y-117475000D03*
%TO.P,Vout2,2,Vout*%
%TO.N,+5V*%
X202692000Y-114300000D03*
%TD*%
D18*
%TO.P,C2,1*%
%TO.N,Net-(Vreg0-BST)*%
X181864000Y-123851500D03*
%TO.P,C2,2*%
%TO.N,Net-(Vreg0-SW)*%
X181864000Y-125576500D03*
%TD*%
D10*
%TO.P,Vout1,1,GND*%
%TO.N,GND*%
X196342000Y-117475000D03*
%TO.P,Vout1,2,Vout*%
%TO.N,+5V*%
X196342000Y-114300000D03*
%TD*%
D19*
%TO.P,Vreg0,1,FB*%
%TO.N,+5V*%
X179512000Y-120464000D03*
%TO.P,Vreg0,2,EN*%
%TO.N,+BATT*%
X178562000Y-120464000D03*
%TO.P,Vreg0,3,IN*%
X177612000Y-120464000D03*
%TO.P,Vreg0,4,GND*%
%TO.N,GND*%
X177612000Y-123884000D03*
%TO.P,Vreg0,5,SW*%
%TO.N,Net-(Vreg0-SW)*%
X178562000Y-123884000D03*
%TO.P,Vreg0,6,BST*%
%TO.N,Net-(Vreg0-BST)*%
X179512000Y-123884000D03*
%TD*%
D12*
%TO.P,C4,1*%
%TO.N,+5V*%
X179424500Y-115316000D03*
%TO.P,C4,2*%
%TO.N,GND*%
X177699500Y-115316000D03*
%TD*%
D20*
%TO.P,U1,1,S4*%
%TO.N,SEL_X_DISP_0*%
X189200000Y-96520000D03*
%TO.P,U1,2,S2*%
%TO.N,SEL_2_DISP_0*%
X189200000Y-95250000D03*
%TO.P,U1,3,S0*%
%TO.N,SEL_0_DISP_0*%
X189200000Y-93980000D03*
%TO.P,U1,4,S7*%
%TO.N,SEL_2_DISP_1*%
X189200000Y-92710000D03*
%TO.P,U1,5,S9*%
%TO.N,SEL_X_DISP_1*%
X189200000Y-91440000D03*
%TO.P,U1,6,S5*%
%TO.N,SEL_0_DISP_1*%
X189200000Y-90170000D03*
%TO.P,U1,7,S6*%
%TO.N,SEL_1_DISP_1*%
X189200000Y-88900000D03*
%TO.P,U1,8,VSS*%
%TO.N,GND*%
X189200000Y-87630000D03*
%TO.P,U1,9,S8*%
%TO.N,SEL_3_DISP_1*%
X184250000Y-87630000D03*
%TO.P,U1,10,A*%
%TO.N,SEL_D0*%
X184250000Y-88900000D03*
%TO.P,U1,11,D*%
%TO.N,SEL_D3*%
X184250000Y-90170000D03*
%TO.P,U1,12,C*%
%TO.N,SEL_D2*%
X184250000Y-91440000D03*
%TO.P,U1,13,B*%
%TO.N,SEL_D1*%
X184250000Y-92710000D03*
%TO.P,U1,14,S1*%
%TO.N,SEL_1_DISP_0*%
X184250000Y-93980000D03*
%TO.P,U1,15,S3*%
%TO.N,SEL_3_DISP_0*%
X184250000Y-95250000D03*
%TO.P,U1,16,VDD*%
%TO.N,+5V*%
X184250000Y-96520000D03*
%TD*%
D11*
%TO.P,TM0,1,1*%
%TO.N,GND*%
X158496000Y-121158000D03*
%TO.P,TM0,2,2*%
%TO.N,TIMER_PB_0*%
X161671000Y-121158000D03*
%TD*%
D10*
%TO.P,Vin1,1,BAT_V+*%
%TO.N,+BATT*%
X169926000Y-120777000D03*
%TO.P,Vin1,2,BAT_GND*%
%TO.N,GND*%
X169926000Y-117602000D03*
%TD*%
D21*
%TO.N,TIMER_PB_1*%
X164084000Y-125476000D03*
%TO.N,TIMER_PB_0*%
X163830000Y-121158000D03*
%TO.N,GND*%
X179070000Y-99060000D03*
X195326000Y-66802000D03*
X204470000Y-110236000D03*
X191008000Y-126238000D03*
X177612000Y-126172000D03*
X204978000Y-66802000D03*
X172466000Y-63500000D03*
X204978000Y-126238000D03*
X191008000Y-110236000D03*
X158242000Y-113284000D03*
X161290000Y-113284000D03*
X166370000Y-63500000D03*
X179070000Y-105410000D03*
X175768000Y-125222000D03*
%TO.N,CTRL_0*%
X163830000Y-116840000D03*
%TO.N,SEL_X_DISP_0*%
X194818000Y-89408000D03*
X191262000Y-98298000D03*
%TO.N,SEL_3_DISP_1*%
X200406000Y-91186000D03*
X181610000Y-86106000D03*
%TO.N,SEL_1_DISP_0*%
X194564000Y-95250000D03*
X181356000Y-93980000D03*
%TO.N,SEL_3_DISP_0*%
X181356000Y-95250000D03*
X200406000Y-92710000D03*
%TD*%
D22*
%TO.N,TIMER_PB_1*%
X164084000Y-125476000D02*
X161671000Y-125476000D01*
%TO.N,TIMER_PB_0*%
X163830000Y-121158000D02*
X161671000Y-121158000D01*
%TO.N,GND*%
X176274000Y-125222000D02*
X175768000Y-125222000D01*
X177612000Y-126172000D02*
X177612000Y-123884000D01*
X177612000Y-123884000D02*
X176274000Y-125222000D01*
%TO.N,CTRL_0*%
X163830000Y-116840000D02*
X161671000Y-116840000D01*
D23*
%TO.N,BUZZ*%
X172466000Y-95250000D02*
X171196000Y-93980000D01*
X173990000Y-68580000D02*
X181874000Y-68580000D01*
X171196000Y-71374000D02*
X173990000Y-68580000D01*
X173990000Y-95250000D02*
X172466000Y-95250000D01*
X171196000Y-93980000D02*
X171196000Y-71374000D01*
D22*
%TO.N,PHASE*%
X194310000Y-72390000D02*
X173990000Y-72390000D01*
X203200000Y-73406000D02*
X197612000Y-73406000D01*
X197612000Y-73406000D02*
X195326000Y-73406000D01*
X195326000Y-73406000D02*
X194310000Y-72390000D01*
%TO.N,DATA_0*%
X197612000Y-86106000D02*
X195580000Y-86106000D01*
X195580000Y-86106000D02*
X192024000Y-82550000D01*
X203200000Y-86106000D02*
X197612000Y-86106000D01*
X192024000Y-82550000D02*
X173990000Y-82550000D01*
%TO.N,DATA_1*%
X192278000Y-80010000D02*
X195199000Y-82931000D01*
X195199000Y-82931000D02*
X197612000Y-82931000D01*
X197612000Y-82931000D02*
X203200000Y-82931000D01*
X173990000Y-80010000D02*
X192278000Y-80010000D01*
%TO.N,DATA_2*%
X203200000Y-79756000D02*
X197612000Y-79756000D01*
X193040000Y-77470000D02*
X173990000Y-77470000D01*
X197612000Y-79756000D02*
X195326000Y-79756000D01*
X195326000Y-79756000D02*
X193040000Y-77470000D01*
%TO.N,DATA_3*%
X173990000Y-74930000D02*
X193802000Y-74930000D01*
X193802000Y-74930000D02*
X195453000Y-76581000D01*
X195453000Y-76581000D02*
X197612000Y-76581000D01*
X203200000Y-76581000D02*
X197612000Y-76581000D01*
%TO.N,SEL_D0*%
X181610000Y-88900000D02*
X184150000Y-88900000D01*
X177800000Y-85090000D02*
X181610000Y-88900000D01*
X173990000Y-85090000D02*
X177800000Y-85090000D01*
%TO.N,SEL_D1*%
X173990000Y-92710000D02*
X184150000Y-92710000D01*
%TO.N,SEL_D2*%
X173990000Y-90170000D02*
X177800000Y-90170000D01*
X177800000Y-90170000D02*
X179070000Y-91440000D01*
X179070000Y-91440000D02*
X184150000Y-91440000D01*
%TO.N,SEL_D3*%
X180340000Y-90170000D02*
X184150000Y-90170000D01*
X177800000Y-87630000D02*
X180340000Y-90170000D01*
X173990000Y-87630000D02*
X177800000Y-87630000D01*
D24*
%TO.N,+5V*%
X161290000Y-80010000D02*
X161290000Y-102870000D01*
X188468000Y-114300000D02*
X186182000Y-116586000D01*
X179424500Y-113892500D02*
X179424500Y-115316000D01*
X160401000Y-101981000D02*
X158750000Y-100330000D01*
X158750000Y-77470000D02*
X161290000Y-80010000D01*
X179424500Y-117602000D02*
X179424500Y-115316000D01*
X170942000Y-112522000D02*
X162179000Y-103759000D01*
X179512000Y-117689500D02*
X179424500Y-117602000D01*
X185166000Y-117602000D02*
X186182000Y-116586000D01*
X196342000Y-114300000D02*
X202692000Y-114300000D01*
X178054000Y-112522000D02*
X184150000Y-106426000D01*
X196342000Y-114300000D02*
X188468000Y-114300000D01*
X178054000Y-112522000D02*
X179424500Y-113892500D01*
X161290000Y-102870000D02*
X162179000Y-103759000D01*
X184150000Y-106426000D02*
X184150000Y-96520000D01*
X178054000Y-112522000D02*
X170942000Y-112522000D01*
X179424500Y-117602000D02*
X185166000Y-117602000D01*
X179512000Y-120464000D02*
X179512000Y-117689500D01*
X162179000Y-103759000D02*
X160401000Y-101981000D01*
D22*
%TO.N,SEL_X_DISP_0*%
X191078000Y-98298000D02*
X191262000Y-98298000D01*
X197612000Y-89281000D02*
X194945000Y-89281000D01*
X189300000Y-96520000D02*
X191078000Y-98298000D01*
X194945000Y-89281000D02*
X194818000Y-89408000D01*
%TO.N,SEL_2_DISP_0*%
X190754000Y-95250000D02*
X192786000Y-97282000D01*
X195326000Y-103632000D02*
X199390000Y-103632000D01*
X199263000Y-95631000D02*
X197612000Y-95631000D01*
X189300000Y-95250000D02*
X190754000Y-95250000D01*
X192786000Y-101092000D02*
X195326000Y-103632000D01*
X199390000Y-103632000D02*
X200406000Y-102616000D01*
X200406000Y-96774000D02*
X199263000Y-95631000D01*
X200406000Y-102616000D02*
X200406000Y-96774000D01*
X192786000Y-97282000D02*
X192786000Y-101092000D01*
%TO.N,SEL_0_DISP_0*%
X193802000Y-99568000D02*
X196215000Y-101981000D01*
X193802000Y-96520000D02*
X193802000Y-99568000D01*
X196215000Y-101981000D02*
X197612000Y-101981000D01*
X189300000Y-93980000D02*
X191262000Y-93980000D01*
X191262000Y-93980000D02*
X193802000Y-96520000D01*
%TO.N,SEL_2_DISP_1*%
X194056000Y-92710000D02*
X195326000Y-93980000D01*
X189300000Y-92710000D02*
X194056000Y-92710000D01*
X195326000Y-93980000D02*
X201549000Y-93980000D01*
X201549000Y-93980000D02*
X203200000Y-95631000D01*
%TO.N,SEL_X_DISP_1*%
X189300000Y-91440000D02*
X193548000Y-91440000D01*
X199136000Y-90932000D02*
X200787000Y-89281000D01*
X194056000Y-90932000D02*
X199136000Y-90932000D01*
X200787000Y-89281000D02*
X203200000Y-89281000D01*
X193548000Y-91440000D02*
X194056000Y-90932000D01*
%TO.N,SEL_0_DISP_1*%
X188214000Y-90170000D02*
X187706000Y-90678000D01*
X189300000Y-90170000D02*
X188214000Y-90170000D01*
X187706000Y-97282000D02*
X195326000Y-104902000D01*
X201422000Y-104902000D02*
X203200000Y-103124000D01*
X195326000Y-104902000D02*
X201422000Y-104902000D01*
X187706000Y-90678000D02*
X187706000Y-97282000D01*
X203200000Y-103124000D02*
X203200000Y-101981000D01*
%TO.N,SEL_1_DISP_1*%
X205486000Y-96520000D02*
X203200000Y-98806000D01*
X192786000Y-87630000D02*
X204724000Y-87630000D01*
X204724000Y-87630000D02*
X205486000Y-88392000D01*
X191516000Y-88900000D02*
X192786000Y-87630000D01*
X189300000Y-88900000D02*
X191516000Y-88900000D01*
X205486000Y-88392000D02*
X205486000Y-96520000D01*
%TO.N,SEL_3_DISP_1*%
X203200000Y-92456000D02*
X201930000Y-91186000D01*
X181991000Y-86487000D02*
X181610000Y-86106000D01*
X201930000Y-91186000D02*
X200406000Y-91186000D01*
X184150000Y-87630000D02*
X183134000Y-87630000D01*
X183134000Y-87630000D02*
X182372000Y-86868000D01*
X182372000Y-86868000D02*
X181991000Y-86487000D01*
%TO.N,SEL_1_DISP_0*%
X182372000Y-93980000D02*
X181610000Y-93980000D01*
X195072000Y-97790000D02*
X196088000Y-98806000D01*
X181610000Y-93980000D02*
X181356000Y-93980000D01*
X194564000Y-95250000D02*
X195072000Y-95758000D01*
X196088000Y-98806000D02*
X197612000Y-98806000D01*
X195072000Y-95758000D02*
X195072000Y-97790000D01*
X184150000Y-93980000D02*
X182372000Y-93980000D01*
%TO.N,SEL_3_DISP_0*%
X181864000Y-95250000D02*
X181356000Y-95250000D01*
X200152000Y-92456000D02*
X200406000Y-92710000D01*
X197612000Y-92456000D02*
X200152000Y-92456000D01*
X184150000Y-95250000D02*
X181864000Y-95250000D01*
D24*
%TO.N,+BATT*%
X176107500Y-120464000D02*
X175260000Y-121311500D01*
X175794500Y-120777000D02*
X169926000Y-120777000D01*
X178562000Y-120464000D02*
X177612000Y-120464000D01*
X177612000Y-120464000D02*
X176107500Y-120464000D01*
X176107500Y-120464000D02*
X175794500Y-120777000D01*
D23*
%TO.N,Net-(Vreg0-BST)*%
X181831500Y-123884000D02*
X181864000Y-123851500D01*
X179512000Y-123884000D02*
X181831500Y-123884000D01*
D24*
%TO.N,Net-(Vreg0-SW)*%
X185012500Y-125576500D02*
X186182000Y-126746000D01*
X181864000Y-125576500D02*
X185012500Y-125576500D01*
X178562000Y-125072174D02*
X179066326Y-125576500D01*
X179079802Y-125576500D02*
X181864000Y-125576500D01*
X178562000Y-123884000D02*
X178562000Y-125072174D01*
X179066326Y-125576500D02*
X179079802Y-125576500D01*
%TD*%
%TA.AperFunction,Conductor*%
%TO.N,+BATT*%
G36*
X176767865Y-119145685D02*
G01*
X176813620Y-119198489D01*
X176823564Y-119267647D01*
X176817008Y-119293333D01*
X176793403Y-119356620D01*
X176793401Y-119356627D01*
X176787000Y-119416155D01*
X176787000Y-120214000D01*
X178512500Y-120214000D01*
X178579539Y-120233685D01*
X178625294Y-120286489D01*
X178636500Y-120338000D01*
X178636500Y-120511468D01*
X178643583Y-120576594D01*
X178631262Y-120645369D01*
X178583714Y-120696564D01*
X178520310Y-120714000D01*
X176787000Y-120714000D01*
X176787000Y-121511844D01*
X176793401Y-121571372D01*
X176793403Y-121571379D01*
X176843645Y-121706086D01*
X176843649Y-121706093D01*
X176929809Y-121821187D01*
X176929812Y-121821190D01*
X177044906Y-121907350D01*
X177044913Y-121907354D01*
X177115866Y-121933818D01*
X177171800Y-121975689D01*
X177196217Y-122041154D01*
X177181365Y-122109426D01*
X177131960Y-122158832D01*
X177072533Y-122174000D01*
X176239229Y-122174000D01*
X176172190Y-122154315D01*
X176126435Y-122101511D01*
X176116491Y-122032353D01*
X176133691Y-121984902D01*
X176170450Y-121925307D01*
X176170453Y-121925300D01*
X176224680Y-121761652D01*
X176234999Y-121660654D01*
X176235000Y-121660641D01*
X176235000Y-121561500D01*
X174285001Y-121561500D01*
X174285001Y-121660654D01*
X174295319Y-121761652D01*
X174349546Y-121925300D01*
X174349549Y-121925307D01*
X174386309Y-121984902D01*
X174404750Y-122052294D01*
X174383828Y-122118958D01*
X174330187Y-122163728D01*
X174280771Y-122174000D01*
X171554638Y-122174000D01*
X171487599Y-122154315D01*
X171441844Y-122101511D01*
X171431900Y-122032353D01*
X171460925Y-121968797D01*
X171480327Y-121950733D01*
X171553190Y-121896186D01*
X171639350Y-121781093D01*
X171639354Y-121781086D01*
X171689596Y-121646379D01*
X171689598Y-121646372D01*
X171695999Y-121586844D01*
X171696000Y-121586827D01*
X171696000Y-121061500D01*
X174285000Y-121061500D01*
X175010000Y-121061500D01*
X175010000Y-120274000D01*
X175510000Y-120274000D01*
X175510000Y-121061500D01*
X176234999Y-121061500D01*
X176234999Y-120962360D01*
X176234998Y-120962345D01*
X176224680Y-120861347D01*
X176170453Y-120697699D01*
X176170448Y-120697688D01*
X176079947Y-120550965D01*
X176079944Y-120550961D01*
X175958038Y-120429055D01*
X175958034Y-120429052D01*
X175811311Y-120338551D01*
X175811300Y-120338546D01*
X175647652Y-120284319D01*
X175546654Y-120274000D01*
X175510000Y-120274000D01*
X175010000Y-120274000D01*
X174973361Y-120274000D01*
X174973343Y-120274001D01*
X174872347Y-120284319D01*
X174708699Y-120338546D01*
X174708688Y-120338551D01*
X174561965Y-120429052D01*
X174561961Y-120429055D01*
X174440055Y-120550961D01*
X174440052Y-120550965D01*
X174349551Y-120697688D01*
X174349546Y-120697699D01*
X174295319Y-120861347D01*
X174285000Y-120962345D01*
X174285000Y-121061500D01*
X171696000Y-121061500D01*
X171696000Y-121027000D01*
X168156000Y-121027000D01*
X168156000Y-121586844D01*
X168162401Y-121646372D01*
X168162403Y-121646379D01*
X168212645Y-121781086D01*
X168212649Y-121781093D01*
X168298809Y-121896186D01*
X168371673Y-121950733D01*
X168413544Y-122006667D01*
X168418528Y-122076359D01*
X168385043Y-122137682D01*
X168323719Y-122171166D01*
X168297362Y-122174000D01*
X167764000Y-122174000D01*
X167696961Y-122154315D01*
X167651206Y-122101511D01*
X167640000Y-122050000D01*
X167640000Y-120527000D01*
X168156000Y-120527000D01*
X169676000Y-120527000D01*
X169676000Y-119515000D01*
X170176000Y-119515000D01*
X170176000Y-120527000D01*
X171696000Y-120527000D01*
X171696000Y-119967172D01*
X171695999Y-119967155D01*
X171689598Y-119907627D01*
X171689596Y-119907620D01*
X171639354Y-119772913D01*
X171639350Y-119772906D01*
X171553190Y-119657812D01*
X171553187Y-119657809D01*
X171438093Y-119571649D01*
X171438086Y-119571645D01*
X171303379Y-119521403D01*
X171303372Y-119521401D01*
X171243844Y-119515000D01*
X170176000Y-119515000D01*
X169676000Y-119515000D01*
X168608155Y-119515000D01*
X168548627Y-119521401D01*
X168548620Y-119521403D01*
X168413913Y-119571645D01*
X168413906Y-119571649D01*
X168298812Y-119657809D01*
X168298809Y-119657812D01*
X168212649Y-119772906D01*
X168212645Y-119772913D01*
X168162403Y-119907620D01*
X168162401Y-119907627D01*
X168156000Y-119967155D01*
X168156000Y-120527000D01*
X167640000Y-120527000D01*
X167640000Y-119250000D01*
X167659685Y-119182961D01*
X167712489Y-119137206D01*
X167764000Y-119126000D01*
X176700826Y-119126000D01*
X176767865Y-119145685D01*
G37*
%TD.AperFunction*%
%TD*%
%TA.AperFunction,Conductor*%
%TO.N,+5V*%
G36*
X186379039Y-114065685D02*
G01*
X186424794Y-114118489D01*
X186436000Y-114170000D01*
X186436000Y-115242905D01*
X186432000Y-115256527D01*
X186432000Y-116270314D01*
X186420045Y-116258359D01*
X186307148Y-116200835D01*
X186213481Y-116186000D01*
X186150519Y-116186000D01*
X186056852Y-116200835D01*
X185943955Y-116258359D01*
X185932000Y-116270314D01*
X185932000Y-115307127D01*
X185735671Y-115359734D01*
X185529517Y-115455865D01*
X185343179Y-115586342D01*
X185182342Y-115747179D01*
X185051865Y-115933517D01*
X184955734Y-116139673D01*
X184955730Y-116139682D01*
X184903127Y-116335999D01*
X184903128Y-116336000D01*
X185866314Y-116336000D01*
X185854359Y-116347955D01*
X185796835Y-116460852D01*
X185777014Y-116586000D01*
X185796835Y-116711148D01*
X185854359Y-116824045D01*
X185866314Y-116836000D01*
X184903128Y-116836000D01*
X184955730Y-117032317D01*
X184955734Y-117032326D01*
X185051865Y-117238482D01*
X185182342Y-117424820D01*
X185343179Y-117585657D01*
X185529517Y-117716134D01*
X185735673Y-117812265D01*
X185735682Y-117812269D01*
X185931999Y-117864872D01*
X185932000Y-117864871D01*
X185932000Y-116901686D01*
X185943955Y-116913641D01*
X186056852Y-116971165D01*
X186150519Y-116986000D01*
X186213481Y-116986000D01*
X186307148Y-116971165D01*
X186420045Y-116913641D01*
X186432000Y-116901686D01*
X186432000Y-117906135D01*
X186436000Y-117929083D01*
X186436000Y-122050000D01*
X186416315Y-122117039D01*
X186363511Y-122162794D01*
X186312000Y-122174000D01*
X180051467Y-122174000D01*
X179984428Y-122154315D01*
X179938673Y-122101511D01*
X179928729Y-122032353D01*
X179957754Y-121968797D01*
X180008134Y-121933818D01*
X180079086Y-121907354D01*
X180079093Y-121907350D01*
X180194187Y-121821190D01*
X180194190Y-121821187D01*
X180280350Y-121706093D01*
X180280354Y-121706086D01*
X180330596Y-121571379D01*
X180330598Y-121571372D01*
X180336999Y-121511844D01*
X180337000Y-121511827D01*
X180337000Y-120714000D01*
X179554185Y-120714000D01*
X179487146Y-120694315D01*
X179441391Y-120641511D01*
X179431447Y-120572353D01*
X179431806Y-120570014D01*
X179441370Y-120511678D01*
X179431061Y-120321525D01*
X179392019Y-120180911D01*
X179387499Y-120147737D01*
X179387499Y-119416129D01*
X179387498Y-119416123D01*
X179381091Y-119356516D01*
X179330797Y-119221671D01*
X179330795Y-119221668D01*
X179286733Y-119162808D01*
X179262316Y-119097343D01*
X179262000Y-119088497D01*
X179262000Y-118964000D01*
X179762000Y-118964000D01*
X179762000Y-120214000D01*
X180337000Y-120214000D01*
X180337000Y-119416172D01*
X180336999Y-119416155D01*
X180330598Y-119356627D01*
X180330596Y-119356620D01*
X180280354Y-119221913D01*
X180280350Y-119221906D01*
X180194190Y-119106812D01*
X180194187Y-119106809D01*
X180079093Y-119020649D01*
X180079086Y-119020645D01*
X179944379Y-118970403D01*
X179944372Y-118970401D01*
X179884844Y-118964000D01*
X179762000Y-118964000D01*
X179262000Y-118964000D01*
X179194000Y-118964000D01*
X179126961Y-118944315D01*
X179081206Y-118891511D01*
X179078896Y-118880896D01*
X179070000Y-118872000D01*
X178686000Y-118872000D01*
X178618961Y-118852315D01*
X178573206Y-118799511D01*
X178562000Y-118748000D01*
X178562000Y-118581229D01*
X178581685Y-118514190D01*
X178634489Y-118468435D01*
X178703647Y-118458491D01*
X178751098Y-118475691D01*
X178810692Y-118512450D01*
X178810699Y-118512453D01*
X178974347Y-118566680D01*
X179075351Y-118576999D01*
X179174500Y-118576998D01*
X179174500Y-117852000D01*
X179674500Y-117852000D01*
X179674500Y-118576999D01*
X179773640Y-118576999D01*
X179773654Y-118576998D01*
X179874652Y-118566680D01*
X180038300Y-118512453D01*
X180038311Y-118512448D01*
X180185034Y-118421947D01*
X180185038Y-118421944D01*
X180306944Y-118300038D01*
X180306947Y-118300034D01*
X180397448Y-118153311D01*
X180397453Y-118153300D01*
X180451680Y-117989652D01*
X180461999Y-117888654D01*
X180462000Y-117888641D01*
X180462000Y-117852000D01*
X179674500Y-117852000D01*
X179174500Y-117852000D01*
X179174500Y-116627000D01*
X179674500Y-116627000D01*
X179674500Y-117352000D01*
X180461999Y-117352000D01*
X180461999Y-117315360D01*
X180461998Y-117315345D01*
X180451680Y-117214347D01*
X180397453Y-117050699D01*
X180397448Y-117050688D01*
X180306947Y-116903965D01*
X180306944Y-116903961D01*
X180185038Y-116782055D01*
X180185034Y-116782052D01*
X180038311Y-116691551D01*
X180038300Y-116691546D01*
X179874652Y-116637319D01*
X179773654Y-116627000D01*
X179674500Y-116627000D01*
X179174500Y-116627000D01*
X179174500Y-116626999D01*
X179075360Y-116627000D01*
X179075344Y-116627001D01*
X178974347Y-116637319D01*
X178810699Y-116691546D01*
X178810694Y-116691548D01*
X178751097Y-116728309D01*
X178683704Y-116746749D01*
X178617041Y-116725826D01*
X178572271Y-116672184D01*
X178562000Y-116622770D01*
X178562000Y-116295229D01*
X178581685Y-116228190D01*
X178634489Y-116182435D01*
X178703647Y-116172491D01*
X178751098Y-116189691D01*
X178810692Y-116226450D01*
X178810699Y-116226453D01*
X178974347Y-116280680D01*
X179075351Y-116290999D01*
X179174500Y-116290998D01*
X179174500Y-115566000D01*
X179674500Y-115566000D01*
X179674500Y-116290999D01*
X179773640Y-116290999D01*
X179773654Y-116290998D01*
X179874652Y-116280680D01*
X180038300Y-116226453D01*
X180038311Y-116226448D01*
X180185034Y-116135947D01*
X180185038Y-116135944D01*
X180306944Y-116014038D01*
X180306947Y-116014034D01*
X180397448Y-115867311D01*
X180397453Y-115867300D01*
X180451680Y-115703652D01*
X180461999Y-115602654D01*
X180462000Y-115602641D01*
X180462000Y-115566000D01*
X179674500Y-115566000D01*
X179174500Y-115566000D01*
X179174500Y-114341000D01*
X179674500Y-114341000D01*
X179674500Y-115066000D01*
X180461999Y-115066000D01*
X180461999Y-115029360D01*
X180461998Y-115029345D01*
X180451680Y-114928347D01*
X180397453Y-114764699D01*
X180397448Y-114764688D01*
X180306947Y-114617965D01*
X180306944Y-114617961D01*
X180185038Y-114496055D01*
X180185034Y-114496052D01*
X180038311Y-114405551D01*
X180038300Y-114405546D01*
X179874652Y-114351319D01*
X179773654Y-114341000D01*
X179674500Y-114341000D01*
X179174500Y-114341000D01*
X179174500Y-114340999D01*
X179075360Y-114341000D01*
X179075344Y-114341001D01*
X178974347Y-114351319D01*
X178810699Y-114405546D01*
X178810694Y-114405548D01*
X178751097Y-114442309D01*
X178683704Y-114460749D01*
X178617041Y-114439826D01*
X178572271Y-114386184D01*
X178562000Y-114336770D01*
X178562000Y-114170000D01*
X178581685Y-114102961D01*
X178634489Y-114057206D01*
X178686000Y-114046000D01*
X186312000Y-114046000D01*
X186379039Y-114065685D01*
G37*
%TD.AperFunction*%
%TD*%
%TA.AperFunction,Conductor*%
%TO.N,GND*%
G36*
X207714539Y-58948185D02*
G01*
X207760294Y-59000989D01*
X207771500Y-59052500D01*
X207771500Y-129669500D01*
X207751815Y-129736539D01*
X207699011Y-129782294D01*
X207647500Y-129793500D01*
X155318500Y-129793500D01*
X155251461Y-129773815D01*
X155205706Y-129721011D01*
X155194500Y-129669500D01*
X155194500Y-125726000D01*
X157234000Y-125726000D01*
X157234000Y-126793844D01*
X157240401Y-126853372D01*
X157240403Y-126853379D01*
X157290645Y-126988086D01*
X157290649Y-126988093D01*
X157376809Y-127103187D01*
X157376812Y-127103190D01*
X157491906Y-127189350D01*
X157491913Y-127189354D01*
X157626620Y-127239596D01*
X157626627Y-127239598D01*
X157686155Y-127245999D01*
X157686172Y-127246000D01*
X158246000Y-127246000D01*
X158246000Y-125726000D01*
X158746000Y-125726000D01*
X158746000Y-127246000D01*
X159305828Y-127246000D01*
X159305844Y-127245999D01*
X159365372Y-127239598D01*
X159365379Y-127239596D01*
X159500086Y-127189354D01*
X159500093Y-127189350D01*
X159615187Y-127103190D01*
X159615190Y-127103187D01*
X159701350Y-126988093D01*
X159701354Y-126988086D01*
X159751596Y-126853379D01*
X159751598Y-126853372D01*
X159757996Y-126793870D01*
X160408500Y-126793870D01*
X160408501Y-126793876D01*
X160414908Y-126853483D01*
X160465202Y-126988328D01*
X160465206Y-126988335D01*
X160551452Y-127103544D01*
X160551455Y-127103547D01*
X160666664Y-127189793D01*
X160666671Y-127189797D01*
X160801517Y-127240091D01*
X160801516Y-127240091D01*
X160808444Y-127240835D01*
X160861127Y-127246500D01*
X162480872Y-127246499D01*
X162540483Y-127240091D01*
X162675331Y-127189796D01*
X162790546Y-127103546D01*
X162876796Y-126988331D01*
X162927091Y-126853483D01*
X162933500Y-126793873D01*
X162933500Y-126225500D01*
X162953185Y-126158461D01*
X163005989Y-126112706D01*
X163057500Y-126101500D01*
X163380252Y-126101500D01*
X163447291Y-126121185D01*
X163472400Y-126142526D01*
X163478126Y-126148885D01*
X163478130Y-126148889D01*
X163631265Y-126260148D01*
X163631270Y-126260151D01*
X163804192Y-126337142D01*
X163804197Y-126337144D01*
X163989354Y-126376500D01*
X163989355Y-126376500D01*
X164178644Y-126376500D01*
X164178646Y-126376500D01*
X164363803Y-126337144D01*
X164536730Y-126260151D01*
X164689871Y-126148888D01*
X164816533Y-126008216D01*
X164911179Y-125844284D01*
X164926295Y-125797763D01*
X167563787Y-125797763D01*
X167593413Y-126067013D01*
X167593415Y-126067024D01*
X167661926Y-126329082D01*
X167661928Y-126329088D01*
X167767870Y-126578390D01*
X167870160Y-126745998D01*
X167908979Y-126809605D01*
X167908986Y-126809615D01*
X168082253Y-127017819D01*
X168082259Y-127017824D01*
X168177534Y-127103190D01*
X168283998Y-127198582D01*
X168509910Y-127348044D01*
X168755176Y-127463020D01*
X168755183Y-127463022D01*
X168755185Y-127463023D01*
X169014557Y-127541057D01*
X169014564Y-127541058D01*
X169014569Y-127541060D01*
X169282561Y-127580500D01*
X169282566Y-127580500D01*
X169485636Y-127580500D01*
X169537133Y-127576730D01*
X169688156Y-127565677D01*
X169800758Y-127540593D01*
X169952546Y-127506782D01*
X169952548Y-127506781D01*
X169952553Y-127506780D01*
X170205558Y-127410014D01*
X170441777Y-127277441D01*
X170656177Y-127111888D01*
X170844186Y-126916881D01*
X171001799Y-126696579D01*
X171117425Y-126471685D01*
X171125649Y-126455690D01*
X171125651Y-126455684D01*
X171125656Y-126455675D01*
X171213118Y-126199305D01*
X171262319Y-125932933D01*
X171272212Y-125662235D01*
X171242586Y-125392982D01*
X171174072Y-125130912D01*
X171068130Y-124881610D01*
X170927018Y-124650390D01*
X170897447Y-124614857D01*
X170753746Y-124442180D01*
X170753740Y-124442175D01*
X170552002Y-124261418D01*
X170359410Y-124134000D01*
X176787000Y-124134000D01*
X176787000Y-124931844D01*
X176793401Y-124991372D01*
X176793403Y-124991379D01*
X176843645Y-125126086D01*
X176843649Y-125126093D01*
X176929809Y-125241187D01*
X176929812Y-125241190D01*
X177044906Y-125327350D01*
X177044913Y-125327354D01*
X177179620Y-125377596D01*
X177179627Y-125377598D01*
X177239155Y-125383999D01*
X177239172Y-125384000D01*
X177362000Y-125384000D01*
X177362000Y-124134000D01*
X176787000Y-124134000D01*
X170359410Y-124134000D01*
X170326092Y-124111957D01*
X170326090Y-124111956D01*
X170080824Y-123996980D01*
X170080819Y-123996978D01*
X170080814Y-123996976D01*
X169821442Y-123918942D01*
X169821428Y-123918939D01*
X169705791Y-123901921D01*
X169553439Y-123879500D01*
X169350369Y-123879500D01*
X169350364Y-123879500D01*
X169147844Y-123894323D01*
X169147831Y-123894325D01*
X168883453Y-123953217D01*
X168883446Y-123953220D01*
X168630439Y-124049987D01*
X168394226Y-124182557D01*
X168179822Y-124348112D01*
X167991822Y-124543109D01*
X167991816Y-124543116D01*
X167834202Y-124763419D01*
X167834199Y-124763424D01*
X167710350Y-125004309D01*
X167710343Y-125004327D01*
X167622884Y-125260685D01*
X167622881Y-125260699D01*
X167603991Y-125362968D01*
X167575124Y-125519258D01*
X167573681Y-125527068D01*
X167573680Y-125527075D01*
X167563787Y-125797763D01*
X164926295Y-125797763D01*
X164969674Y-125664256D01*
X164989460Y-125476000D01*
X164969674Y-125287744D01*
X164911179Y-125107716D01*
X164816533Y-124943784D01*
X164689871Y-124803112D01*
X164689870Y-124803111D01*
X164536734Y-124691851D01*
X164536729Y-124691848D01*
X164363807Y-124614857D01*
X164363802Y-124614855D01*
X164218001Y-124583865D01*
X164178646Y-124575500D01*
X163989354Y-124575500D01*
X163956897Y-124582398D01*
X163804197Y-124614855D01*
X163804192Y-124614857D01*
X163631270Y-124691848D01*
X163631265Y-124691851D01*
X163478130Y-124803110D01*
X163478126Y-124803114D01*
X163472400Y-124809474D01*
X163412913Y-124846121D01*
X163380252Y-124850500D01*
X163057499Y-124850500D01*
X162990460Y-124830815D01*
X162944705Y-124778011D01*
X162933499Y-124726500D01*
X162933499Y-124158129D01*
X162933498Y-124158123D01*
X162933497Y-124158116D01*
X162927091Y-124098517D01*
X162917946Y-124073999D01*
X162876797Y-123963671D01*
X162876793Y-123963664D01*
X162790547Y-123848455D01*
X162790544Y-123848452D01*
X162675335Y-123762206D01*
X162675328Y-123762202D01*
X162540482Y-123711908D01*
X162540483Y-123711908D01*
X162480883Y-123705501D01*
X162480881Y-123705500D01*
X162480873Y-123705500D01*
X162480864Y-123705500D01*
X160861129Y-123705500D01*
X160861123Y-123705501D01*
X160801516Y-123711908D01*
X160666671Y-123762202D01*
X160666664Y-123762206D01*
X160551455Y-123848452D01*
X160551452Y-123848455D01*
X160465206Y-123963664D01*
X160465202Y-123963671D01*
X160414908Y-124098517D01*
X160411094Y-124134000D01*
X160408501Y-124158123D01*
X160408500Y-124158135D01*
X160408500Y-126793870D01*
X159757996Y-126793870D01*
X159757999Y-126793844D01*
X159758000Y-126793827D01*
X159758000Y-125726000D01*
X158746000Y-125726000D01*
X158246000Y-125726000D01*
X157234000Y-125726000D01*
X155194500Y-125726000D01*
X155194500Y-125226000D01*
X157234000Y-125226000D01*
X158246000Y-125226000D01*
X158246000Y-123706000D01*
X158746000Y-123706000D01*
X158746000Y-125226000D01*
X159758000Y-125226000D01*
X159758000Y-124158172D01*
X159757999Y-124158155D01*
X159751598Y-124098627D01*
X159751596Y-124098620D01*
X159701354Y-123963913D01*
X159701350Y-123963906D01*
X159615190Y-123848812D01*
X159615187Y-123848809D01*
X159500093Y-123762649D01*
X159500086Y-123762645D01*
X159365379Y-123712403D01*
X159365372Y-123712401D01*
X159305844Y-123706000D01*
X158746000Y-123706000D01*
X158246000Y-123706000D01*
X157686155Y-123706000D01*
X157626627Y-123712401D01*
X157626620Y-123712403D01*
X157491913Y-123762645D01*
X157491906Y-123762649D01*
X157376812Y-123848809D01*
X157376809Y-123848812D01*
X157290649Y-123963906D01*
X157290645Y-123963913D01*
X157240403Y-124098620D01*
X157240401Y-124098627D01*
X157234000Y-124158155D01*
X157234000Y-125226000D01*
X155194500Y-125226000D01*
X155194500Y-123286500D01*
X174285001Y-123286500D01*
X174285001Y-123385654D01*
X174295319Y-123486652D01*
X174349546Y-123650300D01*
X174349551Y-123650311D01*
X174440052Y-123797034D01*
X174440055Y-123797038D01*
X174561961Y-123918944D01*
X174561965Y-123918947D01*
X174708688Y-124009448D01*
X174708699Y-124009453D01*
X174872347Y-124063680D01*
X174973352Y-124073999D01*
X175010000Y-124073999D01*
X175010000Y-123286500D01*
X175510000Y-123286500D01*
X175510000Y-124073999D01*
X175546640Y-124073999D01*
X175546654Y-124073998D01*
X175647652Y-124063680D01*
X175811300Y-124009453D01*
X175811311Y-124009448D01*
X175958034Y-123918947D01*
X175958038Y-123918944D01*
X176079944Y-123797038D01*
X176079947Y-123797034D01*
X176170448Y-123650311D01*
X176170453Y-123650300D01*
X176224680Y-123486652D01*
X176234999Y-123385654D01*
X176235000Y-123385641D01*
X176235000Y-123286500D01*
X175510000Y-123286500D01*
X175010000Y-123286500D01*
X174285001Y-123286500D01*
X155194500Y-123286500D01*
X155194500Y-121408000D01*
X157234000Y-121408000D01*
X157234000Y-122475844D01*
X157240401Y-122535372D01*
X157240403Y-122535379D01*
X157290645Y-122670086D01*
X157290649Y-122670093D01*
X157376809Y-122785187D01*
X157376812Y-122785190D01*
X157491906Y-122871350D01*
X157491913Y-122871354D01*
X157626620Y-122921596D01*
X157626627Y-122921598D01*
X157686155Y-122927999D01*
X157686172Y-122928000D01*
X158246000Y-122928000D01*
X158246000Y-121408000D01*
X158746000Y-121408000D01*
X158746000Y-122928000D01*
X159305828Y-122928000D01*
X159305844Y-122927999D01*
X159365372Y-122921598D01*
X159365379Y-122921596D01*
X159500086Y-122871354D01*
X159500093Y-122871350D01*
X159615187Y-122785190D01*
X159615190Y-122785187D01*
X159701350Y-122670093D01*
X159701354Y-122670086D01*
X159751596Y-122535379D01*
X159751598Y-122535372D01*
X159757996Y-122475870D01*
X160408500Y-122475870D01*
X160408501Y-122475876D01*
X160414908Y-122535483D01*
X160465202Y-122670328D01*
X160465206Y-122670335D01*
X160551452Y-122785544D01*
X160551455Y-122785547D01*
X160666664Y-122871793D01*
X160666671Y-122871797D01*
X160801517Y-122922091D01*
X160801516Y-122922091D01*
X160808444Y-122922835D01*
X160861127Y-122928500D01*
X162480872Y-122928499D01*
X162540483Y-122922091D01*
X162675331Y-122871796D01*
X162790546Y-122785546D01*
X162876796Y-122670331D01*
X162927091Y-122535483D01*
X162933500Y-122475873D01*
X162933500Y-121907500D01*
X162953185Y-121840461D01*
X163005989Y-121794706D01*
X163057500Y-121783500D01*
X163126252Y-121783500D01*
X163193291Y-121803185D01*
X163218400Y-121824526D01*
X163224126Y-121830885D01*
X163224130Y-121830889D01*
X163377265Y-121942148D01*
X163377270Y-121942151D01*
X163550192Y-122019142D01*
X163550197Y-122019144D01*
X163735354Y-122058500D01*
X163735355Y-122058500D01*
X163924644Y-122058500D01*
X163924646Y-122058500D01*
X164109803Y-122019144D01*
X164282730Y-121942151D01*
X164435871Y-121830888D01*
X164562533Y-121690216D01*
X164657179Y-121526284D01*
X164715674Y-121346256D01*
X164735460Y-121158000D01*
X164715674Y-120969744D01*
X164657179Y-120789716D01*
X164562533Y-120625784D01*
X164435871Y-120485112D01*
X164435870Y-120485111D01*
X164282734Y-120373851D01*
X164282729Y-120373848D01*
X164109807Y-120296857D01*
X164109802Y-120296855D01*
X163964001Y-120265865D01*
X163924646Y-120257500D01*
X163735354Y-120257500D01*
X163702897Y-120264398D01*
X163550197Y-120296855D01*
X163550192Y-120296857D01*
X163377270Y-120373848D01*
X163377265Y-120373851D01*
X163224130Y-120485110D01*
X163224126Y-120485114D01*
X163218400Y-120491474D01*
X163158913Y-120528121D01*
X163126252Y-120532500D01*
X163057499Y-120532500D01*
X162990460Y-120512815D01*
X162944705Y-120460011D01*
X162933499Y-120408500D01*
X162933499Y-119840129D01*
X162933498Y-119840123D01*
X162933497Y-119840116D01*
X162927091Y-119780517D01*
X162876884Y-119645906D01*
X162876797Y-119645671D01*
X162876793Y-119645664D01*
X162790547Y-119530455D01*
X162790544Y-119530452D01*
X162675335Y-119444206D01*
X162675328Y-119444202D01*
X162540482Y-119393908D01*
X162540483Y-119393908D01*
X162480883Y-119387501D01*
X162480881Y-119387500D01*
X162480873Y-119387500D01*
X162480864Y-119387500D01*
X160861129Y-119387500D01*
X160861123Y-119387501D01*
X160801516Y-119393908D01*
X160666671Y-119444202D01*
X160666664Y-119444206D01*
X160551455Y-119530452D01*
X160551452Y-119530455D01*
X160465206Y-119645664D01*
X160465202Y-119645671D01*
X160414908Y-119780517D01*
X160408501Y-119840116D01*
X160408501Y-119840123D01*
X160408500Y-119840135D01*
X160408500Y-122475870D01*
X159757996Y-122475870D01*
X159757999Y-122475844D01*
X159758000Y-122475827D01*
X159758000Y-121408000D01*
X158746000Y-121408000D01*
X158246000Y-121408000D01*
X157234000Y-121408000D01*
X155194500Y-121408000D01*
X155194500Y-120908000D01*
X157234000Y-120908000D01*
X158246000Y-120908000D01*
X158246000Y-119388000D01*
X158746000Y-119388000D01*
X158746000Y-120908000D01*
X159758000Y-120908000D01*
X159758000Y-119840172D01*
X159757999Y-119840155D01*
X159751598Y-119780627D01*
X159751596Y-119780620D01*
X159701354Y-119645913D01*
X159701350Y-119645906D01*
X159615190Y-119530812D01*
X159615187Y-119530809D01*
X159500093Y-119444649D01*
X159500086Y-119444645D01*
X159365379Y-119394403D01*
X159365372Y-119394401D01*
X159305844Y-119388000D01*
X158746000Y-119388000D01*
X158246000Y-119388000D01*
X157686155Y-119388000D01*
X157626627Y-119394401D01*
X157626620Y-119394403D01*
X157491913Y-119444645D01*
X157491906Y-119444649D01*
X157376812Y-119530809D01*
X157376809Y-119530812D01*
X157290649Y-119645906D01*
X157290645Y-119645913D01*
X157240403Y-119780620D01*
X157240401Y-119780627D01*
X157234000Y-119840155D01*
X157234000Y-120908000D01*
X155194500Y-120908000D01*
X155194500Y-117090000D01*
X157234000Y-117090000D01*
X157234000Y-118157844D01*
X157240401Y-118217372D01*
X157240403Y-118217379D01*
X157290645Y-118352086D01*
X157290649Y-118352093D01*
X157376809Y-118467187D01*
X157376812Y-118467190D01*
X157491906Y-118553350D01*
X157491913Y-118553354D01*
X157626620Y-118603596D01*
X157626627Y-118603598D01*
X157686155Y-118609999D01*
X157686172Y-118610000D01*
X158246000Y-118610000D01*
X158246000Y-117090000D01*
X158746000Y-117090000D01*
X158746000Y-118610000D01*
X159305828Y-118610000D01*
X159305844Y-118609999D01*
X159365372Y-118603598D01*
X159365379Y-118603596D01*
X159500086Y-118553354D01*
X159500093Y-118553350D01*
X159615187Y-118467190D01*
X159615190Y-118467187D01*
X159701350Y-118352093D01*
X159701354Y-118352086D01*
X159751596Y-118217379D01*
X159751598Y-118217372D01*
X159757996Y-118157870D01*
X160408500Y-118157870D01*
X160408501Y-118157876D01*
X160414908Y-118217483D01*
X160465202Y-118352328D01*
X160465206Y-118352335D01*
X160551452Y-118467544D01*
X160551455Y-118467547D01*
X160666664Y-118553793D01*
X160666671Y-118553797D01*
X160801517Y-118604091D01*
X160801516Y-118604091D01*
X160808444Y-118604835D01*
X160861127Y-118610500D01*
X162480872Y-118610499D01*
X162540483Y-118604091D01*
X162675331Y-118553796D01*
X162790546Y-118467546D01*
X162876796Y-118352331D01*
X162927091Y-118217483D01*
X162933500Y-118157873D01*
X162933500Y-117589500D01*
X162953185Y-117522461D01*
X163005989Y-117476706D01*
X163057500Y-117465500D01*
X163126252Y-117465500D01*
X163193291Y-117485185D01*
X163218400Y-117506526D01*
X163224126Y-117512885D01*
X163224130Y-117512889D01*
X163377265Y-117624148D01*
X163377270Y-117624151D01*
X163550192Y-117701142D01*
X163550197Y-117701144D01*
X163735354Y-117740500D01*
X163735355Y-117740500D01*
X163924644Y-117740500D01*
X163924646Y-117740500D01*
X164109803Y-117701144D01*
X164282730Y-117624151D01*
X164435871Y-117512888D01*
X164562533Y-117372216D01*
X164574205Y-117352000D01*
X168156000Y-117352000D01*
X169676000Y-117352000D01*
X169676000Y-116340000D01*
X170176000Y-116340000D01*
X170176000Y-117352000D01*
X171696000Y-117352000D01*
X176662000Y-117352000D01*
X177449500Y-117352000D01*
X177449500Y-116626999D01*
X177350360Y-116627000D01*
X177350344Y-116627001D01*
X177249347Y-116637319D01*
X177085699Y-116691546D01*
X177085688Y-116691551D01*
X176938965Y-116782052D01*
X176938961Y-116782055D01*
X176817055Y-116903961D01*
X176817052Y-116903965D01*
X176726551Y-117050688D01*
X176726546Y-117050699D01*
X176672319Y-117214347D01*
X176662000Y-117315345D01*
X176662000Y-117352000D01*
X171696000Y-117352000D01*
X171696000Y-116792172D01*
X171695999Y-116792155D01*
X171689598Y-116732627D01*
X171689596Y-116732620D01*
X171639354Y-116597913D01*
X171639350Y-116597906D01*
X171553190Y-116482812D01*
X171553187Y-116482809D01*
X171438093Y-116396649D01*
X171438086Y-116396645D01*
X171303379Y-116346403D01*
X171303372Y-116346401D01*
X171243844Y-116340000D01*
X170176000Y-116340000D01*
X169676000Y-116340000D01*
X168608155Y-116340000D01*
X168548627Y-116346401D01*
X168548620Y-116346403D01*
X168413913Y-116396645D01*
X168413906Y-116396649D01*
X168298812Y-116482809D01*
X168298809Y-116482812D01*
X168212649Y-116597906D01*
X168212645Y-116597913D01*
X168162403Y-116732620D01*
X168162401Y-116732627D01*
X168156000Y-116792155D01*
X168156000Y-117352000D01*
X164574205Y-117352000D01*
X164657179Y-117208284D01*
X164715674Y-117028256D01*
X164735460Y-116840000D01*
X164715674Y-116651744D01*
X164657179Y-116471716D01*
X164562533Y-116307784D01*
X164435871Y-116167112D01*
X164435870Y-116167111D01*
X164282734Y-116055851D01*
X164282729Y-116055848D01*
X164109807Y-115978857D01*
X164109802Y-115978855D01*
X163964001Y-115947865D01*
X163924646Y-115939500D01*
X163735354Y-115939500D01*
X163702897Y-115946398D01*
X163550197Y-115978855D01*
X163550192Y-115978857D01*
X163377270Y-116055848D01*
X163377265Y-116055851D01*
X163224130Y-116167110D01*
X163224126Y-116167114D01*
X163218400Y-116173474D01*
X163158913Y-116210121D01*
X163126252Y-116214500D01*
X163057499Y-116214500D01*
X162990460Y-116194815D01*
X162944705Y-116142011D01*
X162933499Y-116090500D01*
X162933499Y-115566000D01*
X176662001Y-115566000D01*
X176662001Y-115602654D01*
X176672319Y-115703652D01*
X176726546Y-115867300D01*
X176726551Y-115867311D01*
X176817052Y-116014034D01*
X176817055Y-116014038D01*
X176938961Y-116135944D01*
X176938965Y-116135947D01*
X177085688Y-116226448D01*
X177085699Y-116226453D01*
X177249347Y-116280680D01*
X177350351Y-116290999D01*
X177449500Y-116290998D01*
X177449500Y-115566000D01*
X176662001Y-115566000D01*
X162933499Y-115566000D01*
X162933499Y-115522129D01*
X162933498Y-115522123D01*
X162933497Y-115522116D01*
X162927091Y-115462517D01*
X162911064Y-115419547D01*
X162876797Y-115327671D01*
X162876793Y-115327664D01*
X162790547Y-115212455D01*
X162790544Y-115212452D01*
X162675335Y-115126206D01*
X162675328Y-115126202D01*
X162540482Y-115075908D01*
X162540483Y-115075908D01*
X162480883Y-115069501D01*
X162480881Y-115069500D01*
X162480873Y-115069500D01*
X162480864Y-115069500D01*
X160861129Y-115069500D01*
X160861123Y-115069501D01*
X160801516Y-115075908D01*
X160666671Y-115126202D01*
X160666664Y-115126206D01*
X160551455Y-115212452D01*
X160551452Y-115212455D01*
X160465206Y-115327664D01*
X160465202Y-115327671D01*
X160414908Y-115462517D01*
X160408501Y-115522116D01*
X160408501Y-115522123D01*
X160408500Y-115522135D01*
X160408500Y-118157870D01*
X159757996Y-118157870D01*
X159757999Y-118157844D01*
X159758000Y-118157827D01*
X159758000Y-117090000D01*
X158746000Y-117090000D01*
X158246000Y-117090000D01*
X157234000Y-117090000D01*
X155194500Y-117090000D01*
X155194500Y-116590000D01*
X157234000Y-116590000D01*
X158246000Y-116590000D01*
X158246000Y-115070000D01*
X158746000Y-115070000D01*
X158746000Y-116590000D01*
X159758000Y-116590000D01*
X159758000Y-115522172D01*
X159757999Y-115522155D01*
X159751598Y-115462627D01*
X159751596Y-115462620D01*
X159701354Y-115327913D01*
X159701350Y-115327906D01*
X159615190Y-115212812D01*
X159615187Y-115212809D01*
X159500093Y-115126649D01*
X159500086Y-115126645D01*
X159365379Y-115076403D01*
X159365372Y-115076401D01*
X159305844Y-115070000D01*
X158746000Y-115070000D01*
X158246000Y-115070000D01*
X157686155Y-115070000D01*
X157626627Y-115076401D01*
X157626620Y-115076403D01*
X157491913Y-115126645D01*
X157491906Y-115126649D01*
X157376812Y-115212809D01*
X157376809Y-115212812D01*
X157290649Y-115327906D01*
X157290645Y-115327913D01*
X157240403Y-115462620D01*
X157240401Y-115462627D01*
X157234000Y-115522155D01*
X157234000Y-116590000D01*
X155194500Y-116590000D01*
X155194500Y-115066000D01*
X176662000Y-115066000D01*
X177449500Y-115066000D01*
X177449500Y-114340999D01*
X177350360Y-114341000D01*
X177350344Y-114341001D01*
X177249347Y-114351319D01*
X177085699Y-114405546D01*
X177085688Y-114405551D01*
X176938965Y-114496052D01*
X176938961Y-114496055D01*
X176817055Y-114617961D01*
X176817052Y-114617965D01*
X176726551Y-114764688D01*
X176726546Y-114764699D01*
X176672319Y-114928347D01*
X176662000Y-115029345D01*
X176662000Y-115066000D01*
X155194500Y-115066000D01*
X155194500Y-107950001D01*
X157444532Y-107950001D01*
X157464364Y-108176686D01*
X157464366Y-108176697D01*
X157523258Y-108396488D01*
X157523261Y-108396497D01*
X157619431Y-108602732D01*
X157619432Y-108602734D01*
X157749954Y-108789141D01*
X157910858Y-108950045D01*
X157910861Y-108950047D01*
X158097266Y-109080568D01*
X158303504Y-109176739D01*
X158523308Y-109235635D01*
X158685230Y-109249801D01*
X158749998Y-109255468D01*
X158750000Y-109255468D01*
X158750002Y-109255468D01*
X158806807Y-109250498D01*
X158976692Y-109235635D01*
X159196496Y-109176739D01*
X159402734Y-109080568D01*
X159589139Y-108950047D01*
X159750047Y-108789139D01*
X159880568Y-108602734D01*
X159976739Y-108396496D01*
X160035635Y-108176692D01*
X160055468Y-107950000D01*
X160035635Y-107723308D01*
X159976739Y-107503504D01*
X159880568Y-107297266D01*
X159750047Y-107110861D01*
X159750045Y-107110858D01*
X159589141Y-106949954D01*
X159402734Y-106819432D01*
X159402732Y-106819431D01*
X159370410Y-106804359D01*
X159344132Y-106792105D01*
X159291694Y-106745934D01*
X159272542Y-106678740D01*
X159292758Y-106611859D01*
X159344134Y-106567341D01*
X159402484Y-106540132D01*
X159588820Y-106409657D01*
X159749657Y-106248820D01*
X159880134Y-106062482D01*
X159976265Y-105856326D01*
X159976269Y-105856317D01*
X160028872Y-105660000D01*
X159183686Y-105660000D01*
X159209493Y-105619844D01*
X159250000Y-105481889D01*
X159250000Y-105338111D01*
X159209493Y-105200156D01*
X159183686Y-105160000D01*
X160028872Y-105160000D01*
X160028872Y-105159999D01*
X159976269Y-104963682D01*
X159976265Y-104963673D01*
X159880134Y-104757517D01*
X159749657Y-104571179D01*
X159588820Y-104410342D01*
X159402482Y-104279865D01*
X159344133Y-104252657D01*
X159291694Y-104206484D01*
X159272542Y-104139291D01*
X159292758Y-104072410D01*
X159344129Y-104027895D01*
X159402734Y-104000568D01*
X159589139Y-103870047D01*
X159750047Y-103709139D01*
X159880568Y-103522734D01*
X159976739Y-103316496D01*
X160031381Y-103112566D01*
X160067745Y-103052909D01*
X160130591Y-103022379D01*
X160199967Y-103030673D01*
X160238836Y-103056981D01*
X160662552Y-103480696D01*
X160707882Y-103528551D01*
X160719871Y-103541207D01*
X160720028Y-103541314D01*
X160738121Y-103556265D01*
X161492600Y-104310744D01*
X170295987Y-113114130D01*
X170299391Y-113117823D01*
X170336369Y-113161357D01*
X170402750Y-113211819D01*
X170467703Y-113264030D01*
X170467704Y-113264030D01*
X170467705Y-113264031D01*
X170467872Y-113264114D01*
X170487814Y-113276483D01*
X170487971Y-113276602D01*
X170563640Y-113311610D01*
X170638307Y-113348641D01*
X170638483Y-113348684D01*
X170660625Y-113356479D01*
X170660803Y-113356562D01*
X170701513Y-113365523D01*
X170742223Y-113374484D01*
X170758332Y-113378490D01*
X170823110Y-113394600D01*
X170823283Y-113394604D01*
X170846602Y-113397460D01*
X170846784Y-113397500D01*
X170846787Y-113397500D01*
X170930159Y-113397500D01*
X171013473Y-113399757D01*
X171013655Y-113399721D01*
X171037023Y-113397500D01*
X177639994Y-113397500D01*
X177707033Y-113417185D01*
X177727675Y-113433819D01*
X178085235Y-113791379D01*
X178118720Y-113852702D01*
X178113736Y-113922394D01*
X178110348Y-113930572D01*
X178096664Y-113960534D01*
X178076978Y-114027575D01*
X178076976Y-114027580D01*
X178060595Y-114141516D01*
X178056502Y-114169990D01*
X178056500Y-114170001D01*
X178056500Y-114217000D01*
X178036815Y-114284039D01*
X177984011Y-114329794D01*
X177954226Y-114336273D01*
X177949500Y-114341000D01*
X177949500Y-116290999D01*
X177956566Y-116298065D01*
X177999539Y-116310684D01*
X178045294Y-116363488D01*
X178056500Y-116414999D01*
X178056500Y-116503000D01*
X178036815Y-116570039D01*
X177984011Y-116615794D01*
X177954226Y-116622273D01*
X177949500Y-116627000D01*
X177949500Y-118576999D01*
X177956566Y-118584065D01*
X177999539Y-118596684D01*
X178045294Y-118649488D01*
X178056500Y-118700999D01*
X178056500Y-118748000D01*
X178064912Y-118826247D01*
X178052507Y-118895005D01*
X178004896Y-118946142D01*
X177941623Y-118963500D01*
X177325084Y-118963500D01*
X177258045Y-118943815D01*
X177220769Y-118906540D01*
X177195655Y-118867462D01*
X177195646Y-118867451D01*
X177149900Y-118814657D01*
X177149898Y-118814654D01*
X177094442Y-118766601D01*
X177056668Y-118707823D01*
X177056668Y-118637953D01*
X177094443Y-118579176D01*
X177157999Y-118550151D01*
X177214649Y-118555183D01*
X177249347Y-118566680D01*
X177350351Y-118576999D01*
X177449500Y-118576998D01*
X177449500Y-117852000D01*
X176662001Y-117852000D01*
X176662001Y-117888654D01*
X176672319Y-117989652D01*
X176726546Y-118153300D01*
X176726551Y-118153311D01*
X176817052Y-118300034D01*
X176817055Y-118300038D01*
X176944069Y-118427052D01*
X176942876Y-118428244D01*
X176978095Y-118477988D01*
X176981230Y-118547787D01*
X176946131Y-118608201D01*
X176883942Y-118640048D01*
X176843158Y-118640963D01*
X176700826Y-118620500D01*
X171811076Y-118620500D01*
X171744037Y-118600815D01*
X171698282Y-118548011D01*
X171688338Y-118478853D01*
X171689391Y-118473293D01*
X171695999Y-118411844D01*
X171696000Y-118411827D01*
X171696000Y-117852000D01*
X168156000Y-117852000D01*
X168156000Y-118411844D01*
X168163231Y-118479087D01*
X168160994Y-118479327D01*
X168157858Y-118537762D01*
X168116987Y-118594431D01*
X168051967Y-118620007D01*
X168040924Y-118620500D01*
X167764000Y-118620500D01*
X167763991Y-118620500D01*
X167763990Y-118620501D01*
X167656549Y-118632052D01*
X167656537Y-118632054D01*
X167605027Y-118643260D01*
X167502502Y-118677383D01*
X167502496Y-118677386D01*
X167381462Y-118755171D01*
X167381451Y-118755179D01*
X167328659Y-118800923D01*
X167234433Y-118909664D01*
X167234430Y-118909668D01*
X167174664Y-119040534D01*
X167154978Y-119107575D01*
X167154976Y-119107580D01*
X167138595Y-119221516D01*
X167134500Y-119250000D01*
X167134500Y-120020500D01*
X167134500Y-122050000D01*
X167134501Y-122050009D01*
X167146052Y-122157450D01*
X167146054Y-122157462D01*
X167157260Y-122208972D01*
X167191383Y-122311497D01*
X167191386Y-122311503D01*
X167269171Y-122432537D01*
X167269179Y-122432548D01*
X167314923Y-122485340D01*
X167314926Y-122485343D01*
X167314930Y-122485347D01*
X167423664Y-122579567D01*
X167423667Y-122579568D01*
X167423668Y-122579569D01*
X167517925Y-122622616D01*
X167554541Y-122639338D01*
X167599357Y-122652497D01*
X167621575Y-122659022D01*
X167621580Y-122659023D01*
X167621584Y-122659024D01*
X167764000Y-122679500D01*
X167764003Y-122679500D01*
X168310900Y-122679500D01*
X168310902Y-122679500D01*
X168337942Y-122678050D01*
X168358808Y-122675806D01*
X168377764Y-122673769D01*
X168377764Y-122673768D01*
X168431162Y-122665116D01*
X168565971Y-122614837D01*
X168627295Y-122581353D01*
X168627303Y-122581349D01*
X168742485Y-122495125D01*
X168828709Y-122379943D01*
X168862194Y-122318620D01*
X168912475Y-122183814D01*
X168914561Y-122154651D01*
X168938979Y-122089187D01*
X168994913Y-122047317D01*
X169038245Y-122039499D01*
X170814783Y-122039499D01*
X170881822Y-122059184D01*
X170927577Y-122111988D01*
X170937520Y-122145848D01*
X170941490Y-122173458D01*
X170955485Y-122221119D01*
X170982025Y-122311504D01*
X170986595Y-122318615D01*
X171059809Y-122432537D01*
X171059817Y-122432548D01*
X171105561Y-122485340D01*
X171105564Y-122485343D01*
X171105568Y-122485347D01*
X171214302Y-122579567D01*
X171214305Y-122579568D01*
X171214306Y-122579569D01*
X171308563Y-122622616D01*
X171345179Y-122639338D01*
X171389995Y-122652497D01*
X171412213Y-122659022D01*
X171412218Y-122659023D01*
X171412222Y-122659024D01*
X171554638Y-122679500D01*
X171554641Y-122679500D01*
X174161000Y-122679500D01*
X174228039Y-122699185D01*
X174273794Y-122751989D01*
X174280273Y-122781773D01*
X174285000Y-122786500D01*
X176234999Y-122786500D01*
X176242065Y-122779433D01*
X176254684Y-122736461D01*
X176307488Y-122690706D01*
X176358999Y-122679500D01*
X176665798Y-122679500D01*
X176732837Y-122699185D01*
X176778592Y-122751989D01*
X176789087Y-122816757D01*
X176787000Y-122836158D01*
X176787000Y-123634000D01*
X177566308Y-123634000D01*
X177633347Y-123653685D01*
X177679102Y-123706489D01*
X177689046Y-123775647D01*
X177687408Y-123784659D01*
X177686500Y-123788782D01*
X177686500Y-125034071D01*
X177686295Y-125039105D01*
X177681660Y-125096017D01*
X177692914Y-125178615D01*
X177701927Y-125261490D01*
X177701929Y-125261501D01*
X177701990Y-125261680D01*
X177707340Y-125284505D01*
X177707366Y-125284699D01*
X177707368Y-125284709D01*
X177707369Y-125284711D01*
X177721744Y-125323839D01*
X177736119Y-125362968D01*
X177762730Y-125441948D01*
X177762734Y-125441956D01*
X177762832Y-125442119D01*
X177772969Y-125463273D01*
X177773036Y-125463457D01*
X177773038Y-125463460D01*
X177813694Y-125527068D01*
X177817940Y-125533710D01*
X177860911Y-125605128D01*
X177861042Y-125605266D01*
X177875495Y-125623753D01*
X177875602Y-125623921D01*
X177913917Y-125662235D01*
X177934552Y-125682870D01*
X177991871Y-125743381D01*
X177992028Y-125743488D01*
X178010121Y-125758439D01*
X178420318Y-126168636D01*
X178423722Y-126172329D01*
X178460688Y-126215850D01*
X178460689Y-126215851D01*
X178460691Y-126215852D01*
X178460695Y-126215857D01*
X178518960Y-126260148D01*
X178527063Y-126266308D01*
X178592025Y-126318527D01*
X178592027Y-126318529D01*
X178592198Y-126318614D01*
X178612140Y-126330983D01*
X178612297Y-126331102D01*
X178687966Y-126366110D01*
X178762633Y-126403141D01*
X178762807Y-126403184D01*
X178784952Y-126410980D01*
X178785129Y-126411062D01*
X178785132Y-126411062D01*
X178785133Y-126411063D01*
X178785132Y-126411063D01*
X178866554Y-126428985D01*
X178882663Y-126432990D01*
X178947437Y-126449100D01*
X178947610Y-126449104D01*
X178970928Y-126451960D01*
X178971110Y-126452000D01*
X178971113Y-126452000D01*
X179054486Y-126452000D01*
X179137799Y-126454257D01*
X179137981Y-126454221D01*
X179161349Y-126452000D01*
X181118584Y-126452000D01*
X181183679Y-126470460D01*
X181312484Y-126549908D01*
X181476247Y-126604174D01*
X181577323Y-126614500D01*
X182150676Y-126614499D01*
X182150684Y-126614498D01*
X182150687Y-126614498D01*
X182206030Y-126608844D01*
X182251753Y-126604174D01*
X182415516Y-126549908D01*
X182544320Y-126470460D01*
X182609416Y-126452000D01*
X184598494Y-126452000D01*
X184665533Y-126471685D01*
X184686175Y-126488319D01*
X184841061Y-126643205D01*
X184874546Y-126704528D01*
X184876909Y-126741685D01*
X184876532Y-126745997D01*
X184876532Y-126746001D01*
X184896364Y-126972686D01*
X184896366Y-126972697D01*
X184955258Y-127192488D01*
X184955261Y-127192497D01*
X185051431Y-127398732D01*
X185051432Y-127398734D01*
X185181954Y-127585141D01*
X185342858Y-127746045D01*
X185342861Y-127746047D01*
X185529266Y-127876568D01*
X185735504Y-127972739D01*
X185955308Y-128031635D01*
X186117230Y-128045801D01*
X186181998Y-128051468D01*
X186182000Y-128051468D01*
X186182002Y-128051468D01*
X186238673Y-128046509D01*
X186408692Y-128031635D01*
X186628496Y-127972739D01*
X186834734Y-127876568D01*
X187021139Y-127746047D01*
X187182047Y-127585139D01*
X187312568Y-127398734D01*
X187408739Y-127192496D01*
X187467635Y-126972692D01*
X187487468Y-126746000D01*
X187487090Y-126741685D01*
X187481801Y-126681230D01*
X187467635Y-126519308D01*
X187415263Y-126323851D01*
X187408741Y-126299511D01*
X187408738Y-126299502D01*
X187374230Y-126225500D01*
X187312568Y-126093266D01*
X187182047Y-125906861D01*
X187182045Y-125906858D01*
X187072950Y-125797763D01*
X198297787Y-125797763D01*
X198327413Y-126067013D01*
X198327415Y-126067024D01*
X198395926Y-126329082D01*
X198395928Y-126329088D01*
X198501870Y-126578390D01*
X198604160Y-126745998D01*
X198642979Y-126809605D01*
X198642986Y-126809615D01*
X198816253Y-127017819D01*
X198816259Y-127017824D01*
X198911534Y-127103190D01*
X199017998Y-127198582D01*
X199243910Y-127348044D01*
X199489176Y-127463020D01*
X199489183Y-127463022D01*
X199489185Y-127463023D01*
X199748557Y-127541057D01*
X199748564Y-127541058D01*
X199748569Y-127541060D01*
X200016561Y-127580500D01*
X200016566Y-127580500D01*
X200219636Y-127580500D01*
X200271133Y-127576730D01*
X200422156Y-127565677D01*
X200534758Y-127540593D01*
X200686546Y-127506782D01*
X200686548Y-127506781D01*
X200686553Y-127506780D01*
X200939558Y-127410014D01*
X201175777Y-127277441D01*
X201390177Y-127111888D01*
X201578186Y-126916881D01*
X201735799Y-126696579D01*
X201851425Y-126471685D01*
X201859649Y-126455690D01*
X201859651Y-126455684D01*
X201859656Y-126455675D01*
X201947118Y-126199305D01*
X201996319Y-125932933D01*
X202006212Y-125662235D01*
X201976586Y-125392982D01*
X201908072Y-125130912D01*
X201802130Y-124881610D01*
X201661018Y-124650390D01*
X201631447Y-124614857D01*
X201487746Y-124442180D01*
X201487740Y-124442175D01*
X201286002Y-124261418D01*
X201060092Y-124111957D01*
X201060090Y-124111956D01*
X200814824Y-123996980D01*
X200814819Y-123996978D01*
X200814814Y-123996976D01*
X200555442Y-123918942D01*
X200555428Y-123918939D01*
X200439791Y-123901921D01*
X200287439Y-123879500D01*
X200084369Y-123879500D01*
X200084364Y-123879500D01*
X199881844Y-123894323D01*
X199881831Y-123894325D01*
X199617453Y-123953217D01*
X199617446Y-123953220D01*
X199364439Y-124049987D01*
X199128226Y-124182557D01*
X198913822Y-124348112D01*
X198725822Y-124543109D01*
X198725816Y-124543116D01*
X198568202Y-124763419D01*
X198568199Y-124763424D01*
X198444350Y-125004309D01*
X198444343Y-125004327D01*
X198356884Y-125260685D01*
X198356881Y-125260699D01*
X198337991Y-125362968D01*
X198309124Y-125519258D01*
X198307681Y-125527068D01*
X198307680Y-125527075D01*
X198297787Y-125797763D01*
X187072950Y-125797763D01*
X187021141Y-125745954D01*
X186834734Y-125615432D01*
X186834732Y-125615431D01*
X186628497Y-125519261D01*
X186628488Y-125519258D01*
X186408697Y-125460366D01*
X186408693Y-125460365D01*
X186408692Y-125460365D01*
X186408691Y-125460364D01*
X186408686Y-125460364D01*
X186182002Y-125440532D01*
X186181997Y-125440532D01*
X186177685Y-125440909D01*
X186109186Y-125427138D01*
X186079205Y-125405061D01*
X185900144Y-125226000D01*
X185658499Y-124984355D01*
X185655108Y-124980676D01*
X185618131Y-124937143D01*
X185611160Y-124931844D01*
X185551762Y-124886691D01*
X185486797Y-124834470D01*
X185486794Y-124834468D01*
X185486620Y-124834382D01*
X185466682Y-124822014D01*
X185466529Y-124821897D01*
X185466527Y-124821896D01*
X185390859Y-124786889D01*
X185316193Y-124749859D01*
X185316189Y-124749858D01*
X185316180Y-124749855D01*
X185315988Y-124749807D01*
X185293885Y-124742025D01*
X185293698Y-124741938D01*
X185293694Y-124741937D01*
X185212271Y-124724014D01*
X185131385Y-124703899D01*
X185131189Y-124703894D01*
X185107913Y-124701043D01*
X185107722Y-124701001D01*
X185107719Y-124701000D01*
X185107716Y-124701000D01*
X185107712Y-124701000D01*
X185024340Y-124701000D01*
X184941027Y-124698743D01*
X184941026Y-124698743D01*
X184940845Y-124698778D01*
X184917477Y-124701000D01*
X182851835Y-124701000D01*
X182784796Y-124681315D01*
X182739041Y-124628511D01*
X182729097Y-124559353D01*
X182746296Y-124511904D01*
X182774904Y-124465522D01*
X182774908Y-124465516D01*
X182829174Y-124301753D01*
X182839500Y-124200677D01*
X182839499Y-123502324D01*
X182829174Y-123401247D01*
X182774908Y-123237484D01*
X182684340Y-123090650D01*
X182562350Y-122968660D01*
X182465686Y-122909037D01*
X182418964Y-122857091D01*
X182407741Y-122788128D01*
X182435585Y-122724046D01*
X182493653Y-122685190D01*
X182530785Y-122679500D01*
X186311990Y-122679500D01*
X186312000Y-122679500D01*
X186419456Y-122667947D01*
X186470967Y-122656741D01*
X186516251Y-122641669D01*
X186573497Y-122622616D01*
X186573501Y-122622613D01*
X186573504Y-122622613D01*
X186694543Y-122544825D01*
X186747347Y-122499070D01*
X186841567Y-122390336D01*
X186901338Y-122259459D01*
X186921023Y-122192420D01*
X186921024Y-122192416D01*
X186941500Y-122050000D01*
X186941500Y-117929083D01*
X186938003Y-117888654D01*
X186937731Y-117885505D01*
X186937500Y-117880160D01*
X186937500Y-117725000D01*
X194572000Y-117725000D01*
X194572000Y-118284844D01*
X194578401Y-118344372D01*
X194578403Y-118344379D01*
X194628645Y-118479086D01*
X194628649Y-118479093D01*
X194714809Y-118594187D01*
X194714812Y-118594190D01*
X194829906Y-118680350D01*
X194829913Y-118680354D01*
X194964620Y-118730596D01*
X194964627Y-118730598D01*
X195024155Y-118736999D01*
X195024172Y-118737000D01*
X196092000Y-118737000D01*
X196092000Y-117725000D01*
X196592000Y-117725000D01*
X196592000Y-118737000D01*
X197659828Y-118737000D01*
X197659844Y-118736999D01*
X197719372Y-118730598D01*
X197719379Y-118730596D01*
X197854086Y-118680354D01*
X197854093Y-118680350D01*
X197969187Y-118594190D01*
X197969190Y-118594187D01*
X198055350Y-118479093D01*
X198055354Y-118479086D01*
X198105596Y-118344379D01*
X198105598Y-118344372D01*
X198111999Y-118284844D01*
X198112000Y-118284827D01*
X198112000Y-117725000D01*
X200922000Y-117725000D01*
X200922000Y-118284844D01*
X200928401Y-118344372D01*
X200928403Y-118344379D01*
X200978645Y-118479086D01*
X200978649Y-118479093D01*
X201064809Y-118594187D01*
X201064812Y-118594190D01*
X201179906Y-118680350D01*
X201179913Y-118680354D01*
X201314620Y-118730596D01*
X201314627Y-118730598D01*
X201374155Y-118736999D01*
X201374172Y-118737000D01*
X202442000Y-118737000D01*
X202442000Y-117725000D01*
X202942000Y-117725000D01*
X202942000Y-118737000D01*
X204009828Y-118737000D01*
X204009844Y-118736999D01*
X204069372Y-118730598D01*
X204069379Y-118730596D01*
X204204086Y-118680354D01*
X204204093Y-118680350D01*
X204319187Y-118594190D01*
X204319190Y-118594187D01*
X204405350Y-118479093D01*
X204405354Y-118479086D01*
X204455596Y-118344379D01*
X204455598Y-118344372D01*
X204461999Y-118284844D01*
X204462000Y-118284827D01*
X204462000Y-117725000D01*
X202942000Y-117725000D01*
X202442000Y-117725000D01*
X200922000Y-117725000D01*
X198112000Y-117725000D01*
X196592000Y-117725000D01*
X196092000Y-117725000D01*
X194572000Y-117725000D01*
X186937500Y-117725000D01*
X186937500Y-117709161D01*
X186957185Y-117642122D01*
X186990379Y-117607585D01*
X187021139Y-117586047D01*
X187182047Y-117425139D01*
X187312568Y-117238734D01*
X187318972Y-117225000D01*
X194572000Y-117225000D01*
X196092000Y-117225000D01*
X196092000Y-116213000D01*
X196592000Y-116213000D01*
X196592000Y-117225000D01*
X198112000Y-117225000D01*
X200922000Y-117225000D01*
X202442000Y-117225000D01*
X202442000Y-116213000D01*
X202942000Y-116213000D01*
X202942000Y-117225000D01*
X204462000Y-117225000D01*
X204462000Y-116665172D01*
X204461999Y-116665155D01*
X204455598Y-116605627D01*
X204455596Y-116605620D01*
X204405354Y-116470913D01*
X204405350Y-116470906D01*
X204319190Y-116355812D01*
X204319187Y-116355809D01*
X204204093Y-116269649D01*
X204204086Y-116269645D01*
X204069379Y-116219403D01*
X204069372Y-116219401D01*
X204009844Y-116213000D01*
X202942000Y-116213000D01*
X202442000Y-116213000D01*
X201374155Y-116213000D01*
X201314627Y-116219401D01*
X201314620Y-116219403D01*
X201179913Y-116269645D01*
X201179906Y-116269649D01*
X201064812Y-116355809D01*
X201064809Y-116355812D01*
X200978649Y-116470906D01*
X200978645Y-116470913D01*
X200928403Y-116605620D01*
X200928401Y-116605627D01*
X200922000Y-116665155D01*
X200922000Y-117225000D01*
X198112000Y-117225000D01*
X198112000Y-116665172D01*
X198111999Y-116665155D01*
X198105598Y-116605627D01*
X198105596Y-116605620D01*
X198055354Y-116470913D01*
X198055350Y-116470906D01*
X197969190Y-116355812D01*
X197969187Y-116355809D01*
X197854093Y-116269649D01*
X197854086Y-116269645D01*
X197719379Y-116219403D01*
X197719372Y-116219401D01*
X197659844Y-116213000D01*
X196592000Y-116213000D01*
X196092000Y-116213000D01*
X195024155Y-116213000D01*
X194964627Y-116219401D01*
X194964620Y-116219403D01*
X194829913Y-116269645D01*
X194829906Y-116269649D01*
X194714812Y-116355809D01*
X194714809Y-116355812D01*
X194628649Y-116470906D01*
X194628645Y-116470913D01*
X194578403Y-116605620D01*
X194578401Y-116605627D01*
X194572000Y-116665155D01*
X194572000Y-117225000D01*
X187318972Y-117225000D01*
X187408739Y-117032496D01*
X187467635Y-116812692D01*
X187487468Y-116586000D01*
X187487091Y-116581695D01*
X187500856Y-116513196D01*
X187522935Y-116483207D01*
X188794325Y-115211819D01*
X188855648Y-115178334D01*
X188882006Y-115175500D01*
X194494058Y-115175500D01*
X194561097Y-115195185D01*
X194606852Y-115247989D01*
X194610240Y-115256168D01*
X194628201Y-115304326D01*
X194628206Y-115304335D01*
X194714452Y-115419544D01*
X194714455Y-115419547D01*
X194829664Y-115505793D01*
X194829671Y-115505797D01*
X194964517Y-115556091D01*
X194964516Y-115556091D01*
X194971444Y-115556835D01*
X195024127Y-115562500D01*
X197659872Y-115562499D01*
X197719483Y-115556091D01*
X197854331Y-115505796D01*
X197969546Y-115419546D01*
X198055796Y-115304331D01*
X198073760Y-115256168D01*
X198115630Y-115200234D01*
X198181095Y-115175816D01*
X198189942Y-115175500D01*
X200844058Y-115175500D01*
X200911097Y-115195185D01*
X200956852Y-115247989D01*
X200960240Y-115256168D01*
X200978201Y-115304326D01*
X200978206Y-115304335D01*
X201064452Y-115419544D01*
X201064455Y-115419547D01*
X201179664Y-115505793D01*
X201179671Y-115505797D01*
X201314517Y-115556091D01*
X201314516Y-115556091D01*
X201321444Y-115556835D01*
X201374127Y-115562500D01*
X204009872Y-115562499D01*
X204069483Y-115556091D01*
X204204331Y-115505796D01*
X204319546Y-115419546D01*
X204405796Y-115304331D01*
X204456091Y-115169483D01*
X204462500Y-115109873D01*
X204462499Y-113490128D01*
X204456091Y-113430517D01*
X204453770Y-113424295D01*
X204405797Y-113295671D01*
X204405793Y-113295664D01*
X204319547Y-113180455D01*
X204319544Y-113180452D01*
X204204335Y-113094206D01*
X204204328Y-113094202D01*
X204069482Y-113043908D01*
X204069483Y-113043908D01*
X204009883Y-113037501D01*
X204009881Y-113037500D01*
X204009873Y-113037500D01*
X204009864Y-113037500D01*
X201374129Y-113037500D01*
X201374123Y-113037501D01*
X201314516Y-113043908D01*
X201179671Y-113094202D01*
X201179664Y-113094206D01*
X201064455Y-113180452D01*
X201064452Y-113180455D01*
X200978206Y-113295664D01*
X200978201Y-113295673D01*
X200960240Y-113343832D01*
X200918370Y-113399766D01*
X200852905Y-113424184D01*
X200844058Y-113424500D01*
X198189942Y-113424500D01*
X198122903Y-113404815D01*
X198077148Y-113352011D01*
X198073760Y-113343832D01*
X198055798Y-113295673D01*
X198055793Y-113295664D01*
X197969547Y-113180455D01*
X197969544Y-113180452D01*
X197854335Y-113094206D01*
X197854328Y-113094202D01*
X197719482Y-113043908D01*
X197719483Y-113043908D01*
X197659883Y-113037501D01*
X197659881Y-113037500D01*
X197659873Y-113037500D01*
X197659864Y-113037500D01*
X195024129Y-113037500D01*
X195024123Y-113037501D01*
X194964516Y-113043908D01*
X194829671Y-113094202D01*
X194829664Y-113094206D01*
X194714455Y-113180452D01*
X194714452Y-113180455D01*
X194628206Y-113295664D01*
X194628201Y-113295673D01*
X194610240Y-113343832D01*
X194568370Y-113399766D01*
X194502905Y-113424184D01*
X194494058Y-113424500D01*
X188506099Y-113424500D01*
X188501064Y-113424295D01*
X188444154Y-113419660D01*
X188444148Y-113419661D01*
X188361559Y-113430913D01*
X188278680Y-113439927D01*
X188278490Y-113439992D01*
X188255665Y-113445341D01*
X188255466Y-113445368D01*
X188177205Y-113474119D01*
X188098220Y-113500732D01*
X188098217Y-113500734D01*
X188098040Y-113500841D01*
X188076911Y-113510965D01*
X188076713Y-113511037D01*
X188006463Y-113555940D01*
X187935043Y-113598912D01*
X187935041Y-113598914D01*
X187934890Y-113599058D01*
X187916436Y-113613485D01*
X187916260Y-113613597D01*
X187916255Y-113613601D01*
X187857302Y-113672552D01*
X187796796Y-113729867D01*
X187796792Y-113729871D01*
X187796681Y-113730036D01*
X187781737Y-113748117D01*
X187153181Y-114376674D01*
X187091858Y-114410159D01*
X187022167Y-114405175D01*
X186966233Y-114363304D01*
X186941816Y-114297839D01*
X186941500Y-114288993D01*
X186941500Y-114170010D01*
X186941500Y-114170000D01*
X186929947Y-114062544D01*
X186918741Y-114011033D01*
X186918637Y-114010722D01*
X186884616Y-113908502D01*
X186884613Y-113908496D01*
X186848756Y-113852702D01*
X186806825Y-113787457D01*
X186772737Y-113748117D01*
X186761076Y-113734659D01*
X186761072Y-113734656D01*
X186761070Y-113734653D01*
X186652336Y-113640433D01*
X186652333Y-113640431D01*
X186652331Y-113640430D01*
X186521465Y-113580664D01*
X186521460Y-113580662D01*
X186521459Y-113580662D01*
X186498858Y-113574025D01*
X186454425Y-113560978D01*
X186454419Y-113560976D01*
X186368966Y-113548690D01*
X186312000Y-113540500D01*
X186311998Y-113540500D01*
X180306481Y-113540500D01*
X180239442Y-113520815D01*
X180202001Y-113483282D01*
X180168559Y-113430963D01*
X180125590Y-113359547D01*
X180125457Y-113359407D01*
X180111004Y-113340919D01*
X180110900Y-113340756D01*
X180051947Y-113281803D01*
X179994629Y-113221293D01*
X179994470Y-113221185D01*
X179976377Y-113206233D01*
X179379824Y-112609680D01*
X179346339Y-112548357D01*
X179351323Y-112478665D01*
X179379820Y-112434323D01*
X184742142Y-107072000D01*
X184745810Y-107068618D01*
X184789357Y-107031631D01*
X184839808Y-106965262D01*
X184892030Y-106900297D01*
X184892109Y-106900138D01*
X184904489Y-106880177D01*
X184904602Y-106880029D01*
X184939610Y-106804359D01*
X184976641Y-106729693D01*
X184976685Y-106729514D01*
X184984484Y-106707363D01*
X184984562Y-106707197D01*
X184995852Y-106655908D01*
X185002485Y-106625771D01*
X185005945Y-106611859D01*
X185022600Y-106544889D01*
X185022604Y-106544715D01*
X185025461Y-106521391D01*
X185025500Y-106521216D01*
X185025500Y-106437840D01*
X185027757Y-106354527D01*
X185027720Y-106354334D01*
X185025500Y-106330975D01*
X185025500Y-97444190D01*
X185045185Y-97377151D01*
X185097989Y-97331396D01*
X185139773Y-97320572D01*
X185140688Y-97320500D01*
X185140694Y-97320500D01*
X185177569Y-97317598D01*
X185177571Y-97317597D01*
X185177573Y-97317597D01*
X185266317Y-97291814D01*
X185335398Y-97271744D01*
X185476865Y-97188081D01*
X185593081Y-97071865D01*
X185676744Y-96930398D01*
X185710505Y-96814191D01*
X185722597Y-96772573D01*
X185722598Y-96772567D01*
X185725500Y-96735696D01*
X185725500Y-96304304D01*
X185722598Y-96267432D01*
X185722597Y-96267426D01*
X185676745Y-96109606D01*
X185676744Y-96109603D01*
X185676744Y-96109602D01*
X185593081Y-95968135D01*
X185593078Y-95968132D01*
X185588298Y-95961969D01*
X185590750Y-95960066D01*
X185564155Y-95911421D01*
X185569104Y-95841726D01*
X185589940Y-95809304D01*
X185588298Y-95808031D01*
X185593075Y-95801870D01*
X185593081Y-95801865D01*
X185676744Y-95660398D01*
X185710505Y-95544191D01*
X185722597Y-95502573D01*
X185722598Y-95502567D01*
X185725500Y-95465696D01*
X185725500Y-95034304D01*
X185722598Y-94997432D01*
X185722597Y-94997426D01*
X185681662Y-94856530D01*
X185676744Y-94839602D01*
X185593081Y-94698135D01*
X185593078Y-94698132D01*
X185588298Y-94691969D01*
X185590750Y-94690066D01*
X185564155Y-94641421D01*
X185569104Y-94571726D01*
X185589940Y-94539304D01*
X185588298Y-94538031D01*
X185593075Y-94531870D01*
X185593081Y-94531865D01*
X185676744Y-94390398D01*
X185717547Y-94249954D01*
X185722597Y-94232573D01*
X185722598Y-94232567D01*
X185723082Y-94226424D01*
X185725500Y-94195694D01*
X185725500Y-93764306D01*
X185722598Y-93727431D01*
X185718141Y-93712091D01*
X185680966Y-93584134D01*
X185676744Y-93569602D01*
X185593081Y-93428135D01*
X185593078Y-93428132D01*
X185588298Y-93421969D01*
X185590750Y-93420066D01*
X185564155Y-93371421D01*
X185569104Y-93301726D01*
X185589940Y-93269304D01*
X185588298Y-93268031D01*
X185593075Y-93261870D01*
X185593081Y-93261865D01*
X185676744Y-93120398D01*
X185722598Y-92962569D01*
X185724634Y-92936697D01*
X185725500Y-92925696D01*
X185725500Y-92494304D01*
X185722598Y-92457432D01*
X185722597Y-92457426D01*
X185680966Y-92314134D01*
X185676744Y-92299602D01*
X185593081Y-92158135D01*
X185593078Y-92158132D01*
X185588298Y-92151969D01*
X185590750Y-92150066D01*
X185564155Y-92101421D01*
X185569104Y-92031726D01*
X185589940Y-91999304D01*
X185588298Y-91998031D01*
X185593075Y-91991870D01*
X185593081Y-91991865D01*
X185676744Y-91850398D01*
X185717547Y-91709954D01*
X185722597Y-91692573D01*
X185722598Y-91692567D01*
X185725500Y-91655696D01*
X185725500Y-91224304D01*
X185722598Y-91187432D01*
X185722597Y-91187426D01*
X185676745Y-91029606D01*
X185676744Y-91029603D01*
X185676744Y-91029602D01*
X185593081Y-90888135D01*
X185593078Y-90888132D01*
X185588298Y-90881969D01*
X185590750Y-90880066D01*
X185564155Y-90831421D01*
X185569104Y-90761726D01*
X185589940Y-90729304D01*
X185588298Y-90728031D01*
X185593075Y-90721870D01*
X185593081Y-90721865D01*
X185676744Y-90580398D01*
X185722598Y-90422569D01*
X185724634Y-90396697D01*
X185725500Y-90385696D01*
X185725500Y-89954304D01*
X185722598Y-89917432D01*
X185722597Y-89917426D01*
X185681591Y-89776284D01*
X185676744Y-89759602D01*
X185593081Y-89618135D01*
X185593078Y-89618132D01*
X185588298Y-89611969D01*
X185590750Y-89610066D01*
X185564155Y-89561421D01*
X185569104Y-89491726D01*
X185589940Y-89459304D01*
X185588298Y-89458031D01*
X185593075Y-89451870D01*
X185593081Y-89451865D01*
X185676744Y-89310398D01*
X185717547Y-89169954D01*
X185722597Y-89152573D01*
X185722598Y-89152567D01*
X185725500Y-89115696D01*
X185725500Y-88684304D01*
X185723453Y-88658290D01*
X185722598Y-88647431D01*
X185719223Y-88635815D01*
X185676745Y-88489606D01*
X185676744Y-88489603D01*
X185676744Y-88489602D01*
X185593081Y-88348135D01*
X185593078Y-88348132D01*
X185588298Y-88341969D01*
X185590750Y-88340066D01*
X185564155Y-88291421D01*
X185569104Y-88221726D01*
X185589940Y-88189304D01*
X185588298Y-88188031D01*
X185593075Y-88181870D01*
X185593081Y-88181865D01*
X185676744Y-88040398D01*
X185722598Y-87882569D01*
X185724634Y-87856697D01*
X185725500Y-87845696D01*
X185725500Y-87414304D01*
X185722800Y-87379998D01*
X187727704Y-87379998D01*
X187727705Y-87380000D01*
X188950000Y-87380000D01*
X188950000Y-86830000D01*
X189450000Y-86830000D01*
X189450000Y-87380000D01*
X190672295Y-87380000D01*
X190672295Y-87379998D01*
X190672100Y-87377513D01*
X190626281Y-87219801D01*
X190542685Y-87078447D01*
X190542678Y-87078438D01*
X190426561Y-86962321D01*
X190426552Y-86962314D01*
X190285196Y-86878717D01*
X190285193Y-86878716D01*
X190127495Y-86832900D01*
X190127489Y-86832899D01*
X190090644Y-86830000D01*
X189450000Y-86830000D01*
X188950000Y-86830000D01*
X188309356Y-86830000D01*
X188272510Y-86832899D01*
X188272504Y-86832900D01*
X188114806Y-86878716D01*
X188114803Y-86878717D01*
X187973447Y-86962314D01*
X187973438Y-86962321D01*
X187857321Y-87078438D01*
X187857314Y-87078447D01*
X187773718Y-87219801D01*
X187727899Y-87377513D01*
X187727704Y-87379998D01*
X185722800Y-87379998D01*
X185722598Y-87377432D01*
X185722597Y-87377426D01*
X185680966Y-87234134D01*
X185676744Y-87219602D01*
X185593081Y-87078135D01*
X185593079Y-87078133D01*
X185593076Y-87078129D01*
X185476870Y-86961923D01*
X185476862Y-86961917D01*
X185339192Y-86880500D01*
X185335398Y-86878256D01*
X185335397Y-86878255D01*
X185335396Y-86878255D01*
X185335393Y-86878254D01*
X185177573Y-86832402D01*
X185177567Y-86832401D01*
X185140696Y-86829500D01*
X185140694Y-86829500D01*
X183359306Y-86829500D01*
X183359304Y-86829500D01*
X183322437Y-86832401D01*
X183322430Y-86832402D01*
X183314242Y-86834781D01*
X183244372Y-86834577D01*
X183191973Y-86803383D01*
X183014301Y-86625711D01*
X182786471Y-86397880D01*
X182548960Y-86160369D01*
X182515475Y-86099046D01*
X182513323Y-86085668D01*
X182495674Y-85917744D01*
X182437179Y-85737716D01*
X182342533Y-85573784D01*
X182215871Y-85433112D01*
X182202695Y-85423539D01*
X182062734Y-85321851D01*
X182062729Y-85321848D01*
X181889807Y-85244857D01*
X181889802Y-85244855D01*
X181744001Y-85213865D01*
X181704646Y-85205500D01*
X181515354Y-85205500D01*
X181482897Y-85212398D01*
X181330197Y-85244855D01*
X181330192Y-85244857D01*
X181157270Y-85321848D01*
X181157265Y-85321851D01*
X181004129Y-85433111D01*
X180877466Y-85573785D01*
X180782821Y-85737715D01*
X180782818Y-85737722D01*
X180724327Y-85917740D01*
X180724326Y-85917744D01*
X180704540Y-86106000D01*
X180724326Y-86294256D01*
X180724327Y-86294259D01*
X180782818Y-86474277D01*
X180782821Y-86474284D01*
X180877467Y-86638216D01*
X180979185Y-86751185D01*
X181004129Y-86778888D01*
X181157265Y-86890148D01*
X181157270Y-86890151D01*
X181330192Y-86967142D01*
X181330197Y-86967144D01*
X181515354Y-87006500D01*
X181574548Y-87006500D01*
X181641587Y-87026185D01*
X181662224Y-87042814D01*
X181957529Y-87338120D01*
X181959077Y-87339668D01*
X181959092Y-87339682D01*
X182633194Y-88013784D01*
X182643019Y-88026048D01*
X182643240Y-88025866D01*
X182648210Y-88031873D01*
X182648213Y-88031876D01*
X182648214Y-88031877D01*
X182665599Y-88048203D01*
X182678276Y-88060107D01*
X182713671Y-88120348D01*
X182710879Y-88190162D01*
X182670786Y-88247383D01*
X182606121Y-88273845D01*
X182593393Y-88274500D01*
X181920452Y-88274500D01*
X181853413Y-88254815D01*
X181832771Y-88238181D01*
X180068874Y-86474284D01*
X178300803Y-84706212D01*
X178290980Y-84693950D01*
X178290759Y-84694134D01*
X178285786Y-84688123D01*
X178235364Y-84640773D01*
X178224919Y-84630328D01*
X178214475Y-84619883D01*
X178208986Y-84615625D01*
X178204561Y-84611847D01*
X178170582Y-84579938D01*
X178170580Y-84579936D01*
X178170577Y-84579935D01*
X178153029Y-84570288D01*
X178136763Y-84559604D01*
X178120933Y-84547325D01*
X178078168Y-84528818D01*
X178072922Y-84526248D01*
X178032093Y-84503803D01*
X178032092Y-84503802D01*
X178012693Y-84498822D01*
X177994281Y-84492518D01*
X177975898Y-84484562D01*
X177975892Y-84484560D01*
X177929874Y-84477272D01*
X177924152Y-84476087D01*
X177879021Y-84464500D01*
X177879019Y-84464500D01*
X177858984Y-84464500D01*
X177839586Y-84462973D01*
X177832162Y-84461797D01*
X177819805Y-84459840D01*
X177819804Y-84459840D01*
X177773416Y-84464225D01*
X177767578Y-84464500D01*
X175204188Y-84464500D01*
X175137149Y-84444815D01*
X175102613Y-84411623D01*
X174990045Y-84250858D01*
X174829141Y-84089954D01*
X174642734Y-83959432D01*
X174642728Y-83959429D01*
X174591058Y-83935335D01*
X174584724Y-83932381D01*
X174532285Y-83886210D01*
X174513133Y-83819017D01*
X174533348Y-83752135D01*
X174584725Y-83707618D01*
X174642734Y-83680568D01*
X174829139Y-83550047D01*
X174990047Y-83389139D01*
X175102613Y-83228377D01*
X175157189Y-83184752D01*
X175204188Y-83175500D01*
X191713548Y-83175500D01*
X191780587Y-83195185D01*
X191801228Y-83211818D01*
X193452711Y-84863302D01*
X195079197Y-86489788D01*
X195089022Y-86502051D01*
X195089243Y-86501869D01*
X195094214Y-86507878D01*
X195120217Y-86532295D01*
X195144635Y-86555226D01*
X195165529Y-86576120D01*
X195171011Y-86580373D01*
X195175443Y-86584157D01*
X195209418Y-86616062D01*
X195226976Y-86625714D01*
X195243235Y-86636395D01*
X195259064Y-86648673D01*
X195301838Y-86667182D01*
X195307056Y-86669738D01*
X195347908Y-86692197D01*
X195367316Y-86697180D01*
X195385717Y-86703480D01*
X195404104Y-86711437D01*
X195447488Y-86718308D01*
X195450119Y-86718725D01*
X195455839Y-86719909D01*
X195500981Y-86731500D01*
X195521016Y-86731500D01*
X195540414Y-86733026D01*
X195560194Y-86736159D01*
X195560195Y-86736160D01*
X195560195Y-86736159D01*
X195560196Y-86736160D01*
X195606584Y-86731775D01*
X195612422Y-86731500D01*
X195717501Y-86731500D01*
X195784540Y-86751185D01*
X195830295Y-86803989D01*
X195841501Y-86855500D01*
X195841501Y-86880500D01*
X195821816Y-86947539D01*
X195769012Y-86993294D01*
X195717501Y-87004500D01*
X192868737Y-87004500D01*
X192853120Y-87002776D01*
X192853093Y-87003062D01*
X192845331Y-87002327D01*
X192776203Y-87004500D01*
X192746650Y-87004500D01*
X192745929Y-87004590D01*
X192739757Y-87005369D01*
X192733945Y-87005826D01*
X192687373Y-87007290D01*
X192687372Y-87007290D01*
X192668129Y-87012881D01*
X192649079Y-87016825D01*
X192629211Y-87019334D01*
X192629209Y-87019335D01*
X192585884Y-87036488D01*
X192580357Y-87038380D01*
X192535610Y-87051381D01*
X192535609Y-87051382D01*
X192518367Y-87061579D01*
X192500899Y-87070137D01*
X192482269Y-87077513D01*
X192482267Y-87077514D01*
X192444576Y-87104898D01*
X192439694Y-87108105D01*
X192399579Y-87131830D01*
X192385408Y-87146000D01*
X192370623Y-87158628D01*
X192354412Y-87170407D01*
X192324709Y-87206310D01*
X192320777Y-87210631D01*
X191293228Y-88238181D01*
X191231905Y-88271666D01*
X191205547Y-88274500D01*
X190705111Y-88274500D01*
X190638072Y-88254815D01*
X190592317Y-88202011D01*
X190582373Y-88132853D01*
X190598379Y-88087379D01*
X190626281Y-88040198D01*
X190672100Y-87882486D01*
X190672295Y-87880001D01*
X190672295Y-87880000D01*
X187727705Y-87880000D01*
X187727704Y-87880001D01*
X187727899Y-87882486D01*
X187773718Y-88040198D01*
X187857314Y-88181552D01*
X187862100Y-88187722D01*
X187859640Y-88189629D01*
X187886210Y-88238288D01*
X187881226Y-88307980D01*
X187860162Y-88340781D01*
X187861699Y-88341974D01*
X187856915Y-88348140D01*
X187773255Y-88489603D01*
X187773254Y-88489606D01*
X187727402Y-88647426D01*
X187727401Y-88647432D01*
X187724500Y-88684304D01*
X187724500Y-89115696D01*
X187727401Y-89152567D01*
X187727402Y-89152573D01*
X187773254Y-89310393D01*
X187773255Y-89310396D01*
X187773256Y-89310398D01*
X187781116Y-89323689D01*
X187856917Y-89451862D01*
X187861702Y-89458031D01*
X187859256Y-89459927D01*
X187885857Y-89508642D01*
X187880873Y-89578334D01*
X187860075Y-89610712D01*
X187861700Y-89611973D01*
X187856914Y-89618142D01*
X187830441Y-89662905D01*
X187796600Y-89700098D01*
X187782412Y-89710406D01*
X187752709Y-89746310D01*
X187748777Y-89750631D01*
X187322208Y-90177199D01*
X187309951Y-90187020D01*
X187310134Y-90187241D01*
X187304123Y-90192213D01*
X187256772Y-90242636D01*
X187235889Y-90263519D01*
X187235877Y-90263532D01*
X187231621Y-90269017D01*
X187227837Y-90273447D01*
X187195937Y-90307418D01*
X187195936Y-90307420D01*
X187186284Y-90324976D01*
X187175610Y-90341226D01*
X187163329Y-90357061D01*
X187163324Y-90357068D01*
X187144815Y-90399838D01*
X187142245Y-90405084D01*
X187119803Y-90445906D01*
X187114822Y-90465307D01*
X187108521Y-90483710D01*
X187100562Y-90502102D01*
X187100561Y-90502105D01*
X187093271Y-90548127D01*
X187092087Y-90553846D01*
X187080501Y-90598972D01*
X187080500Y-90598982D01*
X187080500Y-90619016D01*
X187078973Y-90638413D01*
X187075840Y-90658196D01*
X187076160Y-90661585D01*
X187080225Y-90704583D01*
X187080500Y-90710421D01*
X187080500Y-97199255D01*
X187078775Y-97214872D01*
X187079061Y-97214899D01*
X187078326Y-97222665D01*
X187080500Y-97291814D01*
X187080500Y-97321343D01*
X187080501Y-97321360D01*
X187081368Y-97328231D01*
X187081826Y-97334050D01*
X187083290Y-97380624D01*
X187083291Y-97380627D01*
X187088880Y-97399867D01*
X187092824Y-97418911D01*
X187095336Y-97438792D01*
X187111472Y-97479547D01*
X187112490Y-97482119D01*
X187114382Y-97487647D01*
X187127381Y-97532388D01*
X187137580Y-97549634D01*
X187146138Y-97567103D01*
X187153514Y-97585732D01*
X187180898Y-97623423D01*
X187184106Y-97628307D01*
X187207827Y-97668416D01*
X187207833Y-97668424D01*
X187221990Y-97682580D01*
X187234627Y-97697375D01*
X187246406Y-97713587D01*
X187278179Y-97739872D01*
X187282309Y-97743288D01*
X187286620Y-97747210D01*
X192941579Y-103402170D01*
X194825197Y-105285788D01*
X194835022Y-105298051D01*
X194835243Y-105297869D01*
X194840214Y-105303878D01*
X194861043Y-105323437D01*
X194890635Y-105351226D01*
X194911529Y-105372120D01*
X194917011Y-105376373D01*
X194921443Y-105380157D01*
X194955418Y-105412062D01*
X194972976Y-105421714D01*
X194989235Y-105432395D01*
X195005064Y-105444673D01*
X195047838Y-105463182D01*
X195053056Y-105465738D01*
X195093908Y-105488197D01*
X195113316Y-105493180D01*
X195131717Y-105499480D01*
X195150104Y-105507437D01*
X195193488Y-105514308D01*
X195196119Y-105514725D01*
X195201839Y-105515909D01*
X195246981Y-105527500D01*
X195267016Y-105527500D01*
X195286414Y-105529026D01*
X195306194Y-105532159D01*
X195306195Y-105532160D01*
X195306195Y-105532159D01*
X195306196Y-105532160D01*
X195352584Y-105527775D01*
X195358422Y-105527500D01*
X201339257Y-105527500D01*
X201354877Y-105529224D01*
X201354904Y-105528939D01*
X201362660Y-105529671D01*
X201362667Y-105529673D01*
X201431814Y-105527500D01*
X201461350Y-105527500D01*
X201468228Y-105526630D01*
X201474041Y-105526172D01*
X201520627Y-105524709D01*
X201539869Y-105519117D01*
X201558912Y-105515174D01*
X201578792Y-105512664D01*
X201622122Y-105495507D01*
X201627646Y-105493617D01*
X201631396Y-105492527D01*
X201672390Y-105480618D01*
X201689629Y-105470422D01*
X201707103Y-105461862D01*
X201725727Y-105454488D01*
X201725727Y-105454487D01*
X201725732Y-105454486D01*
X201763449Y-105427082D01*
X201768305Y-105423892D01*
X201808420Y-105400170D01*
X201822589Y-105385999D01*
X201837379Y-105373368D01*
X201853587Y-105361594D01*
X201883299Y-105325676D01*
X201887212Y-105321376D01*
X203583786Y-103624802D01*
X203596048Y-103614980D01*
X203595865Y-103614759D01*
X203601867Y-103609792D01*
X203601877Y-103609786D01*
X203649241Y-103559348D01*
X203670120Y-103538470D01*
X203674373Y-103532986D01*
X203678150Y-103528563D01*
X203710062Y-103494582D01*
X203719714Y-103477023D01*
X203730389Y-103460772D01*
X203742674Y-103444936D01*
X203761186Y-103402152D01*
X203763742Y-103396935D01*
X203786197Y-103356092D01*
X203791180Y-103336681D01*
X203798696Y-103315562D01*
X203798708Y-103315536D01*
X203844674Y-103262916D01*
X203911295Y-103243499D01*
X204517871Y-103243499D01*
X204517872Y-103243499D01*
X204577483Y-103237091D01*
X204712331Y-103186796D01*
X204827546Y-103100546D01*
X204913796Y-102985331D01*
X204964091Y-102850483D01*
X204970500Y-102790873D01*
X204970499Y-101171128D01*
X204964091Y-101111517D01*
X204916057Y-100982732D01*
X204913797Y-100976671D01*
X204913793Y-100976664D01*
X204827547Y-100861455D01*
X204827544Y-100861452D01*
X204712335Y-100775206D01*
X204712328Y-100775202D01*
X204577482Y-100724908D01*
X204577483Y-100724908D01*
X204517883Y-100718501D01*
X204517881Y-100718500D01*
X204517873Y-100718500D01*
X204517864Y-100718500D01*
X201882129Y-100718500D01*
X201882123Y-100718501D01*
X201822516Y-100724908D01*
X201687671Y-100775202D01*
X201687664Y-100775206D01*
X201572455Y-100861452D01*
X201572452Y-100861455D01*
X201486206Y-100976664D01*
X201486202Y-100976671D01*
X201435908Y-101111517D01*
X201429501Y-101171116D01*
X201429501Y-101171123D01*
X201429500Y-101171135D01*
X201429500Y-102790870D01*
X201429501Y-102790876D01*
X201435908Y-102850483D01*
X201486202Y-102985328D01*
X201486206Y-102985335D01*
X201572452Y-103100544D01*
X201572455Y-103100547D01*
X201687664Y-103186793D01*
X201687671Y-103186797D01*
X201732618Y-103203561D01*
X201822517Y-103237091D01*
X201882127Y-103243500D01*
X201896542Y-103243499D01*
X201963580Y-103263180D01*
X202009337Y-103315981D01*
X202019285Y-103385139D01*
X201990264Y-103448696D01*
X201984227Y-103455180D01*
X201199228Y-104240181D01*
X201137905Y-104273666D01*
X201111547Y-104276500D01*
X199932133Y-104276500D01*
X199865094Y-104256815D01*
X199819339Y-104204011D01*
X199809395Y-104134853D01*
X199836583Y-104073467D01*
X199840733Y-104068449D01*
X199851302Y-104055673D01*
X199855211Y-104051377D01*
X200789787Y-103116802D01*
X200802042Y-103106986D01*
X200801859Y-103106764D01*
X200807866Y-103101792D01*
X200807877Y-103101786D01*
X200838775Y-103068882D01*
X200855227Y-103051364D01*
X200865671Y-103040918D01*
X200876120Y-103030471D01*
X200880379Y-103024978D01*
X200884152Y-103020561D01*
X200916062Y-102986582D01*
X200925715Y-102969020D01*
X200936389Y-102952770D01*
X200948673Y-102936936D01*
X200967180Y-102894167D01*
X200969749Y-102888924D01*
X200986642Y-102858196D01*
X200992197Y-102848092D01*
X200997177Y-102828691D01*
X201003478Y-102810288D01*
X201011438Y-102791896D01*
X201018730Y-102745849D01*
X201019911Y-102740152D01*
X201031500Y-102695019D01*
X201031500Y-102674983D01*
X201033027Y-102655582D01*
X201036160Y-102635804D01*
X201031775Y-102589415D01*
X201031500Y-102583577D01*
X201031500Y-96856738D01*
X201033224Y-96841124D01*
X201032938Y-96841097D01*
X201033672Y-96833334D01*
X201031500Y-96764203D01*
X201031500Y-96734651D01*
X201031500Y-96734650D01*
X201030629Y-96727759D01*
X201030172Y-96721945D01*
X201028709Y-96675372D01*
X201023122Y-96656144D01*
X201019174Y-96637084D01*
X201016663Y-96617204D01*
X200999512Y-96573887D01*
X200997619Y-96568358D01*
X200984618Y-96523609D01*
X200984616Y-96523606D01*
X200974423Y-96506371D01*
X200965861Y-96488894D01*
X200958487Y-96470270D01*
X200958486Y-96470268D01*
X200931079Y-96432545D01*
X200927888Y-96427686D01*
X200904172Y-96387583D01*
X200904165Y-96387574D01*
X200890006Y-96373415D01*
X200877368Y-96358619D01*
X200875067Y-96355452D01*
X200865594Y-96342413D01*
X200829688Y-96312709D01*
X200825376Y-96308786D01*
X199763803Y-95247212D01*
X199753980Y-95234950D01*
X199753759Y-95235134D01*
X199748786Y-95229123D01*
X199746596Y-95227066D01*
X199698364Y-95181773D01*
X199687919Y-95171328D01*
X199677475Y-95160883D01*
X199671986Y-95156625D01*
X199667561Y-95152847D01*
X199633582Y-95120938D01*
X199633580Y-95120936D01*
X199633577Y-95120935D01*
X199616029Y-95111288D01*
X199599763Y-95100604D01*
X199583933Y-95088325D01*
X199541168Y-95069818D01*
X199535922Y-95067248D01*
X199495093Y-95044803D01*
X199495092Y-95044802D01*
X199475693Y-95039822D01*
X199455493Y-95032728D01*
X199455462Y-95032714D01*
X199402466Y-94987181D01*
X199382500Y-94920225D01*
X199382499Y-94919704D01*
X199382499Y-94821129D01*
X199382498Y-94821123D01*
X199382497Y-94821116D01*
X199376091Y-94761517D01*
X199376090Y-94761516D01*
X199376090Y-94761509D01*
X199375264Y-94758012D01*
X199375413Y-94755217D01*
X199375262Y-94753804D01*
X199375491Y-94753779D01*
X199379006Y-94688243D01*
X199419874Y-94631572D01*
X199484893Y-94605993D01*
X199495941Y-94605500D01*
X201238548Y-94605500D01*
X201305587Y-94625185D01*
X201326229Y-94641819D01*
X201394931Y-94710521D01*
X201428416Y-94771844D01*
X201430540Y-94811452D01*
X201429500Y-94821122D01*
X201429500Y-96440870D01*
X201429501Y-96440876D01*
X201435908Y-96500483D01*
X201486202Y-96635328D01*
X201486206Y-96635335D01*
X201572452Y-96750544D01*
X201572455Y-96750547D01*
X201687664Y-96836793D01*
X201687671Y-96836797D01*
X201822517Y-96887091D01*
X201822516Y-96887091D01*
X201829444Y-96887835D01*
X201882127Y-96893500D01*
X203928546Y-96893499D01*
X203995585Y-96913184D01*
X204041340Y-96965987D01*
X204051284Y-97035146D01*
X204022259Y-97098702D01*
X204016227Y-97105180D01*
X203614226Y-97507181D01*
X203552903Y-97540666D01*
X203526545Y-97543500D01*
X201882129Y-97543500D01*
X201882123Y-97543501D01*
X201822516Y-97549908D01*
X201687671Y-97600202D01*
X201687664Y-97600206D01*
X201572455Y-97686452D01*
X201572452Y-97686455D01*
X201486206Y-97801664D01*
X201486202Y-97801671D01*
X201435908Y-97936517D01*
X201429502Y-97996109D01*
X201429501Y-97996123D01*
X201429500Y-97996135D01*
X201429500Y-99615870D01*
X201429501Y-99615876D01*
X201435908Y-99675483D01*
X201486202Y-99810328D01*
X201486206Y-99810335D01*
X201572452Y-99925544D01*
X201572455Y-99925547D01*
X201687664Y-100011793D01*
X201687671Y-100011797D01*
X201822517Y-100062091D01*
X201822516Y-100062091D01*
X201829444Y-100062835D01*
X201882127Y-100068500D01*
X204517872Y-100068499D01*
X204577483Y-100062091D01*
X204712331Y-100011796D01*
X204827546Y-99925546D01*
X204913796Y-99810331D01*
X204964091Y-99675483D01*
X204970500Y-99615873D01*
X204970499Y-97996128D01*
X204970145Y-97992837D01*
X204969460Y-97986456D01*
X204981865Y-97917697D01*
X205005065Y-97885523D01*
X205869787Y-97020802D01*
X205882042Y-97010986D01*
X205881859Y-97010764D01*
X205887866Y-97005792D01*
X205887877Y-97005786D01*
X205918775Y-96972882D01*
X205935227Y-96955364D01*
X205945671Y-96944918D01*
X205956120Y-96934471D01*
X205960379Y-96928978D01*
X205964152Y-96924561D01*
X205996062Y-96890582D01*
X206005713Y-96873024D01*
X206016396Y-96856761D01*
X206028673Y-96840936D01*
X206047185Y-96798153D01*
X206049738Y-96792941D01*
X206072197Y-96752092D01*
X206077180Y-96732680D01*
X206083481Y-96714280D01*
X206091437Y-96695896D01*
X206098729Y-96649852D01*
X206099906Y-96644171D01*
X206111500Y-96599019D01*
X206111500Y-96578983D01*
X206113027Y-96559582D01*
X206116160Y-96539804D01*
X206111775Y-96493415D01*
X206111500Y-96487577D01*
X206111500Y-88474742D01*
X206113224Y-88459122D01*
X206112939Y-88459095D01*
X206113673Y-88451333D01*
X206111500Y-88382172D01*
X206111500Y-88352656D01*
X206111500Y-88352650D01*
X206110631Y-88345779D01*
X206110173Y-88339952D01*
X206109181Y-88308377D01*
X206108710Y-88293373D01*
X206103119Y-88274130D01*
X206099173Y-88255078D01*
X206096664Y-88235208D01*
X206079504Y-88191867D01*
X206077624Y-88186379D01*
X206064618Y-88141610D01*
X206054422Y-88124370D01*
X206045861Y-88106894D01*
X206038487Y-88088270D01*
X206031927Y-88079241D01*
X206011079Y-88050545D01*
X206007888Y-88045686D01*
X205999719Y-88031873D01*
X205984170Y-88005580D01*
X205984168Y-88005578D01*
X205984165Y-88005574D01*
X205970006Y-87991415D01*
X205957368Y-87976619D01*
X205945594Y-87960413D01*
X205909688Y-87930709D01*
X205905376Y-87926786D01*
X205224803Y-87246212D01*
X205214980Y-87233950D01*
X205214759Y-87234134D01*
X205209786Y-87228123D01*
X205191159Y-87210631D01*
X205159364Y-87180773D01*
X205148919Y-87170328D01*
X205138475Y-87159883D01*
X205132986Y-87155625D01*
X205128561Y-87151847D01*
X205094582Y-87119938D01*
X205094580Y-87119936D01*
X205094577Y-87119935D01*
X205077029Y-87110288D01*
X205060763Y-87099604D01*
X205044933Y-87087325D01*
X205039993Y-87085187D01*
X204986287Y-87040494D01*
X204965270Y-86973861D01*
X204965955Y-86958140D01*
X204970500Y-86915873D01*
X204970499Y-85296128D01*
X204964091Y-85236517D01*
X204952522Y-85205500D01*
X204913797Y-85101671D01*
X204913793Y-85101664D01*
X204827547Y-84986455D01*
X204827544Y-84986452D01*
X204712335Y-84900206D01*
X204712328Y-84900202D01*
X204577482Y-84849908D01*
X204577483Y-84849908D01*
X204517883Y-84843501D01*
X204517881Y-84843500D01*
X204517873Y-84843500D01*
X204517864Y-84843500D01*
X201882129Y-84843500D01*
X201882123Y-84843501D01*
X201822516Y-84849908D01*
X201687671Y-84900202D01*
X201687664Y-84900206D01*
X201572455Y-84986452D01*
X201572452Y-84986455D01*
X201486206Y-85101664D01*
X201486202Y-85101671D01*
X201435908Y-85236517D01*
X201429536Y-85295793D01*
X201429501Y-85296123D01*
X201429500Y-85296135D01*
X201429500Y-85356500D01*
X201409815Y-85423539D01*
X201357011Y-85469294D01*
X201305500Y-85480500D01*
X199506499Y-85480500D01*
X199439460Y-85460815D01*
X199393705Y-85408011D01*
X199382499Y-85356500D01*
X199382499Y-85296129D01*
X199382498Y-85296123D01*
X199382497Y-85296116D01*
X199376091Y-85236517D01*
X199364522Y-85205500D01*
X199325797Y-85101671D01*
X199325793Y-85101664D01*
X199239547Y-84986455D01*
X199239544Y-84986452D01*
X199124335Y-84900206D01*
X199124328Y-84900202D01*
X198989482Y-84849908D01*
X198989483Y-84849908D01*
X198929883Y-84843501D01*
X198929881Y-84843500D01*
X198929873Y-84843500D01*
X198929864Y-84843500D01*
X196294129Y-84843500D01*
X196294123Y-84843501D01*
X196234516Y-84849908D01*
X196099671Y-84900202D01*
X196099664Y-84900206D01*
X195984455Y-84986452D01*
X195984452Y-84986455D01*
X195898206Y-85101664D01*
X195898203Y-85101669D01*
X195846661Y-85239860D01*
X195804789Y-85295793D01*
X195739325Y-85320210D01*
X195671052Y-85305358D01*
X195642798Y-85284207D01*
X192524803Y-82166212D01*
X192514980Y-82153950D01*
X192514759Y-82154134D01*
X192509786Y-82148123D01*
X192459364Y-82100773D01*
X192448919Y-82090328D01*
X192438475Y-82079883D01*
X192432986Y-82075625D01*
X192428561Y-82071847D01*
X192394582Y-82039938D01*
X192394580Y-82039936D01*
X192394577Y-82039935D01*
X192377029Y-82030288D01*
X192360763Y-82019604D01*
X192344933Y-82007325D01*
X192302168Y-81988818D01*
X192296922Y-81986248D01*
X192256093Y-81963803D01*
X192256092Y-81963802D01*
X192236693Y-81958822D01*
X192218281Y-81952518D01*
X192199898Y-81944562D01*
X192199892Y-81944560D01*
X192153874Y-81937272D01*
X192148152Y-81936087D01*
X192103021Y-81924500D01*
X192103019Y-81924500D01*
X192082984Y-81924500D01*
X192063586Y-81922973D01*
X192056162Y-81921797D01*
X192043805Y-81919840D01*
X192043804Y-81919840D01*
X191997416Y-81924225D01*
X191991578Y-81924500D01*
X175204188Y-81924500D01*
X175137149Y-81904815D01*
X175102613Y-81871623D01*
X174990045Y-81710858D01*
X174829141Y-81549954D01*
X174642734Y-81419432D01*
X174642728Y-81419429D01*
X174584725Y-81392382D01*
X174532285Y-81346210D01*
X174513133Y-81279017D01*
X174533348Y-81212135D01*
X174584725Y-81167618D01*
X174642734Y-81140568D01*
X174829139Y-81010047D01*
X174990047Y-80849139D01*
X175102613Y-80688377D01*
X175157189Y-80644752D01*
X175204188Y-80635500D01*
X191967548Y-80635500D01*
X192034587Y-80655185D01*
X192055228Y-80671818D01*
X193390734Y-82007325D01*
X194698197Y-83314788D01*
X194708022Y-83327051D01*
X194708243Y-83326869D01*
X194713214Y-83332878D01*
X194739217Y-83357295D01*
X194763635Y-83380226D01*
X194784529Y-83401120D01*
X194790011Y-83405373D01*
X194794443Y-83409157D01*
X194828418Y-83441062D01*
X194845976Y-83450714D01*
X194862233Y-83461393D01*
X194878064Y-83473673D01*
X194897737Y-83482186D01*
X194920833Y-83492182D01*
X194926077Y-83494750D01*
X194966908Y-83517197D01*
X194979523Y-83520435D01*
X194986305Y-83522177D01*
X195004719Y-83528481D01*
X195023104Y-83536438D01*
X195069157Y-83543732D01*
X195074826Y-83544906D01*
X195119981Y-83556500D01*
X195140016Y-83556500D01*
X195159413Y-83558026D01*
X195179196Y-83561160D01*
X195225584Y-83556775D01*
X195231422Y-83556500D01*
X195717501Y-83556500D01*
X195784540Y-83576185D01*
X195830295Y-83628989D01*
X195841501Y-83680500D01*
X195841501Y-83740876D01*
X195847908Y-83800483D01*
X195898202Y-83935328D01*
X195898206Y-83935335D01*
X195984452Y-84050544D01*
X195984455Y-84050547D01*
X196099664Y-84136793D01*
X196099671Y-84136797D01*
X196234517Y-84187091D01*
X196234516Y-84187091D01*
X196241444Y-84187835D01*
X196294127Y-84193500D01*
X198929872Y-84193499D01*
X198989483Y-84187091D01*
X199124331Y-84136796D01*
X199239546Y-84050546D01*
X199325796Y-83935331D01*
X199376091Y-83800483D01*
X199382500Y-83740873D01*
X199382500Y-83680500D01*
X199402185Y-83613461D01*
X199454989Y-83567706D01*
X199506500Y-83556500D01*
X201305501Y-83556500D01*
X201372540Y-83576185D01*
X201418295Y-83628989D01*
X201429501Y-83680500D01*
X201429501Y-83740876D01*
X201435908Y-83800483D01*
X201486202Y-83935328D01*
X201486206Y-83935335D01*
X201572452Y-84050544D01*
X201572455Y-84050547D01*
X201687664Y-84136793D01*
X201687671Y-84136797D01*
X201822517Y-84187091D01*
X201822516Y-84187091D01*
X201829444Y-84187835D01*
X201882127Y-84193500D01*
X204517872Y-84193499D01*
X204577483Y-84187091D01*
X204712331Y-84136796D01*
X204827546Y-84050546D01*
X204913796Y-83935331D01*
X204964091Y-83800483D01*
X204970500Y-83740873D01*
X204970499Y-82121128D01*
X204964091Y-82061517D01*
X204956041Y-82039935D01*
X204913797Y-81926671D01*
X204913793Y-81926664D01*
X204827547Y-81811455D01*
X204827544Y-81811452D01*
X204712335Y-81725206D01*
X204712328Y-81725202D01*
X204577482Y-81674908D01*
X204577483Y-81674908D01*
X204517883Y-81668501D01*
X204517881Y-81668500D01*
X204517873Y-81668500D01*
X204517864Y-81668500D01*
X201882129Y-81668500D01*
X201882123Y-81668501D01*
X201822516Y-81674908D01*
X201687671Y-81725202D01*
X201687664Y-81725206D01*
X201572455Y-81811452D01*
X201572452Y-81811455D01*
X201486206Y-81926664D01*
X201486202Y-81926671D01*
X201435908Y-82061517D01*
X201431394Y-82103511D01*
X201429501Y-82121123D01*
X201429500Y-82121135D01*
X201429500Y-82181500D01*
X201409815Y-82248539D01*
X201357011Y-82294294D01*
X201305500Y-82305500D01*
X199506499Y-82305500D01*
X199439460Y-82285815D01*
X199393705Y-82233011D01*
X199382499Y-82181500D01*
X199382499Y-82121129D01*
X199382498Y-82121123D01*
X199382497Y-82121116D01*
X199376091Y-82061517D01*
X199368041Y-82039935D01*
X199325797Y-81926671D01*
X199325793Y-81926664D01*
X199239547Y-81811455D01*
X199239544Y-81811452D01*
X199124335Y-81725206D01*
X199124328Y-81725202D01*
X198989482Y-81674908D01*
X198989483Y-81674908D01*
X198929883Y-81668501D01*
X198929881Y-81668500D01*
X198929873Y-81668500D01*
X198929864Y-81668500D01*
X196294129Y-81668500D01*
X196294123Y-81668501D01*
X196234516Y-81674908D01*
X196099671Y-81725202D01*
X196099664Y-81725206D01*
X195984455Y-81811452D01*
X195984452Y-81811455D01*
X195898206Y-81926664D01*
X195898202Y-81926671D01*
X195847908Y-82061517D01*
X195843394Y-82103511D01*
X195841501Y-82121123D01*
X195841500Y-82121135D01*
X195841500Y-82181500D01*
X195821815Y-82248539D01*
X195769011Y-82294294D01*
X195717500Y-82305500D01*
X195509452Y-82305500D01*
X195442413Y-82285815D01*
X195421771Y-82269181D01*
X192778803Y-79626212D01*
X192768980Y-79613950D01*
X192768759Y-79614134D01*
X192763786Y-79608123D01*
X192713364Y-79560773D01*
X192701069Y-79548478D01*
X192692475Y-79539883D01*
X192686986Y-79535625D01*
X192682561Y-79531847D01*
X192648582Y-79499938D01*
X192648580Y-79499936D01*
X192648577Y-79499935D01*
X192631029Y-79490288D01*
X192614763Y-79479604D01*
X192611467Y-79477047D01*
X192598936Y-79467327D01*
X192598935Y-79467326D01*
X192598933Y-79467325D01*
X192556168Y-79448818D01*
X192550922Y-79446248D01*
X192510093Y-79423803D01*
X192510092Y-79423802D01*
X192490693Y-79418822D01*
X192472281Y-79412518D01*
X192453898Y-79404562D01*
X192453892Y-79404560D01*
X192407874Y-79397272D01*
X192402152Y-79396087D01*
X192357021Y-79384500D01*
X192357019Y-79384500D01*
X192336984Y-79384500D01*
X192317586Y-79382973D01*
X192310162Y-79381797D01*
X192297805Y-79379840D01*
X192297804Y-79379840D01*
X192251416Y-79384225D01*
X192245578Y-79384500D01*
X175204188Y-79384500D01*
X175137149Y-79364815D01*
X175102613Y-79331623D01*
X174990045Y-79170858D01*
X174829141Y-79009954D01*
X174642734Y-78879432D01*
X174642728Y-78879429D01*
X174584725Y-78852382D01*
X174532285Y-78806210D01*
X174513133Y-78739017D01*
X174533348Y-78672135D01*
X174584725Y-78627618D01*
X174642734Y-78600568D01*
X174829139Y-78470047D01*
X174990047Y-78309139D01*
X175102613Y-78148377D01*
X175157189Y-78104752D01*
X175204188Y-78095500D01*
X192729548Y-78095500D01*
X192796587Y-78115185D01*
X192817228Y-78131818D01*
X193856267Y-79170858D01*
X194825197Y-80139788D01*
X194835022Y-80152051D01*
X194835243Y-80151869D01*
X194840214Y-80157878D01*
X194853840Y-80170673D01*
X194890635Y-80205226D01*
X194911529Y-80226120D01*
X194917011Y-80230373D01*
X194921443Y-80234157D01*
X194955418Y-80266062D01*
X194972976Y-80275714D01*
X194989235Y-80286395D01*
X195005064Y-80298673D01*
X195047838Y-80317182D01*
X195053056Y-80319738D01*
X195093908Y-80342197D01*
X195113316Y-80347180D01*
X195131717Y-80353480D01*
X195150104Y-80361437D01*
X195193488Y-80368308D01*
X195196119Y-80368725D01*
X195201839Y-80369909D01*
X195246981Y-80381500D01*
X195267016Y-80381500D01*
X195286414Y-80383026D01*
X195306194Y-80386159D01*
X195306195Y-80386160D01*
X195306195Y-80386159D01*
X195306196Y-80386160D01*
X195352584Y-80381775D01*
X195358422Y-80381500D01*
X195717501Y-80381500D01*
X195784540Y-80401185D01*
X195830295Y-80453989D01*
X195841501Y-80505500D01*
X195841501Y-80565876D01*
X195847908Y-80625483D01*
X195898202Y-80760328D01*
X195898206Y-80760335D01*
X195984452Y-80875544D01*
X195984455Y-80875547D01*
X196099664Y-80961793D01*
X196099671Y-80961797D01*
X196234517Y-81012091D01*
X196234516Y-81012091D01*
X196241444Y-81012835D01*
X196294127Y-81018500D01*
X198929872Y-81018499D01*
X198989483Y-81012091D01*
X199124331Y-80961796D01*
X199239546Y-80875546D01*
X199325796Y-80760331D01*
X199376091Y-80625483D01*
X199382500Y-80565873D01*
X199382500Y-80505500D01*
X199402185Y-80438461D01*
X199454989Y-80392706D01*
X199506500Y-80381500D01*
X201305501Y-80381500D01*
X201372540Y-80401185D01*
X201418295Y-80453989D01*
X201429501Y-80505500D01*
X201429501Y-80565876D01*
X201435908Y-80625483D01*
X201486202Y-80760328D01*
X201486206Y-80760335D01*
X201572452Y-80875544D01*
X201572455Y-80875547D01*
X201687664Y-80961793D01*
X201687671Y-80961797D01*
X201822517Y-81012091D01*
X201822516Y-81012091D01*
X201829444Y-81012835D01*
X201882127Y-81018500D01*
X204517872Y-81018499D01*
X204577483Y-81012091D01*
X204712331Y-80961796D01*
X204827546Y-80875546D01*
X204913796Y-80760331D01*
X204964091Y-80625483D01*
X204970500Y-80565873D01*
X204970499Y-78946128D01*
X204964091Y-78886517D01*
X204961448Y-78879432D01*
X204913797Y-78751671D01*
X204913793Y-78751664D01*
X204827547Y-78636455D01*
X204827544Y-78636452D01*
X204712335Y-78550206D01*
X204712328Y-78550202D01*
X204577482Y-78499908D01*
X204577483Y-78499908D01*
X204517883Y-78493501D01*
X204517881Y-78493500D01*
X204517873Y-78493500D01*
X204517864Y-78493500D01*
X201882129Y-78493500D01*
X201882123Y-78493501D01*
X201822516Y-78499908D01*
X201687671Y-78550202D01*
X201687664Y-78550206D01*
X201572455Y-78636452D01*
X201572452Y-78636455D01*
X201486206Y-78751664D01*
X201486202Y-78751671D01*
X201435908Y-78886517D01*
X201429501Y-78946116D01*
X201429501Y-78946123D01*
X201429500Y-78946135D01*
X201429500Y-79006500D01*
X201409815Y-79073539D01*
X201357011Y-79119294D01*
X201305500Y-79130500D01*
X199506499Y-79130500D01*
X199439460Y-79110815D01*
X199393705Y-79058011D01*
X199382499Y-79006500D01*
X199382499Y-78946129D01*
X199382498Y-78946123D01*
X199382497Y-78946116D01*
X199376091Y-78886517D01*
X199373448Y-78879432D01*
X199325797Y-78751671D01*
X199325793Y-78751664D01*
X199239547Y-78636455D01*
X199239544Y-78636452D01*
X199124335Y-78550206D01*
X199124328Y-78550202D01*
X198989482Y-78499908D01*
X198989483Y-78499908D01*
X198929883Y-78493501D01*
X198929881Y-78493500D01*
X198929873Y-78493500D01*
X198929864Y-78493500D01*
X196294129Y-78493500D01*
X196294123Y-78493501D01*
X196234516Y-78499908D01*
X196099671Y-78550202D01*
X196099664Y-78550206D01*
X195984455Y-78636452D01*
X195984452Y-78636455D01*
X195898206Y-78751664D01*
X195898202Y-78751671D01*
X195847908Y-78886517D01*
X195841501Y-78946116D01*
X195841501Y-78946123D01*
X195841500Y-78946135D01*
X195841500Y-79006500D01*
X195821815Y-79073539D01*
X195769011Y-79119294D01*
X195717500Y-79130500D01*
X195636453Y-79130500D01*
X195569414Y-79110815D01*
X195548772Y-79094181D01*
X193540803Y-77086212D01*
X193530980Y-77073950D01*
X193530759Y-77074134D01*
X193525786Y-77068123D01*
X193516240Y-77059159D01*
X193475364Y-77020773D01*
X193464919Y-77010328D01*
X193454475Y-76999883D01*
X193448986Y-76995625D01*
X193444561Y-76991847D01*
X193410582Y-76959938D01*
X193410580Y-76959936D01*
X193410577Y-76959935D01*
X193393029Y-76950288D01*
X193376763Y-76939604D01*
X193360933Y-76927325D01*
X193318168Y-76908818D01*
X193312922Y-76906248D01*
X193272093Y-76883803D01*
X193272092Y-76883802D01*
X193252693Y-76878822D01*
X193234281Y-76872518D01*
X193215898Y-76864562D01*
X193215892Y-76864560D01*
X193169874Y-76857272D01*
X193164152Y-76856087D01*
X193119021Y-76844500D01*
X193119019Y-76844500D01*
X193098984Y-76844500D01*
X193079586Y-76842973D01*
X193072162Y-76841797D01*
X193059805Y-76839840D01*
X193059804Y-76839840D01*
X193013416Y-76844225D01*
X193007578Y-76844500D01*
X175204188Y-76844500D01*
X175137149Y-76824815D01*
X175102613Y-76791623D01*
X174990045Y-76630858D01*
X174829141Y-76469954D01*
X174642734Y-76339432D01*
X174642728Y-76339429D01*
X174584725Y-76312382D01*
X174532285Y-76266210D01*
X174513133Y-76199017D01*
X174533348Y-76132135D01*
X174584725Y-76087618D01*
X174642734Y-76060568D01*
X174829139Y-75930047D01*
X174990047Y-75769139D01*
X175102613Y-75608377D01*
X175157189Y-75564752D01*
X175204188Y-75555500D01*
X193491548Y-75555500D01*
X193558587Y-75575185D01*
X193579229Y-75591819D01*
X194952194Y-76964784D01*
X194962019Y-76977048D01*
X194962240Y-76976866D01*
X194967210Y-76982873D01*
X194967213Y-76982876D01*
X194967214Y-76982877D01*
X195017651Y-77030241D01*
X195038530Y-77051120D01*
X195044004Y-77055366D01*
X195048442Y-77059156D01*
X195082418Y-77091062D01*
X195082422Y-77091064D01*
X195099973Y-77100713D01*
X195116231Y-77111392D01*
X195132064Y-77123674D01*
X195154015Y-77133172D01*
X195174837Y-77142183D01*
X195180081Y-77144752D01*
X195220908Y-77167197D01*
X195240312Y-77172179D01*
X195258710Y-77178478D01*
X195277105Y-77186438D01*
X195323129Y-77193726D01*
X195328832Y-77194907D01*
X195373981Y-77206500D01*
X195394016Y-77206500D01*
X195413413Y-77208026D01*
X195433196Y-77211160D01*
X195479584Y-77206775D01*
X195485422Y-77206500D01*
X195717501Y-77206500D01*
X195784540Y-77226185D01*
X195830295Y-77278989D01*
X195841501Y-77330500D01*
X195841501Y-77390876D01*
X195847908Y-77450483D01*
X195898202Y-77585328D01*
X195898206Y-77585335D01*
X195984452Y-77700544D01*
X195984455Y-77700547D01*
X196099664Y-77786793D01*
X196099671Y-77786797D01*
X196234517Y-77837091D01*
X196234516Y-77837091D01*
X196241444Y-77837835D01*
X196294127Y-77843500D01*
X198929872Y-77843499D01*
X198989483Y-77837091D01*
X199124331Y-77786796D01*
X199239546Y-77700546D01*
X199325796Y-77585331D01*
X199376091Y-77450483D01*
X199382500Y-77390873D01*
X199382500Y-77330500D01*
X199402185Y-77263461D01*
X199454989Y-77217706D01*
X199506500Y-77206500D01*
X201305501Y-77206500D01*
X201372540Y-77226185D01*
X201418295Y-77278989D01*
X201429501Y-77330500D01*
X201429501Y-77390876D01*
X201435908Y-77450483D01*
X201486202Y-77585328D01*
X201486206Y-77585335D01*
X201572452Y-77700544D01*
X201572455Y-77700547D01*
X201687664Y-77786793D01*
X201687671Y-77786797D01*
X201822517Y-77837091D01*
X201822516Y-77837091D01*
X201829444Y-77837835D01*
X201882127Y-77843500D01*
X204517872Y-77843499D01*
X204577483Y-77837091D01*
X204712331Y-77786796D01*
X204827546Y-77700546D01*
X204913796Y-77585331D01*
X204964091Y-77450483D01*
X204970500Y-77390873D01*
X204970499Y-75771128D01*
X204964091Y-75711517D01*
X204925622Y-75608377D01*
X204913797Y-75576671D01*
X204913793Y-75576664D01*
X204827547Y-75461455D01*
X204827544Y-75461452D01*
X204712335Y-75375206D01*
X204712328Y-75375202D01*
X204577482Y-75324908D01*
X204577483Y-75324908D01*
X204517883Y-75318501D01*
X204517881Y-75318500D01*
X204517873Y-75318500D01*
X204517864Y-75318500D01*
X201882129Y-75318500D01*
X201882123Y-75318501D01*
X201822516Y-75324908D01*
X201687671Y-75375202D01*
X201687664Y-75375206D01*
X201572455Y-75461452D01*
X201572452Y-75461455D01*
X201486206Y-75576664D01*
X201486202Y-75576671D01*
X201435908Y-75711517D01*
X201429501Y-75771116D01*
X201429501Y-75771123D01*
X201429500Y-75771135D01*
X201429500Y-75831500D01*
X201409815Y-75898539D01*
X201357011Y-75944294D01*
X201305500Y-75955500D01*
X199506499Y-75955500D01*
X199439460Y-75935815D01*
X199393705Y-75883011D01*
X199382499Y-75831500D01*
X199382499Y-75771129D01*
X199382498Y-75771123D01*
X199382497Y-75771116D01*
X199376091Y-75711517D01*
X199337622Y-75608377D01*
X199325797Y-75576671D01*
X199325793Y-75576664D01*
X199239547Y-75461455D01*
X199239544Y-75461452D01*
X199124335Y-75375206D01*
X199124328Y-75375202D01*
X198989482Y-75324908D01*
X198989483Y-75324908D01*
X198929883Y-75318501D01*
X198929881Y-75318500D01*
X198929873Y-75318500D01*
X198929864Y-75318500D01*
X196294129Y-75318500D01*
X196294123Y-75318501D01*
X196234516Y-75324908D01*
X196099671Y-75375202D01*
X196099664Y-75375206D01*
X195984455Y-75461452D01*
X195984452Y-75461455D01*
X195898206Y-75576664D01*
X195898202Y-75576671D01*
X195847908Y-75711517D01*
X195841501Y-75771116D01*
X195841501Y-75771123D01*
X195841500Y-75771135D01*
X195841500Y-75785547D01*
X195821815Y-75852586D01*
X195769011Y-75898341D01*
X195699853Y-75908285D01*
X195636297Y-75879260D01*
X195629819Y-75873228D01*
X194302803Y-74546212D01*
X194292980Y-74533950D01*
X194292759Y-74534134D01*
X194287786Y-74528123D01*
X194285040Y-74525544D01*
X194237364Y-74480773D01*
X194226919Y-74470328D01*
X194216475Y-74459883D01*
X194210986Y-74455625D01*
X194206561Y-74451847D01*
X194172582Y-74419938D01*
X194172580Y-74419936D01*
X194172577Y-74419935D01*
X194155029Y-74410288D01*
X194138763Y-74399604D01*
X194122933Y-74387325D01*
X194080168Y-74368818D01*
X194074922Y-74366248D01*
X194034093Y-74343803D01*
X194034092Y-74343802D01*
X194014693Y-74338822D01*
X193996281Y-74332518D01*
X193977898Y-74324562D01*
X193977892Y-74324560D01*
X193931874Y-74317272D01*
X193926152Y-74316087D01*
X193881021Y-74304500D01*
X193881019Y-74304500D01*
X193860984Y-74304500D01*
X193841586Y-74302973D01*
X193834162Y-74301797D01*
X193821805Y-74299840D01*
X193821804Y-74299840D01*
X193775416Y-74304225D01*
X193769578Y-74304500D01*
X175204188Y-74304500D01*
X175137149Y-74284815D01*
X175102613Y-74251623D01*
X174990045Y-74090858D01*
X174829141Y-73929954D01*
X174642734Y-73799432D01*
X174642728Y-73799429D01*
X174584725Y-73772382D01*
X174532285Y-73726210D01*
X174513133Y-73659017D01*
X174533348Y-73592135D01*
X174584725Y-73547618D01*
X174642734Y-73520568D01*
X174829139Y-73390047D01*
X174990047Y-73229139D01*
X175102613Y-73068377D01*
X175157189Y-73024752D01*
X175204188Y-73015500D01*
X193999548Y-73015500D01*
X194066587Y-73035185D01*
X194087229Y-73051819D01*
X194825197Y-73789788D01*
X194835022Y-73802051D01*
X194835243Y-73801869D01*
X194840214Y-73807878D01*
X194866217Y-73832295D01*
X194890635Y-73855226D01*
X194911529Y-73876120D01*
X194917011Y-73880373D01*
X194921443Y-73884157D01*
X194955418Y-73916062D01*
X194972976Y-73925714D01*
X194989233Y-73936393D01*
X195005064Y-73948673D01*
X195024737Y-73957186D01*
X195047833Y-73967182D01*
X195053077Y-73969750D01*
X195093908Y-73992197D01*
X195106523Y-73995435D01*
X195113305Y-73997177D01*
X195131719Y-74003481D01*
X195150104Y-74011438D01*
X195196157Y-74018732D01*
X195201826Y-74019906D01*
X195246981Y-74031500D01*
X195267016Y-74031500D01*
X195286413Y-74033026D01*
X195306196Y-74036160D01*
X195352584Y-74031775D01*
X195358422Y-74031500D01*
X195717501Y-74031500D01*
X195784540Y-74051185D01*
X195830295Y-74103989D01*
X195841501Y-74155500D01*
X195841501Y-74215876D01*
X195847908Y-74275483D01*
X195898202Y-74410328D01*
X195898206Y-74410335D01*
X195984452Y-74525544D01*
X195984455Y-74525547D01*
X196099664Y-74611793D01*
X196099671Y-74611797D01*
X196234517Y-74662091D01*
X196234516Y-74662091D01*
X196241444Y-74662835D01*
X196294127Y-74668500D01*
X198929872Y-74668499D01*
X198989483Y-74662091D01*
X199124331Y-74611796D01*
X199239546Y-74525546D01*
X199325796Y-74410331D01*
X199376091Y-74275483D01*
X199382500Y-74215873D01*
X199382500Y-74155500D01*
X199402185Y-74088461D01*
X199454989Y-74042706D01*
X199506500Y-74031500D01*
X201305501Y-74031500D01*
X201372540Y-74051185D01*
X201418295Y-74103989D01*
X201429501Y-74155500D01*
X201429501Y-74215876D01*
X201435908Y-74275483D01*
X201486202Y-74410328D01*
X201486206Y-74410335D01*
X201572452Y-74525544D01*
X201572455Y-74525547D01*
X201687664Y-74611793D01*
X201687671Y-74611797D01*
X201822517Y-74662091D01*
X201822516Y-74662091D01*
X201829444Y-74662835D01*
X201882127Y-74668500D01*
X204517872Y-74668499D01*
X204577483Y-74662091D01*
X204712331Y-74611796D01*
X204827546Y-74525546D01*
X204913796Y-74410331D01*
X204964091Y-74275483D01*
X204970500Y-74215873D01*
X204970499Y-72596128D01*
X204964091Y-72536517D01*
X204913796Y-72401669D01*
X204913795Y-72401668D01*
X204913793Y-72401664D01*
X204827547Y-72286455D01*
X204827544Y-72286452D01*
X204712335Y-72200206D01*
X204712328Y-72200202D01*
X204577482Y-72149908D01*
X204577483Y-72149908D01*
X204517883Y-72143501D01*
X204517881Y-72143500D01*
X204517873Y-72143500D01*
X204517864Y-72143500D01*
X201882129Y-72143500D01*
X201882123Y-72143501D01*
X201822516Y-72149908D01*
X201687671Y-72200202D01*
X201687664Y-72200206D01*
X201572455Y-72286452D01*
X201572452Y-72286455D01*
X201486206Y-72401664D01*
X201486202Y-72401671D01*
X201435908Y-72536517D01*
X201429501Y-72596116D01*
X201429501Y-72596123D01*
X201429500Y-72596135D01*
X201429500Y-72656500D01*
X201409815Y-72723539D01*
X201357011Y-72769294D01*
X201305500Y-72780500D01*
X199506499Y-72780500D01*
X199439460Y-72760815D01*
X199393705Y-72708011D01*
X199382499Y-72656500D01*
X199382499Y-72596129D01*
X199382498Y-72596123D01*
X199382497Y-72596116D01*
X199376091Y-72536517D01*
X199325796Y-72401669D01*
X199325795Y-72401668D01*
X199325793Y-72401664D01*
X199239547Y-72286455D01*
X199239544Y-72286452D01*
X199124335Y-72200206D01*
X199124328Y-72200202D01*
X198989482Y-72149908D01*
X198989483Y-72149908D01*
X198929883Y-72143501D01*
X198929881Y-72143500D01*
X198929873Y-72143500D01*
X198929864Y-72143500D01*
X196294129Y-72143500D01*
X196294123Y-72143501D01*
X196234516Y-72149908D01*
X196099671Y-72200202D01*
X196099664Y-72200206D01*
X195984455Y-72286452D01*
X195984452Y-72286455D01*
X195898206Y-72401664D01*
X195898202Y-72401671D01*
X195847908Y-72536517D01*
X195841501Y-72596116D01*
X195841501Y-72596123D01*
X195841500Y-72596135D01*
X195841500Y-72656500D01*
X195821815Y-72723539D01*
X195769011Y-72769294D01*
X195717500Y-72780500D01*
X195636452Y-72780500D01*
X195569413Y-72760815D01*
X195548771Y-72744181D01*
X194810803Y-72006212D01*
X194800980Y-71993950D01*
X194800759Y-71994134D01*
X194795786Y-71988123D01*
X194745364Y-71940773D01*
X194734919Y-71930328D01*
X194724475Y-71919883D01*
X194718986Y-71915625D01*
X194714561Y-71911847D01*
X194680582Y-71879938D01*
X194680580Y-71879936D01*
X194680577Y-71879935D01*
X194663029Y-71870288D01*
X194646763Y-71859604D01*
X194630933Y-71847325D01*
X194588168Y-71828818D01*
X194582922Y-71826248D01*
X194542093Y-71803803D01*
X194542092Y-71803802D01*
X194522693Y-71798822D01*
X194504281Y-71792518D01*
X194485898Y-71784562D01*
X194485892Y-71784560D01*
X194439874Y-71777272D01*
X194434152Y-71776087D01*
X194389021Y-71764500D01*
X194389019Y-71764500D01*
X194368984Y-71764500D01*
X194349586Y-71762973D01*
X194342162Y-71761797D01*
X194329805Y-71759840D01*
X194329804Y-71759840D01*
X194283416Y-71764225D01*
X194277578Y-71764500D01*
X175204188Y-71764500D01*
X175137149Y-71744815D01*
X175102613Y-71711623D01*
X174990045Y-71550858D01*
X174829141Y-71389954D01*
X174642734Y-71259432D01*
X174642732Y-71259431D01*
X174436497Y-71163261D01*
X174436488Y-71163258D01*
X174216697Y-71104366D01*
X174216693Y-71104365D01*
X174216692Y-71104365D01*
X174216691Y-71104364D01*
X174216686Y-71104364D01*
X173990002Y-71084532D01*
X173989998Y-71084532D01*
X173763313Y-71104364D01*
X173763302Y-71104366D01*
X173543511Y-71163258D01*
X173543502Y-71163261D01*
X173337267Y-71259431D01*
X173337265Y-71259432D01*
X173150858Y-71389954D01*
X172989954Y-71550858D01*
X172859432Y-71737265D01*
X172859431Y-71737267D01*
X172763261Y-71943502D01*
X172763258Y-71943511D01*
X172704366Y-72163302D01*
X172704364Y-72163313D01*
X172684532Y-72389998D01*
X172684532Y-72390001D01*
X172704364Y-72616686D01*
X172704366Y-72616697D01*
X172763258Y-72836488D01*
X172763261Y-72836497D01*
X172859431Y-73042732D01*
X172859432Y-73042734D01*
X172989954Y-73229141D01*
X173150858Y-73390045D01*
X173150861Y-73390047D01*
X173337266Y-73520568D01*
X173395275Y-73547618D01*
X173447714Y-73593791D01*
X173466866Y-73660984D01*
X173446650Y-73727865D01*
X173395275Y-73772382D01*
X173337267Y-73799431D01*
X173337265Y-73799432D01*
X173150858Y-73929954D01*
X172989954Y-74090858D01*
X172859432Y-74277265D01*
X172859431Y-74277267D01*
X172763261Y-74483502D01*
X172763258Y-74483511D01*
X172704366Y-74703302D01*
X172704364Y-74703313D01*
X172684532Y-74929998D01*
X172684532Y-74930001D01*
X172704364Y-75156686D01*
X172704366Y-75156697D01*
X172763258Y-75376488D01*
X172763261Y-75376497D01*
X172859431Y-75582732D01*
X172859432Y-75582734D01*
X172989954Y-75769141D01*
X173150858Y-75930045D01*
X173150861Y-75930047D01*
X173337266Y-76060568D01*
X173395275Y-76087618D01*
X173447714Y-76133791D01*
X173466866Y-76200984D01*
X173446650Y-76267865D01*
X173395275Y-76312382D01*
X173337267Y-76339431D01*
X173337265Y-76339432D01*
X173150858Y-76469954D01*
X172989954Y-76630858D01*
X172859432Y-76817265D01*
X172859431Y-76817267D01*
X172763261Y-77023502D01*
X172763258Y-77023511D01*
X172704366Y-77243302D01*
X172704364Y-77243313D01*
X172684532Y-77469998D01*
X172684532Y-77470001D01*
X172704364Y-77696686D01*
X172704366Y-77696697D01*
X172763258Y-77916488D01*
X172763261Y-77916497D01*
X172859431Y-78122732D01*
X172859432Y-78122734D01*
X172989954Y-78309141D01*
X173150858Y-78470045D01*
X173150861Y-78470047D01*
X173337266Y-78600568D01*
X173395275Y-78627618D01*
X173447714Y-78673791D01*
X173466866Y-78740984D01*
X173446650Y-78807865D01*
X173395275Y-78852382D01*
X173337267Y-78879431D01*
X173337265Y-78879432D01*
X173150858Y-79009954D01*
X172989954Y-79170858D01*
X172859432Y-79357265D01*
X172859431Y-79357267D01*
X172763261Y-79563502D01*
X172763258Y-79563511D01*
X172704366Y-79783302D01*
X172704364Y-79783313D01*
X172684532Y-80009998D01*
X172684532Y-80010001D01*
X172704364Y-80236686D01*
X172704366Y-80236697D01*
X172763258Y-80456488D01*
X172763261Y-80456497D01*
X172859431Y-80662732D01*
X172859432Y-80662734D01*
X172989954Y-80849141D01*
X173150858Y-81010045D01*
X173150861Y-81010047D01*
X173337266Y-81140568D01*
X173395275Y-81167618D01*
X173447714Y-81213791D01*
X173466866Y-81280984D01*
X173446650Y-81347865D01*
X173395275Y-81392382D01*
X173337267Y-81419431D01*
X173337265Y-81419432D01*
X173150858Y-81549954D01*
X172989954Y-81710858D01*
X172859432Y-81897265D01*
X172859431Y-81897267D01*
X172763261Y-82103502D01*
X172763258Y-82103511D01*
X172704366Y-82323302D01*
X172704364Y-82323313D01*
X172684532Y-82549998D01*
X172684532Y-82550001D01*
X172704364Y-82776686D01*
X172704366Y-82776697D01*
X172763258Y-82996488D01*
X172763261Y-82996497D01*
X172859431Y-83202732D01*
X172859432Y-83202734D01*
X172989954Y-83389141D01*
X173150858Y-83550045D01*
X173150861Y-83550047D01*
X173337266Y-83680568D01*
X173395275Y-83707618D01*
X173447714Y-83753791D01*
X173466866Y-83820984D01*
X173446650Y-83887865D01*
X173395275Y-83932381D01*
X173388942Y-83935335D01*
X173337267Y-83959431D01*
X173337265Y-83959432D01*
X173150858Y-84089954D01*
X172989954Y-84250858D01*
X172859432Y-84437265D01*
X172859431Y-84437267D01*
X172763261Y-84643502D01*
X172763258Y-84643511D01*
X172704366Y-84863302D01*
X172704364Y-84863313D01*
X172684532Y-85089998D01*
X172684532Y-85090001D01*
X172704364Y-85316686D01*
X172704366Y-85316697D01*
X172763258Y-85536488D01*
X172763261Y-85536497D01*
X172859431Y-85742732D01*
X172859432Y-85742734D01*
X172989954Y-85929141D01*
X173150858Y-86090045D01*
X173150861Y-86090047D01*
X173337266Y-86220568D01*
X173395275Y-86247618D01*
X173447714Y-86293791D01*
X173466866Y-86360984D01*
X173446650Y-86427865D01*
X173395275Y-86472382D01*
X173337267Y-86499431D01*
X173337265Y-86499432D01*
X173150858Y-86629954D01*
X172989954Y-86790858D01*
X172859432Y-86977265D01*
X172859431Y-86977267D01*
X172763261Y-87183502D01*
X172763258Y-87183511D01*
X172704366Y-87403302D01*
X172704364Y-87403313D01*
X172684532Y-87629998D01*
X172684532Y-87630001D01*
X172704364Y-87856686D01*
X172704366Y-87856697D01*
X172763258Y-88076488D01*
X172763261Y-88076497D01*
X172859431Y-88282732D01*
X172859432Y-88282734D01*
X172989954Y-88469141D01*
X173150858Y-88630045D01*
X173150861Y-88630047D01*
X173337266Y-88760568D01*
X173385005Y-88782829D01*
X173395275Y-88787618D01*
X173447714Y-88833791D01*
X173466866Y-88900984D01*
X173446650Y-88967865D01*
X173395275Y-89012382D01*
X173337267Y-89039431D01*
X173337265Y-89039432D01*
X173150858Y-89169954D01*
X172989954Y-89330858D01*
X172859432Y-89517265D01*
X172859431Y-89517267D01*
X172763261Y-89723502D01*
X172763258Y-89723511D01*
X172704366Y-89943302D01*
X172704364Y-89943313D01*
X172684532Y-90169998D01*
X172684532Y-90170001D01*
X172704364Y-90396686D01*
X172704366Y-90396697D01*
X172763258Y-90616488D01*
X172763261Y-90616497D01*
X172859431Y-90822732D01*
X172859432Y-90822734D01*
X172989954Y-91009141D01*
X173150858Y-91170045D01*
X173150861Y-91170047D01*
X173337266Y-91300568D01*
X173395275Y-91327618D01*
X173447714Y-91373791D01*
X173466866Y-91440984D01*
X173446650Y-91507865D01*
X173395275Y-91552382D01*
X173337267Y-91579431D01*
X173337265Y-91579432D01*
X173150858Y-91709954D01*
X172989954Y-91870858D01*
X172859432Y-92057265D01*
X172859431Y-92057267D01*
X172763261Y-92263502D01*
X172763258Y-92263511D01*
X172704366Y-92483302D01*
X172704364Y-92483313D01*
X172684532Y-92709998D01*
X172684532Y-92710001D01*
X172704364Y-92936686D01*
X172704366Y-92936697D01*
X172763258Y-93156488D01*
X172763261Y-93156497D01*
X172859431Y-93362732D01*
X172859432Y-93362734D01*
X172989954Y-93549141D01*
X173150858Y-93710045D01*
X173150861Y-93710047D01*
X173337266Y-93840568D01*
X173395275Y-93867618D01*
X173447714Y-93913791D01*
X173466866Y-93980984D01*
X173446650Y-94047865D01*
X173395275Y-94092382D01*
X173337267Y-94119431D01*
X173337265Y-94119432D01*
X173150858Y-94249954D01*
X172989954Y-94410858D01*
X172964912Y-94446623D01*
X172910335Y-94490248D01*
X172863337Y-94499500D01*
X172828230Y-94499500D01*
X172761191Y-94479815D01*
X172740549Y-94463181D01*
X171982819Y-93705451D01*
X171949334Y-93644128D01*
X171946500Y-93617770D01*
X171946500Y-71736229D01*
X171966185Y-71669190D01*
X171982819Y-71648548D01*
X174264548Y-69366819D01*
X174325871Y-69333334D01*
X174352229Y-69330500D01*
X180249501Y-69330500D01*
X180316540Y-69350185D01*
X180362295Y-69402989D01*
X180373501Y-69454500D01*
X180373501Y-69627876D01*
X180379908Y-69687483D01*
X180430202Y-69822328D01*
X180430206Y-69822335D01*
X180516452Y-69937544D01*
X180516455Y-69937547D01*
X180631664Y-70023793D01*
X180631671Y-70023797D01*
X180766517Y-70074091D01*
X180766516Y-70074091D01*
X180773444Y-70074835D01*
X180826127Y-70080500D01*
X182921872Y-70080499D01*
X182981483Y-70074091D01*
X183116331Y-70023796D01*
X183231546Y-69937546D01*
X183317796Y-69822331D01*
X183368091Y-69687483D01*
X183374500Y-69627873D01*
X183374500Y-68580005D01*
X187968859Y-68580005D01*
X187989385Y-68827729D01*
X187989387Y-68827738D01*
X188050412Y-69068717D01*
X188150266Y-69296364D01*
X188250564Y-69449882D01*
X188990923Y-68709523D01*
X189014507Y-68789844D01*
X189092239Y-68910798D01*
X189200900Y-69004952D01*
X189331685Y-69064680D01*
X189341466Y-69066086D01*
X188603942Y-69803609D01*
X188650768Y-69840055D01*
X188650770Y-69840056D01*
X188869385Y-69958364D01*
X188869396Y-69958369D01*
X189104506Y-70039083D01*
X189349707Y-70080000D01*
X189598293Y-70080000D01*
X189843493Y-70039083D01*
X190078603Y-69958369D01*
X190078614Y-69958364D01*
X190297228Y-69840057D01*
X190297231Y-69840055D01*
X190344056Y-69803609D01*
X189606533Y-69066086D01*
X189616315Y-69064680D01*
X189747100Y-69004952D01*
X189855761Y-68910798D01*
X189933493Y-68789844D01*
X189957076Y-68709524D01*
X190697434Y-69449882D01*
X190797731Y-69296369D01*
X190897587Y-69068717D01*
X190958612Y-68827738D01*
X190958614Y-68827729D01*
X190979141Y-68580005D01*
X190979141Y-68579994D01*
X190958614Y-68332270D01*
X190958612Y-68332261D01*
X190897587Y-68091282D01*
X190797731Y-67863630D01*
X190697434Y-67710116D01*
X189957076Y-68450475D01*
X189933493Y-68370156D01*
X189855761Y-68249202D01*
X189747100Y-68155048D01*
X189616315Y-68095320D01*
X189606534Y-68093913D01*
X190344057Y-67356390D01*
X190344056Y-67356389D01*
X190297229Y-67319943D01*
X190078614Y-67201635D01*
X190078603Y-67201630D01*
X189843493Y-67120916D01*
X189598293Y-67080000D01*
X189349707Y-67080000D01*
X189104506Y-67120916D01*
X188869396Y-67201630D01*
X188869390Y-67201632D01*
X188650761Y-67319949D01*
X188603942Y-67356388D01*
X188603942Y-67356390D01*
X189341466Y-68093913D01*
X189331685Y-68095320D01*
X189200900Y-68155048D01*
X189092239Y-68249202D01*
X189014507Y-68370156D01*
X188990923Y-68450475D01*
X188250564Y-67710116D01*
X188150267Y-67863632D01*
X188050412Y-68091282D01*
X187989387Y-68332261D01*
X187989385Y-68332270D01*
X187968859Y-68579994D01*
X187968859Y-68580005D01*
X183374500Y-68580005D01*
X183374499Y-67532128D01*
X183368091Y-67472517D01*
X183324778Y-67356390D01*
X183317797Y-67337671D01*
X183317793Y-67337664D01*
X183231547Y-67222455D01*
X183231544Y-67222452D01*
X183116335Y-67136206D01*
X183116328Y-67136202D01*
X182981482Y-67085908D01*
X182981483Y-67085908D01*
X182921883Y-67079501D01*
X182921881Y-67079500D01*
X182921873Y-67079500D01*
X182921864Y-67079500D01*
X180826129Y-67079500D01*
X180826123Y-67079501D01*
X180766516Y-67085908D01*
X180631671Y-67136202D01*
X180631664Y-67136206D01*
X180516455Y-67222452D01*
X180516452Y-67222455D01*
X180430206Y-67337664D01*
X180430202Y-67337671D01*
X180379908Y-67472517D01*
X180373501Y-67532116D01*
X180373501Y-67532123D01*
X180373500Y-67532135D01*
X180373500Y-67705500D01*
X180353815Y-67772539D01*
X180301011Y-67818294D01*
X180249500Y-67829500D01*
X174053705Y-67829500D01*
X174035735Y-67828191D01*
X174011972Y-67824710D01*
X173966533Y-67828686D01*
X173959931Y-67829264D01*
X173954530Y-67829500D01*
X173946289Y-67829500D01*
X173924579Y-67832037D01*
X173913724Y-67833306D01*
X173898419Y-67834645D01*
X173837199Y-67840001D01*
X173830132Y-67841460D01*
X173830120Y-67841404D01*
X173822763Y-67843035D01*
X173822777Y-67843092D01*
X173815743Y-67844759D01*
X173743575Y-67871025D01*
X173670675Y-67895181D01*
X173664126Y-67898236D01*
X173664101Y-67898183D01*
X173657308Y-67901471D01*
X173657334Y-67901523D01*
X173650880Y-67904764D01*
X173586708Y-67946971D01*
X173521347Y-67987285D01*
X173515683Y-67991765D01*
X173515647Y-67991719D01*
X173509798Y-67996484D01*
X173509835Y-67996528D01*
X173504310Y-68001164D01*
X173451597Y-68057035D01*
X170710358Y-70798272D01*
X170696729Y-70810051D01*
X170677468Y-70824390D01*
X170643898Y-70864397D01*
X170640253Y-70868376D01*
X170634409Y-70874222D01*
X170614059Y-70899959D01*
X170564695Y-70958789D01*
X170560729Y-70964819D01*
X170560682Y-70964788D01*
X170556630Y-70971147D01*
X170556679Y-70971177D01*
X170552889Y-70977321D01*
X170520424Y-71046941D01*
X170485960Y-71115566D01*
X170483488Y-71122357D01*
X170483432Y-71122336D01*
X170480960Y-71129450D01*
X170481015Y-71129469D01*
X170478742Y-71136327D01*
X170473182Y-71163258D01*
X170463207Y-71211565D01*
X170451863Y-71259431D01*
X170445498Y-71286286D01*
X170444661Y-71293454D01*
X170444601Y-71293447D01*
X170443835Y-71300945D01*
X170443895Y-71300951D01*
X170443265Y-71308140D01*
X170445500Y-71384916D01*
X170445500Y-93916294D01*
X170444191Y-93934263D01*
X170440710Y-93958025D01*
X170445264Y-94010064D01*
X170445500Y-94015470D01*
X170445500Y-94023709D01*
X170449306Y-94056274D01*
X170456000Y-94132791D01*
X170457461Y-94139867D01*
X170457403Y-94139878D01*
X170459034Y-94147237D01*
X170459092Y-94147224D01*
X170460757Y-94154250D01*
X170487025Y-94226424D01*
X170511185Y-94299331D01*
X170514236Y-94305874D01*
X170514182Y-94305898D01*
X170517470Y-94312688D01*
X170517521Y-94312663D01*
X170520761Y-94319113D01*
X170520762Y-94319114D01*
X170520763Y-94319117D01*
X170540538Y-94349184D01*
X170562965Y-94383283D01*
X170603287Y-94448655D01*
X170607766Y-94454319D01*
X170607719Y-94454356D01*
X170612482Y-94460202D01*
X170612528Y-94460164D01*
X170617173Y-94465700D01*
X170673018Y-94518386D01*
X171890267Y-95735634D01*
X171902048Y-95749266D01*
X171916390Y-95768530D01*
X171956420Y-95802119D01*
X171960392Y-95805759D01*
X171966223Y-95811590D01*
X171966222Y-95811590D01*
X171985773Y-95827048D01*
X171991944Y-95831927D01*
X172050786Y-95881302D01*
X172050794Y-95881306D01*
X172056824Y-95885273D01*
X172056790Y-95885323D01*
X172063137Y-95889366D01*
X172063169Y-95889316D01*
X172069318Y-95893108D01*
X172069320Y-95893109D01*
X172069323Y-95893111D01*
X172138930Y-95925569D01*
X172207567Y-95960040D01*
X172207576Y-95960042D01*
X172214355Y-95962510D01*
X172214334Y-95962567D01*
X172221451Y-95965040D01*
X172221470Y-95964984D01*
X172228330Y-95967257D01*
X172303532Y-95982784D01*
X172378279Y-96000500D01*
X172378288Y-96000500D01*
X172385452Y-96001338D01*
X172385445Y-96001397D01*
X172392946Y-96002163D01*
X172392952Y-96002104D01*
X172400140Y-96002733D01*
X172400143Y-96002732D01*
X172400144Y-96002733D01*
X172476898Y-96000500D01*
X172863337Y-96000500D01*
X172930376Y-96020185D01*
X172964912Y-96053377D01*
X172989954Y-96089141D01*
X173150858Y-96250045D01*
X173150861Y-96250047D01*
X173337266Y-96380568D01*
X173395275Y-96407618D01*
X173447714Y-96453791D01*
X173466866Y-96520984D01*
X173446650Y-96587865D01*
X173395275Y-96632381D01*
X173388942Y-96635335D01*
X173337267Y-96659431D01*
X173337265Y-96659432D01*
X173150858Y-96789954D01*
X172989954Y-96950858D01*
X172859432Y-97137265D01*
X172859431Y-97137267D01*
X172763261Y-97343502D01*
X172763258Y-97343511D01*
X172704366Y-97563302D01*
X172704364Y-97563313D01*
X172684532Y-97789998D01*
X172684532Y-97790001D01*
X172704364Y-98016686D01*
X172704366Y-98016697D01*
X172763258Y-98236488D01*
X172763261Y-98236497D01*
X172859431Y-98442732D01*
X172859432Y-98442734D01*
X172989954Y-98629141D01*
X173150858Y-98790045D01*
X173150861Y-98790047D01*
X173337266Y-98920568D01*
X173395865Y-98947893D01*
X173448305Y-98994065D01*
X173467457Y-99061258D01*
X173447242Y-99128139D01*
X173395867Y-99172657D01*
X173337515Y-99199867D01*
X173151179Y-99330342D01*
X172990342Y-99491179D01*
X172859865Y-99677517D01*
X172763734Y-99883673D01*
X172763730Y-99883682D01*
X172711127Y-100079999D01*
X172711128Y-100080000D01*
X173556314Y-100080000D01*
X173530507Y-100120156D01*
X173490000Y-100258111D01*
X173490000Y-100401889D01*
X173530507Y-100539844D01*
X173556314Y-100580000D01*
X172711128Y-100580000D01*
X172763730Y-100776317D01*
X172763734Y-100776326D01*
X172859865Y-100982482D01*
X172990342Y-101168820D01*
X173151179Y-101329657D01*
X173337518Y-101460134D01*
X173337520Y-101460135D01*
X173395865Y-101487342D01*
X173448305Y-101533514D01*
X173467457Y-101600707D01*
X173447242Y-101667589D01*
X173395867Y-101712105D01*
X173395275Y-101712382D01*
X173337264Y-101739433D01*
X173150858Y-101869954D01*
X172989954Y-102030858D01*
X172859432Y-102217265D01*
X172859431Y-102217267D01*
X172763261Y-102423502D01*
X172763258Y-102423511D01*
X172704366Y-102643302D01*
X172704364Y-102643313D01*
X172684532Y-102869998D01*
X172684532Y-102870001D01*
X172704364Y-103096686D01*
X172704366Y-103096697D01*
X172763258Y-103316488D01*
X172763261Y-103316497D01*
X172859431Y-103522732D01*
X172859432Y-103522734D01*
X172989954Y-103709141D01*
X173150858Y-103870045D01*
X173150861Y-103870047D01*
X173337266Y-104000568D01*
X173395275Y-104027618D01*
X173447714Y-104073791D01*
X173466866Y-104140984D01*
X173446650Y-104207865D01*
X173395275Y-104252381D01*
X173386950Y-104256264D01*
X173337267Y-104279431D01*
X173337265Y-104279432D01*
X173150858Y-104409954D01*
X172989954Y-104570858D01*
X172859432Y-104757265D01*
X172859431Y-104757267D01*
X172763261Y-104963502D01*
X172763258Y-104963511D01*
X172704366Y-105183302D01*
X172704364Y-105183313D01*
X172684532Y-105409998D01*
X172684532Y-105410001D01*
X172704364Y-105636686D01*
X172704366Y-105636697D01*
X172763258Y-105856488D01*
X172763261Y-105856497D01*
X172859431Y-106062732D01*
X172859432Y-106062734D01*
X172989954Y-106249141D01*
X173150858Y-106410045D01*
X173175462Y-106427273D01*
X173219087Y-106481849D01*
X173226281Y-106551348D01*
X173194758Y-106613703D01*
X173134529Y-106649117D01*
X173117593Y-106652138D01*
X173082516Y-106655908D01*
X172947671Y-106706202D01*
X172947664Y-106706206D01*
X172832455Y-106792452D01*
X172832452Y-106792455D01*
X172746206Y-106907664D01*
X172746202Y-106907671D01*
X172695908Y-107042517D01*
X172689501Y-107102116D01*
X172689501Y-107102123D01*
X172689500Y-107102135D01*
X172689500Y-108797870D01*
X172689501Y-108797876D01*
X172695908Y-108857483D01*
X172746202Y-108992328D01*
X172746206Y-108992335D01*
X172832452Y-109107544D01*
X172832455Y-109107547D01*
X172947664Y-109193793D01*
X172947671Y-109193797D01*
X173082517Y-109244091D01*
X173082516Y-109244091D01*
X173089444Y-109244835D01*
X173142127Y-109250500D01*
X174837872Y-109250499D01*
X174897483Y-109244091D01*
X175032331Y-109193796D01*
X175147546Y-109107546D01*
X175233796Y-108992331D01*
X175284091Y-108857483D01*
X175290500Y-108797873D01*
X175290499Y-107102128D01*
X175284091Y-107042517D01*
X175249567Y-106949954D01*
X175233797Y-106907671D01*
X175233793Y-106907664D01*
X175147547Y-106792455D01*
X175147544Y-106792452D01*
X175032335Y-106706206D01*
X175032328Y-106706202D01*
X174897482Y-106655908D01*
X174897483Y-106655908D01*
X174862404Y-106652137D01*
X174797853Y-106625399D01*
X174758005Y-106568006D01*
X174755512Y-106498181D01*
X174791165Y-106438092D01*
X174804539Y-106427272D01*
X174829140Y-106410046D01*
X174990045Y-106249141D01*
X174990047Y-106249139D01*
X175120568Y-106062734D01*
X175216739Y-105856496D01*
X175275635Y-105636692D01*
X175295468Y-105410000D01*
X175293369Y-105386013D01*
X175287713Y-105321365D01*
X175275635Y-105183308D01*
X175216739Y-104963504D01*
X175120568Y-104757266D01*
X174990047Y-104570861D01*
X174990045Y-104570858D01*
X174829141Y-104409954D01*
X174642734Y-104279432D01*
X174642728Y-104279429D01*
X174593050Y-104256264D01*
X174584724Y-104252381D01*
X174532285Y-104206210D01*
X174513133Y-104139017D01*
X174533348Y-104072135D01*
X174584725Y-104027618D01*
X174642734Y-104000568D01*
X174829139Y-103870047D01*
X174990047Y-103709139D01*
X175120568Y-103522734D01*
X175216739Y-103316496D01*
X175275635Y-103096692D01*
X175293812Y-102888924D01*
X175295468Y-102870001D01*
X175295468Y-102869998D01*
X175285399Y-102754909D01*
X175275635Y-102643308D01*
X175216739Y-102423504D01*
X175120568Y-102217266D01*
X174990047Y-102030861D01*
X174990045Y-102030858D01*
X174829141Y-101869954D01*
X174642734Y-101739432D01*
X174642732Y-101739431D01*
X174584725Y-101712382D01*
X174584132Y-101712105D01*
X174531694Y-101665934D01*
X174512542Y-101598740D01*
X174532758Y-101531859D01*
X174584134Y-101487341D01*
X174642484Y-101460132D01*
X174828820Y-101329657D01*
X174989657Y-101168820D01*
X175120134Y-100982482D01*
X175216265Y-100776326D01*
X175216269Y-100776317D01*
X175268872Y-100580000D01*
X174423686Y-100580000D01*
X174449493Y-100539844D01*
X174490000Y-100401889D01*
X174490000Y-100258111D01*
X174449493Y-100120156D01*
X174423686Y-100080000D01*
X175268872Y-100080000D01*
X175268872Y-100079999D01*
X175216269Y-99883682D01*
X175216265Y-99883673D01*
X175120134Y-99677517D01*
X174989657Y-99491179D01*
X174828820Y-99330342D01*
X174642482Y-99199865D01*
X174584133Y-99172657D01*
X174531694Y-99126484D01*
X174512542Y-99059291D01*
X174532758Y-98992410D01*
X174584129Y-98947895D01*
X174642734Y-98920568D01*
X174829139Y-98790047D01*
X174990047Y-98629139D01*
X175120568Y-98442734D01*
X175216739Y-98236496D01*
X175275635Y-98016692D01*
X175295468Y-97790000D01*
X175275635Y-97563308D01*
X175216739Y-97343504D01*
X175120568Y-97137266D01*
X174990047Y-96950861D01*
X174990045Y-96950858D01*
X174829141Y-96789954D01*
X174642734Y-96659432D01*
X174642728Y-96659429D01*
X174591058Y-96635335D01*
X174584724Y-96632381D01*
X174532285Y-96586210D01*
X174513133Y-96519017D01*
X174533348Y-96452135D01*
X174584725Y-96407618D01*
X174642734Y-96380568D01*
X174829139Y-96250047D01*
X174990047Y-96089139D01*
X175120568Y-95902734D01*
X175216739Y-95696496D01*
X175275635Y-95476692D01*
X175295468Y-95250000D01*
X175294167Y-95235134D01*
X175286967Y-95152830D01*
X175275635Y-95023308D01*
X175216739Y-94803504D01*
X175120568Y-94597266D01*
X174990047Y-94410861D01*
X174990045Y-94410858D01*
X174829141Y-94249954D01*
X174642734Y-94119432D01*
X174642728Y-94119429D01*
X174584725Y-94092382D01*
X174532285Y-94046210D01*
X174513133Y-93979017D01*
X174533348Y-93912135D01*
X174584725Y-93867618D01*
X174642734Y-93840568D01*
X174829139Y-93710047D01*
X174990047Y-93549139D01*
X175082110Y-93417658D01*
X175102613Y-93388377D01*
X175157189Y-93344752D01*
X175204188Y-93335500D01*
X180473520Y-93335500D01*
X180540559Y-93355185D01*
X180586314Y-93407989D01*
X180596258Y-93477147D01*
X180580907Y-93521500D01*
X180528821Y-93611715D01*
X180528818Y-93611722D01*
X180479241Y-93764306D01*
X180470326Y-93791744D01*
X180450540Y-93980000D01*
X180470326Y-94168256D01*
X180470327Y-94168259D01*
X180528818Y-94348277D01*
X180528821Y-94348284D01*
X180623467Y-94512216D01*
X180633806Y-94523699D01*
X180641307Y-94532030D01*
X180671535Y-94595022D01*
X180662909Y-94664357D01*
X180641307Y-94697970D01*
X180623466Y-94717785D01*
X180528821Y-94881715D01*
X180528818Y-94881722D01*
X180475830Y-95044803D01*
X180470326Y-95061744D01*
X180450540Y-95250000D01*
X180470326Y-95438256D01*
X180470327Y-95438259D01*
X180528818Y-95618277D01*
X180528821Y-95618284D01*
X180623467Y-95782216D01*
X180731982Y-95902734D01*
X180750129Y-95922888D01*
X180903265Y-96034148D01*
X180903270Y-96034151D01*
X181076192Y-96111142D01*
X181076197Y-96111144D01*
X181261354Y-96150500D01*
X181261355Y-96150500D01*
X181450644Y-96150500D01*
X181450646Y-96150500D01*
X181635803Y-96111144D01*
X181808730Y-96034151D01*
X181961871Y-95922888D01*
X181964788Y-95919647D01*
X181967600Y-95916526D01*
X182027087Y-95879879D01*
X182059748Y-95875500D01*
X182744308Y-95875500D01*
X182811347Y-95895185D01*
X182857102Y-95947989D01*
X182867046Y-96017147D01*
X182851041Y-96062620D01*
X182823254Y-96109605D01*
X182823254Y-96109606D01*
X182777402Y-96267426D01*
X182777401Y-96267432D01*
X182774500Y-96304304D01*
X182774500Y-96735696D01*
X182777401Y-96772567D01*
X182777402Y-96772573D01*
X182823254Y-96930393D01*
X182823255Y-96930396D01*
X182906917Y-97071862D01*
X182906923Y-97071870D01*
X183023129Y-97188076D01*
X183023133Y-97188079D01*
X183023135Y-97188081D01*
X183164602Y-97271744D01*
X183185095Y-97277697D01*
X183243980Y-97315304D01*
X183273187Y-97378776D01*
X183274500Y-97396774D01*
X183274500Y-106011994D01*
X183254815Y-106079033D01*
X183238181Y-106099675D01*
X177727675Y-111610181D01*
X177666352Y-111643666D01*
X177639994Y-111646500D01*
X171356006Y-111646500D01*
X171288967Y-111626815D01*
X171268325Y-111610181D01*
X162201819Y-102543675D01*
X162168334Y-102482352D01*
X162165500Y-102455994D01*
X162165500Y-80048098D01*
X162165705Y-80043063D01*
X162167205Y-80024630D01*
X162170339Y-79986152D01*
X162159085Y-79903556D01*
X162150073Y-79820684D01*
X162150015Y-79820512D01*
X162144655Y-79797641D01*
X162144631Y-79797462D01*
X162115883Y-79719213D01*
X162089267Y-79640220D01*
X162089168Y-79640055D01*
X162079022Y-79618879D01*
X162078961Y-79618715D01*
X162078960Y-79618712D01*
X162034068Y-79548478D01*
X162004863Y-79499938D01*
X161991090Y-79477047D01*
X161990957Y-79476907D01*
X161976504Y-79458419D01*
X161976400Y-79458256D01*
X161917447Y-79399303D01*
X161860129Y-79338793D01*
X161859970Y-79338685D01*
X161841877Y-79323733D01*
X160090938Y-77572794D01*
X160057453Y-77511471D01*
X160055091Y-77474304D01*
X160055468Y-77470000D01*
X160035635Y-77243308D01*
X159976739Y-77023504D01*
X159880568Y-76817266D01*
X159750047Y-76630861D01*
X159750045Y-76630858D01*
X159589141Y-76469954D01*
X159402734Y-76339432D01*
X159402728Y-76339429D01*
X159344725Y-76312382D01*
X159292285Y-76266210D01*
X159273133Y-76199017D01*
X159293348Y-76132135D01*
X159344725Y-76087618D01*
X159402734Y-76060568D01*
X159589139Y-75930047D01*
X159750047Y-75769139D01*
X159880568Y-75582734D01*
X159976739Y-75376496D01*
X160035635Y-75156692D01*
X160055468Y-74930000D01*
X160035635Y-74703308D01*
X159976739Y-74483504D01*
X159880568Y-74277266D01*
X159750047Y-74090861D01*
X159750045Y-74090858D01*
X159589141Y-73929954D01*
X159402734Y-73799432D01*
X159402728Y-73799429D01*
X159344725Y-73772382D01*
X159292285Y-73726210D01*
X159273133Y-73659017D01*
X159293348Y-73592135D01*
X159344725Y-73547618D01*
X159402734Y-73520568D01*
X159589139Y-73390047D01*
X159750047Y-73229139D01*
X159880568Y-73042734D01*
X159976739Y-72836496D01*
X160035635Y-72616692D01*
X160055468Y-72390000D01*
X160035635Y-72163308D01*
X159976739Y-71943504D01*
X159880568Y-71737266D01*
X159750047Y-71550861D01*
X159750045Y-71550858D01*
X159589141Y-71389954D01*
X159402734Y-71259432D01*
X159402732Y-71259431D01*
X159196497Y-71163261D01*
X159196488Y-71163258D01*
X158976697Y-71104366D01*
X158976693Y-71104365D01*
X158976692Y-71104365D01*
X158976691Y-71104364D01*
X158976686Y-71104364D01*
X158750002Y-71084532D01*
X158749998Y-71084532D01*
X158523313Y-71104364D01*
X158523302Y-71104366D01*
X158303511Y-71163258D01*
X158303502Y-71163261D01*
X158097267Y-71259431D01*
X158097265Y-71259432D01*
X157910858Y-71389954D01*
X157749954Y-71550858D01*
X157619432Y-71737265D01*
X157619431Y-71737267D01*
X157523261Y-71943502D01*
X157523258Y-71943511D01*
X157464366Y-72163302D01*
X157464364Y-72163313D01*
X157444532Y-72389998D01*
X157444532Y-72390001D01*
X157464364Y-72616686D01*
X157464366Y-72616697D01*
X157523258Y-72836488D01*
X157523261Y-72836497D01*
X157619431Y-73042732D01*
X157619432Y-73042734D01*
X157749954Y-73229141D01*
X157910858Y-73390045D01*
X157910861Y-73390047D01*
X158097266Y-73520568D01*
X158155275Y-73547618D01*
X158207714Y-73593791D01*
X158226866Y-73660984D01*
X158206650Y-73727865D01*
X158155275Y-73772382D01*
X158097267Y-73799431D01*
X158097265Y-73799432D01*
X157910858Y-73929954D01*
X157749954Y-74090858D01*
X157619432Y-74277265D01*
X157619431Y-74277267D01*
X157523261Y-74483502D01*
X157523258Y-74483511D01*
X157464366Y-74703302D01*
X157464364Y-74703313D01*
X157444532Y-74929998D01*
X157444532Y-74930001D01*
X157464364Y-75156686D01*
X157464366Y-75156697D01*
X157523258Y-75376488D01*
X157523261Y-75376497D01*
X157619431Y-75582732D01*
X157619432Y-75582734D01*
X157749954Y-75769141D01*
X157910858Y-75930045D01*
X157910861Y-75930047D01*
X158097266Y-76060568D01*
X158155275Y-76087618D01*
X158207714Y-76133791D01*
X158226866Y-76200984D01*
X158206650Y-76267865D01*
X158155275Y-76312382D01*
X158097267Y-76339431D01*
X158097265Y-76339432D01*
X157910858Y-76469954D01*
X157749954Y-76630858D01*
X157619432Y-76817265D01*
X157619431Y-76817267D01*
X157523261Y-77023502D01*
X157523258Y-77023511D01*
X157464366Y-77243302D01*
X157464364Y-77243313D01*
X157444532Y-77469998D01*
X157444532Y-77470001D01*
X157464364Y-77696686D01*
X157464366Y-77696697D01*
X157523258Y-77916488D01*
X157523261Y-77916497D01*
X157619431Y-78122732D01*
X157619432Y-78122734D01*
X157749954Y-78309141D01*
X157910858Y-78470045D01*
X157910861Y-78470047D01*
X158097266Y-78600568D01*
X158155275Y-78627618D01*
X158207714Y-78673791D01*
X158226866Y-78740984D01*
X158206650Y-78807865D01*
X158155275Y-78852382D01*
X158097267Y-78879431D01*
X158097265Y-78879432D01*
X157910858Y-79009954D01*
X157749954Y-79170858D01*
X157619432Y-79357265D01*
X157619431Y-79357267D01*
X157523261Y-79563502D01*
X157523258Y-79563511D01*
X157464366Y-79783302D01*
X157464364Y-79783313D01*
X157444532Y-80009998D01*
X157444532Y-80010001D01*
X157464364Y-80236686D01*
X157464366Y-80236697D01*
X157523258Y-80456488D01*
X157523261Y-80456497D01*
X157619431Y-80662732D01*
X157619432Y-80662734D01*
X157749954Y-80849141D01*
X157910858Y-81010045D01*
X157910861Y-81010047D01*
X158097266Y-81140568D01*
X158155275Y-81167618D01*
X158207714Y-81213791D01*
X158226866Y-81280984D01*
X158206650Y-81347865D01*
X158155275Y-81392382D01*
X158097267Y-81419431D01*
X158097265Y-81419432D01*
X157910858Y-81549954D01*
X157749954Y-81710858D01*
X157619432Y-81897265D01*
X157619431Y-81897267D01*
X157523261Y-82103502D01*
X157523258Y-82103511D01*
X157464366Y-82323302D01*
X157464364Y-82323313D01*
X157444532Y-82549998D01*
X157444532Y-82550001D01*
X157464364Y-82776686D01*
X157464366Y-82776697D01*
X157523258Y-82996488D01*
X157523261Y-82996497D01*
X157619431Y-83202732D01*
X157619432Y-83202734D01*
X157749954Y-83389141D01*
X157910858Y-83550045D01*
X157910861Y-83550047D01*
X158097266Y-83680568D01*
X158155275Y-83707618D01*
X158207714Y-83753791D01*
X158226866Y-83820984D01*
X158206650Y-83887865D01*
X158155275Y-83932381D01*
X158148942Y-83935335D01*
X158097267Y-83959431D01*
X158097265Y-83959432D01*
X157910858Y-84089954D01*
X157749954Y-84250858D01*
X157619432Y-84437265D01*
X157619431Y-84437267D01*
X157523261Y-84643502D01*
X157523258Y-84643511D01*
X157464366Y-84863302D01*
X157464364Y-84863313D01*
X157444532Y-85089998D01*
X157444532Y-85090001D01*
X157464364Y-85316686D01*
X157464366Y-85316697D01*
X157523258Y-85536488D01*
X157523261Y-85536497D01*
X157619431Y-85742732D01*
X157619432Y-85742734D01*
X157749954Y-85929141D01*
X157910858Y-86090045D01*
X157910861Y-86090047D01*
X158097266Y-86220568D01*
X158155275Y-86247618D01*
X158207714Y-86293791D01*
X158226866Y-86360984D01*
X158206650Y-86427865D01*
X158155275Y-86472382D01*
X158097267Y-86499431D01*
X158097265Y-86499432D01*
X157910858Y-86629954D01*
X157749954Y-86790858D01*
X157619432Y-86977265D01*
X157619431Y-86977267D01*
X157523261Y-87183502D01*
X157523258Y-87183511D01*
X157464366Y-87403302D01*
X157464364Y-87403313D01*
X157444532Y-87629998D01*
X157444532Y-87630001D01*
X157464364Y-87856686D01*
X157464366Y-87856697D01*
X157523258Y-88076488D01*
X157523261Y-88076497D01*
X157619431Y-88282732D01*
X157619432Y-88282734D01*
X157749954Y-88469141D01*
X157910858Y-88630045D01*
X157910861Y-88630047D01*
X158097266Y-88760568D01*
X158145005Y-88782829D01*
X158155275Y-88787618D01*
X158207714Y-88833791D01*
X158226866Y-88900984D01*
X158206650Y-88967865D01*
X158155275Y-89012382D01*
X158097267Y-89039431D01*
X158097265Y-89039432D01*
X157910858Y-89169954D01*
X157749954Y-89330858D01*
X157619432Y-89517265D01*
X157619431Y-89517267D01*
X157523261Y-89723502D01*
X157523258Y-89723511D01*
X157464366Y-89943302D01*
X157464364Y-89943313D01*
X157444532Y-90169998D01*
X157444532Y-90170001D01*
X157464364Y-90396686D01*
X157464366Y-90396697D01*
X157523258Y-90616488D01*
X157523261Y-90616497D01*
X157619431Y-90822732D01*
X157619432Y-90822734D01*
X157749954Y-91009141D01*
X157910858Y-91170045D01*
X157910861Y-91170047D01*
X158097266Y-91300568D01*
X158155275Y-91327618D01*
X158207714Y-91373791D01*
X158226866Y-91440984D01*
X158206650Y-91507865D01*
X158155275Y-91552382D01*
X158097267Y-91579431D01*
X158097265Y-91579432D01*
X157910858Y-91709954D01*
X157749954Y-91870858D01*
X157619432Y-92057265D01*
X157619431Y-92057267D01*
X157523261Y-92263502D01*
X157523258Y-92263511D01*
X157464366Y-92483302D01*
X157464364Y-92483313D01*
X157444532Y-92709998D01*
X157444532Y-92710001D01*
X157464364Y-92936686D01*
X157464366Y-92936697D01*
X157523258Y-93156488D01*
X157523261Y-93156497D01*
X157619431Y-93362732D01*
X157619432Y-93362734D01*
X157749954Y-93549141D01*
X157910858Y-93710045D01*
X157910861Y-93710047D01*
X158097266Y-93840568D01*
X158155275Y-93867618D01*
X158207714Y-93913791D01*
X158226866Y-93980984D01*
X158206650Y-94047865D01*
X158155275Y-94092382D01*
X158097267Y-94119431D01*
X158097265Y-94119432D01*
X157910858Y-94249954D01*
X157749954Y-94410858D01*
X157619432Y-94597265D01*
X157619431Y-94597267D01*
X157523261Y-94803502D01*
X157523258Y-94803511D01*
X157464366Y-95023302D01*
X157464364Y-95023313D01*
X157444532Y-95249998D01*
X157444532Y-95250001D01*
X157464364Y-95476686D01*
X157464366Y-95476697D01*
X157523258Y-95696488D01*
X157523261Y-95696497D01*
X157619431Y-95902732D01*
X157619432Y-95902734D01*
X157749954Y-96089141D01*
X157910858Y-96250045D01*
X157910861Y-96250047D01*
X158097266Y-96380568D01*
X158155275Y-96407618D01*
X158207714Y-96453791D01*
X158226866Y-96520984D01*
X158206650Y-96587865D01*
X158155275Y-96632381D01*
X158148942Y-96635335D01*
X158097267Y-96659431D01*
X158097265Y-96659432D01*
X157910858Y-96789954D01*
X157749954Y-96950858D01*
X157619432Y-97137265D01*
X157619431Y-97137267D01*
X157523261Y-97343502D01*
X157523258Y-97343511D01*
X157464366Y-97563302D01*
X157464364Y-97563313D01*
X157444532Y-97789998D01*
X157444532Y-97790001D01*
X157464364Y-98016686D01*
X157464366Y-98016697D01*
X157523258Y-98236488D01*
X157523261Y-98236497D01*
X157619431Y-98442732D01*
X157619432Y-98442734D01*
X157749954Y-98629141D01*
X157910858Y-98790045D01*
X157910861Y-98790047D01*
X158097266Y-98920568D01*
X158155275Y-98947618D01*
X158207714Y-98993791D01*
X158226866Y-99060984D01*
X158206650Y-99127865D01*
X158155275Y-99172382D01*
X158097267Y-99199431D01*
X158097265Y-99199432D01*
X157910858Y-99329954D01*
X157749954Y-99490858D01*
X157619432Y-99677265D01*
X157619431Y-99677267D01*
X157523261Y-99883502D01*
X157523258Y-99883511D01*
X157464366Y-100103302D01*
X157464364Y-100103313D01*
X157444532Y-100329998D01*
X157444532Y-100330001D01*
X157464364Y-100556686D01*
X157464366Y-100556697D01*
X157523258Y-100776488D01*
X157523261Y-100776497D01*
X157619431Y-100982732D01*
X157619432Y-100982734D01*
X157749954Y-101169141D01*
X157910858Y-101330045D01*
X157910861Y-101330047D01*
X158097266Y-101460568D01*
X158154681Y-101487341D01*
X158155275Y-101487618D01*
X158207714Y-101533791D01*
X158226866Y-101600984D01*
X158206650Y-101667865D01*
X158155275Y-101712382D01*
X158097267Y-101739431D01*
X158097265Y-101739432D01*
X157910858Y-101869954D01*
X157749954Y-102030858D01*
X157619432Y-102217265D01*
X157619431Y-102217267D01*
X157523261Y-102423502D01*
X157523258Y-102423511D01*
X157464366Y-102643302D01*
X157464364Y-102643313D01*
X157444532Y-102869998D01*
X157444532Y-102870001D01*
X157464364Y-103096686D01*
X157464366Y-103096697D01*
X157523258Y-103316488D01*
X157523261Y-103316497D01*
X157619431Y-103522732D01*
X157619432Y-103522734D01*
X157749954Y-103709141D01*
X157910858Y-103870045D01*
X157910861Y-103870047D01*
X158097266Y-104000568D01*
X158155865Y-104027893D01*
X158208305Y-104074065D01*
X158227457Y-104141258D01*
X158207242Y-104208139D01*
X158155867Y-104252657D01*
X158097515Y-104279867D01*
X157911179Y-104410342D01*
X157750342Y-104571179D01*
X157619865Y-104757517D01*
X157523734Y-104963673D01*
X157523730Y-104963682D01*
X157471127Y-105159999D01*
X157471128Y-105160000D01*
X158316314Y-105160000D01*
X158290507Y-105200156D01*
X158250000Y-105338111D01*
X158250000Y-105481889D01*
X158290507Y-105619844D01*
X158316314Y-105660000D01*
X157471128Y-105660000D01*
X157523730Y-105856317D01*
X157523734Y-105856326D01*
X157619865Y-106062482D01*
X157750342Y-106248820D01*
X157911179Y-106409657D01*
X158097518Y-106540134D01*
X158097520Y-106540135D01*
X158155865Y-106567342D01*
X158208305Y-106613514D01*
X158227457Y-106680707D01*
X158207242Y-106747589D01*
X158155867Y-106792105D01*
X158129590Y-106804359D01*
X158097264Y-106819433D01*
X157910858Y-106949954D01*
X157749954Y-107110858D01*
X157619432Y-107297265D01*
X157619431Y-107297267D01*
X157523261Y-107503502D01*
X157523258Y-107503511D01*
X157464366Y-107723302D01*
X157464364Y-107723313D01*
X157444532Y-107949998D01*
X157444532Y-107950001D01*
X155194500Y-107950001D01*
X155194500Y-62297763D01*
X157657787Y-62297763D01*
X157687413Y-62567013D01*
X157687415Y-62567024D01*
X157755926Y-62829082D01*
X157755928Y-62829088D01*
X157861870Y-63078390D01*
X157933998Y-63196575D01*
X158002979Y-63309605D01*
X158002986Y-63309615D01*
X158176253Y-63517819D01*
X158176259Y-63517824D01*
X158377998Y-63698582D01*
X158603910Y-63848044D01*
X158849176Y-63963020D01*
X158849183Y-63963022D01*
X158849185Y-63963023D01*
X159108557Y-64041057D01*
X159108564Y-64041058D01*
X159108569Y-64041060D01*
X159376561Y-64080500D01*
X159376566Y-64080500D01*
X159579636Y-64080500D01*
X159631133Y-64076730D01*
X159782156Y-64065677D01*
X159894758Y-64040593D01*
X160046546Y-64006782D01*
X160046548Y-64006781D01*
X160046553Y-64006780D01*
X160299558Y-63910014D01*
X160535777Y-63777441D01*
X160750177Y-63611888D01*
X160938186Y-63416881D01*
X161095799Y-63196579D01*
X161169787Y-63052669D01*
X161219649Y-62955690D01*
X161219651Y-62955684D01*
X161219656Y-62955675D01*
X161307118Y-62699305D01*
X161356319Y-62432933D01*
X161361259Y-62297763D01*
X198297787Y-62297763D01*
X198327413Y-62567013D01*
X198327415Y-62567024D01*
X198395926Y-62829082D01*
X198395928Y-62829088D01*
X198501870Y-63078390D01*
X198573998Y-63196575D01*
X198642979Y-63309605D01*
X198642986Y-63309615D01*
X198816253Y-63517819D01*
X198816259Y-63517824D01*
X199017998Y-63698582D01*
X199243910Y-63848044D01*
X199489176Y-63963020D01*
X199489183Y-63963022D01*
X199489185Y-63963023D01*
X199748557Y-64041057D01*
X199748564Y-64041058D01*
X199748569Y-64041060D01*
X200016561Y-64080500D01*
X200016566Y-64080500D01*
X200219636Y-64080500D01*
X200271133Y-64076730D01*
X200422156Y-64065677D01*
X200534758Y-64040593D01*
X200686546Y-64006782D01*
X200686548Y-64006781D01*
X200686553Y-64006780D01*
X200939558Y-63910014D01*
X201175777Y-63777441D01*
X201390177Y-63611888D01*
X201578186Y-63416881D01*
X201735799Y-63196579D01*
X201809787Y-63052669D01*
X201859649Y-62955690D01*
X201859651Y-62955684D01*
X201859656Y-62955675D01*
X201947118Y-62699305D01*
X201996319Y-62432933D01*
X202006212Y-62162235D01*
X201976586Y-61892982D01*
X201908072Y-61630912D01*
X201802130Y-61381610D01*
X201661018Y-61150390D01*
X201571747Y-61043119D01*
X201487746Y-60942180D01*
X201487740Y-60942175D01*
X201286002Y-60761418D01*
X201060092Y-60611957D01*
X201060090Y-60611956D01*
X200814824Y-60496980D01*
X200814819Y-60496978D01*
X200814814Y-60496976D01*
X200555442Y-60418942D01*
X200555428Y-60418939D01*
X200439791Y-60401921D01*
X200287439Y-60379500D01*
X200084369Y-60379500D01*
X200084364Y-60379500D01*
X199881844Y-60394323D01*
X199881831Y-60394325D01*
X199617453Y-60453217D01*
X199617446Y-60453220D01*
X199364439Y-60549987D01*
X199128226Y-60682557D01*
X198913822Y-60848112D01*
X198725822Y-61043109D01*
X198725816Y-61043116D01*
X198568202Y-61263419D01*
X198568199Y-61263424D01*
X198444350Y-61504309D01*
X198444343Y-61504327D01*
X198356884Y-61760685D01*
X198356881Y-61760699D01*
X198307681Y-62027068D01*
X198307680Y-62027075D01*
X198297787Y-62297763D01*
X161361259Y-62297763D01*
X161366212Y-62162235D01*
X161336586Y-61892982D01*
X161268072Y-61630912D01*
X161162130Y-61381610D01*
X161021018Y-61150390D01*
X160931747Y-61043119D01*
X160847746Y-60942180D01*
X160847740Y-60942175D01*
X160646002Y-60761418D01*
X160420092Y-60611957D01*
X160420090Y-60611956D01*
X160174824Y-60496980D01*
X160174819Y-60496978D01*
X160174814Y-60496976D01*
X159915442Y-60418942D01*
X159915428Y-60418939D01*
X159799791Y-60401921D01*
X159647439Y-60379500D01*
X159444369Y-60379500D01*
X159444364Y-60379500D01*
X159241844Y-60394323D01*
X159241831Y-60394325D01*
X158977453Y-60453217D01*
X158977446Y-60453220D01*
X158724439Y-60549987D01*
X158488226Y-60682557D01*
X158273822Y-60848112D01*
X158085822Y-61043109D01*
X158085816Y-61043116D01*
X157928202Y-61263419D01*
X157928199Y-61263424D01*
X157804350Y-61504309D01*
X157804343Y-61504327D01*
X157716884Y-61760685D01*
X157716881Y-61760699D01*
X157667681Y-62027068D01*
X157667680Y-62027075D01*
X157657787Y-62297763D01*
X155194500Y-62297763D01*
X155194500Y-59052500D01*
X155214185Y-58985461D01*
X155266989Y-58939706D01*
X155318500Y-58928500D01*
X207647500Y-58928500D01*
X207714539Y-58948185D01*
G37*
%TD.AperFunction*%
%TD*%
M02*
