M48
; DRILL file {KiCad 7.0.8} date Sat Dec  2 15:31:13 2023
; FORMAT={-:-/ absolute / metric / decimal}
; #@! TF.CreationDate,2023-12-02T15:31:13-08:00
; #@! TF.GenerationSoftware,Kicad,Pcbnew,7.0.8
; #@! TF.FileFunction,Plated,1,2,PTH
FMAT,2
METRIC
; #@! TA.AperFunction,Plated,PTH,ViaDrill
T1C0.400
; #@! TA.AperFunction,Plated,PTH,ComponentDrill
T2C0.800
; #@! TA.AperFunction,Plated,PTH,ComponentDrill
T3C1.000
%
G90
G05
T1
X158.242Y-113.284
X161.29Y-113.284
X163.83Y-116.84
X163.83Y-121.158
X164.084Y-125.476
X166.37Y-63.5
X172.466Y-63.5
X175.768Y-125.222
X177.612Y-126.172
X179.07Y-99.06
X179.07Y-105.41
X181.356Y-93.98
X181.356Y-95.25
X181.61Y-86.106
X191.008Y-110.236
X191.008Y-126.238
X191.262Y-98.298
X194.564Y-95.25
X194.818Y-89.408
X195.326Y-66.802
X200.406Y-91.186
X200.406Y-92.71
X204.47Y-110.236
X204.978Y-66.802
X204.978Y-126.238
T2
X186.182Y-116.586
X186.182Y-126.746
T3
X158.75Y-72.39
X158.75Y-74.93
X158.75Y-77.47
X158.75Y-80.01
X158.75Y-82.55
X158.75Y-85.09
X158.75Y-87.63
X158.75Y-90.17
X158.75Y-92.71
X158.75Y-95.25
X158.75Y-97.79
X158.75Y-100.33
X158.75Y-102.87
X158.75Y-105.41
X158.75Y-107.95
X173.99Y-72.39
X173.99Y-74.93
X173.99Y-77.47
X173.99Y-80.01
X173.99Y-82.55
X173.99Y-85.09
X173.99Y-87.63
X173.99Y-90.17
X173.99Y-92.71
X173.99Y-95.25
X173.99Y-97.79
X173.99Y-100.33
X173.99Y-102.87
X173.99Y-105.41
X173.99Y-107.95
X181.874Y-68.58
X189.474Y-68.58
T0
M30
