%TF.GenerationSoftware,KiCad,Pcbnew,7.0.8*%
%TF.CreationDate,2023-11-11T12:56:24-08:00*%
%TF.ProjectId,LED Project,4c454420-5072-46f6-9a65-63742e6b6963,rev?*%
%TF.SameCoordinates,Original*%
%TF.FileFunction,Soldermask,Top*%
%TF.FilePolarity,Negative*%
%FSLAX46Y46*%
G04 Gerber Fmt 4.6, Leading zero omitted, Abs format (unit mm)*
G04 Created by KiCad (PCBNEW 7.0.8) date 2023-11-11 12:56:24*
%MOMM*%
%LPD*%
G01*
G04 APERTURE LIST*
G04 Aperture macros list*
%AMRoundRect*
0 Rectangle with rounded corners*
0 $1 Rounding radius*
0 $2 $3 $4 $5 $6 $7 $8 $9 X,Y pos of 4 corners*
0 Add a 4 corners polygon primitive as box body*
4,1,4,$2,$3,$4,$5,$6,$7,$8,$9,$2,$3,0*
0 Add four circle primitives for the rounded corners*
1,1,$1+$1,$2,$3*
1,1,$1+$1,$4,$5*
1,1,$1+$1,$6,$7*
1,1,$1+$1,$8,$9*
0 Add four rect primitives between the rounded corners*
20,1,$1+$1,$2,$3,$4,$5,0*
20,1,$1+$1,$4,$5,$6,$7,0*
20,1,$1+$1,$6,$7,$8,$9,0*
20,1,$1+$1,$8,$9,$2,$3,0*%
G04 Aperture macros list end*
%ADD10R,1.600000X1.600000*%
%ADD11O,1.600000X1.600000*%
%ADD12RoundRect,0.150000X-0.825000X-0.150000X0.825000X-0.150000X0.825000X0.150000X-0.825000X0.150000X0*%
%ADD13RoundRect,0.225000X-0.250000X0.225000X-0.250000X-0.225000X0.250000X-0.225000X0.250000X0.225000X0*%
%ADD14C,2.200000*%
%ADD15R,1.524000X2.540000*%
G04 APERTURE END LIST*
D10*
%TO.C,U6*%
X201944500Y-132524500D03*
D11*
X199404500Y-132524500D03*
X196864500Y-132524500D03*
X194324500Y-132524500D03*
X191784500Y-132524500D03*
X189244500Y-132524500D03*
X186704500Y-132524500D03*
X184164500Y-132524500D03*
X181624500Y-132524500D03*
X179084500Y-132524500D03*
X176544500Y-132524500D03*
X174004500Y-132524500D03*
X171464500Y-132524500D03*
X168924500Y-132524500D03*
X166384500Y-132524500D03*
X163844500Y-132524500D03*
X161304500Y-132524500D03*
X158764500Y-132524500D03*
X156224500Y-132524500D03*
X153684500Y-132524500D03*
X153684500Y-107886500D03*
X156224500Y-107886500D03*
X158764500Y-107886500D03*
X161304500Y-107886500D03*
X163844500Y-107886500D03*
X166384500Y-107886500D03*
X168924500Y-107886500D03*
X171464500Y-107886500D03*
X174004500Y-107886500D03*
X176544500Y-107886500D03*
X179084500Y-107886500D03*
X181624500Y-107886500D03*
X184164500Y-107886500D03*
X186704500Y-107886500D03*
X189244500Y-107886500D03*
X191784500Y-107886500D03*
X194324500Y-107886500D03*
X196864500Y-107886500D03*
X199404500Y-107886500D03*
X201944500Y-107886500D03*
%TD*%
D12*
%TO.C,U5*%
X154308000Y-94742000D03*
X154308000Y-96012000D03*
X154308000Y-97282000D03*
X154308000Y-98552000D03*
X154308000Y-99822000D03*
X154308000Y-101092000D03*
X154308000Y-102362000D03*
X154308000Y-103632000D03*
X159258000Y-103632000D03*
X159258000Y-102362000D03*
X159258000Y-101092000D03*
X159258000Y-99822000D03*
X159258000Y-98552000D03*
X159258000Y-97282000D03*
X159258000Y-96012000D03*
X159258000Y-94742000D03*
%TD*%
D13*
%TO.C,C2*%
X169418000Y-91160000D03*
X169418000Y-92710000D03*
%TD*%
D14*
%TO.C,H3*%
X153670000Y-135890000D03*
%TD*%
%TO.C,H1*%
X153162000Y-87630000D03*
%TD*%
%TO.C,H2*%
X201930000Y-87376000D03*
%TD*%
D12*
%TO.C,U4*%
X164468000Y-94742000D03*
X164468000Y-96012000D03*
X164468000Y-97282000D03*
X164468000Y-98552000D03*
X164468000Y-99822000D03*
X164468000Y-101092000D03*
X164468000Y-102362000D03*
X164468000Y-103632000D03*
X169418000Y-103632000D03*
X169418000Y-102362000D03*
X169418000Y-101092000D03*
X169418000Y-99822000D03*
X169418000Y-98552000D03*
X169418000Y-97282000D03*
X169418000Y-96012000D03*
X169418000Y-94742000D03*
%TD*%
%TO.C,U2*%
X186058000Y-94742000D03*
X186058000Y-96012000D03*
X186058000Y-97282000D03*
X186058000Y-98552000D03*
X186058000Y-99822000D03*
X186058000Y-101092000D03*
X186058000Y-102362000D03*
X186058000Y-103632000D03*
X191008000Y-103632000D03*
X191008000Y-102362000D03*
X191008000Y-101092000D03*
X191008000Y-99822000D03*
X191008000Y-98552000D03*
X191008000Y-97282000D03*
X191008000Y-96012000D03*
X191008000Y-94742000D03*
%TD*%
D13*
%TO.C,C6*%
X191008000Y-91186000D03*
X191008000Y-92736000D03*
%TD*%
D14*
%TO.C,H4*%
X201930000Y-136144000D03*
%TD*%
D13*
%TO.C,C1*%
X159258000Y-91160000D03*
X159258000Y-92710000D03*
%TD*%
D12*
%TO.C,U1*%
X196472000Y-94742000D03*
X196472000Y-96012000D03*
X196472000Y-97282000D03*
X196472000Y-98552000D03*
X196472000Y-99822000D03*
X196472000Y-101092000D03*
X196472000Y-102362000D03*
X196472000Y-103632000D03*
X201422000Y-103632000D03*
X201422000Y-102362000D03*
X201422000Y-101092000D03*
X201422000Y-99822000D03*
X201422000Y-98552000D03*
X201422000Y-97282000D03*
X201422000Y-96012000D03*
X201422000Y-94742000D03*
%TD*%
%TO.C,U3*%
X175390000Y-94742000D03*
X175390000Y-96012000D03*
X175390000Y-97282000D03*
X175390000Y-98552000D03*
X175390000Y-99822000D03*
X175390000Y-101092000D03*
X175390000Y-102362000D03*
X175390000Y-103632000D03*
X180340000Y-103632000D03*
X180340000Y-102362000D03*
X180340000Y-101092000D03*
X180340000Y-99822000D03*
X180340000Y-98552000D03*
X180340000Y-97282000D03*
X180340000Y-96012000D03*
X180340000Y-94742000D03*
%TD*%
D15*
%TO.C,Conn2*%
X184150000Y-87603000D03*
X187325000Y-87603000D03*
X190500000Y-87603000D03*
X193675000Y-87603000D03*
X196850000Y-87603000D03*
%TD*%
%TO.C,Conn1*%
X170434000Y-87630000D03*
X167259000Y-87630000D03*
X164084000Y-87630000D03*
X160909000Y-87630000D03*
X157734000Y-87630000D03*
%TD*%
D13*
%TO.C,C3*%
X180340000Y-91160000D03*
X180340000Y-92710000D03*
%TD*%
D15*
%TO.C,Conn3*%
X175768000Y-87630000D03*
X178943000Y-87630000D03*
%TD*%
D13*
%TO.C,C4*%
X201422000Y-91186000D03*
X201422000Y-92736000D03*
%TD*%
M02*
