%TF.GenerationSoftware,KiCad,Pcbnew,7.0.8*%
%TF.CreationDate,2023-11-11T12:56:24-08:00*%
%TF.ProjectId,LED Project,4c454420-5072-46f6-9a65-63742e6b6963,rev?*%
%TF.SameCoordinates,Original*%
%TF.FileFunction,Soldermask,Bot*%
%TF.FilePolarity,Negative*%
%FSLAX46Y46*%
G04 Gerber Fmt 4.6, Leading zero omitted, Abs format (unit mm)*
G04 Created by KiCad (PCBNEW 7.0.8) date 2023-11-11 12:56:24*
%MOMM*%
%LPD*%
G01*
G04 APERTURE LIST*
%ADD10R,1.600000X1.600000*%
%ADD11O,1.600000X1.600000*%
%ADD12C,2.200000*%
G04 APERTURE END LIST*
D10*
%TO.C,U6*%
X201944500Y-132524500D03*
D11*
X199404500Y-132524500D03*
X196864500Y-132524500D03*
X194324500Y-132524500D03*
X191784500Y-132524500D03*
X189244500Y-132524500D03*
X186704500Y-132524500D03*
X184164500Y-132524500D03*
X181624500Y-132524500D03*
X179084500Y-132524500D03*
X176544500Y-132524500D03*
X174004500Y-132524500D03*
X171464500Y-132524500D03*
X168924500Y-132524500D03*
X166384500Y-132524500D03*
X163844500Y-132524500D03*
X161304500Y-132524500D03*
X158764500Y-132524500D03*
X156224500Y-132524500D03*
X153684500Y-132524500D03*
X153684500Y-107886500D03*
X156224500Y-107886500D03*
X158764500Y-107886500D03*
X161304500Y-107886500D03*
X163844500Y-107886500D03*
X166384500Y-107886500D03*
X168924500Y-107886500D03*
X171464500Y-107886500D03*
X174004500Y-107886500D03*
X176544500Y-107886500D03*
X179084500Y-107886500D03*
X181624500Y-107886500D03*
X184164500Y-107886500D03*
X186704500Y-107886500D03*
X189244500Y-107886500D03*
X191784500Y-107886500D03*
X194324500Y-107886500D03*
X196864500Y-107886500D03*
X199404500Y-107886500D03*
X201944500Y-107886500D03*
%TD*%
D12*
%TO.C,H3*%
X153670000Y-135890000D03*
%TD*%
%TO.C,H1*%
X153162000Y-87630000D03*
%TD*%
%TO.C,H2*%
X201930000Y-87376000D03*
%TD*%
%TO.C,H4*%
X201930000Y-136144000D03*
%TD*%
M02*
