%TF.GenerationSoftware,KiCad,Pcbnew,7.0.8*%
%TF.CreationDate,2023-11-11T12:56:24-08:00*%
%TF.ProjectId,LED Project,4c454420-5072-46f6-9a65-63742e6b6963,rev?*%
%TF.SameCoordinates,Original*%
%TF.FileFunction,Legend,Top*%
%TF.FilePolarity,Positive*%
%FSLAX46Y46*%
G04 Gerber Fmt 4.6, Leading zero omitted, Abs format (unit mm)*
G04 Created by KiCad (PCBNEW 7.0.8) date 2023-11-11 12:56:24*
%MOMM*%
%LPD*%
G01*
G04 APERTURE LIST*
%ADD10C,0.150000*%
%ADD11C,0.120000*%
%ADD12C,0.100000*%
G04 APERTURE END LIST*
D10*
X156021095Y-92741819D02*
X156021095Y-93551342D01*
X156021095Y-93551342D02*
X156068714Y-93646580D01*
X156068714Y-93646580D02*
X156116333Y-93694200D01*
X156116333Y-93694200D02*
X156211571Y-93741819D01*
X156211571Y-93741819D02*
X156402047Y-93741819D01*
X156402047Y-93741819D02*
X156497285Y-93694200D01*
X156497285Y-93694200D02*
X156544904Y-93646580D01*
X156544904Y-93646580D02*
X156592523Y-93551342D01*
X156592523Y-93551342D02*
X156592523Y-92741819D01*
X157544904Y-92741819D02*
X157068714Y-92741819D01*
X157068714Y-92741819D02*
X157021095Y-93218009D01*
X157021095Y-93218009D02*
X157068714Y-93170390D01*
X157068714Y-93170390D02*
X157163952Y-93122771D01*
X157163952Y-93122771D02*
X157402047Y-93122771D01*
X157402047Y-93122771D02*
X157497285Y-93170390D01*
X157497285Y-93170390D02*
X157544904Y-93218009D01*
X157544904Y-93218009D02*
X157592523Y-93313247D01*
X157592523Y-93313247D02*
X157592523Y-93551342D01*
X157592523Y-93551342D02*
X157544904Y-93646580D01*
X157544904Y-93646580D02*
X157497285Y-93694200D01*
X157497285Y-93694200D02*
X157402047Y-93741819D01*
X157402047Y-93741819D02*
X157163952Y-93741819D01*
X157163952Y-93741819D02*
X157068714Y-93694200D01*
X157068714Y-93694200D02*
X157021095Y-93646580D01*
X166181095Y-92741819D02*
X166181095Y-93551342D01*
X166181095Y-93551342D02*
X166228714Y-93646580D01*
X166228714Y-93646580D02*
X166276333Y-93694200D01*
X166276333Y-93694200D02*
X166371571Y-93741819D01*
X166371571Y-93741819D02*
X166562047Y-93741819D01*
X166562047Y-93741819D02*
X166657285Y-93694200D01*
X166657285Y-93694200D02*
X166704904Y-93646580D01*
X166704904Y-93646580D02*
X166752523Y-93551342D01*
X166752523Y-93551342D02*
X166752523Y-92741819D01*
X167657285Y-93075152D02*
X167657285Y-93741819D01*
X167419190Y-92694200D02*
X167181095Y-93408485D01*
X167181095Y-93408485D02*
X167800142Y-93408485D01*
X187771095Y-92741819D02*
X187771095Y-93551342D01*
X187771095Y-93551342D02*
X187818714Y-93646580D01*
X187818714Y-93646580D02*
X187866333Y-93694200D01*
X187866333Y-93694200D02*
X187961571Y-93741819D01*
X187961571Y-93741819D02*
X188152047Y-93741819D01*
X188152047Y-93741819D02*
X188247285Y-93694200D01*
X188247285Y-93694200D02*
X188294904Y-93646580D01*
X188294904Y-93646580D02*
X188342523Y-93551342D01*
X188342523Y-93551342D02*
X188342523Y-92741819D01*
X188771095Y-92837057D02*
X188818714Y-92789438D01*
X188818714Y-92789438D02*
X188913952Y-92741819D01*
X188913952Y-92741819D02*
X189152047Y-92741819D01*
X189152047Y-92741819D02*
X189247285Y-92789438D01*
X189247285Y-92789438D02*
X189294904Y-92837057D01*
X189294904Y-92837057D02*
X189342523Y-92932295D01*
X189342523Y-92932295D02*
X189342523Y-93027533D01*
X189342523Y-93027533D02*
X189294904Y-93170390D01*
X189294904Y-93170390D02*
X188723476Y-93741819D01*
X188723476Y-93741819D02*
X189342523Y-93741819D01*
X192891580Y-92114666D02*
X192939200Y-92162285D01*
X192939200Y-92162285D02*
X192986819Y-92305142D01*
X192986819Y-92305142D02*
X192986819Y-92400380D01*
X192986819Y-92400380D02*
X192939200Y-92543237D01*
X192939200Y-92543237D02*
X192843961Y-92638475D01*
X192843961Y-92638475D02*
X192748723Y-92686094D01*
X192748723Y-92686094D02*
X192558247Y-92733713D01*
X192558247Y-92733713D02*
X192415390Y-92733713D01*
X192415390Y-92733713D02*
X192224914Y-92686094D01*
X192224914Y-92686094D02*
X192129676Y-92638475D01*
X192129676Y-92638475D02*
X192034438Y-92543237D01*
X192034438Y-92543237D02*
X191986819Y-92400380D01*
X191986819Y-92400380D02*
X191986819Y-92305142D01*
X191986819Y-92305142D02*
X192034438Y-92162285D01*
X192034438Y-92162285D02*
X192082057Y-92114666D01*
X191986819Y-91257523D02*
X191986819Y-91447999D01*
X191986819Y-91447999D02*
X192034438Y-91543237D01*
X192034438Y-91543237D02*
X192082057Y-91590856D01*
X192082057Y-91590856D02*
X192224914Y-91686094D01*
X192224914Y-91686094D02*
X192415390Y-91733713D01*
X192415390Y-91733713D02*
X192796342Y-91733713D01*
X192796342Y-91733713D02*
X192891580Y-91686094D01*
X192891580Y-91686094D02*
X192939200Y-91638475D01*
X192939200Y-91638475D02*
X192986819Y-91543237D01*
X192986819Y-91543237D02*
X192986819Y-91352761D01*
X192986819Y-91352761D02*
X192939200Y-91257523D01*
X192939200Y-91257523D02*
X192891580Y-91209904D01*
X192891580Y-91209904D02*
X192796342Y-91162285D01*
X192796342Y-91162285D02*
X192558247Y-91162285D01*
X192558247Y-91162285D02*
X192463009Y-91209904D01*
X192463009Y-91209904D02*
X192415390Y-91257523D01*
X192415390Y-91257523D02*
X192367771Y-91352761D01*
X192367771Y-91352761D02*
X192367771Y-91543237D01*
X192367771Y-91543237D02*
X192415390Y-91638475D01*
X192415390Y-91638475D02*
X192463009Y-91686094D01*
X192463009Y-91686094D02*
X192558247Y-91733713D01*
X161047580Y-92101666D02*
X161095200Y-92149285D01*
X161095200Y-92149285D02*
X161142819Y-92292142D01*
X161142819Y-92292142D02*
X161142819Y-92387380D01*
X161142819Y-92387380D02*
X161095200Y-92530237D01*
X161095200Y-92530237D02*
X160999961Y-92625475D01*
X160999961Y-92625475D02*
X160904723Y-92673094D01*
X160904723Y-92673094D02*
X160714247Y-92720713D01*
X160714247Y-92720713D02*
X160571390Y-92720713D01*
X160571390Y-92720713D02*
X160380914Y-92673094D01*
X160380914Y-92673094D02*
X160285676Y-92625475D01*
X160285676Y-92625475D02*
X160190438Y-92530237D01*
X160190438Y-92530237D02*
X160142819Y-92387380D01*
X160142819Y-92387380D02*
X160142819Y-92292142D01*
X160142819Y-92292142D02*
X160190438Y-92149285D01*
X160190438Y-92149285D02*
X160238057Y-92101666D01*
X161142819Y-91149285D02*
X161142819Y-91720713D01*
X161142819Y-91434999D02*
X160142819Y-91434999D01*
X160142819Y-91434999D02*
X160285676Y-91530237D01*
X160285676Y-91530237D02*
X160380914Y-91625475D01*
X160380914Y-91625475D02*
X160428533Y-91720713D01*
X198185095Y-92741819D02*
X198185095Y-93551342D01*
X198185095Y-93551342D02*
X198232714Y-93646580D01*
X198232714Y-93646580D02*
X198280333Y-93694200D01*
X198280333Y-93694200D02*
X198375571Y-93741819D01*
X198375571Y-93741819D02*
X198566047Y-93741819D01*
X198566047Y-93741819D02*
X198661285Y-93694200D01*
X198661285Y-93694200D02*
X198708904Y-93646580D01*
X198708904Y-93646580D02*
X198756523Y-93551342D01*
X198756523Y-93551342D02*
X198756523Y-92741819D01*
X199756523Y-93741819D02*
X199185095Y-93741819D01*
X199470809Y-93741819D02*
X199470809Y-92741819D01*
X199470809Y-92741819D02*
X199375571Y-92884676D01*
X199375571Y-92884676D02*
X199280333Y-92979914D01*
X199280333Y-92979914D02*
X199185095Y-93027533D01*
X177038095Y-91656819D02*
X177038095Y-92466342D01*
X177038095Y-92466342D02*
X177085714Y-92561580D01*
X177085714Y-92561580D02*
X177133333Y-92609200D01*
X177133333Y-92609200D02*
X177228571Y-92656819D01*
X177228571Y-92656819D02*
X177419047Y-92656819D01*
X177419047Y-92656819D02*
X177514285Y-92609200D01*
X177514285Y-92609200D02*
X177561904Y-92561580D01*
X177561904Y-92561580D02*
X177609523Y-92466342D01*
X177609523Y-92466342D02*
X177609523Y-91656819D01*
X177990476Y-91656819D02*
X178609523Y-91656819D01*
X178609523Y-91656819D02*
X178276190Y-92037771D01*
X178276190Y-92037771D02*
X178419047Y-92037771D01*
X178419047Y-92037771D02*
X178514285Y-92085390D01*
X178514285Y-92085390D02*
X178561904Y-92133009D01*
X178561904Y-92133009D02*
X178609523Y-92228247D01*
X178609523Y-92228247D02*
X178609523Y-92466342D01*
X178609523Y-92466342D02*
X178561904Y-92561580D01*
X178561904Y-92561580D02*
X178514285Y-92609200D01*
X178514285Y-92609200D02*
X178419047Y-92656819D01*
X178419047Y-92656819D02*
X178133333Y-92656819D01*
X178133333Y-92656819D02*
X178038095Y-92609200D01*
X178038095Y-92609200D02*
X177990476Y-92561580D01*
X182129580Y-92101666D02*
X182177200Y-92149285D01*
X182177200Y-92149285D02*
X182224819Y-92292142D01*
X182224819Y-92292142D02*
X182224819Y-92387380D01*
X182224819Y-92387380D02*
X182177200Y-92530237D01*
X182177200Y-92530237D02*
X182081961Y-92625475D01*
X182081961Y-92625475D02*
X181986723Y-92673094D01*
X181986723Y-92673094D02*
X181796247Y-92720713D01*
X181796247Y-92720713D02*
X181653390Y-92720713D01*
X181653390Y-92720713D02*
X181462914Y-92673094D01*
X181462914Y-92673094D02*
X181367676Y-92625475D01*
X181367676Y-92625475D02*
X181272438Y-92530237D01*
X181272438Y-92530237D02*
X181224819Y-92387380D01*
X181224819Y-92387380D02*
X181224819Y-92292142D01*
X181224819Y-92292142D02*
X181272438Y-92149285D01*
X181272438Y-92149285D02*
X181320057Y-92101666D01*
X181224819Y-91768332D02*
X181224819Y-91149285D01*
X181224819Y-91149285D02*
X181605771Y-91482618D01*
X181605771Y-91482618D02*
X181605771Y-91339761D01*
X181605771Y-91339761D02*
X181653390Y-91244523D01*
X181653390Y-91244523D02*
X181701009Y-91196904D01*
X181701009Y-91196904D02*
X181796247Y-91149285D01*
X181796247Y-91149285D02*
X182034342Y-91149285D01*
X182034342Y-91149285D02*
X182129580Y-91196904D01*
X182129580Y-91196904D02*
X182177200Y-91244523D01*
X182177200Y-91244523D02*
X182224819Y-91339761D01*
X182224819Y-91339761D02*
X182224819Y-91625475D01*
X182224819Y-91625475D02*
X182177200Y-91720713D01*
X182177200Y-91720713D02*
X182129580Y-91768332D01*
X203211580Y-92127666D02*
X203259200Y-92175285D01*
X203259200Y-92175285D02*
X203306819Y-92318142D01*
X203306819Y-92318142D02*
X203306819Y-92413380D01*
X203306819Y-92413380D02*
X203259200Y-92556237D01*
X203259200Y-92556237D02*
X203163961Y-92651475D01*
X203163961Y-92651475D02*
X203068723Y-92699094D01*
X203068723Y-92699094D02*
X202878247Y-92746713D01*
X202878247Y-92746713D02*
X202735390Y-92746713D01*
X202735390Y-92746713D02*
X202544914Y-92699094D01*
X202544914Y-92699094D02*
X202449676Y-92651475D01*
X202449676Y-92651475D02*
X202354438Y-92556237D01*
X202354438Y-92556237D02*
X202306819Y-92413380D01*
X202306819Y-92413380D02*
X202306819Y-92318142D01*
X202306819Y-92318142D02*
X202354438Y-92175285D01*
X202354438Y-92175285D02*
X202402057Y-92127666D01*
X202640152Y-91270523D02*
X203306819Y-91270523D01*
X202259200Y-91508618D02*
X202973485Y-91746713D01*
X202973485Y-91746713D02*
X202973485Y-91127666D01*
D11*
%TO.C,U5*%
X156783000Y-94127000D02*
X153333000Y-94127000D01*
X156783000Y-94127000D02*
X158733000Y-94127000D01*
X156783000Y-104247000D02*
X154833000Y-104247000D01*
X156783000Y-104247000D02*
X158733000Y-104247000D01*
%TO.C,C2*%
X169928000Y-91794420D02*
X169928000Y-92075580D01*
X168908000Y-91794420D02*
X168908000Y-92075580D01*
%TO.C,U4*%
X166943000Y-94127000D02*
X163493000Y-94127000D01*
X166943000Y-94127000D02*
X168893000Y-94127000D01*
X166943000Y-104247000D02*
X164993000Y-104247000D01*
X166943000Y-104247000D02*
X168893000Y-104247000D01*
%TO.C,U2*%
X188533000Y-94127000D02*
X185083000Y-94127000D01*
X188533000Y-94127000D02*
X190483000Y-94127000D01*
X188533000Y-104247000D02*
X186583000Y-104247000D01*
X188533000Y-104247000D02*
X190483000Y-104247000D01*
%TO.C,C6*%
X191518000Y-91820420D02*
X191518000Y-92101580D01*
X190498000Y-91820420D02*
X190498000Y-92101580D01*
%TO.C,C1*%
X159768000Y-91794420D02*
X159768000Y-92075580D01*
X158748000Y-91794420D02*
X158748000Y-92075580D01*
%TO.C,U1*%
X198947000Y-94127000D02*
X195497000Y-94127000D01*
X198947000Y-94127000D02*
X200897000Y-94127000D01*
X198947000Y-104247000D02*
X196997000Y-104247000D01*
X198947000Y-104247000D02*
X200897000Y-104247000D01*
%TO.C,U3*%
X177865000Y-94127000D02*
X174415000Y-94127000D01*
X177865000Y-94127000D02*
X179815000Y-94127000D01*
X177865000Y-104247000D02*
X175915000Y-104247000D01*
X177865000Y-104247000D02*
X179815000Y-104247000D01*
D12*
%TO.C,Conn2*%
X182880000Y-85698000D02*
X185420000Y-85698000D01*
X185420000Y-85698000D02*
X185420000Y-89508000D01*
X185420000Y-89508000D02*
X182880000Y-89508000D01*
X182880000Y-89508000D02*
X182880000Y-85698000D01*
X186055000Y-85698000D02*
X188595000Y-85698000D01*
X188595000Y-85698000D02*
X188595000Y-89508000D01*
X188595000Y-89508000D02*
X186055000Y-89508000D01*
X186055000Y-89508000D02*
X186055000Y-85698000D01*
X189230000Y-85698000D02*
X191770000Y-85698000D01*
X191770000Y-85698000D02*
X191770000Y-89508000D01*
X191770000Y-89508000D02*
X189230000Y-89508000D01*
X189230000Y-89508000D02*
X189230000Y-85698000D01*
X192405000Y-85698000D02*
X194945000Y-85698000D01*
X194945000Y-85698000D02*
X194945000Y-89508000D01*
X194945000Y-89508000D02*
X192405000Y-89508000D01*
X192405000Y-89508000D02*
X192405000Y-85698000D01*
X195580000Y-85698000D02*
X198120000Y-85698000D01*
X198120000Y-85698000D02*
X198120000Y-89508000D01*
X198120000Y-89508000D02*
X195580000Y-89508000D01*
X195580000Y-89508000D02*
X195580000Y-85698000D01*
%TO.C,Conn1*%
X169164000Y-85725000D02*
X171704000Y-85725000D01*
X171704000Y-85725000D02*
X171704000Y-89535000D01*
X171704000Y-89535000D02*
X169164000Y-89535000D01*
X169164000Y-89535000D02*
X169164000Y-85725000D01*
X165989000Y-85725000D02*
X168529000Y-85725000D01*
X168529000Y-85725000D02*
X168529000Y-89535000D01*
X168529000Y-89535000D02*
X165989000Y-89535000D01*
X165989000Y-89535000D02*
X165989000Y-85725000D01*
X162814000Y-85725000D02*
X165354000Y-85725000D01*
X165354000Y-85725000D02*
X165354000Y-89535000D01*
X165354000Y-89535000D02*
X162814000Y-89535000D01*
X162814000Y-89535000D02*
X162814000Y-85725000D01*
X159639000Y-85725000D02*
X162179000Y-85725000D01*
X162179000Y-85725000D02*
X162179000Y-89535000D01*
X162179000Y-89535000D02*
X159639000Y-89535000D01*
X159639000Y-89535000D02*
X159639000Y-85725000D01*
X156464000Y-85725000D02*
X159004000Y-85725000D01*
X159004000Y-85725000D02*
X159004000Y-89535000D01*
X159004000Y-89535000D02*
X156464000Y-89535000D01*
X156464000Y-89535000D02*
X156464000Y-85725000D01*
D11*
%TO.C,C3*%
X180850000Y-91794420D02*
X180850000Y-92075580D01*
X179830000Y-91794420D02*
X179830000Y-92075580D01*
D12*
%TO.C,Conn3*%
X174498000Y-85725000D02*
X177038000Y-85725000D01*
X177038000Y-85725000D02*
X177038000Y-89535000D01*
X177038000Y-89535000D02*
X174498000Y-89535000D01*
X174498000Y-89535000D02*
X174498000Y-85725000D01*
X177673000Y-85725000D02*
X180213000Y-85725000D01*
X180213000Y-85725000D02*
X180213000Y-89535000D01*
X180213000Y-89535000D02*
X177673000Y-89535000D01*
X177673000Y-89535000D02*
X177673000Y-85725000D01*
D11*
%TO.C,C4*%
X201932000Y-91820420D02*
X201932000Y-92101580D01*
X200912000Y-91820420D02*
X200912000Y-92101580D01*
%TD*%
M02*
